<svg xmlns="http://www.w3.org/2000/svg" viewBox="0 0 176.68 200"><defs><style>.cls-1{fill:#e8e8e8;}</style></defs><g id="Camada_2" data-name="Camada 2"><g id="Camada_1-2" data-name="Camada 1"><path class="cls-1" d="M129,200c-3.8-1.72-4.88-4.73-4.87-8.78q.15-57.33.06-114.66c0-5.47,2.37-7.87,7.82-7.87,12,0,24.09.12,36.13-.06,4-.06,6.9,1.14,8.53,4.9V195.15a9.45,9.45,0,0,1-4.85,4.85ZM163.33,82.08H137.61V186.62h25.72Z"/><path class="cls-1" d="M66.93,200c-3.91-1.5-5.26-4.37-5.25-8.51.1-27.66,0-55.32,0-83,0-5.8,2.39-8.18,8.24-8.18h36.14c5.56,0,8,2.46,8,8,0,27.73-.05,55.46,0,83.19,0,4.13-1.34,7-5.25,8.51Zm33.85-13.34v-73H75.06v73Z"/><path class="cls-1" d="M5.28,200C1.36,198.51,0,195.69,0,191.52c.14-19.26.06-38.52.06-57.78,0-4.8,2.53-7.41,7.29-7.42q18.88,0,37.78,0c4.74,0,7.37,2.65,7.37,7.38,0,19.2-.07,38.39.06,57.58,0,4.2-1.29,7.15-5.27,8.72Zm8.14-13.82H39.08V139.54H13.42Z"/><path class="cls-1" d="M141.47,15.92c-.43-3.62-.84-7.18-1.26-10.8a2.15,2.15,0,0,1,1.87-2.38C148.34,2,154.39,1.26,160.44.55A58.8,58.8,0,0,1,166.5,0c3.46,0,6.79,2.48,7.23,5.83,1,7.77,1.85,15.93,2.71,23.78a2.11,2.11,0,0,1-1.79,2.33L163.91,33.6a2.14,2.14,0,0,1-2.44-1.82c-.21-1.61-.43-3.21-.68-5.08C139.73,49.9,115.4,68.21,88.6,83.28A307.42,307.42,0,0,1,5.49,115.49a2.34,2.34,0,0,1-2.8-1.79L.48,103.48a2.32,2.32,0,0,1,1.73-2.75c56.53-13.82,106.63-41.42,147-83.57l-5.35.64A2.14,2.14,0,0,1,141.47,15.92Z"/></g></g></svg>