<svg xmlns="http://www.w3.org/2000/svg" viewBox="0 0 176.71 200"><defs><style>.cls-1{fill:#1d1d1b;}</style></defs><g id="Camada_2" data-name="Camada 2"><g id="Camada_1-2" data-name="Camada 1"><rect class="cls-1" x="67.98" y="92.55" width="12.81" height="44.76" rx="6.4"/><rect class="cls-1" x="122.71" y="60.84" width="12.81" height="76.46" rx="6.4"/><path class="cls-1" d="M45,200c-1.85-.95-3.68-1.91-4.48-4.05-.92-2.51-.29-4.67,1.23-6.77q16.08-22.34,32.11-44.71c.64-.9,1.27-1.81,2.19-3.12H7.15c-4.19,0-7-2.46-7.09-6.16a6.29,6.29,0,0,1,6.26-6.58c2.14-.08,4.28,0,6.55,0V34.41c-2.22,0-4.47.06-6.71,0A6.23,6.23,0,0,1,.25,29.84a6,6,0,0,1,2.64-7,10.09,10.09,0,0,1,4.64-1.05c18.36-.07,36.73,0,55.09,0h2.67c0-.87.1-1.56.1-2.25,0-4.3,0-8.6,0-12.89A6.35,6.35,0,0,1,72.09,0q16.32,0,32.62,0a6.33,6.33,0,0,1,6.65,6.64c.06,4.94,0,9.88,0,15.11h58.29c4.32,0,7.07,2.5,7.05,6.35a6.14,6.14,0,0,1-5.94,6.25c-2.25.09-4.52,0-6.89,0v94.17h5.43c4.59,0,7.43,2.48,7.4,6.44s-2.85,6.32-7.33,6.33H100.72c.75,1.09,1.28,1.88,1.83,2.65l31.67,44.07c4,5.55,3.33,8.67-2.46,11.93H129c-2.29-.84-3.77-2.56-5.16-4.5q-17-23.81-34.15-47.54c-.4-.56-.83-1.09-1.34-1.76-.55.73-1,1.23-1.32,1.75Q69.92,171.8,52.82,195.67A10.84,10.84,0,0,1,47.75,200ZM150.92,34.59h-125v93.84h14.9v-2.22c0-3.45-.09-6.9,0-10.35.17-4.73,4.52-7.68,8.71-6a6.32,6.32,0,0,1,4,6.11c0,4.15,0,8.29,0,12.5H95.77v-2.22c0-6.64,0-13.28,0-19.92a6.15,6.15,0,0,1,6.48-6.31c3.67.06,6.2,2.75,6.23,6.82.07,6.44,0,12.89,0,19.33,0,.76.07,1.51.1,2.26h42.29Zm-72.64-13H98.49V12.88H78.28Z"/><path class="cls-1" d="M51.79,43.71c3.38,0,6.76,0,10.14,0,3.73,0,6.44,2.58,6.53,6.07a6.14,6.14,0,0,1-6.24,6.54c-7,.11-13.92.14-20.87,0A6.29,6.29,0,0,1,35,49.88a6.39,6.39,0,0,1,6.67-6.19c3.38,0,6.77,0,10.15,0Z"/><path class="cls-1" d="M47.39,65.6c2,0,4,0,6,0a6.36,6.36,0,0,1,6.33,5.93,6.09,6.09,0,0,1-5.51,6.64,111.48,111.48,0,0,1-13.8,0A6.09,6.09,0,0,1,35,71.5a6.37,6.37,0,0,1,6.36-5.89C43.37,65.57,45.38,65.6,47.39,65.6Z"/></g></g></svg>