<svg xmlns="http://www.w3.org/2000/svg" viewBox="0 0 190.66 200"><defs><style>.cls-1{fill:#1d1d1b;}</style></defs><g id="Camada_2" data-name="Camada 2"><g id="Camada_1-2" data-name="Camada 1"><rect class="cls-1" x="88.39" width="13.83" height="18.4" rx="2.24"/><path class="cls-1" d="M144.51,129.35l-9.25-7.06a2.23,2.23,0,0,1-.5-3h0C155.06,89.83,137.4,49.49,102,44.4a48,48,0,0,0-45.58,75.7c3.72,5.19,7,10.73,10.41,16.12l.06.1a2.22,2.22,0,0,1-1,3.15l-8.68,4.14a2.23,2.23,0,0,1-3-1c-4.83-9.82-12.73-17.57-16.76-27.77C23,78.11,46.42,36.72,85.33,30.66a62.35,62.35,0,0,1,71.6,53.8c2,15.87-1.87,30.42-11.08,43.52-.25.35-.53.68-.81,1A3.61,3.61,0,0,1,144.51,129.35Z"/><rect class="cls-1" x="71.32" y="162.83" width="48.4" height="13.84" rx="2.24"/><rect class="cls-1" x="71.32" y="186.16" width="48.4" height="13.84" rx="2.24"/><rect class="cls-1" y="84.37" width="21.06" height="13.66" rx="2.24"/><rect class="cls-1" x="169.58" y="84.31" width="21.08" height="13.73" rx="2.24"/><path class="cls-1" d="M158.39,21.8l6.32,6.32a2.23,2.23,0,0,1,0,3.16l-10.21,10.2a2.22,2.22,0,0,1-3.15,0L145,35.16A2.23,2.23,0,0,1,145,32l10.21-10.2A2.23,2.23,0,0,1,158.39,21.8Z"/><path class="cls-1" d="M36.33,41.72,25.89,31.29a2.23,2.23,0,0,1,0-3.16l6.33-6.3a2.23,2.23,0,0,1,3.16,0L45.8,32.26a2.21,2.21,0,0,1,0,3.15l-6.3,6.32A2.24,2.24,0,0,1,36.33,41.72Z"/><path class="cls-1" d="M132.35,146l-8.78-3.87a2.24,2.24,0,0,1-1.08-3.1l3.94-7.42a2.25,2.25,0,0,1,3.15-.86l8.16,5a2.24,2.24,0,0,1,.8,2.95L135.23,145A2.23,2.23,0,0,1,132.35,146Z"/><path class="cls-1" d="M95.3,59.13a32,32,0,1,0,32.05,32.05A32,32,0,0,0,95.3,59.13Zm18.5,26.8L91.36,103.64a5,5,0,0,1-3.14,1.09,5.07,5.07,0,0,1-3.74-1.63l-7.85-8.53a1.57,1.57,0,0,1,.09-2.22l5.15-4.75a1.58,1.58,0,0,1,2.23.09l3.67,4a1.58,1.58,0,0,0,2.14.17L107.5,78a1.59,1.59,0,0,1,2.22.26l4.34,5.51A1.57,1.57,0,0,1,113.8,85.93Z"/></g></g></svg>