<svg xmlns="http://www.w3.org/2000/svg" viewBox="0 0 176.13 200"><defs><style>.cls-1{fill:#e8e8e8;}</style></defs><g id="Camada_2" data-name="Camada 2"><g id="Camada_1-2" data-name="Camada 1"><path class="cls-1" d="M157.11,54.74a18.61,18.61,0,0,1-6.59,25.48c-8.85,5.21-11.81-3-17-11.81s-10.72-15-1.86-20.26A18.61,18.61,0,0,1,157.11,54.74Z"/><path class="cls-1" d="M101.26,200A43.37,43.37,0,0,1,96,195.44Q76.93,172.76,58,149.9a4.32,4.32,0,0,0-4.36-1.73c-2.93.24-6-.69-9-1a6.53,6.53,0,0,0-3.51.22c-4.61,2.49-9.09,5.22-13.64,7.83-4.8,2.75-8.28,1.85-11-2.88q-7.53-13-15-26.15c-2.76-4.82-1.86-8.21,2.88-11,4.59-2.7,9.25-5.3,13.79-8.08a4,4,0,0,0,1.71-2.52A15.89,15.89,0,0,1,28.1,92.2c27.13-16,46.65-38.69,59.39-67.32C90.21,18.76,92.3,12.33,94.42,6c1.06-3.22,2.72-5.5,6.19-5.91s5.68,1.47,7.34,4.4q10.17,17.9,20.5,35.7C135.28,52,142.26,63.65,149,75.48c8.61,15,17,30.1,25.63,45.12,1.67,2.93,2.18,5.69.08,8.54s-5,3.17-8.21,2.39a155.6,155.6,0,0,0-37.15-4.35,129.81,129.81,0,0,0-30.16,3.44c-.4.1-.78.24-1.55.48.74,1,1.28,1.7,1.86,2.4Q116,153.26,132.46,173c4,4.77,3.2,9-2.17,12.09-8.61,5-17.25,9.93-25.88,14.89ZM85.73,57c-.46.37-.71.48-.84.68a157.89,157.89,0,0,1-49.8,46.2c-1.72,1-1.42,2-.61,3.41q7.19,12.35,14.28,24.75c1.84,3.2,1.84,3.19,5.06,1.4A151.05,151.05,0,0,1,97.8,117c6.66-1.35,13.41-2.27,20.44-3.44C107.44,94.78,96.65,76,85.73,57Zm70,58.12q-26.31-45.81-52.56-91.53c-3.13,6.57-6.13,12.77-9,19A3.13,3.13,0,0,0,94.59,45q19.26,33.51,38.62,67a3,3,0,0,0,1.89,1.44C141.86,114.07,148.64,114.58,155.73,115.15ZM68.43,141.1l36,43.2,13.18-7.66c-1.15-1.4-2.12-2.62-3.12-3.82Q99.57,154.88,84.59,137c-.58-.69-2-1.46-2.63-1.22C77.54,137.34,73.21,139.18,68.43,141.1Zm-42.87-.5,9.22-5.36-9.41-16.38-9.22,5.36C19.29,129.67,22.32,135,25.56,140.6Z"/></g></g></svg>