<svg xmlns="http://www.w3.org/2000/svg" viewBox="0 0 254.6 254.49"><defs><style>.cls-1{fill:#fff;}</style></defs><g id="Camada_2" data-name="Camada 2"><g id="Camada_1-2" data-name="Camada 1"><path class="cls-1" d="M254,225.24l-76.54-78.52a2.28,2.28,0,0,1-.31-2.8,57.58,57.58,0,0,0,3.42-5.92c14.12-30.44,13.94-60.88-2.4-90.18C151.54.16,90.85-14.2,44,15.33c-56.87,35.86-59.15,117.81-3.77,155.86,32.7,22.47,67.26,22.58,102.12,4.37,2.3-1.2,3.51-1.14,5.37.73q38.45,38.64,77.05,77.13c.14.15.29.29.43.43a2.3,2.3,0,0,0,3.21,0l25.5-25.36A2.29,2.29,0,0,0,254,225.24ZM95.46,162.74A68.45,68.45,0,1,1,163.91,94.3,68.44,68.44,0,0,1,95.46,162.74Z"/></g></g></svg>