<svg xmlns="http://www.w3.org/2000/svg" viewBox="0 0 238.3 254.87"><defs><style>.cls-1{fill:#fff;}</style></defs><g id="Camada_2" data-name="Camada 2"><g id="Camada_1-2" data-name="Camada 1"><path class="cls-1" d="M136.41,0c4.58,1,9,2.48,12.46,5.81,6.51,6.2,9,13.73,6.64,22.44-2.5,9.21-8.7,14.85-18.14,16.33-10.11,1.58-18.65-3-23.45-11.9-4.3-8-3-18,3.44-25.29A21.56,21.56,0,0,1,129.75.45c.56-.11,1.1-.3,1.65-.45Z"/><path class="cls-1" d="M162.62,166.07h-57a1.52,1.52,0,0,0-1.53,1.53v12a1.53,1.53,0,0,0,1.53,1.53h1c19.59,0,39.17,0,58.76,0a4.24,4.24,0,0,0,3.87-2q22-29.44,44.07-58.8l.81-1.06a1.53,1.53,0,0,1,2.13-.29l21.51,16.14a1.53,1.53,0,0,1,.35,2.07c-.2.31-.4.6-.61.88q-26.69,35.6-53.35,71.22a4.06,4.06,0,0,1-3.69,1.84c-28.51,0-57,0-85.52-.1-3,0-5.35.48-7.1,3l-.07.09a1.53,1.53,0,0,1-2.31.17L45.11,174a1.52,1.52,0,0,1,0-2.15h0Q62,154.88,79,138a7.32,7.32,0,0,1,4.46-1.84q28.44-.13,56.89,0c11.35,0,20,6.28,22.68,17,.9,3.56.85,7.37,1.1,11.37A1.53,1.53,0,0,1,162.62,166.07Z"/><path class="cls-1" d="M90.43,120.9a1.53,1.53,0,0,1-1.52-1.55c.08-10-.67-19.89,2.93-29.5C98.42,72.3,115.65,60,134.05,60s35.5,12.32,41.89,29.87a48.57,48.57,0,0,1,3,16.87c0,4.15,0,8.31,0,12.58a1.54,1.54,0,0,1-1.53,1.54Z"/><path class="cls-1" d="M82,236,63.51,254.43a1.52,1.52,0,0,1-2.15,0C41.18,234.25,20.78,213.84.45,193.51a1.52,1.52,0,0,1,0-2.16L19,173a1.53,1.53,0,0,1,2.16,0L82,233.86A1.53,1.53,0,0,1,82,236Z"/></g></g></svg>