<svg xmlns="http://www.w3.org/2000/svg" viewBox="0 0 255.51 255.02"><defs><style>.cls-1{fill:#fff;}</style></defs><g id="Camada_2" data-name="Camada 2"><g id="Camada_1-2" data-name="Camada 1"><rect class="cls-1" x="223.4" y="116.38" width="32.1" height="138.64" rx="1.8"/><path class="cls-1" d="M166,12.08C129.07-11.19,81.23.12,60.28,37.69c-12.88,23.1-13,47.09-1.89,71.08a45,45,0,0,0,2.69,4.67,1.8,1.8,0,0,1-.24,2.21L.51,177.54a1.81,1.81,0,0,0,0,2.54c6.7,6.66,13.33,13.24,20.1,20a1.8,1.8,0,0,0,2.53,0l.34-.33Q53.89,169.38,84.23,139c1.47-1.47,2.42-1.52,4.24-.57,27.47,14.35,54.71,14.26,80.49-3.45C212.61,104.94,210.81,40.35,166,12.08ZM125.31,127.61A53.64,53.64,0,1,1,178.94,74,53.64,53.64,0,0,1,125.31,127.61Z"/><rect class="cls-1" x="158.87" y="164.73" width="31.88" height="90.06" rx="1.8"/><rect class="cls-1" x="94.35" y="213.14" width="31.96" height="41.65" rx="1.8"/></g></g></svg>