<svg xmlns="http://www.w3.org/2000/svg" viewBox="0 0 255.07 255.49"><defs><style>.cls-1{fill:#fff;}</style></defs><g id="Camada_2" data-name="Camada 2"><g id="Camada_1-2" data-name="Camada 1"><path class="cls-1" d="M16.58,232.33h-15A1.55,1.55,0,0,1,0,230.78V161.29a1.56,1.56,0,0,1,1.56-1.56H71.09a1.56,1.56,0,0,1,1.56,1.56V176a1.56,1.56,0,0,1-1.56,1.56H43.24a1.56,1.56,0,0,0-1.3,2.42c8.93,13.84,19.85,25,33.69,33.38a98.14,98.14,0,0,0,47.7,14.42c25.28.92,48-6.51,67.6-22.53,19.24-15.69,30.81-36,35.49-60.5a1.55,1.55,0,0,1,1.76-1.26l24,3.68a1.57,1.57,0,0,1,1.3,1.85C245,191.65,222,223.29,182.9,242.53c-29.19,14.37-59.89,16.59-91.2,7.64-29.58-8.46-52.39-26.18-70-50.77-1.79-2.09-3.38-1.74-3.53,1.14v30.24A1.55,1.55,0,0,1,16.58,232.33Z"/><path class="cls-1" d="M26.91,111.7,2.81,108a1.58,1.58,0,0,1-1.3-1.86c9.38-44.93,34.23-77.15,76.21-96l.12,0C142-13.27,193.14,4.75,234.16,56.11a1.56,1.56,0,0,0,2.78-1V24.49a1.55,1.55,0,0,1,1.55-1.56h15a1.56,1.56,0,0,1,1.56,1.56V93.94a1.56,1.56,0,0,1-1.56,1.56H184a1.56,1.56,0,0,1-1.56-1.56V79A1.56,1.56,0,0,1,184,77.45h27.64A1.56,1.56,0,0,0,213,75.06a100.19,100.19,0,0,0-91.12-47.57A97.79,97.79,0,0,0,60.29,53.23c-17,15.37-27.35,34.47-31.62,57.21A1.56,1.56,0,0,1,26.91,111.7Z"/></g></g></svg>