<?xml version="1.0" encoding="utf-8"?>
<!-- Generator: Adobe Illustrator 25.4.1, SVG Export Plug-In . SVG Version: 6.00 Build 0)  -->
<svg version="1.1" id="Camada_1" xmlns="http://www.w3.org/2000/svg" xmlns:xlink="http://www.w3.org/1999/xlink" x="0px" y="0px"
	 viewBox="0 0 1080 1080" style="enable-background:new 0 0 1080 1080;" xml:space="preserve">
<style type="text/css">
	.st0{display:none;stroke:#353535;stroke-miterlimit:10;}
	.st1{fill:#4285F4;}
	.st2{fill:#34A853;}
	.st3{fill:#FBBC04;}
</style>
<path class="st0" d="M300.3,775.5L300.3,775.5c-46.1-26.6-61.9-85.6-35.3-131.7l191.1-331c26.6-46.1,85.6-61.9,131.7-35.3l0,0
	c46.1,26.6,61.9,85.6,35.3,131.7L432,740.2C405.4,786.3,346.4,802.1,300.3,775.5z"/>
<path class="st1" d="M989.6,992.7L989.6,992.7c-86.4,49.9-196.9,20.3-246.8-66.1L384.7,306.3c-49.9-86.4-20.3-196.9,66.1-246.8l0,0
	c86.4-49.9,196.9-20.3,246.8,66.1l358.1,620.3C1105.7,832.3,1076,942.8,989.6,992.7z"/>
<circle class="st2" cx="179.9" cy="838" r="180.6"/>
<path class="st3" d="M336,334.4c-14.2-24.6-23.7-51-28.4-78.1l-207,358.5c25.1-8.9,51.8-13.5,79.2-13.5
	c63.3,0,122.7,24.6,167.4,69.4c34.7,34.7,57.3,78.4,65.7,125.8L507.9,632L336,334.4z"/>
<image style="display:none;overflow:visible;opacity:0.5;" width="1200" height="1200" xlink:href="../Downloads/unnamed.jpg"  transform="matrix(1 0 0 1 -60 -60)">
</image>
</svg>
