<svg width="252" height="243" viewBox="0 0 252 243" fill="none" xmlns="http://www.w3.org/2000/svg">
<g clip-path="url(#clip0_497_340)">
<path d="M101.298 176.372C102.271 176.372 103.223 176.084 104.033 175.544C104.843 175.005 105.474 174.238 105.846 173.341C106.218 172.444 106.316 171.457 106.125 170.505C105.935 169.552 105.465 168.678 104.776 167.992C104.087 167.306 103.209 166.839 102.254 166.65C101.299 166.462 100.309 166.56 99.4092 166.932C98.5098 167.305 97.7415 167.935 97.2014 168.743C96.6613 169.551 96.3737 170.5 96.375 171.471C96.375 172.115 96.5024 172.753 96.7498 173.348C96.9973 173.943 97.36 174.484 97.8172 174.939C98.2744 175.394 98.8171 175.755 99.4143 176.001C100.011 176.247 100.651 176.373 101.298 176.372Z" fill="#FCA628"/>
<path d="M103.779 38.2149C103.779 37.2445 103.49 36.296 102.95 35.4891C102.409 34.6822 101.641 34.0532 100.741 33.6816C99.8424 33.3099 98.853 33.2124 97.8983 33.4012C96.9436 33.59 96.0664 34.0567 95.3777 34.7424C94.689 35.4281 94.2197 36.3019 94.029 37.2534C93.8383 38.2049 93.9348 39.1915 94.3064 40.0883C94.678 40.9851 95.3079 41.752 96.1165 42.2921C96.9252 42.8321 97.8762 43.121 98.8495 43.1223C99.4965 43.1232 100.137 42.9969 100.735 42.7507C101.333 42.5044 101.877 42.1431 102.335 41.6873C102.792 41.2315 103.156 40.6902 103.403 40.0944C103.651 39.4986 103.779 38.8599 103.779 38.2149Z" fill="#FCA628"/>
<path d="M102.512 243C103.485 243.001 104.438 242.715 105.248 242.176C106.059 241.638 106.691 240.872 107.064 239.975C107.438 239.079 107.536 238.092 107.347 237.139C107.158 236.187 106.69 235.312 106.001 234.625C105.313 233.938 104.436 233.47 103.481 233.28C102.526 233.09 101.536 233.187 100.636 233.558C99.7361 233.929 98.9669 234.558 98.4257 235.365C97.8845 236.173 97.5957 237.122 97.5957 238.093C97.5957 239.393 98.1134 240.64 99.0351 241.56C99.9568 242.48 101.207 242.998 102.512 243Z" fill="#FCA628"/>
<path d="M77.5192 73.4178C78.5644 70.9158 77.3772 68.0428 74.8674 67.0008C72.3577 65.9588 69.4759 67.1423 68.4307 69.6444C67.3855 72.1464 68.5727 75.0194 71.0824 76.0614C73.5921 77.1034 76.474 75.9198 77.5192 73.4178Z" fill="#FCA628"/>
<path d="M75.4109 209.659C76.3848 209.661 77.3372 209.374 78.1476 208.836C78.958 208.297 79.5899 207.531 79.9635 206.635C80.3371 205.738 80.4355 204.751 80.2464 203.799C80.0572 202.846 79.5889 201.971 78.9007 201.284C78.2125 200.597 77.3354 200.129 76.3804 199.939C75.4253 199.749 74.4352 199.846 73.5353 200.217C72.6354 200.589 71.8663 201.218 71.3251 202.025C70.7839 202.832 70.495 203.781 70.495 204.752C70.495 206.052 71.0127 207.3 71.9344 208.22C72.8562 209.14 74.1065 209.658 75.4109 209.659Z" fill="#FCA628"/>
<path d="M118.089 4.90749C118.089 5.8781 118.377 6.82691 118.918 7.63395C119.459 8.44098 120.228 9.06998 121.128 9.44142C122.027 9.81286 123.017 9.91004 123.972 9.72069C124.927 9.53133 125.804 9.06394 126.492 8.37761C127.181 7.69129 127.649 6.81686 127.839 5.8649C128.029 4.91294 127.932 3.9262 127.559 3.02948C127.187 2.13275 126.556 1.36631 125.746 0.827065C124.937 0.287824 123.985 4.46924e-06 123.011 4.46924e-06C122.365 -0.000866167 121.724 0.125476 121.126 0.371792C120.529 0.618107 119.986 0.979557 119.529 1.43543C119.071 1.89131 118.709 2.43265 118.462 3.02845C118.215 3.62425 118.088 4.26279 118.089 4.90749Z" fill="#FCA628"/>
<path d="M74.1969 143.058C75.1707 143.058 76.1227 142.77 76.9324 142.23C77.7421 141.691 78.373 140.924 78.7454 140.027C79.1178 139.13 79.2148 138.143 79.0244 137.191C78.8339 136.238 78.3644 135.364 77.6753 134.678C76.9862 133.992 76.1085 133.525 75.1531 133.336C74.1978 133.148 73.2079 133.246 72.3085 133.618C71.4091 133.991 70.6408 134.621 70.1007 135.429C69.5606 136.237 69.273 137.186 69.2743 138.157C69.2743 138.801 69.4017 139.439 69.6491 140.034C69.8966 140.629 70.2593 141.17 70.7165 141.625C71.1737 142.08 71.7164 142.441 72.3136 142.687C72.9108 142.933 73.5507 143.059 74.1969 143.058Z" fill="#FCA628"/>
<path d="M100.873 109.676C103.557 109.243 105.38 106.722 104.945 104.047C104.511 101.372 101.983 99.5539 99.2991 99.9872C96.6154 100.421 94.7922 102.941 95.2268 105.616C95.6615 108.292 98.1894 110.109 100.873 109.676Z" fill="#FCA628"/>
<path d="M152.126 109.674C154.81 109.241 156.633 106.721 156.199 104.045C155.764 101.37 153.236 99.5523 150.552 99.9856C147.869 100.419 146.045 102.939 146.48 105.615C146.915 108.29 149.443 110.108 152.126 109.674Z" fill="#FCA628"/>
<path d="M129.155 71.5289C129.155 70.5583 128.866 69.6095 128.325 68.8025C127.784 67.9955 127.015 67.3665 126.116 66.995C125.216 66.6236 124.227 66.5264 123.272 66.7158C122.317 66.9051 121.44 67.3725 120.751 68.0588C120.063 68.7452 119.594 69.6196 119.404 70.5715C119.214 71.5235 119.312 72.5102 119.684 73.407C120.057 74.3037 120.688 75.0701 121.497 75.6094C122.307 76.1486 123.258 76.4364 124.232 76.4364C125.538 76.4364 126.79 75.9194 127.713 74.9991C128.636 74.0787 129.155 72.8305 129.155 71.5289Z" fill="#FCA628"/>
<path d="M227.964 133.25C226.99 133.248 226.038 133.535 225.228 134.073C224.417 134.612 223.785 135.378 223.412 136.274C223.038 137.171 222.94 138.158 223.129 139.11C223.318 140.063 223.786 140.938 224.475 141.625C225.163 142.312 226.04 142.78 226.995 142.97C227.95 143.16 228.94 143.063 229.84 142.692C230.74 142.32 231.509 141.691 232.05 140.884C232.591 140.077 232.88 139.128 232.88 138.157C232.88 136.857 232.363 135.609 231.441 134.689C230.519 133.769 229.269 133.251 227.964 133.25Z" fill="#FCA628"/>
<path d="M248.119 104.896C248.118 106.023 248.507 107.116 249.22 107.99C249.933 108.865 250.926 109.468 252.033 109.698C251.799 106.585 251.429 103.516 250.925 100.491C250.088 100.886 249.38 101.509 248.883 102.289C248.386 103.068 248.122 103.972 248.119 104.896Z" fill="#FCA628"/>
<path d="M226.744 76.4364C227.717 76.4377 228.67 76.151 229.48 75.6126C230.291 75.0741 230.923 74.3082 231.296 73.4115C231.67 72.5149 231.768 71.528 231.579 70.5756C231.39 69.6232 230.922 68.7482 230.233 68.0612C229.545 67.3742 228.668 66.9061 227.713 66.7162C226.758 66.5264 225.768 66.6231 224.868 66.9944C223.968 67.3656 223.199 67.9946 222.658 68.8018C222.117 69.609 221.828 70.5581 221.828 71.5289C221.828 72.8293 222.345 74.0766 223.267 74.9967C224.189 75.9169 225.439 76.4347 226.744 76.4364Z" fill="#FCA628"/>
<path d="M125.453 143.058C126.427 143.058 127.379 142.77 128.188 142.23C128.998 141.691 129.629 140.924 130.001 140.027C130.374 139.13 130.471 138.143 130.28 137.191C130.09 136.238 129.62 135.364 128.931 134.678C128.242 133.992 127.364 133.525 126.409 133.336C125.454 133.148 124.464 133.246 123.564 133.618C122.665 133.991 121.897 134.621 121.356 135.429C120.816 136.237 120.529 137.186 120.53 138.157C120.53 138.801 120.657 139.439 120.905 140.034C121.152 140.629 121.515 141.17 121.972 141.625C122.429 142.08 122.972 142.441 123.569 142.687C124.167 142.933 124.807 143.059 125.453 143.058Z" fill="#FCA628"/>
<path d="M152.587 176.372C153.56 176.372 154.512 176.084 155.322 175.544C156.132 175.005 156.763 174.238 157.135 173.341C157.507 172.444 157.605 171.457 157.414 170.505C157.224 169.552 156.754 168.678 156.065 167.992C155.376 167.306 154.498 166.839 153.543 166.65C152.588 166.462 151.598 166.56 150.698 166.932C149.799 167.305 149.03 167.935 148.49 168.743C147.95 169.551 147.663 170.5 147.664 171.471C147.664 172.115 147.791 172.753 148.039 173.348C148.286 173.943 148.649 174.484 149.106 174.939C149.563 175.394 150.106 175.755 150.703 176.001C151.3 176.247 151.94 176.373 152.587 176.372Z" fill="#FCA628"/>
<path d="M155.035 38.2149C155.035 37.2443 154.746 36.2954 154.205 35.4884C153.664 34.6814 152.895 34.0524 151.996 33.6809C151.096 33.3095 150.107 33.2123 149.152 33.4017C148.197 33.591 147.32 34.0584 146.631 34.7447C145.943 35.4311 145.474 36.3055 145.284 37.2575C145.094 38.2094 145.192 39.1961 145.564 40.0929C145.937 40.9896 146.568 41.756 147.377 42.2953C148.187 42.8345 149.138 43.1223 150.112 43.1223C151.418 43.1223 152.67 42.6053 153.593 41.685C154.516 40.7646 155.035 39.5164 155.035 38.2149Z" fill="#FCA628"/>
<path d="M71.8882 10.3242C73.192 10.3242 74.4423 9.80789 75.3643 8.8888C76.2862 7.96971 76.8041 6.72315 76.8041 5.42336C76.799 5.00071 76.7388 4.58051 76.625 4.17334C73.6396 5.39911 70.7272 6.76157 67.8877 8.26071C68.3413 8.89759 68.9411 9.41716 69.6369 9.7761C70.3328 10.1351 71.1047 10.323 71.8882 10.3242Z" fill="#FCA628"/>
<path d="M203.809 166.564C202.835 166.562 201.883 166.849 201.073 167.387C200.262 167.926 199.63 168.692 199.257 169.588C198.883 170.485 198.785 171.472 198.974 172.424C199.163 173.377 199.631 174.252 200.319 174.939C201.008 175.626 201.885 176.094 202.84 176.284C203.795 176.474 204.785 176.377 205.685 176.006C206.585 175.634 207.354 175.005 207.895 174.198C208.436 173.391 208.725 172.442 208.725 171.471C208.725 170.171 208.207 168.923 207.286 168.003C206.364 167.083 205.114 166.565 203.809 166.564Z" fill="#FCA628"/>
<path d="M169.338 5.20514C169.343 6.42367 169.803 7.59658 170.629 8.49503C171.455 9.39349 172.587 9.95305 173.804 10.0646C175.021 10.1761 176.236 9.83155 177.212 9.09817C178.189 8.3648 178.856 7.29519 179.084 6.09801C176.204 4.72673 173.25 3.49655 170.22 2.40747C169.646 3.22819 169.338 4.20459 169.338 5.20514Z" fill="#FCA628"/>
<path d="M197.699 104.843C197.699 105.814 197.988 106.762 198.529 107.569C199.07 108.377 199.838 109.006 200.738 109.377C201.637 109.748 202.627 109.846 203.582 109.656C204.537 109.467 205.414 108.999 206.102 108.313C206.791 107.627 207.26 106.752 207.45 105.8C207.64 104.848 207.542 103.862 207.17 102.965C206.797 102.068 206.166 101.302 205.356 100.763C204.547 100.223 203.595 99.9355 202.622 99.9355C201.316 99.9355 200.064 100.453 199.141 101.373C198.218 102.293 197.699 103.541 197.699 104.843Z" fill="#FCA628"/>
<path d="M22.9411 133.25C21.9675 133.25 21.0157 133.537 20.2062 134.077C19.3967 134.616 18.7658 135.382 18.3932 136.279C18.0206 137.176 17.9231 138.162 18.1131 139.114C18.303 140.066 18.7718 140.941 19.4603 141.627C20.1487 142.313 21.0258 142.781 21.9807 142.97C22.9356 143.16 23.9254 143.062 24.8248 142.691C25.7243 142.319 26.4931 141.69 27.034 140.883C27.5749 140.076 27.8636 139.128 27.8636 138.157C27.8636 136.855 27.345 135.607 26.4218 134.687C25.4987 133.767 24.2466 133.25 22.9411 133.25Z" fill="#FCA628"/>
<path d="M50.0351 176.372C51.009 176.372 51.961 176.084 52.7706 175.544C53.5803 175.005 54.2112 174.238 54.5836 173.341C54.956 172.444 55.0531 171.457 54.8626 170.505C54.6721 169.552 54.2026 168.678 53.5135 167.992C52.8244 167.306 51.9467 166.839 50.9914 166.65C50.0361 166.462 49.0461 166.56 48.1467 166.932C47.2474 167.305 46.479 167.935 45.9389 168.743C45.3988 169.551 45.1112 170.5 45.1125 171.471C45.1143 172.771 45.6337 174.018 46.5567 174.937C47.4796 175.856 48.7307 176.372 50.0351 176.372Z" fill="#FCA628"/>
<path d="M201.368 33.314C200.395 33.3205 199.447 33.6141 198.641 34.1576C197.836 34.701 197.21 35.4701 196.843 36.3678C196.476 37.2655 196.383 38.2515 196.578 39.2014C196.772 40.1514 197.244 41.0227 197.934 41.7055C198.625 42.3882 199.502 42.8518 200.457 43.0378C201.411 43.2237 202.399 43.1237 203.297 42.7503C204.194 42.3769 204.961 41.7468 205.499 40.9397C206.038 40.1325 206.325 39.1844 206.324 38.2149C206.324 37.5679 206.195 36.9274 205.946 36.3302C205.696 35.733 205.33 35.1909 204.87 34.7353C204.409 34.2797 203.862 33.9196 203.261 33.6756C202.66 33.4317 202.017 33.3088 201.368 33.314Z" fill="#FCA628"/>
<path d="M21.7204 76.4364C22.694 76.4364 23.6457 76.1486 24.4552 75.6094C25.2647 75.0701 25.8957 74.3037 26.2682 73.407C26.6408 72.5102 26.7383 71.5235 26.5484 70.5715C26.3584 69.6196 25.8896 68.7452 25.2012 68.0588C24.5127 67.3725 23.6356 66.9051 22.6807 66.7158C21.7258 66.5264 20.7361 66.6236 19.8366 66.995C18.9371 67.3665 18.1683 67.9955 17.6274 68.8025C17.0865 69.6095 16.7978 70.5583 16.7978 71.5289C16.7978 72.8305 17.3164 74.0787 18.2396 74.9991C19.1627 75.9194 20.4148 76.4364 21.7204 76.4364Z" fill="#FCA628"/>
<path d="M3.39008 104.909C3.38811 104.074 3.17188 103.254 2.76197 102.525C2.35207 101.797 1.7621 101.186 1.0482 100.749C0.570541 103.641 0.22114 106.576 0 109.552C0.983678 109.233 1.8411 108.612 2.44989 107.778C3.05868 106.945 3.38773 105.94 3.39008 104.909Z" fill="#FCA628"/>
<path d="M178.967 74.9989C180.889 73.0824 180.889 69.9752 178.967 68.0587C177.045 66.1422 173.928 66.1422 172.005 68.0587C170.083 69.9752 170.083 73.0824 172.005 74.9989C173.928 76.9154 177.045 76.9154 178.967 74.9989Z" fill="#FCA628"/>
<path d="M47.6004 43.1223C48.5742 43.1236 49.5266 42.8369 50.337 42.2985C51.1474 41.7601 51.7794 40.9941 52.153 40.0975C52.5266 39.2008 52.625 38.2139 52.4358 37.2615C52.2466 36.3091 51.7783 35.4341 51.0901 34.7471C50.402 34.0601 49.5249 33.592 48.5698 33.4022C47.6147 33.2123 46.6246 33.3091 45.7247 33.6803C44.8249 34.0515 44.0557 34.6805 43.5145 35.4877C42.9733 36.2949 42.6844 37.244 42.6844 38.2149C42.6844 39.5153 43.2021 40.7625 44.1239 41.6826C45.0456 42.6028 46.296 43.1206 47.6004 43.1223Z" fill="#FCA628"/>
<path d="M48.8211 109.751C51.5397 109.751 53.7436 107.553 53.7436 104.843C53.7436 102.133 51.5397 99.9355 48.8211 99.9355C46.1024 99.9355 43.8985 102.133 43.8985 104.843C43.8985 107.553 46.1024 109.751 48.8211 109.751Z" fill="#FCA628"/>
<path d="M131.589 204.778C131.589 203.808 131.301 202.859 130.76 202.052C130.219 201.245 129.45 200.616 128.551 200.245C127.651 199.873 126.661 199.776 125.706 199.965C124.751 200.155 123.874 200.622 123.186 201.308C122.498 201.995 122.029 202.869 121.839 203.821C121.649 204.773 121.746 205.76 122.119 206.656C122.491 207.553 123.122 208.32 123.932 208.859C124.741 209.398 125.693 209.686 126.667 209.686C127.972 209.686 129.224 209.169 130.148 208.249C131.071 207.328 131.589 206.08 131.589 204.778Z" fill="#FCA628"/>
<path d="M158.69 238.099C158.695 237.18 158.44 236.278 157.956 235.495C157.471 234.713 156.776 234.082 155.949 233.675C155.123 233.267 154.198 233.099 153.28 233.19C152.363 233.281 151.489 233.628 150.759 234.19C150.029 234.751 149.472 235.506 149.152 236.369C148.831 237.231 148.76 238.165 148.946 239.065C149.133 239.966 149.569 240.796 150.206 241.461C150.842 242.126 151.653 242.6 152.547 242.828C154.026 242.517 155.492 242.167 156.945 241.81C157.49 241.356 157.929 240.788 158.23 240.147C158.532 239.506 158.689 238.807 158.69 238.099Z" fill="#FCA628"/>
<path d="M173.007 204.778C173.005 205.75 173.293 206.699 173.833 207.507C174.374 208.315 175.143 208.945 176.042 209.318C176.942 209.69 177.932 209.788 178.888 209.599C179.843 209.409 180.721 208.942 181.41 208.255C182.099 207.568 182.568 206.693 182.757 205.741C182.947 204.788 182.849 203.801 182.476 202.904C182.102 202.007 181.47 201.241 180.66 200.702C179.849 200.163 178.897 199.876 177.923 199.878C176.619 199.879 175.37 200.396 174.448 201.315C173.527 202.234 173.008 203.479 173.007 204.778Z" fill="#FCA628"/>
<path d="M176.708 133.25C175.735 133.248 174.782 133.535 173.972 134.073C173.161 134.612 172.53 135.378 172.156 136.274C171.782 137.171 171.684 138.158 171.873 139.11C172.062 140.063 172.531 140.938 173.219 141.625C173.907 142.312 174.784 142.78 175.739 142.97C176.694 143.16 177.684 143.063 178.584 142.692C179.484 142.32 180.253 141.691 180.794 140.884C181.336 140.077 181.624 139.128 181.624 138.157C181.624 136.857 181.107 135.609 180.185 134.689C179.263 133.769 178.013 133.251 176.708 133.25Z" fill="#FCA628"/>
</g>
<defs>
<clipPath id="clip0_497_340">
<rect width="252" height="243" fill="white"/>
</clipPath>
</defs>
</svg>
