<svg width="44" height="207" viewBox="0 0 44 207" fill="none" xmlns="http://www.w3.org/2000/svg">
<g clip-path="url(#clip0_497_375)">
<path d="M11.62 5.81C11.62 6.95911 11.2793 8.08241 10.6408 9.03786C10.0024 9.99331 9.09503 10.738 8.03339 11.1777C6.97176 11.6175 5.80356 11.7325 4.67653 11.5084C3.5495 11.2842 2.51426 10.7308 1.70171 9.91829C0.889169 9.10575 0.33582 8.0705 0.11164 6.94347C-0.11254 5.81645 0.00251737 4.64825 0.442263 3.58661C0.882008 2.52497 1.62669 1.61757 2.58214 0.979162C3.53759 0.340751 4.66089 0 5.81 0C7.35091 0 8.82871 0.612123 9.91829 1.70171C11.0079 2.7913 11.62 4.26909 11.62 5.81Z" fill="#F44A22"/>
<path d="M11.62 38.21C11.62 39.3591 11.2793 40.4824 10.6408 41.4379C10.0024 42.3933 9.09503 43.138 8.03339 43.5778C6.97176 44.0175 5.80356 44.1326 4.67653 43.9084C3.5495 43.6842 2.51426 43.1309 1.70171 42.3183C0.889169 41.5058 0.33582 40.4705 0.11164 39.3435C-0.11254 38.2165 0.00251737 37.0483 0.442263 35.9866C0.882008 34.925 1.62669 34.0176 2.58214 33.3792C3.53759 32.7408 4.66089 32.4 5.81 32.4C7.35091 32.4 8.82871 33.0121 9.91829 34.1017C11.0079 35.1913 11.62 36.6691 11.62 38.21Z" fill="#F44A22"/>
<path d="M11.62 70.61C11.62 71.7592 11.2793 72.8825 10.6408 73.8379C10.0024 74.7934 9.09503 75.538 8.03339 75.9778C6.97176 76.4175 5.80356 76.5326 4.67653 76.3084C3.5495 76.0842 2.51426 75.5309 1.70171 74.7183C0.889169 73.9058 0.33582 72.8706 0.11164 71.7435C-0.11254 70.6165 0.00251737 69.4483 0.442263 68.3867C0.882008 67.325 1.62669 66.4176 2.58214 65.7792C3.53759 65.1408 4.66089 64.8 5.81 64.8C7.35091 64.8 8.82871 65.4122 9.91829 66.5018C11.0079 67.5913 11.62 69.0691 11.62 70.61Z" fill="#F44A22"/>
<path d="M11.62 103C11.622 104.149 11.2829 105.274 10.6457 106.231C10.0085 107.187 9.10179 107.934 8.04032 108.375C6.97886 108.816 5.81035 108.933 4.68266 108.71C3.55497 108.486 2.5188 107.934 1.70525 107.122C0.891709 106.31 0.337366 105.274 0.112374 104.147C-0.112618 103.02 0.00185406 101.851 0.441304 100.789C0.880754 99.7267 1.62543 98.8187 2.58109 98.1798C3.53676 97.541 4.66046 97.2 5.80999 97.2C7.34917 97.1999 8.82545 97.8107 9.91475 98.8981C11.0041 99.9855 11.6173 101.461 11.62 103Z" fill="#F44A22"/>
<path d="M11.62 135.42C11.62 136.569 11.2793 137.692 10.6408 138.648C10.0024 139.603 9.09503 140.348 8.03339 140.788C6.97176 141.227 5.80356 141.343 4.67653 141.118C3.5495 140.894 2.51426 140.341 1.70171 139.528C0.889169 138.716 0.33582 137.68 0.11164 136.553C-0.11254 135.426 0.00251737 134.258 0.442263 133.197C0.882008 132.135 1.62669 131.228 2.58214 130.589C3.53759 129.951 4.66089 129.61 5.81 129.61C7.35091 129.61 8.82871 130.222 9.91829 131.312C11.0079 132.401 11.62 133.879 11.62 135.42Z" fill="#F44A22"/>
<path d="M43 70.6101C43 71.7596 42.659 72.8833 42.0201 73.839C41.3813 74.7946 40.4733 75.5393 39.4111 75.9787C38.3489 76.4182 37.1802 76.5327 36.0528 76.3077C34.9255 76.0827 33.8903 75.5283 33.0782 74.7148C32.266 73.9013 31.7135 72.8651 31.4904 71.7374C31.2674 70.6097 31.3839 69.4412 31.8251 68.3797C32.2664 67.3183 33.0127 66.4116 33.9694 65.7744C34.9262 65.1371 36.0505 64.7981 37.2 64.8001C38.7392 64.8027 40.2144 65.416 41.3018 66.5053C42.3893 67.5946 43 69.0709 43 70.6101Z" fill="#F44A22"/>
<path d="M43 103C43.002 104.149 42.6629 105.274 42.0257 106.231C41.3885 107.187 40.4818 107.934 39.4203 108.375C38.3589 108.816 37.1904 108.933 36.0627 108.71C34.935 108.486 33.8988 107.934 33.0853 107.122C32.2717 106.31 31.7174 105.274 31.4924 104.147C31.2674 103.02 31.3819 101.851 31.8213 100.789C32.2608 99.7267 33.0054 98.8187 33.9611 98.1798C34.9168 97.541 36.0405 97.2 37.19 97.2C38.7292 97.1999 40.2055 97.8107 41.2948 98.8981C42.3841 99.9855 42.9973 101.461 43 103Z" fill="#F44A22"/>
<path d="M43 135.42C43 136.569 42.6593 137.692 42.0208 138.648C41.3824 139.603 40.475 140.348 39.4134 140.788C38.3518 141.227 37.1836 141.343 36.0565 141.118C34.9295 140.894 33.8943 140.341 33.0817 139.528C32.2692 138.716 31.7158 137.68 31.4916 136.553C31.2675 135.426 31.3825 134.258 31.8223 133.197C32.262 132.135 33.0067 131.228 33.9621 130.589C34.9176 129.951 36.0409 129.61 37.19 129.61C38.7309 129.61 40.2087 130.222 41.2983 131.312C42.3879 132.401 43 133.879 43 135.42Z" fill="#F44A22"/>
<path d="M43 167.82C42.998 168.969 42.6553 170.092 42.0153 171.046C41.3752 172.001 40.4665 172.744 39.4042 173.182C38.3418 173.619 37.1734 173.733 36.0467 173.506C34.9201 173.28 33.8858 172.725 33.0747 171.911C32.2635 171.097 31.7119 170.061 31.4897 168.934C31.2675 167.806 31.3845 166.638 31.8261 165.577C32.2677 164.516 33.0139 163.61 33.9705 162.974C34.927 162.337 36.0509 161.998 37.2 162C37.963 162.001 38.7182 162.153 39.4226 162.446C40.127 162.739 40.7668 163.168 41.3054 163.709C41.8439 164.249 42.2708 164.89 42.5616 165.596C42.8523 166.301 43.0013 167.057 43 167.82Z" fill="#F44A22"/>
<path d="M43 200.22C43 201.369 42.6593 202.492 42.0208 203.448C41.3824 204.403 40.475 205.148 39.4134 205.588C38.3518 206.028 37.1836 206.143 36.0565 205.918C34.9295 205.694 33.8943 205.141 33.0817 204.328C32.2692 203.516 31.7158 202.481 31.4916 201.354C31.2675 200.226 31.3825 199.058 31.8223 197.997C32.262 196.935 33.0067 196.028 33.9621 195.389C34.9176 194.751 36.0409 194.41 37.19 194.41C38.7309 194.41 40.2087 195.022 41.2983 196.112C42.3879 197.201 43 198.679 43 200.22Z" fill="#F44A22"/>
</g>
<defs>
<clipPath id="clip0_497_375">
<rect width="43.01" height="206.03" fill="white"/>
</clipPath>
</defs>
</svg>
