<svg width="224" height="451" viewBox="0 0 224 451" fill="none" xmlns="http://www.w3.org/2000/svg">
<path d="M0 28L224 0V423L0 451V28Z" fill="#FCA628"/>
<mask id="mask0_446_101" style="mask-type:alpha" maskUnits="userSpaceOnUse" x="0" y="0" width="224" height="451">
<path d="M0 28L224 0V423L0 451V28Z" fill="#FCA628"/>
</mask>
<g mask="url(#mask0_446_101)">
<path d="M185.94 52.6257L175.65 63.1276L175.221 63.565V64.1774V82.2011V83.7011H176.721H188.268C191.608 83.7011 193.868 84.1931 195.246 84.9909C196.499 85.7164 197.074 86.7126 197.074 88.1676C197.074 89.7158 196.391 90.9038 194.736 91.8313C192.967 92.8232 190.516 93.3799 187.275 93.3799C183.611 93.3799 179.766 92.8617 175.737 91.8132C171.81 90.7697 168.128 89.2465 164.687 87.2441L163.259 86.4129L162.57 87.9145L152.637 109.543L152.061 110.797L153.263 111.475C157.967 114.13 163.409 116.124 169.571 117.476L169.575 117.477C175.802 118.825 182.034 119.5 188.268 119.5C197.275 119.5 204.918 118.069 211.134 115.13C217.288 112.221 221.922 108.405 224.923 103.636C227.965 98.8478 229.5 93.6821 229.5 88.1676C229.5 81.7196 227.577 76.1512 223.693 71.5494C220.353 67.4341 215.757 64.4925 209.991 62.6735L224.351 48.0757L224.782 47.6379V47.0237V29V27.5H223.282H158.47H156.97V29V51.1257V52.6257H158.47H185.94Z" stroke="#F44A22" stroke-opacity="0.5" stroke-width="3"/>
</g>
<path d="M70.7183 243.108C69.4703 243.108 68.3423 242.832 67.3343 242.28C66.3383 241.728 65.5523 240.966 64.9763 239.994C64.4123 239.01 64.1303 237.912 64.1303 236.7C64.1303 235.488 64.4123 234.396 64.9763 233.424C65.5523 232.44 66.3443 231.672 67.3523 231.12C68.3603 230.568 69.4883 230.292 70.7363 230.292C71.6723 230.292 72.5363 230.448 73.3283 230.76C74.1203 231.072 74.7923 231.528 75.3443 232.128L74.4983 232.974C73.5143 231.978 72.2723 231.48 70.7723 231.48C69.7763 231.48 68.8703 231.708 68.0543 232.164C67.2383 232.62 66.5963 233.244 66.1283 234.036C65.6723 234.828 65.4443 235.716 65.4443 236.7C65.4443 237.684 65.6723 238.572 66.1283 239.364C66.5963 240.156 67.2383 240.78 68.0543 241.236C68.8703 241.692 69.7763 241.92 70.7723 241.92C72.2843 241.92 73.5263 241.416 74.4983 240.408L75.3443 241.254C74.7923 241.854 74.1143 242.316 73.3103 242.64C72.5183 242.952 71.6543 243.108 70.7183 243.108ZM81.362 243.09C80.45 243.09 79.628 242.886 78.896 242.478C78.164 242.058 77.588 241.482 77.168 240.75C76.748 240.018 76.538 239.19 76.538 238.266C76.538 237.342 76.748 236.514 77.168 235.782C77.588 235.05 78.164 234.48 78.896 234.072C79.628 233.664 80.45 233.46 81.362 233.46C82.274 233.46 83.096 233.664 83.828 234.072C84.56 234.48 85.13 235.05 85.538 235.782C85.958 236.514 86.168 237.342 86.168 238.266C86.168 239.19 85.958 240.018 85.538 240.75C85.13 241.482 84.56 242.058 83.828 242.478C83.096 242.886 82.274 243.09 81.362 243.09ZM81.362 241.956C82.034 241.956 82.634 241.806 83.162 241.506C83.702 241.194 84.122 240.756 84.422 240.192C84.722 239.628 84.872 238.986 84.872 238.266C84.872 237.546 84.722 236.904 84.422 236.34C84.122 235.776 83.702 235.344 83.162 235.044C82.634 234.732 82.034 234.576 81.362 234.576C80.69 234.576 80.084 234.732 79.544 235.044C79.016 235.344 78.596 235.776 78.284 236.34C77.984 236.904 77.834 237.546 77.834 238.266C77.834 238.986 77.984 239.628 78.284 240.192C78.596 240.756 79.016 241.194 79.544 241.506C80.084 241.806 80.69 241.956 81.362 241.956ZM93.6011 233.46C94.7891 233.46 95.7311 233.808 96.4271 234.504C97.1351 235.188 97.4891 236.19 97.4891 237.51V243H96.2111V237.636C96.2111 236.652 95.9651 235.902 95.4731 235.386C94.9811 234.87 94.2791 234.612 93.3671 234.612C92.3471 234.612 91.5371 234.918 90.9371 235.53C90.3491 236.13 90.0551 236.964 90.0551 238.032V243H88.7771V233.532H90.0011V235.278C90.3491 234.702 90.8291 234.258 91.4411 233.946C92.0651 233.622 92.7851 233.46 93.6011 233.46ZM108.739 233.532L104.527 243H103.213L99.019 233.532H100.351L103.897 241.596L107.479 233.532H108.739ZM118.519 238.662H110.599C110.671 239.646 111.049 240.444 111.733 241.056C112.417 241.656 113.281 241.956 114.325 241.956C114.913 241.956 115.453 241.854 115.945 241.65C116.437 241.434 116.863 241.122 117.223 240.714L117.943 241.542C117.523 242.046 116.995 242.43 116.359 242.694C115.735 242.958 115.045 243.09 114.289 243.09C113.317 243.09 112.453 242.886 111.697 242.478C110.953 242.058 110.371 241.482 109.951 240.75C109.531 240.018 109.321 239.19 109.321 238.266C109.321 237.342 109.519 236.514 109.915 235.782C110.323 235.05 110.875 234.48 111.571 234.072C112.279 233.664 113.071 233.46 113.947 233.46C114.823 233.46 115.609 233.664 116.305 234.072C117.001 234.48 117.547 235.05 117.943 235.782C118.339 236.502 118.537 237.33 118.537 238.266L118.519 238.662ZM113.947 234.558C113.035 234.558 112.267 234.852 111.643 235.44C111.031 236.016 110.683 236.772 110.599 237.708H117.313C117.229 236.772 116.875 236.016 116.251 235.44C115.639 234.852 114.871 234.558 113.947 234.558ZM122.362 235.386C122.662 234.75 123.106 234.27 123.694 233.946C124.294 233.622 125.032 233.46 125.908 233.46V234.702L125.602 234.684C124.606 234.684 123.826 234.99 123.262 235.602C122.698 236.214 122.416 237.072 122.416 238.176V243H121.138V233.532H122.362V235.386ZM130.831 243.09C130.063 243.09 129.325 242.982 128.617 242.766C127.921 242.538 127.375 242.256 126.979 241.92L127.555 240.912C127.951 241.224 128.449 241.482 129.049 241.686C129.649 241.878 130.273 241.974 130.921 241.974C131.785 241.974 132.421 241.842 132.829 241.578C133.249 241.302 133.459 240.918 133.459 240.426C133.459 240.078 133.345 239.808 133.117 239.616C132.889 239.412 132.601 239.262 132.253 239.166C131.905 239.058 131.443 238.956 130.867 238.86C130.099 238.716 129.481 238.572 129.013 238.428C128.545 238.272 128.143 238.014 127.807 237.654C127.483 237.294 127.321 236.796 127.321 236.16C127.321 235.368 127.651 234.72 128.311 234.216C128.971 233.712 129.889 233.46 131.065 233.46C131.677 233.46 132.289 233.544 132.901 233.712C133.513 233.868 134.017 234.078 134.413 234.342L133.855 235.368C133.075 234.828 132.145 234.558 131.065 234.558C130.249 234.558 129.631 234.702 129.211 234.99C128.803 235.278 128.599 235.656 128.599 236.124C128.599 236.484 128.713 236.772 128.941 236.988C129.181 237.204 129.475 237.366 129.823 237.474C130.171 237.57 130.651 237.672 131.263 237.78C132.019 237.924 132.625 238.068 133.081 238.212C133.537 238.356 133.927 238.602 134.251 238.95C134.575 239.298 134.737 239.778 134.737 240.39C134.737 241.218 134.389 241.878 133.693 242.37C133.009 242.85 132.055 243.09 130.831 243.09ZM140.411 233.46C141.647 233.46 142.595 233.772 143.255 234.396C143.915 235.008 144.245 235.92 144.245 237.132V243H143.021V241.524C142.733 242.016 142.307 242.4 141.743 242.676C141.191 242.952 140.531 243.09 139.763 243.09C138.707 243.09 137.867 242.838 137.243 242.334C136.619 241.83 136.307 241.164 136.307 240.336C136.307 239.532 136.595 238.884 137.171 238.392C137.759 237.9 138.689 237.654 139.961 237.654H142.967V237.078C142.967 236.262 142.739 235.644 142.283 235.224C141.827 234.792 141.161 234.576 140.285 234.576C139.685 234.576 139.109 234.678 138.557 234.882C138.005 235.074 137.531 235.344 137.135 235.692L136.559 234.738C137.039 234.33 137.615 234.018 138.287 233.802C138.959 233.574 139.667 233.46 140.411 233.46ZM139.961 242.082C140.681 242.082 141.299 241.92 141.815 241.596C142.331 241.26 142.715 240.78 142.967 240.156V238.608H139.997C138.377 238.608 137.567 239.172 137.567 240.3C137.567 240.852 137.777 241.29 138.197 241.614C138.617 241.926 139.205 242.082 139.961 242.082ZM141.671 231.948C141.395 231.948 141.149 231.888 140.933 231.768C140.717 231.636 140.483 231.456 140.231 231.228C140.015 231.048 139.841 230.922 139.709 230.85C139.589 230.766 139.457 230.724 139.313 230.724C139.037 230.724 138.815 230.826 138.647 231.03C138.479 231.234 138.389 231.516 138.377 231.876H137.603C137.627 231.276 137.783 230.796 138.071 230.436C138.359 230.076 138.743 229.896 139.223 229.896C139.499 229.896 139.739 229.956 139.943 230.076C140.159 230.196 140.405 230.376 140.681 230.616C140.873 230.784 141.035 230.91 141.167 230.994C141.299 231.078 141.437 231.12 141.581 231.12C141.845 231.12 142.061 231.024 142.229 230.832C142.397 230.628 142.493 230.352 142.517 230.004H143.291C143.267 230.592 143.111 231.066 142.823 231.426C142.535 231.774 142.151 231.948 141.671 231.948ZM151.622 243.09C150.71 243.09 149.888 242.886 149.156 242.478C148.424 242.058 147.848 241.482 147.428 240.75C147.008 240.018 146.798 239.19 146.798 238.266C146.798 237.342 147.008 236.514 147.428 235.782C147.848 235.05 148.424 234.48 149.156 234.072C149.888 233.664 150.71 233.46 151.622 233.46C152.534 233.46 153.356 233.664 154.088 234.072C154.82 234.48 155.39 235.05 155.798 235.782C156.218 236.514 156.428 237.342 156.428 238.266C156.428 239.19 156.218 240.018 155.798 240.75C155.39 241.482 154.82 242.058 154.088 242.478C153.356 242.886 152.534 243.09 151.622 243.09ZM151.622 241.956C152.294 241.956 152.894 241.806 153.422 241.506C153.962 241.194 154.382 240.756 154.682 240.192C154.982 239.628 155.132 238.986 155.132 238.266C155.132 237.546 154.982 236.904 154.682 236.34C154.382 235.776 153.962 235.344 153.422 235.044C152.894 234.732 152.294 234.576 151.622 234.576C150.95 234.576 150.344 234.732 149.804 235.044C149.276 235.344 148.856 235.776 148.544 236.34C148.244 236.904 148.094 237.546 148.094 238.266C148.094 238.986 148.244 239.628 148.544 240.192C148.856 240.756 149.276 241.194 149.804 241.506C150.344 241.806 150.95 241.956 151.622 241.956ZM158.917 241.128C159.193 241.128 159.421 241.224 159.601 241.416C159.781 241.596 159.871 241.824 159.871 242.1C159.871 242.244 159.847 242.4 159.799 242.568C159.763 242.736 159.703 242.928 159.619 243.144L158.863 245.628H157.999L158.611 243.018C158.419 242.958 158.263 242.85 158.143 242.694C158.023 242.526 157.963 242.328 157.963 242.1C157.963 241.824 158.053 241.596 158.233 241.416C158.413 241.224 158.641 241.128 158.917 241.128ZM43.5861 257.386C43.8861 256.75 44.3301 256.27 44.9181 255.946C45.5181 255.622 46.2561 255.46 47.1321 255.46V256.702L46.8261 256.684C45.8301 256.684 45.0501 256.99 44.4861 257.602C43.9221 258.214 43.6401 259.072 43.6401 260.176V265H42.3621V255.532H43.5861V257.386ZM57.6022 260.662H49.6822C49.7542 261.646 50.1322 262.444 50.8162 263.056C51.5002 263.656 52.3642 263.956 53.4082 263.956C53.9962 263.956 54.5362 263.854 55.0282 263.65C55.5202 263.434 55.9462 263.122 56.3062 262.714L57.0262 263.542C56.6062 264.046 56.0782 264.43 55.4422 264.694C54.8182 264.958 54.1282 265.09 53.3722 265.09C52.4002 265.09 51.5362 264.886 50.7802 264.478C50.0362 264.058 49.4542 263.482 49.0342 262.75C48.6142 262.018 48.4042 261.19 48.4042 260.266C48.4042 259.342 48.6022 258.514 48.9982 257.782C49.4062 257.05 49.9582 256.48 50.6542 256.072C51.3622 255.664 52.1542 255.46 53.0302 255.46C53.9062 255.46 54.6922 255.664 55.3882 256.072C56.0842 256.48 56.6302 257.05 57.0262 257.782C57.4222 258.502 57.6202 259.33 57.6202 260.266L57.6022 260.662ZM53.0302 256.558C52.1182 256.558 51.3502 256.852 50.7262 257.44C50.1142 258.016 49.7662 258.772 49.6822 259.708H56.3962C56.3122 258.772 55.9582 258.016 55.3342 257.44C54.7222 256.852 53.9542 256.558 53.0302 256.558ZM60.2215 251.644H61.4995V265H60.2215V251.644ZM68.3674 255.46C69.6034 255.46 70.5514 255.772 71.2114 256.396C71.8714 257.008 72.2014 257.92 72.2014 259.132V265H70.9774V263.524C70.6894 264.016 70.2634 264.4 69.6994 264.676C69.1474 264.952 68.4874 265.09 67.7194 265.09C66.6634 265.09 65.8234 264.838 65.1994 264.334C64.5754 263.83 64.2634 263.164 64.2634 262.336C64.2634 261.532 64.5514 260.884 65.1274 260.392C65.7154 259.9 66.6454 259.654 67.9174 259.654H70.9234V259.078C70.9234 258.262 70.6954 257.644 70.2394 257.224C69.7834 256.792 69.1174 256.576 68.2414 256.576C67.6414 256.576 67.0654 256.678 66.5134 256.882C65.9614 257.074 65.4874 257.344 65.0914 257.692L64.5154 256.738C64.9954 256.33 65.5714 256.018 66.2434 255.802C66.9154 255.574 67.6234 255.46 68.3674 255.46ZM67.9174 264.082C68.6374 264.082 69.2554 263.92 69.7714 263.596C70.2874 263.26 70.6714 262.78 70.9234 262.156V260.608H67.9534C66.3334 260.608 65.5234 261.172 65.5234 262.3C65.5234 262.852 65.7334 263.29 66.1534 263.614C66.5734 263.926 67.1614 264.082 67.9174 264.082ZM79.6318 265.09C78.6958 265.09 77.8558 264.886 77.1118 264.478C76.3798 264.07 75.8038 263.5 75.3838 262.768C74.9638 262.024 74.7538 261.19 74.7538 260.266C74.7538 259.342 74.9638 258.514 75.3838 257.782C75.8038 257.05 76.3798 256.48 77.1118 256.072C77.8558 255.664 78.6958 255.46 79.6318 255.46C80.4478 255.46 81.1738 255.622 81.8098 255.946C82.4578 256.258 82.9678 256.72 83.3398 257.332L82.3858 257.98C82.0738 257.512 81.6778 257.164 81.1978 256.936C80.7178 256.696 80.1958 256.576 79.6318 256.576C78.9478 256.576 78.3298 256.732 77.7778 257.044C77.2378 257.344 76.8118 257.776 76.4998 258.34C76.1998 258.904 76.0498 259.546 76.0498 260.266C76.0498 260.998 76.1998 261.646 76.4998 262.21C76.8118 262.762 77.2378 263.194 77.7778 263.506C78.3298 263.806 78.9478 263.956 79.6318 263.956C80.1958 263.956 80.7178 263.842 81.1978 263.614C81.6778 263.386 82.0738 263.038 82.3858 262.57L83.3398 263.218C82.9678 263.83 82.4578 264.298 81.8098 264.622C81.1618 264.934 80.4358 265.09 79.6318 265.09ZM85.8504 255.532H87.1284V265H85.8504V255.532ZM86.4984 253.462C86.2344 253.462 86.0124 253.372 85.8324 253.192C85.6524 253.012 85.5624 252.796 85.5624 252.544C85.5624 252.304 85.6524 252.094 85.8324 251.914C86.0124 251.734 86.2344 251.644 86.4984 251.644C86.7624 251.644 86.9844 251.734 87.1644 251.914C87.3444 252.082 87.4344 252.286 87.4344 252.526C87.4344 252.79 87.3444 253.012 87.1644 253.192C86.9844 253.372 86.7624 253.462 86.4984 253.462ZM94.5543 265.09C93.6423 265.09 92.8203 264.886 92.0883 264.478C91.3563 264.058 90.7803 263.482 90.3603 262.75C89.9403 262.018 89.7303 261.19 89.7303 260.266C89.7303 259.342 89.9403 258.514 90.3603 257.782C90.7803 257.05 91.3563 256.48 92.0883 256.072C92.8203 255.664 93.6423 255.46 94.5543 255.46C95.4663 255.46 96.2883 255.664 97.0203 256.072C97.7523 256.48 98.3223 257.05 98.7303 257.782C99.1503 258.514 99.3603 259.342 99.3603 260.266C99.3603 261.19 99.1503 262.018 98.7303 262.75C98.3223 263.482 97.7523 264.058 97.0203 264.478C96.2883 264.886 95.4663 265.09 94.5543 265.09ZM94.5543 263.956C95.2263 263.956 95.8263 263.806 96.3543 263.506C96.8943 263.194 97.3143 262.756 97.6143 262.192C97.9143 261.628 98.0643 260.986 98.0643 260.266C98.0643 259.546 97.9143 258.904 97.6143 258.34C97.3143 257.776 96.8943 257.344 96.3543 257.044C95.8263 256.732 95.2263 256.576 94.5543 256.576C93.8823 256.576 93.2763 256.732 92.7363 257.044C92.2083 257.344 91.7883 257.776 91.4763 258.34C91.1763 258.904 91.0263 259.546 91.0263 260.266C91.0263 260.986 91.1763 261.628 91.4763 262.192C91.7883 262.756 92.2083 263.194 92.7363 263.506C93.2763 263.806 93.8823 263.956 94.5543 263.956ZM106.794 255.46C107.982 255.46 108.924 255.808 109.62 256.504C110.328 257.188 110.682 258.19 110.682 259.51V265H109.404V259.636C109.404 258.652 109.158 257.902 108.666 257.386C108.174 256.87 107.472 256.612 106.56 256.612C105.54 256.612 104.73 256.918 104.13 257.53C103.542 258.13 103.248 258.964 103.248 260.032V265H101.97V255.532H103.194V257.278C103.542 256.702 104.022 256.258 104.634 255.946C105.258 255.622 105.978 255.46 106.794 255.46ZM117.463 255.46C118.699 255.46 119.647 255.772 120.307 256.396C120.967 257.008 121.297 257.92 121.297 259.132V265H120.073V263.524C119.785 264.016 119.359 264.4 118.795 264.676C118.243 264.952 117.583 265.09 116.815 265.09C115.759 265.09 114.919 264.838 114.295 264.334C113.671 263.83 113.359 263.164 113.359 262.336C113.359 261.532 113.647 260.884 114.223 260.392C114.811 259.9 115.741 259.654 117.013 259.654H120.019V259.078C120.019 258.262 119.791 257.644 119.335 257.224C118.879 256.792 118.213 256.576 117.337 256.576C116.737 256.576 116.161 256.678 115.609 256.882C115.057 257.074 114.583 257.344 114.187 257.692L113.611 256.738C114.091 256.33 114.667 256.018 115.339 255.802C116.011 255.574 116.719 255.46 117.463 255.46ZM117.013 264.082C117.733 264.082 118.351 263.92 118.867 263.596C119.383 263.26 119.767 262.78 120.019 262.156V260.608H117.049C115.429 260.608 114.619 261.172 114.619 262.3C114.619 262.852 114.829 263.29 115.249 263.614C115.669 263.926 116.257 264.082 117.013 264.082ZM136.576 255.46C137.764 255.46 138.694 255.802 139.366 256.486C140.05 257.17 140.392 258.178 140.392 259.51V265H139.114V259.636C139.114 258.652 138.874 257.902 138.394 257.386C137.926 256.87 137.26 256.612 136.396 256.612C135.412 256.612 134.638 256.918 134.074 257.53C133.51 258.13 133.228 258.964 133.228 260.032V265H131.95V259.636C131.95 258.652 131.71 257.902 131.23 257.386C130.762 256.87 130.09 256.612 129.214 256.612C128.242 256.612 127.468 256.918 126.892 257.53C126.328 258.13 126.046 258.964 126.046 260.032V265H124.768V255.532H125.992V257.26C126.328 256.684 126.796 256.24 127.396 255.928C127.996 255.616 128.686 255.46 129.466 255.46C130.258 255.46 130.942 255.628 131.518 255.964C132.106 256.3 132.544 256.798 132.832 257.458C133.18 256.834 133.678 256.348 134.326 256C134.986 255.64 135.736 255.46 136.576 255.46ZM152.137 260.662H144.217C144.289 261.646 144.667 262.444 145.351 263.056C146.035 263.656 146.899 263.956 147.943 263.956C148.531 263.956 149.071 263.854 149.563 263.65C150.055 263.434 150.481 263.122 150.841 262.714L151.561 263.542C151.141 264.046 150.613 264.43 149.977 264.694C149.353 264.958 148.663 265.09 147.907 265.09C146.935 265.09 146.071 264.886 145.315 264.478C144.571 264.058 143.989 263.482 143.569 262.75C143.149 262.018 142.939 261.19 142.939 260.266C142.939 259.342 143.137 258.514 143.533 257.782C143.941 257.05 144.493 256.48 145.189 256.072C145.897 255.664 146.689 255.46 147.565 255.46C148.441 255.46 149.227 255.664 149.923 256.072C150.619 256.48 151.165 257.05 151.561 257.782C151.957 258.502 152.155 259.33 152.155 260.266L152.137 260.662ZM147.565 256.558C146.653 256.558 145.885 256.852 145.261 257.44C144.649 258.016 144.301 258.772 144.217 259.708H150.931C150.847 258.772 150.493 258.016 149.869 257.44C149.257 256.852 148.489 256.558 147.565 256.558ZM159.581 255.46C160.769 255.46 161.711 255.808 162.407 256.504C163.115 257.188 163.469 258.19 163.469 259.51V265H162.191V259.636C162.191 258.652 161.945 257.902 161.453 257.386C160.961 256.87 160.259 256.612 159.347 256.612C158.327 256.612 157.517 256.918 156.917 257.53C156.329 258.13 156.035 258.964 156.035 260.032V265H154.757V255.532H155.981V257.278C156.329 256.702 156.809 256.258 157.421 255.946C158.045 255.622 158.765 255.46 159.581 255.46ZM171.924 264.424C171.684 264.64 171.384 264.808 171.024 264.928C170.676 265.036 170.31 265.09 169.926 265.09C169.038 265.09 168.354 264.85 167.874 264.37C167.394 263.89 167.154 263.212 167.154 262.336V256.612H165.462V255.532H167.154V253.462H168.432V255.532H171.312V256.612H168.432V262.264C168.432 262.828 168.57 263.26 168.846 263.56C169.134 263.848 169.542 263.992 170.07 263.992C170.334 263.992 170.586 263.95 170.826 263.866C171.078 263.782 171.294 263.662 171.474 263.506L171.924 264.424ZM177.787 265.09C176.875 265.09 176.053 264.886 175.321 264.478C174.589 264.058 174.013 263.482 173.593 262.75C173.173 262.018 172.963 261.19 172.963 260.266C172.963 259.342 173.173 258.514 173.593 257.782C174.013 257.05 174.589 256.48 175.321 256.072C176.053 255.664 176.875 255.46 177.787 255.46C178.699 255.46 179.521 255.664 180.253 256.072C180.985 256.48 181.555 257.05 181.963 257.782C182.383 258.514 182.593 259.342 182.593 260.266C182.593 261.19 182.383 262.018 181.963 262.75C181.555 263.482 180.985 264.058 180.253 264.478C179.521 264.886 178.699 265.09 177.787 265.09ZM177.787 263.956C178.459 263.956 179.059 263.806 179.587 263.506C180.127 263.194 180.547 262.756 180.847 262.192C181.147 261.628 181.297 260.986 181.297 260.266C181.297 259.546 181.147 258.904 180.847 258.34C180.547 257.776 180.127 257.344 179.587 257.044C179.059 256.732 178.459 256.576 177.787 256.576C177.115 256.576 176.509 256.732 175.969 257.044C175.441 257.344 175.021 257.776 174.709 258.34C174.409 258.904 174.259 259.546 174.259 260.266C174.259 260.986 174.409 261.628 174.709 262.192C175.021 262.756 175.441 263.194 175.969 263.506C176.509 263.806 177.115 263.956 177.787 263.956ZM33.3837 287.09C32.4477 287.09 31.6077 286.886 30.8637 286.478C30.1317 286.07 29.5557 285.5 29.1357 284.768C28.7157 284.024 28.5057 283.19 28.5057 282.266C28.5057 281.342 28.7157 280.514 29.1357 279.782C29.5557 279.05 30.1317 278.48 30.8637 278.072C31.6077 277.664 32.4477 277.46 33.3837 277.46C34.1997 277.46 34.9257 277.622 35.5617 277.946C36.2097 278.258 36.7197 278.72 37.0917 279.332L36.1377 279.98C35.8257 279.512 35.4297 279.164 34.9497 278.936C34.4697 278.696 33.9477 278.576 33.3837 278.576C32.6997 278.576 32.0817 278.732 31.5297 279.044C30.9897 279.344 30.5637 279.776 30.2517 280.34C29.9517 280.904 29.8017 281.546 29.8017 282.266C29.8017 282.998 29.9517 283.646 30.2517 284.21C30.5637 284.762 30.9897 285.194 31.5297 285.506C32.0817 285.806 32.6997 285.956 33.3837 285.956C33.9477 285.956 34.4697 285.842 34.9497 285.614C35.4297 285.386 35.8257 285.038 36.1377 284.57L37.0917 285.218C36.7197 285.83 36.2097 286.298 35.5617 286.622C34.9137 286.934 34.1877 287.09 33.3837 287.09ZM43.3141 287.09C42.4021 287.09 41.5801 286.886 40.8481 286.478C40.1161 286.058 39.5401 285.482 39.1201 284.75C38.7001 284.018 38.4901 283.19 38.4901 282.266C38.4901 281.342 38.7001 280.514 39.1201 279.782C39.5401 279.05 40.1161 278.48 40.8481 278.072C41.5801 277.664 42.4021 277.46 43.3141 277.46C44.2261 277.46 45.0481 277.664 45.7801 278.072C46.5121 278.48 47.0821 279.05 47.4901 279.782C47.9101 280.514 48.1201 281.342 48.1201 282.266C48.1201 283.19 47.9101 284.018 47.4901 284.75C47.0821 285.482 46.5121 286.058 45.7801 286.478C45.0481 286.886 44.2261 287.09 43.3141 287.09ZM43.3141 285.956C43.9861 285.956 44.5861 285.806 45.1141 285.506C45.6541 285.194 46.0741 284.756 46.3741 284.192C46.6741 283.628 46.8241 282.986 46.8241 282.266C46.8241 281.546 46.6741 280.904 46.3741 280.34C46.0741 279.776 45.6541 279.344 45.1141 279.044C44.5861 278.732 43.9861 278.576 43.3141 278.576C42.6421 278.576 42.0361 278.732 41.4961 279.044C40.9681 279.344 40.5481 279.776 40.2361 280.34C39.9361 280.904 39.7861 281.546 39.7861 282.266C39.7861 282.986 39.9361 283.628 40.2361 284.192C40.5481 284.756 40.9681 285.194 41.4961 285.506C42.0361 285.806 42.6421 285.956 43.3141 285.956ZM62.5373 277.46C63.7253 277.46 64.6553 277.802 65.3273 278.486C66.0113 279.17 66.3533 280.178 66.3533 281.51V287H65.0753V281.636C65.0753 280.652 64.8353 279.902 64.3553 279.386C63.8873 278.87 63.2213 278.612 62.3573 278.612C61.3733 278.612 60.5993 278.918 60.0353 279.53C59.4713 280.13 59.1893 280.964 59.1893 282.032V287H57.9113V281.636C57.9113 280.652 57.6713 279.902 57.1913 279.386C56.7233 278.87 56.0513 278.612 55.1753 278.612C54.2033 278.612 53.4293 278.918 52.8533 279.53C52.2893 280.13 52.0073 280.964 52.0073 282.032V287H50.7293V277.532H51.9533V279.26C52.2893 278.684 52.7573 278.24 53.3573 277.928C53.9573 277.616 54.6473 277.46 55.4273 277.46C56.2193 277.46 56.9033 277.628 57.4793 277.964C58.0673 278.3 58.5053 278.798 58.7933 279.458C59.1413 278.834 59.6393 278.348 60.2873 278C60.9473 277.64 61.6973 277.46 62.5373 277.46ZM78.4 287.09C77.488 287.09 76.666 286.886 75.934 286.478C75.202 286.058 74.626 285.482 74.206 284.75C73.786 284.018 73.576 283.19 73.576 282.266C73.576 281.342 73.786 280.514 74.206 279.782C74.626 279.05 75.202 278.48 75.934 278.072C76.666 277.664 77.488 277.46 78.4 277.46C79.312 277.46 80.134 277.664 80.866 278.072C81.598 278.48 82.168 279.05 82.576 279.782C82.996 280.514 83.206 281.342 83.206 282.266C83.206 283.19 82.996 284.018 82.576 284.75C82.168 285.482 81.598 286.058 80.866 286.478C80.134 286.886 79.312 287.09 78.4 287.09ZM78.4 285.956C79.072 285.956 79.672 285.806 80.2 285.506C80.74 285.194 81.16 284.756 81.46 284.192C81.76 283.628 81.91 282.986 81.91 282.266C81.91 281.546 81.76 280.904 81.46 280.34C81.16 279.776 80.74 279.344 80.2 279.044C79.672 278.732 79.072 278.576 78.4 278.576C77.728 278.576 77.122 278.732 76.582 279.044C76.054 279.344 75.634 279.776 75.322 280.34C75.022 280.904 74.872 281.546 74.872 282.266C74.872 282.986 75.022 283.628 75.322 284.192C75.634 284.756 76.054 285.194 76.582 285.506C77.122 285.806 77.728 285.956 78.4 285.956ZM94.4501 287.09C93.5141 287.09 92.6741 286.886 91.9301 286.478C91.1981 286.07 90.6221 285.5 90.2021 284.768C89.7821 284.024 89.5721 283.19 89.5721 282.266C89.5721 281.342 89.7821 280.514 90.2021 279.782C90.6221 279.05 91.1981 278.48 91.9301 278.072C92.6741 277.664 93.5141 277.46 94.4501 277.46C95.2661 277.46 95.9921 277.622 96.6281 277.946C97.2761 278.258 97.7861 278.72 98.1581 279.332L97.2041 279.98C96.8921 279.512 96.4961 279.164 96.0161 278.936C95.5361 278.696 95.0141 278.576 94.4501 278.576C93.7661 278.576 93.1481 278.732 92.5961 279.044C92.0561 279.344 91.6301 279.776 91.3181 280.34C91.0181 280.904 90.8681 281.546 90.8681 282.266C90.8681 282.998 91.0181 283.646 91.3181 284.21C91.6301 284.762 92.0561 285.194 92.5961 285.506C93.1481 285.806 93.7661 285.956 94.4501 285.956C95.0141 285.956 95.5361 285.842 96.0161 285.614C96.4961 285.386 96.8921 285.038 97.2041 284.57L98.1581 285.218C97.7861 285.83 97.2761 286.298 96.6281 286.622C95.9801 286.934 95.2541 287.09 94.4501 287.09ZM100.528 273.644H101.806V287H100.528V273.644ZM105.362 277.532H106.64V287H105.362V277.532ZM106.01 275.462C105.746 275.462 105.524 275.372 105.344 275.192C105.164 275.012 105.074 274.796 105.074 274.544C105.074 274.304 105.164 274.094 105.344 273.914C105.524 273.734 105.746 273.644 106.01 273.644C106.274 273.644 106.496 273.734 106.676 273.914C106.856 274.082 106.946 274.286 106.946 274.526C106.946 274.79 106.856 275.012 106.676 275.192C106.496 275.372 106.274 275.462 106.01 275.462ZM118.44 282.662H110.52C110.592 283.646 110.97 284.444 111.654 285.056C112.338 285.656 113.202 285.956 114.246 285.956C114.834 285.956 115.374 285.854 115.866 285.65C116.358 285.434 116.784 285.122 117.144 284.714L117.864 285.542C117.444 286.046 116.916 286.43 116.28 286.694C115.656 286.958 114.966 287.09 114.21 287.09C113.238 287.09 112.374 286.886 111.618 286.478C110.874 286.058 110.292 285.482 109.872 284.75C109.452 284.018 109.242 283.19 109.242 282.266C109.242 281.342 109.44 280.514 109.836 279.782C110.244 279.05 110.796 278.48 111.492 278.072C112.2 277.664 112.992 277.46 113.868 277.46C114.744 277.46 115.53 277.664 116.226 278.072C116.922 278.48 117.468 279.05 117.864 279.782C118.26 280.502 118.458 281.33 118.458 282.266L118.44 282.662ZM113.868 278.558C112.956 278.558 112.188 278.852 111.564 279.44C110.952 280.016 110.604 280.772 110.52 281.708H117.234C117.15 280.772 116.796 280.016 116.172 279.44C115.56 278.852 114.792 278.558 113.868 278.558ZM125.883 277.46C127.071 277.46 128.013 277.808 128.709 278.504C129.417 279.188 129.771 280.19 129.771 281.51V287H128.493V281.636C128.493 280.652 128.247 279.902 127.755 279.386C127.263 278.87 126.561 278.612 125.649 278.612C124.629 278.612 123.819 278.918 123.219 279.53C122.631 280.13 122.337 280.964 122.337 282.032V287H121.059V277.532H122.283V279.278C122.631 278.702 123.111 278.258 123.723 277.946C124.347 277.622 125.067 277.46 125.883 277.46ZM138.227 286.424C137.987 286.64 137.687 286.808 137.327 286.928C136.979 287.036 136.613 287.09 136.229 287.09C135.341 287.09 134.657 286.85 134.177 286.37C133.697 285.89 133.457 285.212 133.457 284.336V278.612H131.765V277.532H133.457V275.462H134.735V277.532H137.615V278.612H134.735V284.264C134.735 284.828 134.873 285.26 135.149 285.56C135.437 285.848 135.845 285.992 136.373 285.992C136.637 285.992 136.889 285.95 137.129 285.866C137.381 285.782 137.597 285.662 137.777 285.506L138.227 286.424ZM148.464 282.662H140.544C140.616 283.646 140.994 284.444 141.678 285.056C142.362 285.656 143.226 285.956 144.27 285.956C144.858 285.956 145.398 285.854 145.89 285.65C146.382 285.434 146.808 285.122 147.168 284.714L147.888 285.542C147.468 286.046 146.94 286.43 146.304 286.694C145.68 286.958 144.99 287.09 144.234 287.09C143.262 287.09 142.398 286.886 141.642 286.478C140.898 286.058 140.316 285.482 139.896 284.75C139.476 284.018 139.266 283.19 139.266 282.266C139.266 281.342 139.464 280.514 139.86 279.782C140.268 279.05 140.82 278.48 141.516 278.072C142.224 277.664 143.016 277.46 143.892 277.46C144.768 277.46 145.554 277.664 146.25 278.072C146.946 278.48 147.492 279.05 147.888 279.782C148.284 280.502 148.482 281.33 148.482 282.266L148.464 282.662ZM143.892 278.558C142.98 278.558 142.212 278.852 141.588 279.44C140.976 280.016 140.628 280.772 140.544 281.708H147.258C147.174 280.772 146.82 280.016 146.196 279.44C145.584 278.852 144.816 278.558 143.892 278.558ZM151.227 285.128C151.503 285.128 151.731 285.224 151.911 285.416C152.091 285.596 152.181 285.824 152.181 286.1C152.181 286.244 152.157 286.4 152.109 286.568C152.073 286.736 152.013 286.928 151.929 287.144L151.173 289.628H150.309L150.921 287.018C150.729 286.958 150.573 286.85 150.453 286.694C150.333 286.526 150.273 286.328 150.273 286.1C150.273 285.824 150.363 285.596 150.543 285.416C150.723 285.224 150.951 285.128 151.227 285.128ZM162.74 274.634C162.188 274.634 161.768 274.784 161.48 275.084C161.204 275.384 161.066 275.828 161.066 276.416V277.532H163.982V278.612H161.102V287H159.824V278.612H158.132V277.532H159.824V276.362C159.824 275.498 160.07 274.814 160.562 274.31C161.066 273.806 161.774 273.554 162.686 273.554C163.046 273.554 163.394 273.608 163.73 273.716C164.066 273.812 164.348 273.956 164.576 274.148L164.144 275.102C163.772 274.79 163.304 274.634 162.74 274.634ZM169.42 287.09C168.508 287.09 167.686 286.886 166.954 286.478C166.222 286.058 165.646 285.482 165.226 284.75C164.806 284.018 164.596 283.19 164.596 282.266C164.596 281.342 164.806 280.514 165.226 279.782C165.646 279.05 166.222 278.48 166.954 278.072C167.686 277.664 168.508 277.46 169.42 277.46C170.332 277.46 171.154 277.664 171.886 278.072C172.618 278.48 173.188 279.05 173.596 279.782C174.016 280.514 174.226 281.342 174.226 282.266C174.226 283.19 174.016 284.018 173.596 284.75C173.188 285.482 172.618 286.058 171.886 286.478C171.154 286.886 170.332 287.09 169.42 287.09ZM169.42 285.956C170.092 285.956 170.692 285.806 171.22 285.506C171.76 285.194 172.18 284.756 172.48 284.192C172.78 283.628 172.93 282.986 172.93 282.266C172.93 281.546 172.78 280.904 172.48 280.34C172.18 279.776 171.76 279.344 171.22 279.044C170.692 278.732 170.092 278.576 169.42 278.576C168.748 278.576 168.142 278.732 167.602 279.044C167.074 279.344 166.654 279.776 166.342 280.34C166.042 280.904 165.892 281.546 165.892 282.266C165.892 282.986 166.042 283.628 166.342 284.192C166.654 284.756 167.074 285.194 167.602 285.506C168.142 285.806 168.748 285.956 169.42 285.956ZM180.759 287.09C179.823 287.09 178.983 286.886 178.239 286.478C177.507 286.07 176.931 285.5 176.511 284.768C176.091 284.024 175.881 283.19 175.881 282.266C175.881 281.342 176.091 280.514 176.511 279.782C176.931 279.05 177.507 278.48 178.239 278.072C178.983 277.664 179.823 277.46 180.759 277.46C181.575 277.46 182.301 277.622 182.937 277.946C183.585 278.258 184.095 278.72 184.467 279.332L183.513 279.98C183.201 279.512 182.805 279.164 182.325 278.936C181.845 278.696 181.323 278.576 180.759 278.576C180.075 278.576 179.457 278.732 178.905 279.044C178.365 279.344 177.939 279.776 177.627 280.34C177.327 280.904 177.177 281.546 177.177 282.266C177.177 282.998 177.327 283.646 177.627 284.21C177.939 284.762 178.365 285.194 178.905 285.506C179.457 285.806 180.075 285.956 180.759 285.956C181.323 285.956 181.845 285.842 182.325 285.614C182.805 285.386 183.201 285.038 183.513 284.57L184.467 285.218C184.095 285.83 183.585 286.298 182.937 286.622C182.289 286.934 181.563 287.09 180.759 287.09ZM190.689 287.09C189.777 287.09 188.955 286.886 188.223 286.478C187.491 286.058 186.915 285.482 186.495 284.75C186.075 284.018 185.865 283.19 185.865 282.266C185.865 281.342 186.075 280.514 186.495 279.782C186.915 279.05 187.491 278.48 188.223 278.072C188.955 277.664 189.777 277.46 190.689 277.46C191.601 277.46 192.423 277.664 193.155 278.072C193.887 278.48 194.457 279.05 194.865 279.782C195.285 280.514 195.495 281.342 195.495 282.266C195.495 283.19 195.285 284.018 194.865 284.75C194.457 285.482 193.887 286.058 193.155 286.478C192.423 286.886 191.601 287.09 190.689 287.09ZM190.689 285.956C191.361 285.956 191.961 285.806 192.489 285.506C193.029 285.194 193.449 284.756 193.749 284.192C194.049 283.628 194.199 282.986 194.199 282.266C194.199 281.546 194.049 280.904 193.749 280.34C193.449 279.776 193.029 279.344 192.489 279.044C191.961 278.732 191.361 278.576 190.689 278.576C190.017 278.576 189.411 278.732 188.871 279.044C188.343 279.344 187.923 279.776 187.611 280.34C187.311 280.904 187.161 281.546 187.161 282.266C187.161 282.986 187.311 283.628 187.611 284.192C187.923 284.756 188.343 285.194 188.871 285.506C189.411 285.806 190.017 285.956 190.689 285.956ZM49.0318 299.46C50.2198 299.46 51.1618 299.808 51.8578 300.504C52.5658 301.188 52.9198 302.19 52.9198 303.51V309H51.6418V303.636C51.6418 302.652 51.3958 301.902 50.9038 301.386C50.4118 300.87 49.7098 300.612 48.7978 300.612C47.7778 300.612 46.9678 300.918 46.3678 301.53C45.7798 302.13 45.4858 302.964 45.4858 304.032V309H44.2078V299.532H45.4318V301.278C45.7798 300.702 46.2598 300.258 46.8718 299.946C47.4958 299.622 48.2158 299.46 49.0318 299.46ZM60.2946 309.09C59.3826 309.09 58.5606 308.886 57.8286 308.478C57.0966 308.058 56.5206 307.482 56.1006 306.75C55.6806 306.018 55.4706 305.19 55.4706 304.266C55.4706 303.342 55.6806 302.514 56.1006 301.782C56.5206 301.05 57.0966 300.48 57.8286 300.072C58.5606 299.664 59.3826 299.46 60.2946 299.46C61.2066 299.46 62.0286 299.664 62.7606 300.072C63.4926 300.48 64.0626 301.05 64.4706 301.782C64.8906 302.514 65.1006 303.342 65.1006 304.266C65.1006 305.19 64.8906 306.018 64.4706 306.75C64.0626 307.482 63.4926 308.058 62.7606 308.478C62.0286 308.886 61.2066 309.09 60.2946 309.09ZM60.2946 307.956C60.9666 307.956 61.5666 307.806 62.0946 307.506C62.6346 307.194 63.0546 306.756 63.3546 306.192C63.6546 305.628 63.8046 304.986 63.8046 304.266C63.8046 303.546 63.6546 302.904 63.3546 302.34C63.0546 301.776 62.6346 301.344 62.0946 301.044C61.5666 300.732 60.9666 300.576 60.2946 300.576C59.6226 300.576 59.0166 300.732 58.4766 301.044C57.9486 301.344 57.5286 301.776 57.2166 302.34C56.9166 302.904 56.7666 303.546 56.7666 304.266C56.7666 304.986 56.9166 305.628 57.2166 306.192C57.5286 306.756 57.9486 307.194 58.4766 307.506C59.0166 307.806 59.6226 307.956 60.2946 307.956ZM75.7327 299.46C76.9687 299.46 77.9167 299.772 78.5767 300.396C79.2367 301.008 79.5667 301.92 79.5667 303.132V309H78.3427V307.524C78.0547 308.016 77.6287 308.4 77.0647 308.676C76.5127 308.952 75.8527 309.09 75.0847 309.09C74.0287 309.09 73.1887 308.838 72.5647 308.334C71.9407 307.83 71.6287 307.164 71.6287 306.336C71.6287 305.532 71.9167 304.884 72.4927 304.392C73.0807 303.9 74.0107 303.654 75.2827 303.654H78.2887V303.078C78.2887 302.262 78.0607 301.644 77.6047 301.224C77.1487 300.792 76.4827 300.576 75.6067 300.576C75.0067 300.576 74.4307 300.678 73.8787 300.882C73.3267 301.074 72.8527 301.344 72.4567 301.692L71.8807 300.738C72.3607 300.33 72.9367 300.018 73.6087 299.802C74.2807 299.574 74.9887 299.46 75.7327 299.46ZM75.2827 308.082C76.0027 308.082 76.6207 307.92 77.1367 307.596C77.6527 307.26 78.0367 306.78 78.2887 306.156V304.608H75.3187C73.6987 304.608 72.8887 305.172 72.8887 306.3C72.8887 306.852 73.0987 307.29 73.5187 307.614C73.9387 307.926 74.5267 308.082 75.2827 308.082ZM91.5699 299.532V309H90.3459V307.272C90.0099 307.848 89.5479 308.298 88.9599 308.622C88.3719 308.934 87.6999 309.09 86.9439 309.09C85.7079 309.09 84.7299 308.748 84.0099 308.064C83.3019 307.368 82.9479 306.354 82.9479 305.022V299.532H84.2259V304.896C84.2259 305.892 84.4719 306.648 84.9639 307.164C85.4559 307.68 86.1579 307.938 87.0699 307.938C88.0659 307.938 88.8519 307.638 89.4279 307.038C90.0039 306.426 90.2919 305.58 90.2919 304.5V299.532H91.5699ZM106.957 299.46C108.145 299.46 109.075 299.802 109.747 300.486C110.431 301.17 110.773 302.178 110.773 303.51V309H109.495V303.636C109.495 302.652 109.255 301.902 108.775 301.386C108.307 300.87 107.641 300.612 106.777 300.612C105.793 300.612 105.019 300.918 104.455 301.53C103.891 302.13 103.609 302.964 103.609 304.032V309H102.331V303.636C102.331 302.652 102.091 301.902 101.611 301.386C101.143 300.87 100.471 300.612 99.5952 300.612C98.6232 300.612 97.8492 300.918 97.2732 301.53C96.7092 302.13 96.4272 302.964 96.4272 304.032V309H95.1492V299.532H96.3732V301.26C96.7092 300.684 97.1772 300.24 97.7772 299.928C98.3772 299.616 99.0672 299.46 99.8472 299.46C100.639 299.46 101.323 299.628 101.899 299.964C102.487 300.3 102.925 300.798 103.213 301.458C103.561 300.834 104.059 300.348 104.707 300C105.367 299.64 106.117 299.46 106.957 299.46ZM122.518 304.662H114.598C114.67 305.646 115.048 306.444 115.732 307.056C116.416 307.656 117.28 307.956 118.324 307.956C118.912 307.956 119.452 307.854 119.944 307.65C120.436 307.434 120.862 307.122 121.222 306.714L121.942 307.542C121.522 308.046 120.994 308.43 120.358 308.694C119.734 308.958 119.044 309.09 118.288 309.09C117.316 309.09 116.452 308.886 115.696 308.478C114.952 308.058 114.37 307.482 113.95 306.75C113.53 306.018 113.32 305.19 113.32 304.266C113.32 303.342 113.518 302.514 113.914 301.782C114.322 301.05 114.874 300.48 115.57 300.072C116.278 299.664 117.07 299.46 117.946 299.46C118.822 299.46 119.608 299.664 120.304 300.072C121 300.48 121.546 301.05 121.942 301.782C122.338 302.502 122.536 303.33 122.536 304.266L122.518 304.662ZM117.946 300.558C117.034 300.558 116.266 300.852 115.642 301.44C115.03 302.016 114.682 302.772 114.598 303.708H121.312C121.228 302.772 120.874 302.016 120.25 301.44C119.638 300.852 118.87 300.558 117.946 300.558ZM129.961 299.46C131.149 299.46 132.091 299.808 132.787 300.504C133.495 301.188 133.849 302.19 133.849 303.51V309H132.571V303.636C132.571 302.652 132.325 301.902 131.833 301.386C131.341 300.87 130.639 300.612 129.727 300.612C128.707 300.612 127.897 300.918 127.297 301.53C126.709 302.13 126.415 302.964 126.415 304.032V309H125.137V299.532H126.361V301.278C126.709 300.702 127.189 300.258 127.801 299.946C128.425 299.622 129.145 299.46 129.961 299.46ZM142.305 308.424C142.065 308.64 141.765 308.808 141.405 308.928C141.057 309.036 140.691 309.09 140.307 309.09C139.419 309.09 138.735 308.85 138.255 308.37C137.775 307.89 137.535 307.212 137.535 306.336V300.612H135.843V299.532H137.535V297.462H138.813V299.532H141.693V300.612H138.813V306.264C138.813 306.828 138.951 307.26 139.227 307.56C139.515 307.848 139.923 307.992 140.451 307.992C140.715 307.992 140.967 307.95 141.207 307.866C141.459 307.782 141.675 307.662 141.855 307.506L142.305 308.424ZM148.168 309.09C147.256 309.09 146.434 308.886 145.702 308.478C144.97 308.058 144.394 307.482 143.974 306.75C143.554 306.018 143.344 305.19 143.344 304.266C143.344 303.342 143.554 302.514 143.974 301.782C144.394 301.05 144.97 300.48 145.702 300.072C146.434 299.664 147.256 299.46 148.168 299.46C149.08 299.46 149.902 299.664 150.634 300.072C151.366 300.48 151.936 301.05 152.344 301.782C152.764 302.514 152.974 303.342 152.974 304.266C152.974 305.19 152.764 306.018 152.344 306.75C151.936 307.482 151.366 308.058 150.634 308.478C149.902 308.886 149.08 309.09 148.168 309.09ZM148.168 307.956C148.84 307.956 149.44 307.806 149.968 307.506C150.508 307.194 150.928 306.756 151.228 306.192C151.528 305.628 151.678 304.986 151.678 304.266C151.678 303.546 151.528 302.904 151.228 302.34C150.928 301.776 150.508 301.344 149.968 301.044C149.44 300.732 148.84 300.576 148.168 300.576C147.496 300.576 146.89 300.732 146.35 301.044C145.822 301.344 145.402 301.776 145.09 302.34C144.79 302.904 144.64 303.546 144.64 304.266C144.64 304.986 144.79 305.628 145.09 306.192C145.402 306.756 145.822 307.194 146.35 307.506C146.89 307.806 147.496 307.956 148.168 307.956ZM168.934 295.644V309H167.71V307.128C167.326 307.764 166.816 308.25 166.18 308.586C165.556 308.922 164.848 309.09 164.056 309.09C163.168 309.09 162.364 308.886 161.644 308.478C160.924 308.07 160.36 307.5 159.952 306.768C159.544 306.036 159.34 305.202 159.34 304.266C159.34 303.33 159.544 302.496 159.952 301.764C160.36 301.032 160.924 300.468 161.644 300.072C162.364 299.664 163.168 299.46 164.056 299.46C164.824 299.46 165.514 299.622 166.126 299.946C166.75 300.258 167.26 300.72 167.656 301.332V295.644H168.934ZM164.164 307.956C164.824 307.956 165.418 307.806 165.946 307.506C166.486 307.194 166.906 306.756 167.206 306.192C167.518 305.628 167.674 304.986 167.674 304.266C167.674 303.546 167.518 302.904 167.206 302.34C166.906 301.776 166.486 301.344 165.946 301.044C165.418 300.732 164.824 300.576 164.164 300.576C163.492 300.576 162.886 300.732 162.346 301.044C161.818 301.344 161.398 301.776 161.086 302.34C160.786 302.904 160.636 303.546 160.636 304.266C160.636 304.986 160.786 305.628 161.086 306.192C161.398 306.756 161.818 307.194 162.346 307.506C162.886 307.806 163.492 307.956 164.164 307.956ZM180.737 304.662H172.817C172.889 305.646 173.267 306.444 173.951 307.056C174.635 307.656 175.499 307.956 176.543 307.956C177.131 307.956 177.671 307.854 178.163 307.65C178.655 307.434 179.081 307.122 179.441 306.714L180.161 307.542C179.741 308.046 179.213 308.43 178.577 308.694C177.953 308.958 177.263 309.09 176.507 309.09C175.535 309.09 174.671 308.886 173.915 308.478C173.171 308.058 172.589 307.482 172.169 306.75C171.749 306.018 171.539 305.19 171.539 304.266C171.539 303.342 171.737 302.514 172.133 301.782C172.541 301.05 173.093 300.48 173.789 300.072C174.497 299.664 175.289 299.46 176.165 299.46C177.041 299.46 177.827 299.664 178.523 300.072C179.219 300.48 179.765 301.05 180.161 301.782C180.557 302.502 180.755 303.33 180.755 304.266L180.737 304.662ZM176.165 300.558C175.253 300.558 174.485 300.852 173.861 301.44C173.249 302.016 172.901 302.772 172.817 303.708H179.531C179.447 302.772 179.093 302.016 178.469 301.44C177.857 300.852 177.089 300.558 176.165 300.558ZM33.0224 318.634C32.4704 318.634 32.0504 318.784 31.7624 319.084C31.4864 319.384 31.3484 319.828 31.3484 320.416V321.532H34.2644V322.612H31.3844V331H30.1064V322.612H28.4144V321.532H30.1064V320.362C30.1064 319.498 30.3524 318.814 30.8444 318.31C31.3484 317.806 32.0564 317.554 32.9684 317.554C33.3284 317.554 33.6764 317.608 34.0124 317.716C34.3484 317.812 34.6304 317.956 34.8584 318.148L34.4264 319.102C34.0544 318.79 33.5864 318.634 33.0224 318.634ZM39.1262 321.46C40.3622 321.46 41.3102 321.772 41.9702 322.396C42.6302 323.008 42.9602 323.92 42.9602 325.132V331H41.7362V329.524C41.4482 330.016 41.0222 330.4 40.4582 330.676C39.9062 330.952 39.2462 331.09 38.4782 331.09C37.4222 331.09 36.5822 330.838 35.9582 330.334C35.3342 329.83 35.0222 329.164 35.0222 328.336C35.0222 327.532 35.3102 326.884 35.8862 326.392C36.4742 325.9 37.4042 325.654 38.6762 325.654H41.6822V325.078C41.6822 324.262 41.4542 323.644 40.9982 323.224C40.5422 322.792 39.8762 322.576 39.0002 322.576C38.4002 322.576 37.8242 322.678 37.2722 322.882C36.7202 323.074 36.2462 323.344 35.8502 323.692L35.2742 322.738C35.7542 322.33 36.3302 322.018 37.0022 321.802C37.6742 321.574 38.3822 321.46 39.1262 321.46ZM38.6762 330.082C39.3962 330.082 40.0142 329.92 40.5302 329.596C41.0462 329.26 41.4302 328.78 41.6822 328.156V326.608H38.7122C37.0922 326.608 36.2822 327.172 36.2822 328.3C36.2822 328.852 36.4922 329.29 36.9122 329.614C37.3322 329.926 37.9202 330.082 38.6762 330.082ZM51.4174 330.424C51.1774 330.64 50.8774 330.808 50.5174 330.928C50.1694 331.036 49.8034 331.09 49.4194 331.09C48.5314 331.09 47.8474 330.85 47.3674 330.37C46.8874 329.89 46.6474 329.212 46.6474 328.336V322.612H44.9554V321.532H46.6474V319.462H47.9254V321.532H50.8054V322.612H47.9254V328.264C47.9254 328.828 48.0634 329.26 48.3394 329.56C48.6274 329.848 49.0354 329.992 49.5634 329.992C49.8274 329.992 50.0794 329.95 50.3194 329.866C50.5714 329.782 50.7874 329.662 50.9674 329.506L51.4174 330.424ZM62.2759 321.532V331H61.0519V329.272C60.7159 329.848 60.2539 330.298 59.6659 330.622C59.0779 330.934 58.4059 331.09 57.6499 331.09C56.4139 331.09 55.4359 330.748 54.7159 330.064C54.0079 329.368 53.6539 328.354 53.6539 327.022V321.532H54.9319V326.896C54.9319 327.892 55.1779 328.648 55.6699 329.164C56.1619 329.68 56.8639 329.938 57.7759 329.938C58.7719 329.938 59.5579 329.638 60.1339 329.038C60.7099 328.426 60.9979 327.58 60.9979 326.5V321.532H62.2759ZM67.0792 323.386C67.3792 322.75 67.8232 322.27 68.4112 321.946C69.0112 321.622 69.7492 321.46 70.6252 321.46V322.702L70.3192 322.684C69.3232 322.684 68.5432 322.99 67.9792 323.602C67.4152 324.214 67.1332 325.072 67.1332 326.176V331H65.8552V321.532H67.0792V323.386ZM76.2336 321.46C77.4696 321.46 78.4176 321.772 79.0776 322.396C79.7376 323.008 80.0676 323.92 80.0676 325.132V331H78.8436V329.524C78.5556 330.016 78.1296 330.4 77.5656 330.676C77.0136 330.952 76.3536 331.09 75.5856 331.09C74.5296 331.09 73.6896 330.838 73.0656 330.334C72.4416 329.83 72.1296 329.164 72.1296 328.336C72.1296 327.532 72.4176 326.884 72.9936 326.392C73.5816 325.9 74.5116 325.654 75.7836 325.654H78.7896V325.078C78.7896 324.262 78.5616 323.644 78.1056 323.224C77.6496 322.792 76.9836 322.576 76.1076 322.576C75.5076 322.576 74.9316 322.678 74.3796 322.882C73.8276 323.074 73.3536 323.344 72.9576 323.692L72.3816 322.738C72.8616 322.33 73.4376 322.018 74.1096 321.802C74.7816 321.574 75.4896 321.46 76.2336 321.46ZM75.7836 330.082C76.5036 330.082 77.1216 329.92 77.6376 329.596C78.1536 329.26 78.5376 328.78 78.7896 328.156V326.608H75.8196C74.1996 326.608 73.3896 327.172 73.3896 328.3C73.3896 328.852 73.5996 329.29 74.0196 329.614C74.4396 329.926 75.0276 330.082 75.7836 330.082ZM95.3468 321.46C96.5348 321.46 97.4648 321.802 98.1368 322.486C98.8208 323.17 99.1628 324.178 99.1628 325.51V331H97.8848V325.636C97.8848 324.652 97.6448 323.902 97.1648 323.386C96.6968 322.87 96.0308 322.612 95.1668 322.612C94.1828 322.612 93.4088 322.918 92.8448 323.53C92.2808 324.13 91.9988 324.964 91.9988 326.032V331H90.7208V325.636C90.7208 324.652 90.4808 323.902 90.0008 323.386C89.5328 322.87 88.8608 322.612 87.9848 322.612C87.0128 322.612 86.2388 322.918 85.6628 323.53C85.0988 324.13 84.8168 324.964 84.8168 326.032V331H83.5388V321.532H84.7628V323.26C85.0988 322.684 85.5668 322.24 86.1668 321.928C86.7668 321.616 87.4568 321.46 88.2368 321.46C89.0288 321.46 89.7128 321.628 90.2888 321.964C90.8768 322.3 91.3148 322.798 91.6028 323.458C91.9508 322.834 92.4488 322.348 93.0968 322C93.7568 321.64 94.5068 321.46 95.3468 321.46ZM110.908 326.662H102.988C103.06 327.646 103.438 328.444 104.122 329.056C104.806 329.656 105.67 329.956 106.714 329.956C107.302 329.956 107.842 329.854 108.334 329.65C108.826 329.434 109.252 329.122 109.612 328.714L110.332 329.542C109.912 330.046 109.384 330.43 108.748 330.694C108.124 330.958 107.434 331.09 106.678 331.09C105.706 331.09 104.842 330.886 104.086 330.478C103.342 330.058 102.76 329.482 102.34 328.75C101.92 328.018 101.71 327.19 101.71 326.266C101.71 325.342 101.908 324.514 102.304 323.782C102.712 323.05 103.264 322.48 103.96 322.072C104.668 321.664 105.46 321.46 106.336 321.46C107.212 321.46 107.998 321.664 108.694 322.072C109.39 322.48 109.936 323.05 110.332 323.782C110.728 324.502 110.926 325.33 110.926 326.266L110.908 326.662ZM106.336 322.558C105.424 322.558 104.656 322.852 104.032 323.44C103.42 324.016 103.072 324.772 102.988 325.708H109.702C109.618 324.772 109.264 324.016 108.64 323.44C108.028 322.852 107.26 322.558 106.336 322.558ZM118.351 321.46C119.539 321.46 120.481 321.808 121.177 322.504C121.885 323.188 122.239 324.19 122.239 325.51V331H120.961V325.636C120.961 324.652 120.715 323.902 120.223 323.386C119.731 322.87 119.029 322.612 118.117 322.612C117.097 322.612 116.287 322.918 115.687 323.53C115.099 324.13 114.805 324.964 114.805 326.032V331H113.527V321.532H114.751V323.278C115.099 322.702 115.579 322.258 116.191 321.946C116.815 321.622 117.535 321.46 118.351 321.46ZM130.695 330.424C130.455 330.64 130.155 330.808 129.795 330.928C129.447 331.036 129.081 331.09 128.697 331.09C127.809 331.09 127.125 330.85 126.645 330.37C126.165 329.89 125.925 329.212 125.925 328.336V322.612H124.233V321.532H125.925V319.462H127.203V321.532H130.083V322.612H127.203V328.264C127.203 328.828 127.341 329.26 127.617 329.56C127.905 329.848 128.313 329.992 128.841 329.992C129.105 329.992 129.357 329.95 129.597 329.866C129.849 329.782 130.065 329.662 130.245 329.506L130.695 330.424ZM136.557 331.09C135.645 331.09 134.823 330.886 134.091 330.478C133.359 330.058 132.783 329.482 132.363 328.75C131.943 328.018 131.733 327.19 131.733 326.266C131.733 325.342 131.943 324.514 132.363 323.782C132.783 323.05 133.359 322.48 134.091 322.072C134.823 321.664 135.645 321.46 136.557 321.46C137.469 321.46 138.291 321.664 139.023 322.072C139.755 322.48 140.325 323.05 140.733 323.782C141.153 324.514 141.363 325.342 141.363 326.266C141.363 327.19 141.153 328.018 140.733 328.75C140.325 329.482 139.755 330.058 139.023 330.478C138.291 330.886 137.469 331.09 136.557 331.09ZM136.557 329.956C137.229 329.956 137.829 329.806 138.357 329.506C138.897 329.194 139.317 328.756 139.617 328.192C139.917 327.628 140.067 326.986 140.067 326.266C140.067 325.546 139.917 324.904 139.617 324.34C139.317 323.776 138.897 323.344 138.357 323.044C137.829 322.732 137.229 322.576 136.557 322.576C135.885 322.576 135.279 322.732 134.739 323.044C134.211 323.344 133.791 323.776 133.479 324.34C133.179 324.904 133.029 325.546 133.029 326.266C133.029 326.986 133.179 327.628 133.479 328.192C133.791 328.756 134.211 329.194 134.739 329.506C135.279 329.806 135.885 329.956 136.557 329.956ZM156.927 326.662H149.007C149.079 327.646 149.457 328.444 150.141 329.056C150.825 329.656 151.689 329.956 152.733 329.956C153.321 329.956 153.861 329.854 154.353 329.65C154.845 329.434 155.271 329.122 155.631 328.714L156.351 329.542C155.931 330.046 155.403 330.43 154.767 330.694C154.143 330.958 153.453 331.09 152.697 331.09C151.725 331.09 150.861 330.886 150.105 330.478C149.361 330.058 148.779 329.482 148.359 328.75C147.939 328.018 147.729 327.19 147.729 326.266C147.729 325.342 147.927 324.514 148.323 323.782C148.731 323.05 149.283 322.48 149.979 322.072C150.687 321.664 151.479 321.46 152.355 321.46C153.231 321.46 154.017 321.664 154.713 322.072C155.409 322.48 155.955 323.05 156.351 323.782C156.747 324.502 156.945 325.33 156.945 326.266L156.927 326.662ZM152.355 322.558C151.443 322.558 150.675 322.852 150.051 323.44C149.439 324.016 149.091 324.772 149.007 325.708H155.721C155.637 324.772 155.283 324.016 154.659 323.44C154.047 322.852 153.279 322.558 152.355 322.558ZM167.57 321.46C168.806 321.46 169.754 321.772 170.414 322.396C171.074 323.008 171.404 323.92 171.404 325.132V331H170.18V329.524C169.892 330.016 169.466 330.4 168.902 330.676C168.35 330.952 167.69 331.09 166.922 331.09C165.866 331.09 165.026 330.838 164.402 330.334C163.778 329.83 163.466 329.164 163.466 328.336C163.466 327.532 163.754 326.884 164.33 326.392C164.918 325.9 165.848 325.654 167.12 325.654H170.126V325.078C170.126 324.262 169.898 323.644 169.442 323.224C168.986 322.792 168.32 322.576 167.444 322.576C166.844 322.576 166.268 322.678 165.716 322.882C165.164 323.074 164.69 323.344 164.294 323.692L163.718 322.738C164.198 322.33 164.774 322.018 165.446 321.802C166.118 321.574 166.826 321.46 167.57 321.46ZM167.12 330.082C167.84 330.082 168.458 329.92 168.974 329.596C169.49 329.26 169.874 328.78 170.126 328.156V326.608H167.156C165.536 326.608 164.726 327.172 164.726 328.3C164.726 328.852 164.936 329.29 165.356 329.614C165.776 329.926 166.364 330.082 167.12 330.082ZM174.875 317.644H176.153V331H174.875V317.644ZM184.73 330.424C184.49 330.64 184.19 330.808 183.83 330.928C183.482 331.036 183.116 331.09 182.732 331.09C181.844 331.09 181.16 330.85 180.68 330.37C180.2 329.89 179.96 329.212 179.96 328.336V322.612H178.268V321.532H179.96V319.462H181.238V321.532H184.118V322.612H181.238V328.264C181.238 328.828 181.376 329.26 181.652 329.56C181.94 329.848 182.348 329.992 182.876 329.992C183.14 329.992 183.392 329.95 183.632 329.866C183.884 329.782 184.1 329.662 184.28 329.506L184.73 330.424ZM190.368 321.46C191.604 321.46 192.552 321.772 193.212 322.396C193.872 323.008 194.202 323.92 194.202 325.132V331H192.978V329.524C192.69 330.016 192.264 330.4 191.7 330.676C191.148 330.952 190.488 331.09 189.72 331.09C188.664 331.09 187.824 330.838 187.2 330.334C186.576 329.83 186.264 329.164 186.264 328.336C186.264 327.532 186.552 326.884 187.128 326.392C187.716 325.9 188.646 325.654 189.918 325.654H192.924V325.078C192.924 324.262 192.696 323.644 192.24 323.224C191.784 322.792 191.118 322.576 190.242 322.576C189.642 322.576 189.066 322.678 188.514 322.882C187.962 323.074 187.488 323.344 187.092 323.692L186.516 322.738C186.996 322.33 187.572 322.018 188.244 321.802C188.916 321.574 189.624 321.46 190.368 321.46ZM189.918 330.082C190.638 330.082 191.256 329.92 191.772 329.596C192.288 329.26 192.672 328.78 192.924 328.156V326.608H189.954C188.334 326.608 187.524 327.172 187.524 328.3C187.524 328.852 187.734 329.29 188.154 329.614C188.574 329.926 189.162 330.082 189.918 330.082ZM45.8778 343.46C46.7658 343.46 47.5698 343.664 48.2898 344.072C49.0098 344.468 49.5738 345.032 49.9818 345.764C50.3898 346.496 50.5938 347.33 50.5938 348.266C50.5938 349.214 50.3898 350.054 49.9818 350.786C49.5738 351.518 49.0098 352.088 48.2898 352.496C47.5818 352.892 46.7778 353.09 45.8778 353.09C45.1098 353.09 44.4138 352.934 43.7898 352.622C43.1778 352.298 42.6738 351.83 42.2778 351.218V356.492H40.9998V343.532H42.2238V345.404C42.6078 344.78 43.1118 344.3 43.7358 343.964C44.3718 343.628 45.0858 343.46 45.8778 343.46ZM45.7878 351.956C46.4478 351.956 47.0478 351.806 47.5878 351.506C48.1278 351.194 48.5478 350.756 48.8478 350.192C49.1598 349.628 49.3158 348.986 49.3158 348.266C49.3158 347.546 49.1598 346.91 48.8478 346.358C48.5478 345.794 48.1278 345.356 47.5878 345.044C47.0478 344.732 46.4478 344.576 45.7878 344.576C45.1158 344.576 44.5098 344.732 43.9698 345.044C43.4418 345.356 43.0218 345.794 42.7098 346.358C42.4098 346.91 42.2598 347.546 42.2598 348.266C42.2598 348.986 42.4098 349.628 42.7098 350.192C43.0218 350.756 43.4418 351.194 43.9698 351.506C44.5098 351.806 45.1158 351.956 45.7878 351.956ZM61.443 348.662H53.523C53.595 349.646 53.973 350.444 54.657 351.056C55.341 351.656 56.205 351.956 57.249 351.956C57.837 351.956 58.377 351.854 58.869 351.65C59.361 351.434 59.787 351.122 60.147 350.714L60.867 351.542C60.447 352.046 59.919 352.43 59.283 352.694C58.659 352.958 57.969 353.09 57.213 353.09C56.241 353.09 55.377 352.886 54.621 352.478C53.877 352.058 53.295 351.482 52.875 350.75C52.455 350.018 52.245 349.19 52.245 348.266C52.245 347.342 52.443 346.514 52.839 345.782C53.247 345.05 53.799 344.48 54.495 344.072C55.203 343.664 55.995 343.46 56.871 343.46C57.747 343.46 58.533 343.664 59.229 344.072C59.925 344.48 60.471 345.05 60.867 345.782C61.263 346.502 61.461 347.33 61.461 348.266L61.443 348.662ZM56.871 344.558C55.959 344.558 55.191 344.852 54.567 345.44C53.955 346.016 53.607 346.772 53.523 347.708H60.237C60.153 346.772 59.799 346.016 59.175 345.44C58.563 344.852 57.795 344.558 56.871 344.558ZM65.2863 345.386C65.5863 344.75 66.0303 344.27 66.6183 343.946C67.2183 343.622 67.9563 343.46 68.8323 343.46V344.702L68.5263 344.684C67.5303 344.684 66.7503 344.99 66.1863 345.602C65.6223 346.214 65.3403 347.072 65.3403 348.176V353H64.0623V343.532H65.2863V345.386ZM74.4189 340.634C73.8669 340.634 73.4469 340.784 73.1589 341.084C72.8829 341.384 72.7449 341.828 72.7449 342.416V343.532H75.6609V344.612H72.7809V353H71.5029V344.612H69.8109V343.532H71.5029V342.362C71.5029 341.498 71.7489 340.814 72.2409 340.31C72.7449 339.806 73.4529 339.554 74.3649 339.554C74.7249 339.554 75.0729 339.608 75.4089 339.716C75.7449 339.812 76.0269 339.956 76.2549 340.148L75.8229 341.102C75.4509 340.79 74.9829 340.634 74.4189 340.634ZM81.0983 353.09C80.1863 353.09 79.3643 352.886 78.6323 352.478C77.9003 352.058 77.3243 351.482 76.9043 350.75C76.4843 350.018 76.2743 349.19 76.2743 348.266C76.2743 347.342 76.4843 346.514 76.9043 345.782C77.3243 345.05 77.9003 344.48 78.6323 344.072C79.3643 343.664 80.1863 343.46 81.0983 343.46C82.0103 343.46 82.8323 343.664 83.5643 344.072C84.2963 344.48 84.8663 345.05 85.2743 345.782C85.6943 346.514 85.9043 347.342 85.9043 348.266C85.9043 349.19 85.6943 350.018 85.2743 350.75C84.8663 351.482 84.2963 352.058 83.5643 352.478C82.8323 352.886 82.0103 353.09 81.0983 353.09ZM81.0983 351.956C81.7703 351.956 82.3703 351.806 82.8983 351.506C83.4383 351.194 83.8583 350.756 84.1583 350.192C84.4583 349.628 84.6083 348.986 84.6083 348.266C84.6083 347.546 84.4583 346.904 84.1583 346.34C83.8583 345.776 83.4383 345.344 82.8983 345.044C82.3703 344.732 81.7703 344.576 81.0983 344.576C80.4263 344.576 79.8203 344.732 79.2803 345.044C78.7523 345.344 78.3323 345.776 78.0203 346.34C77.7203 346.904 77.5703 347.546 77.5703 348.266C77.5703 348.986 77.7203 349.628 78.0203 350.192C78.3323 350.756 78.7523 351.194 79.2803 351.506C79.8203 351.806 80.4263 351.956 81.0983 351.956ZM89.7374 345.386C90.0374 344.75 90.4814 344.27 91.0694 343.946C91.6694 343.622 92.4074 343.46 93.2834 343.46V344.702L92.9774 344.684C91.9814 344.684 91.2014 344.99 90.6374 345.602C90.0734 346.214 89.7914 347.072 89.7914 348.176V353H88.5134V343.532H89.7374V345.386ZM107.405 343.46C108.593 343.46 109.523 343.802 110.195 344.486C110.879 345.17 111.221 346.178 111.221 347.51V353H109.943V347.636C109.943 346.652 109.703 345.902 109.223 345.386C108.755 344.87 108.089 344.612 107.225 344.612C106.241 344.612 105.467 344.918 104.903 345.53C104.339 346.13 104.057 346.964 104.057 348.032V353H102.779V347.636C102.779 346.652 102.539 345.902 102.059 345.386C101.591 344.87 100.919 344.612 100.043 344.612C99.0714 344.612 98.2974 344.918 97.7214 345.53C97.1574 346.13 96.8754 346.964 96.8754 348.032V353H95.5974V343.532H96.8214V345.26C97.1574 344.684 97.6254 344.24 98.2254 343.928C98.8254 343.616 99.5154 343.46 100.295 343.46C101.087 343.46 101.771 343.628 102.347 343.964C102.935 344.3 103.373 344.798 103.661 345.458C104.009 344.834 104.507 344.348 105.155 344C105.815 343.64 106.565 343.46 107.405 343.46ZM117.999 343.46C119.235 343.46 120.183 343.772 120.843 344.396C121.503 345.008 121.833 345.92 121.833 347.132V353H120.609V351.524C120.321 352.016 119.895 352.4 119.331 352.676C118.779 352.952 118.119 353.09 117.351 353.09C116.295 353.09 115.455 352.838 114.831 352.334C114.207 351.83 113.895 351.164 113.895 350.336C113.895 349.532 114.183 348.884 114.759 348.392C115.347 347.9 116.277 347.654 117.549 347.654H120.555V347.078C120.555 346.262 120.327 345.644 119.871 345.224C119.415 344.792 118.749 344.576 117.873 344.576C117.273 344.576 116.697 344.678 116.145 344.882C115.593 345.074 115.119 345.344 114.723 345.692L114.147 344.738C114.627 344.33 115.203 344.018 115.875 343.802C116.547 343.574 117.255 343.46 117.999 343.46ZM117.549 352.082C118.269 352.082 118.887 351.92 119.403 351.596C119.919 351.26 120.303 350.78 120.555 350.156V348.608H117.585C115.965 348.608 115.155 349.172 115.155 350.3C115.155 350.852 115.365 351.29 115.785 351.614C116.205 351.926 116.793 352.082 117.549 352.082ZM130.128 343.46C131.316 343.46 132.258 343.808 132.954 344.504C133.662 345.188 134.016 346.19 134.016 347.51V353H132.738V347.636C132.738 346.652 132.492 345.902 132 345.386C131.508 344.87 130.806 344.612 129.894 344.612C128.874 344.612 128.064 344.918 127.464 345.53C126.876 346.13 126.582 346.964 126.582 348.032V353H125.304V343.532H126.528V345.278C126.876 344.702 127.356 344.258 127.968 343.946C128.592 343.622 129.312 343.46 130.128 343.46ZM141.445 353.09C140.509 353.09 139.669 352.886 138.925 352.478C138.193 352.07 137.617 351.5 137.197 350.768C136.777 350.024 136.567 349.19 136.567 348.266C136.567 347.342 136.777 346.514 137.197 345.782C137.617 345.05 138.193 344.48 138.925 344.072C139.669 343.664 140.509 343.46 141.445 343.46C142.261 343.46 142.987 343.622 143.623 343.946C144.271 344.258 144.781 344.72 145.153 345.332L144.199 345.98C143.887 345.512 143.491 345.164 143.011 344.936C142.531 344.696 142.009 344.576 141.445 344.576C140.761 344.576 140.143 344.732 139.591 345.044C139.051 345.344 138.625 345.776 138.313 346.34C138.013 346.904 137.863 347.546 137.863 348.266C137.863 348.998 138.013 349.646 138.313 350.21C138.625 350.762 139.051 351.194 139.591 351.506C140.143 351.806 140.761 351.956 141.445 351.956C142.009 351.956 142.531 351.842 143.011 351.614C143.491 351.386 143.887 351.038 144.199 350.57L145.153 351.218C144.781 351.83 144.271 352.298 143.623 352.622C142.975 352.934 142.249 353.09 141.445 353.09ZM155.75 348.662H147.83C147.902 349.646 148.28 350.444 148.964 351.056C149.648 351.656 150.512 351.956 151.556 351.956C152.144 351.956 152.684 351.854 153.176 351.65C153.668 351.434 154.094 351.122 154.454 350.714L155.174 351.542C154.754 352.046 154.226 352.43 153.59 352.694C152.966 352.958 152.276 353.09 151.52 353.09C150.548 353.09 149.684 352.886 148.928 352.478C148.184 352.058 147.602 351.482 147.182 350.75C146.762 350.018 146.552 349.19 146.552 348.266C146.552 347.342 146.75 346.514 147.146 345.782C147.554 345.05 148.106 344.48 148.802 344.072C149.51 343.664 150.302 343.46 151.178 343.46C152.054 343.46 152.84 343.664 153.536 344.072C154.232 344.48 154.778 345.05 155.174 345.782C155.57 346.502 155.768 347.33 155.768 348.266L155.75 348.662ZM151.178 344.558C150.266 344.558 149.498 344.852 148.874 345.44C148.262 346.016 147.914 346.772 147.83 347.708H154.544C154.46 346.772 154.106 346.016 153.482 345.44C152.87 344.852 152.102 344.558 151.178 344.558ZM171.72 339.644V353H170.496V351.128C170.112 351.764 169.602 352.25 168.966 352.586C168.342 352.922 167.634 353.09 166.842 353.09C165.954 353.09 165.15 352.886 164.43 352.478C163.71 352.07 163.146 351.5 162.738 350.768C162.33 350.036 162.126 349.202 162.126 348.266C162.126 347.33 162.33 346.496 162.738 345.764C163.146 345.032 163.71 344.468 164.43 344.072C165.15 343.664 165.954 343.46 166.842 343.46C167.61 343.46 168.3 343.622 168.912 343.946C169.536 344.258 170.046 344.72 170.442 345.332V339.644H171.72ZM166.95 351.956C167.61 351.956 168.204 351.806 168.732 351.506C169.272 351.194 169.692 350.756 169.992 350.192C170.304 349.628 170.46 348.986 170.46 348.266C170.46 347.546 170.304 346.904 169.992 346.34C169.692 345.776 169.272 345.344 168.732 345.044C168.204 344.732 167.61 344.576 166.95 344.576C166.278 344.576 165.672 344.732 165.132 345.044C164.604 345.344 164.184 345.776 163.872 346.34C163.572 346.904 163.422 347.546 163.422 348.266C163.422 348.986 163.572 349.628 163.872 350.192C164.184 350.756 164.604 351.194 165.132 351.506C165.672 351.806 166.278 351.956 166.95 351.956ZM179.149 353.09C178.237 353.09 177.415 352.886 176.683 352.478C175.951 352.058 175.375 351.482 174.955 350.75C174.535 350.018 174.325 349.19 174.325 348.266C174.325 347.342 174.535 346.514 174.955 345.782C175.375 345.05 175.951 344.48 176.683 344.072C177.415 343.664 178.237 343.46 179.149 343.46C180.061 343.46 180.883 343.664 181.615 344.072C182.347 344.48 182.917 345.05 183.325 345.782C183.745 346.514 183.955 347.342 183.955 348.266C183.955 349.19 183.745 350.018 183.325 350.75C182.917 351.482 182.347 352.058 181.615 352.478C180.883 352.886 180.061 353.09 179.149 353.09ZM179.149 351.956C179.821 351.956 180.421 351.806 180.949 351.506C181.489 351.194 181.909 350.756 182.209 350.192C182.509 349.628 182.659 348.986 182.659 348.266C182.659 347.546 182.509 346.904 182.209 346.34C181.909 345.776 181.489 345.344 180.949 345.044C180.421 344.732 179.821 344.576 179.149 344.576C178.477 344.576 177.871 344.732 177.331 345.044C176.803 345.344 176.383 345.776 176.071 346.34C175.771 346.904 175.621 347.546 175.621 348.266C175.621 348.986 175.771 349.628 176.071 350.192C176.383 350.756 176.803 351.194 177.331 351.506C177.871 351.806 178.477 351.956 179.149 351.956ZM47.4535 374.424C47.2135 374.64 46.9135 374.808 46.5535 374.928C46.2055 375.036 45.8395 375.09 45.4555 375.09C44.5675 375.09 43.8835 374.85 43.4035 374.37C42.9235 373.89 42.6835 373.212 42.6835 372.336V366.612H40.9915V365.532H42.6835V363.462H43.9615V365.532H46.8415V366.612H43.9615V372.264C43.9615 372.828 44.0995 373.26 44.3755 373.56C44.6635 373.848 45.0715 373.992 45.5995 373.992C45.8635 373.992 46.1155 373.95 46.3555 373.866C46.6075 373.782 46.8235 373.662 47.0035 373.506L47.4535 374.424ZM49.78 365.532H51.058V375H49.78V365.532ZM50.428 363.462C50.164 363.462 49.942 363.372 49.762 363.192C49.582 363.012 49.492 362.796 49.492 362.544C49.492 362.304 49.582 362.094 49.762 361.914C49.942 361.734 50.164 361.644 50.428 361.644C50.692 361.644 50.914 361.734 51.094 361.914C51.274 362.082 51.364 362.286 51.364 362.526C51.364 362.79 51.274 363.012 51.094 363.192C50.914 363.372 50.692 363.462 50.428 363.462ZM66.422 365.46C67.61 365.46 68.54 365.802 69.212 366.486C69.896 367.17 70.238 368.178 70.238 369.51V375H68.96V369.636C68.96 368.652 68.72 367.902 68.24 367.386C67.772 366.87 67.106 366.612 66.242 366.612C65.258 366.612 64.484 366.918 63.92 367.53C63.356 368.13 63.074 368.964 63.074 370.032V375H61.796V369.636C61.796 368.652 61.556 367.902 61.076 367.386C60.608 366.87 59.936 366.612 59.06 366.612C58.088 366.612 57.314 366.918 56.738 367.53C56.174 368.13 55.892 368.964 55.892 370.032V375H54.614V365.532H55.838V367.26C56.174 366.684 56.642 366.24 57.242 365.928C57.842 365.616 58.532 365.46 59.312 365.46C60.104 365.46 60.788 365.628 61.364 365.964C61.952 366.3 62.39 366.798 62.678 367.458C63.026 366.834 63.524 366.348 64.172 366C64.832 365.64 65.582 365.46 66.422 365.46ZM81.983 370.662H74.063C74.135 371.646 74.513 372.444 75.197 373.056C75.881 373.656 76.745 373.956 77.789 373.956C78.377 373.956 78.917 373.854 79.409 373.65C79.901 373.434 80.327 373.122 80.687 372.714L81.407 373.542C80.987 374.046 80.459 374.43 79.823 374.694C79.199 374.958 78.509 375.09 77.753 375.09C76.781 375.09 75.917 374.886 75.161 374.478C74.417 374.058 73.835 373.482 73.415 372.75C72.995 372.018 72.785 371.19 72.785 370.266C72.785 369.342 72.983 368.514 73.379 367.782C73.787 367.05 74.339 366.48 75.035 366.072C75.743 365.664 76.535 365.46 77.411 365.46C78.287 365.46 79.073 365.664 79.769 366.072C80.465 366.48 81.011 367.05 81.407 367.782C81.803 368.502 82.001 369.33 82.001 370.266L81.983 370.662ZM77.411 366.558C76.499 366.558 75.731 366.852 75.107 367.44C74.495 368.016 74.147 368.772 74.063 369.708H80.777C80.693 368.772 80.339 368.016 79.715 367.44C79.103 366.852 78.335 366.558 77.411 366.558ZM97.9533 361.644V375H96.7293V373.128C96.3453 373.764 95.8353 374.25 95.1993 374.586C94.5753 374.922 93.8673 375.09 93.0753 375.09C92.1873 375.09 91.3833 374.886 90.6633 374.478C89.9433 374.07 89.3793 373.5 88.9713 372.768C88.5633 372.036 88.3593 371.202 88.3593 370.266C88.3593 369.33 88.5633 368.496 88.9713 367.764C89.3793 367.032 89.9433 366.468 90.6633 366.072C91.3833 365.664 92.1873 365.46 93.0753 365.46C93.8433 365.46 94.5333 365.622 95.1453 365.946C95.7693 366.258 96.2793 366.72 96.6753 367.332V361.644H97.9533ZM93.1833 373.956C93.8433 373.956 94.4373 373.806 94.9653 373.506C95.5053 373.194 95.9253 372.756 96.2253 372.192C96.5373 371.628 96.6933 370.986 96.6933 370.266C96.6933 369.546 96.5373 368.904 96.2253 368.34C95.9253 367.776 95.5053 367.344 94.9653 367.044C94.4373 366.732 93.8433 366.576 93.1833 366.576C92.5113 366.576 91.9053 366.732 91.3653 367.044C90.8373 367.344 90.4173 367.776 90.1053 368.34C89.8053 368.904 89.6553 369.546 89.6553 370.266C89.6553 370.986 89.8053 371.628 90.1053 372.192C90.4173 372.756 90.8373 373.194 91.3653 373.506C91.9053 373.806 92.5113 373.956 93.1833 373.956ZM109.756 370.662H101.836C101.908 371.646 102.286 372.444 102.97 373.056C103.654 373.656 104.518 373.956 105.562 373.956C106.15 373.956 106.69 373.854 107.182 373.65C107.674 373.434 108.1 373.122 108.46 372.714L109.18 373.542C108.76 374.046 108.232 374.43 107.596 374.694C106.972 374.958 106.282 375.09 105.526 375.09C104.554 375.09 103.69 374.886 102.934 374.478C102.19 374.058 101.608 373.482 101.188 372.75C100.768 372.018 100.558 371.19 100.558 370.266C100.558 369.342 100.756 368.514 101.152 367.782C101.56 367.05 102.112 366.48 102.808 366.072C103.516 365.664 104.308 365.46 105.184 365.46C106.06 365.46 106.846 365.664 107.542 366.072C108.238 366.48 108.784 367.05 109.18 367.782C109.576 368.502 109.774 369.33 109.774 370.266L109.756 370.662ZM105.184 366.558C104.272 366.558 103.504 366.852 102.88 367.44C102.268 368.016 101.92 368.772 101.836 369.708H108.55C108.466 368.772 108.112 368.016 107.488 367.44C106.876 366.852 106.108 366.558 105.184 366.558ZM125.043 365.532L120.831 375H119.517L115.323 365.532H116.655L120.201 373.596L123.783 365.532H125.043ZM134.823 370.662H126.903C126.975 371.646 127.353 372.444 128.037 373.056C128.721 373.656 129.585 373.956 130.629 373.956C131.217 373.956 131.757 373.854 132.249 373.65C132.741 373.434 133.167 373.122 133.527 372.714L134.247 373.542C133.827 374.046 133.299 374.43 132.663 374.694C132.039 374.958 131.349 375.09 130.593 375.09C129.621 375.09 128.757 374.886 128.001 374.478C127.257 374.058 126.675 373.482 126.255 372.75C125.835 372.018 125.625 371.19 125.625 370.266C125.625 369.342 125.823 368.514 126.219 367.782C126.627 367.05 127.179 366.48 127.875 366.072C128.583 365.664 129.375 365.46 130.251 365.46C131.127 365.46 131.913 365.664 132.609 366.072C133.305 366.48 133.851 367.05 134.247 367.782C134.643 368.502 134.841 369.33 134.841 370.266L134.823 370.662ZM130.251 366.558C129.339 366.558 128.571 366.852 127.947 367.44C127.335 368.016 126.987 368.772 126.903 369.708H133.617C133.533 368.772 133.179 368.016 132.555 367.44C131.943 366.852 131.175 366.558 130.251 366.558ZM142.266 365.46C143.454 365.46 144.396 365.808 145.092 366.504C145.8 367.188 146.154 368.19 146.154 369.51V375H144.876V369.636C144.876 368.652 144.63 367.902 144.138 367.386C143.646 366.87 142.944 366.612 142.032 366.612C141.012 366.612 140.202 366.918 139.602 367.53C139.014 368.13 138.72 368.964 138.72 370.032V375H137.442V365.532H138.666V367.278C139.014 366.702 139.494 366.258 140.106 365.946C140.73 365.622 141.45 365.46 142.266 365.46ZM158.299 361.644V375H157.075V373.128C156.691 373.764 156.181 374.25 155.545 374.586C154.921 374.922 154.213 375.09 153.421 375.09C152.533 375.09 151.729 374.886 151.009 374.478C150.289 374.07 149.725 373.5 149.317 372.768C148.909 372.036 148.705 371.202 148.705 370.266C148.705 369.33 148.909 368.496 149.317 367.764C149.725 367.032 150.289 366.468 151.009 366.072C151.729 365.664 152.533 365.46 153.421 365.46C154.189 365.46 154.879 365.622 155.491 365.946C156.115 366.258 156.625 366.72 157.021 367.332V361.644H158.299ZM153.529 373.956C154.189 373.956 154.783 373.806 155.311 373.506C155.851 373.194 156.271 372.756 156.571 372.192C156.883 371.628 157.039 370.986 157.039 370.266C157.039 369.546 156.883 368.904 156.571 368.34C156.271 367.776 155.851 367.344 155.311 367.044C154.783 366.732 154.189 366.576 153.529 366.576C152.857 366.576 152.251 366.732 151.711 367.044C151.183 367.344 150.763 367.776 150.451 368.34C150.151 368.904 150.001 369.546 150.001 370.266C150.001 370.986 150.151 371.628 150.451 372.192C150.763 372.756 151.183 373.194 151.711 373.506C152.251 373.806 152.857 373.956 153.529 373.956ZM165.17 365.46C166.406 365.46 167.354 365.772 168.014 366.396C168.674 367.008 169.004 367.92 169.004 369.132V375H167.78V373.524C167.492 374.016 167.066 374.4 166.502 374.676C165.95 374.952 165.29 375.09 164.522 375.09C163.466 375.09 162.626 374.838 162.002 374.334C161.378 373.83 161.066 373.164 161.066 372.336C161.066 371.532 161.354 370.884 161.93 370.392C162.518 369.9 163.448 369.654 164.72 369.654H167.726V369.078C167.726 368.262 167.498 367.644 167.042 367.224C166.586 366.792 165.92 366.576 165.044 366.576C164.444 366.576 163.868 366.678 163.316 366.882C162.764 367.074 162.29 367.344 161.894 367.692L161.318 366.738C161.798 366.33 162.374 366.018 163.046 365.802C163.718 365.574 164.426 365.46 165.17 365.46ZM164.72 374.082C165.44 374.082 166.058 373.92 166.574 373.596C167.09 373.26 167.474 372.78 167.726 372.156V370.608H164.756C163.136 370.608 162.326 371.172 162.326 372.3C162.326 372.852 162.536 373.29 162.956 373.614C163.376 373.926 163.964 374.082 164.72 374.082ZM175.013 375.09C174.245 375.09 173.507 374.982 172.799 374.766C172.103 374.538 171.557 374.256 171.161 373.92L171.737 372.912C172.133 373.224 172.631 373.482 173.231 373.686C173.831 373.878 174.455 373.974 175.103 373.974C175.967 373.974 176.603 373.842 177.011 373.578C177.431 373.302 177.641 372.918 177.641 372.426C177.641 372.078 177.527 371.808 177.299 371.616C177.071 371.412 176.783 371.262 176.435 371.166C176.087 371.058 175.625 370.956 175.049 370.86C174.281 370.716 173.663 370.572 173.195 370.428C172.727 370.272 172.325 370.014 171.989 369.654C171.665 369.294 171.503 368.796 171.503 368.16C171.503 367.368 171.833 366.72 172.493 366.216C173.153 365.712 174.071 365.46 175.247 365.46C175.859 365.46 176.471 365.544 177.083 365.712C177.695 365.868 178.199 366.078 178.595 366.342L178.037 367.368C177.257 366.828 176.327 366.558 175.247 366.558C174.431 366.558 173.813 366.702 173.393 366.99C172.985 367.278 172.781 367.656 172.781 368.124C172.781 368.484 172.895 368.772 173.123 368.988C173.363 369.204 173.657 369.366 174.005 369.474C174.353 369.57 174.833 369.672 175.445 369.78C176.201 369.924 176.807 370.068 177.263 370.212C177.719 370.356 178.109 370.602 178.433 370.95C178.757 371.298 178.919 371.778 178.919 372.39C178.919 373.218 178.571 373.878 177.875 374.37C177.191 374.85 176.237 375.09 175.013 375.09ZM181.408 375.09C181.144 375.09 180.916 374.994 180.724 374.802C180.544 374.61 180.454 374.376 180.454 374.1C180.454 373.824 180.544 373.596 180.724 373.416C180.916 373.224 181.144 373.128 181.408 373.128C181.672 373.128 181.9 373.224 182.092 373.416C182.284 373.596 182.38 373.824 182.38 374.1C182.38 374.376 182.284 374.61 182.092 374.802C181.9 374.994 181.672 375.09 181.408 375.09Z" fill="#1C1F3D"/>
<path d="M45.1458 196.336C43.3858 196.336 41.8018 195.968 40.3938 195.232C39.0018 194.48 37.9058 193.44 37.1058 192.112C36.3058 190.784 35.9058 189.28 35.9058 187.6C35.9058 185.92 36.3058 184.416 37.1058 183.088C37.9058 181.76 39.0018 180.728 40.3938 179.992C41.8018 179.24 43.3858 178.864 45.1458 178.864C46.6818 178.864 48.0658 179.136 49.2978 179.68C50.5298 180.224 51.5538 181.008 52.3698 182.032L49.3458 184.768C48.2578 183.456 46.9378 182.8 45.3858 182.8C44.4738 182.8 43.6578 183 42.9378 183.4C42.2338 183.8 41.6818 184.368 41.2818 185.104C40.8978 185.824 40.7058 186.656 40.7058 187.6C40.7058 188.544 40.8978 189.384 41.2818 190.12C41.6818 190.84 42.2338 191.4 42.9378 191.8C43.6578 192.2 44.4738 192.4 45.3858 192.4C46.9378 192.4 48.2578 191.744 49.3458 190.432L52.3698 193.168C51.5538 194.192 50.5298 194.976 49.2978 195.52C48.0658 196.064 46.6818 196.336 45.1458 196.336ZM62.609 196.336C60.833 196.336 59.233 195.96 57.809 195.208C56.401 194.456 55.289 193.416 54.473 192.088C53.673 190.76 53.273 189.264 53.273 187.6C53.273 185.936 53.673 184.44 54.473 183.112C55.289 181.784 56.401 180.744 57.809 179.992C59.233 179.24 60.833 178.864 62.609 178.864C64.385 178.864 65.977 179.24 67.385 179.992C68.809 180.744 69.921 181.784 70.721 183.112C71.537 184.44 71.945 185.936 71.945 187.6C71.945 189.264 71.537 190.76 70.721 192.088C69.921 193.416 68.809 194.456 67.385 195.208C65.977 195.96 64.385 196.336 62.609 196.336ZM62.609 192.4C63.457 192.4 64.225 192.2 64.913 191.8C65.601 191.4 66.145 190.84 66.545 190.12C66.945 189.384 67.145 188.544 67.145 187.6C67.145 186.656 66.945 185.824 66.545 185.104C66.145 184.368 65.601 183.8 64.913 183.4C64.225 183 63.457 182.8 62.609 182.8C61.761 182.8 60.993 183 60.305 183.4C59.617 183.8 59.073 184.368 58.673 185.104C58.273 185.824 58.073 186.656 58.073 187.6C58.073 188.544 58.273 189.384 58.673 190.12C59.073 190.84 59.617 191.4 60.305 191.8C60.993 192.2 61.761 192.4 62.609 192.4ZM89.6019 196L89.5539 187.096L85.2339 194.344H83.1219L78.8259 187.336V196H74.4339V179.2H78.3459L84.2499 188.896L90.0099 179.2H93.9219L93.9699 196H89.6019ZM110.82 192.328V196H97.3323V179.2H110.508V182.872H102.036V185.704H109.5V189.256H102.036V192.328H110.82ZM120.801 191.536H118.209V196H113.457V179.2H121.137C122.657 179.2 123.977 179.456 125.097 179.968C126.217 180.464 127.081 181.184 127.689 182.128C128.297 183.056 128.601 184.152 128.601 185.416C128.601 186.632 128.313 187.696 127.737 188.608C127.177 189.504 126.369 190.208 125.313 190.72L128.937 196H123.849L120.801 191.536ZM123.801 185.416C123.801 184.632 123.553 184.024 123.057 183.592C122.561 183.16 121.825 182.944 120.849 182.944H118.209V187.864H120.849C121.825 187.864 122.561 187.656 123.057 187.24C123.553 186.808 123.801 186.2 123.801 185.416ZM139.599 196.336C137.839 196.336 136.255 195.968 134.847 195.232C133.455 194.48 132.359 193.44 131.559 192.112C130.759 190.784 130.359 189.28 130.359 187.6C130.359 185.92 130.759 184.416 131.559 183.088C132.359 181.76 133.455 180.728 134.847 179.992C136.255 179.24 137.839 178.864 139.599 178.864C141.135 178.864 142.519 179.136 143.751 179.68C144.983 180.224 146.007 181.008 146.823 182.032L143.799 184.768C142.711 183.456 141.391 182.8 139.839 182.8C138.927 182.8 138.111 183 137.391 183.4C136.687 183.8 136.135 184.368 135.735 185.104C135.351 185.824 135.159 186.656 135.159 187.6C135.159 188.544 135.351 189.384 135.735 190.12C136.135 190.84 136.687 191.4 137.391 191.8C138.111 192.2 138.927 192.4 139.839 192.4C141.391 192.4 142.711 191.744 143.799 190.432L146.823 193.168C146.007 194.192 144.983 194.976 143.751 195.52C142.519 196.064 141.135 196.336 139.599 196.336ZM148.942 179.2H153.694V196H148.942V179.2ZM168.331 192.736H161.227L159.907 196H155.059L162.475 179.2H167.155L174.595 196H169.651L168.331 192.736ZM166.939 189.232L164.779 183.856L162.619 189.232H166.939ZM175.942 179.2H180.694V192.232H188.71V196H175.942V179.2Z" fill="white"/>
<path d="M113.476 78H109.503C108.978 78 108.552 78.4062 108.552 78.9072V84.5448C108.552 85.0458 108.978 85.452 109.503 85.452H113.476C114.001 85.452 114.427 85.0458 114.427 84.5448V78.9072C114.427 78.4062 114.001 78 113.476 78Z" fill="#1D1D1B"/>
<path d="M132.394 130.387L128.464 127.527C128.274 127.388 128.146 127.185 128.107 126.96C128.067 126.734 128.119 126.503 128.251 126.312C136.876 114.381 129.373 98.0434 114.334 95.982C110.371 95.4481 106.33 96.0377 102.716 97.6774C99.1025 99.3171 96.0746 101.934 94.01 105.203C91.9455 108.472 90.9356 112.247 91.1062 116.059C91.2768 119.871 92.6204 123.551 94.9695 126.64C96.5499 128.742 97.9434 130.986 99.3921 133.169L99.4176 133.21C99.4848 133.318 99.5272 133.439 99.542 133.565C99.5569 133.69 99.5439 133.817 99.5038 133.938C99.4637 134.058 99.3975 134.169 99.3094 134.263C99.2214 134.358 99.1135 134.433 98.9927 134.485L95.3051 136.162C95.1936 136.216 95.0721 136.248 94.9476 136.256C94.823 136.265 94.698 136.25 94.5795 136.212C94.4611 136.175 94.3516 136.115 94.2574 136.037C94.1632 135.959 94.0861 135.864 94.0306 135.757C91.9786 131.78 88.6224 128.641 86.9103 124.51C80.7713 109.635 90.7211 92.8716 107.252 90.4173C110.757 89.8889 114.338 90.0374 117.782 90.8541C121.227 91.6707 124.463 93.1389 127.301 95.1713C130.138 97.2037 132.518 99.759 134.3 102.685C136.081 105.612 137.227 108.849 137.67 112.206C138.52 118.634 136.876 124.526 132.963 129.832C132.857 129.974 132.738 130.107 132.619 130.237C132.549 130.293 132.473 130.343 132.394 130.387Z" fill="#1D1D1B"/>
<path d="M120.91 143.946H102.251C101.726 143.946 101.3 144.352 101.3 144.853V148.644C101.3 149.145 101.726 149.551 102.251 149.551H120.91C121.436 149.551 121.862 149.145 121.862 148.644V144.853C121.862 144.352 121.436 143.946 120.91 143.946Z" fill="#1D1D1B"/>
<path d="M120.91 153.395H102.251C101.726 153.395 101.3 153.801 101.3 154.302V158.093C101.3 158.594 101.726 159 102.251 159H120.91C121.436 159 121.862 158.594 121.862 158.093V154.302C121.862 153.801 121.436 153.395 120.91 153.395Z" fill="#1D1D1B"/>
<path d="M78.9955 112.17H71.9516C71.4261 112.17 71 112.576 71 113.077V116.795C71 117.296 71.4261 117.702 71.9516 117.702H78.9955C79.5211 117.702 79.9471 117.296 79.9471 116.795V113.077C79.9471 112.576 79.5211 112.17 78.9955 112.17Z" fill="#1D1D1B"/>
<path d="M151.048 112.146H143.996C143.47 112.146 143.044 112.552 143.044 113.053V116.799C143.044 117.3 143.47 117.706 143.996 117.706H151.048C151.574 117.706 152 117.3 152 116.799V113.053C152 112.552 151.574 112.146 151.048 112.146Z" fill="#1D1D1B"/>
<path d="M138.29 86.829L140.975 89.3886C141.064 89.4725 141.134 89.5722 141.182 89.682C141.23 89.7919 141.254 89.9096 141.254 90.0285C141.254 90.1474 141.23 90.2651 141.182 90.375C141.134 90.4848 141.064 90.5845 140.975 90.6684L136.638 94.7994C136.55 94.8835 136.446 94.9503 136.331 94.9958C136.216 95.0414 136.093 95.0649 135.969 95.0649C135.844 95.0649 135.721 95.0414 135.606 94.9958C135.491 94.9503 135.387 94.8835 135.3 94.7994L132.602 92.2398C132.513 92.1559 132.443 92.0562 132.395 91.9464C132.348 91.8365 132.323 91.7188 132.323 91.5999C132.323 91.481 132.348 91.3633 132.395 91.2534C132.443 91.1436 132.513 91.0439 132.602 90.96L136.939 86.829C137.028 86.7435 137.133 86.6756 137.249 86.6293C137.365 86.583 137.489 86.5591 137.615 86.5591C137.741 86.5591 137.865 86.583 137.981 86.6293C138.097 86.6756 138.202 86.7435 138.29 86.829V86.829Z" fill="#1D1D1B"/>
<path d="M86.4344 94.8966L81.9991 90.6725C81.9107 90.5885 81.8406 90.4888 81.7928 90.379C81.7449 90.2692 81.7203 90.1515 81.7203 90.0325C81.7203 89.9136 81.7449 89.7959 81.7928 89.6861C81.8406 89.5763 81.9107 89.4766 81.9991 89.3926L84.6883 86.8411C84.7764 86.7569 84.881 86.6901 84.9962 86.6444C85.1113 86.5988 85.2349 86.5753 85.3596 86.5753C85.4843 86.5753 85.6078 86.5988 85.723 86.6444C85.8382 86.6901 85.9428 86.7569 86.0308 86.8411L90.4577 91.0653C90.5464 91.1486 90.6169 91.2479 90.665 91.3574C90.7131 91.4669 90.7379 91.5844 90.7379 91.7032C90.7379 91.8219 90.7131 91.9394 90.665 92.049C90.6169 92.1585 90.5464 92.2578 90.4577 92.3411L87.7812 94.9007C87.6925 94.9848 87.5873 95.0514 87.4716 95.0967C87.3559 95.142 87.232 95.1652 87.1069 95.1648C86.9818 95.1644 86.8581 95.1405 86.7427 95.0945C86.6273 95.0485 86.5225 94.9812 86.4344 94.8966V94.8966Z" fill="#1D1D1B"/>
<path d="M127.228 137.13L123.497 135.563C123.378 135.513 123.27 135.439 123.181 135.348C123.092 135.256 123.024 135.148 122.981 135.03C122.938 134.912 122.921 134.787 122.931 134.663C122.941 134.539 122.977 134.417 123.039 134.307L124.713 131.302C124.774 131.193 124.858 131.097 124.959 131.02C125.061 130.943 125.178 130.886 125.303 130.854C125.428 130.821 125.559 130.813 125.688 130.83C125.816 130.848 125.94 130.89 126.051 130.954L129.517 132.979C129.722 133.1 129.871 133.291 129.934 133.512C129.997 133.734 129.97 133.97 129.857 134.174L128.451 136.725C128.339 136.928 128.151 137.083 127.923 137.158C127.696 137.233 127.447 137.223 127.228 137.13Z" fill="#1D1D1B"/>
<path d="M111.487 101.948C108.8 101.952 106.175 102.715 103.942 104.14C101.71 105.566 99.9708 107.59 98.9444 109.957C97.9181 112.325 97.6507 114.929 98.1759 117.441C98.7011 119.953 99.9955 122.26 101.895 124.072C103.795 125.883 106.216 127.117 108.851 127.618C111.486 128.118 114.218 127.863 116.701 126.885C119.185 125.907 121.308 124.249 122.803 122.12C124.299 119.992 125.099 117.489 125.103 114.928C125.106 113.223 124.756 111.533 124.073 109.957C123.389 108.381 122.386 106.949 121.122 105.744C119.857 104.538 118.354 103.582 116.701 102.93C115.048 102.279 113.276 101.945 111.487 101.948ZM119.347 112.802L109.813 119.974C109.435 120.262 108.964 120.418 108.479 120.416C108.181 120.417 107.886 120.358 107.612 120.245C107.339 120.131 107.093 119.964 106.89 119.756L103.555 116.301C103.496 116.239 103.45 116.167 103.42 116.089C103.389 116.011 103.376 115.927 103.379 115.844C103.383 115.76 103.403 115.678 103.44 115.602C103.477 115.527 103.529 115.458 103.594 115.402L105.782 113.478C105.912 113.363 106.086 113.303 106.263 113.309C106.441 113.316 106.608 113.39 106.729 113.514L108.288 115.134C108.403 115.253 108.56 115.326 108.729 115.339C108.897 115.351 109.065 115.303 109.197 115.203L116.67 109.59C116.81 109.486 116.988 109.438 117.165 109.458C117.341 109.478 117.502 109.563 117.613 109.695L119.457 111.927C119.561 112.058 119.607 112.222 119.587 112.385C119.566 112.549 119.48 112.698 119.347 112.802Z" fill="#1D1D1B"/>
</svg>
