<svg width="227" height="451" viewBox="0 0 227 451" fill="none" xmlns="http://www.w3.org/2000/svg">
<path d="M0 28L224 0V423L0 451V28Z" fill="#FCA628"/>
<mask id="mask0_446_96" style="mask-type:alpha" maskUnits="userSpaceOnUse" x="0" y="0" width="224" height="451">
<path d="M0.5 450.434V28.4414L223.5 0.56639V422.559L0.5 450.434Z" fill="#FCA628" stroke="black"/>
</mask>
<g mask="url(#mask0_446_96)">
<path d="M225.5 30V28.5H224H180H178.5V30V52.3771V53.8771H180H193.331V118V119.5H194.831H224H225.5V118V30Z" stroke="#F44A22" stroke-opacity="0.5" stroke-width="3"/>
</g>
<path d="M55.0473 272.4C56.6553 272.4 57.9153 272.784 58.8273 273.552C59.7393 274.32 60.1953 275.376 60.1953 276.72C60.1953 278.064 59.7393 279.12 58.8273 279.888C57.9153 280.644 56.6553 281.022 55.0473 281.022H51.6633V285H50.3313V272.4H55.0473ZM55.0113 279.852C56.2593 279.852 57.2133 279.582 57.8733 279.042C58.5333 278.49 58.8633 277.716 58.8633 276.72C58.8633 275.7 58.5333 274.92 57.8733 274.38C57.2133 273.828 56.2593 273.552 55.0113 273.552H51.6633V279.852H55.0113ZM62.9812 271.644H64.2592V285H62.9812V271.644ZM71.1272 275.46C72.3632 275.46 73.3112 275.772 73.9712 276.396C74.6312 277.008 74.9612 277.92 74.9612 279.132V285H73.7372V283.524C73.4492 284.016 73.0232 284.4 72.4592 284.676C71.9072 284.952 71.2472 285.09 70.4792 285.09C69.4232 285.09 68.5832 284.838 67.9592 284.334C67.3352 283.83 67.0232 283.164 67.0232 282.336C67.0232 281.532 67.3112 280.884 67.8872 280.392C68.4752 279.9 69.4052 279.654 70.6772 279.654H73.6832V279.078C73.6832 278.262 73.4552 277.644 72.9992 277.224C72.5432 276.792 71.8772 276.576 71.0012 276.576C70.4012 276.576 69.8252 276.678 69.2732 276.882C68.7212 277.074 68.2472 277.344 67.8512 277.692L67.2752 276.738C67.7552 276.33 68.3312 276.018 69.0032 275.802C69.6752 275.574 70.3832 275.46 71.1272 275.46ZM70.6772 284.082C71.3972 284.082 72.0152 283.92 72.5312 283.596C73.0472 283.26 73.4312 282.78 73.6832 282.156V280.608H70.7132C69.0932 280.608 68.2832 281.172 68.2832 282.3C68.2832 282.852 68.4932 283.29 68.9132 283.614C69.3332 283.926 69.9212 284.082 70.6772 284.082ZM83.2564 275.46C84.4444 275.46 85.3864 275.808 86.0824 276.504C86.7904 277.188 87.1444 278.19 87.1444 279.51V285H85.8664V279.636C85.8664 278.652 85.6204 277.902 85.1284 277.386C84.6364 276.87 83.9344 276.612 83.0224 276.612C82.0024 276.612 81.1924 276.918 80.5924 277.53C80.0044 278.13 79.7104 278.964 79.7104 280.032V285H78.4324V275.532H79.6564V277.278C80.0044 276.702 80.4844 276.258 81.0964 275.946C81.7204 275.622 82.4404 275.46 83.2564 275.46ZM98.8932 280.662H90.9732C91.0452 281.646 91.4232 282.444 92.1072 283.056C92.7912 283.656 93.6552 283.956 94.6992 283.956C95.2872 283.956 95.8272 283.854 96.3192 283.65C96.8112 283.434 97.2372 283.122 97.5972 282.714L98.3172 283.542C97.8972 284.046 97.3692 284.43 96.7332 284.694C96.1092 284.958 95.4192 285.09 94.6632 285.09C93.6912 285.09 92.8272 284.886 92.0712 284.478C91.3272 284.058 90.7452 283.482 90.3252 282.75C89.9052 282.018 89.6952 281.19 89.6952 280.266C89.6952 279.342 89.8932 278.514 90.2892 277.782C90.6972 277.05 91.2492 276.48 91.9452 276.072C92.6532 275.664 93.4452 275.46 94.3212 275.46C95.1972 275.46 95.9832 275.664 96.6792 276.072C97.3752 276.48 97.9212 277.05 98.3172 277.782C98.7132 278.502 98.9112 279.33 98.9112 280.266L98.8932 280.662ZM94.3212 276.558C93.4092 276.558 92.6412 276.852 92.0172 277.44C91.4052 278.016 91.0572 278.772 90.9732 279.708H97.6872C97.6032 278.772 97.2492 278.016 96.6252 277.44C96.0132 276.852 95.2452 276.558 94.3212 276.558ZM100.108 288.582C99.7125 288.582 99.3405 288.528 98.9925 288.42C98.6325 288.324 98.3385 288.174 98.1105 287.97L98.5605 286.998C98.9325 287.322 99.4245 287.484 100.036 287.484C100.54 287.484 100.924 287.334 101.188 287.034C101.464 286.734 101.602 286.29 101.602 285.702V275.532H102.88V285.702C102.88 286.59 102.64 287.292 102.16 287.808C101.68 288.324 100.996 288.582 100.108 288.582ZM102.25 273.444C101.986 273.444 101.764 273.354 101.584 273.174C101.404 272.994 101.314 272.778 101.314 272.526C101.314 272.286 101.404 272.076 101.584 271.896C101.764 271.716 101.986 271.626 102.25 271.626C102.514 271.626 102.736 271.716 102.916 271.896C103.096 272.064 103.186 272.268 103.186 272.508C103.186 272.772 103.096 272.994 102.916 273.174C102.736 273.354 102.514 273.444 102.25 273.444ZM109.764 275.46C111 275.46 111.948 275.772 112.608 276.396C113.268 277.008 113.598 277.92 113.598 279.132V285H112.374V283.524C112.086 284.016 111.66 284.4 111.096 284.676C110.544 284.952 109.884 285.09 109.116 285.09C108.06 285.09 107.22 284.838 106.596 284.334C105.972 283.83 105.66 283.164 105.66 282.336C105.66 281.532 105.948 280.884 106.524 280.392C107.112 279.9 108.042 279.654 109.314 279.654H112.32V279.078C112.32 278.262 112.092 277.644 111.636 277.224C111.18 276.792 110.514 276.576 109.638 276.576C109.038 276.576 108.462 276.678 107.91 276.882C107.358 277.074 106.884 277.344 106.488 277.692L105.912 276.738C106.392 276.33 106.968 276.018 107.64 275.802C108.312 275.574 109.02 275.46 109.764 275.46ZM109.314 284.082C110.034 284.082 110.652 283.92 111.168 283.596C111.684 283.26 112.068 282.78 112.32 282.156V280.608H109.35C107.73 280.608 106.92 281.172 106.92 282.3C106.92 282.852 107.13 283.29 107.55 283.614C107.97 283.926 108.558 284.082 109.314 284.082ZM128.877 275.46C130.065 275.46 130.995 275.802 131.667 276.486C132.351 277.17 132.693 278.178 132.693 279.51V285H131.415V279.636C131.415 278.652 131.175 277.902 130.695 277.386C130.227 276.87 129.561 276.612 128.697 276.612C127.713 276.612 126.939 276.918 126.375 277.53C125.811 278.13 125.529 278.964 125.529 280.032V285H124.251V279.636C124.251 278.652 124.011 277.902 123.531 277.386C123.063 276.87 122.391 276.612 121.515 276.612C120.543 276.612 119.769 276.918 119.193 277.53C118.629 278.13 118.347 278.964 118.347 280.032V285H117.069V275.532H118.293V277.26C118.629 276.684 119.097 276.24 119.697 275.928C120.297 275.616 120.987 275.46 121.767 275.46C122.559 275.46 123.243 275.628 123.819 275.964C124.407 276.3 124.845 276.798 125.133 277.458C125.481 276.834 125.979 276.348 126.627 276C127.287 275.64 128.037 275.46 128.877 275.46ZM144.438 280.662H136.518C136.59 281.646 136.968 282.444 137.652 283.056C138.336 283.656 139.2 283.956 140.244 283.956C140.832 283.956 141.372 283.854 141.864 283.65C142.356 283.434 142.782 283.122 143.142 282.714L143.862 283.542C143.442 284.046 142.914 284.43 142.278 284.694C141.654 284.958 140.964 285.09 140.208 285.09C139.236 285.09 138.372 284.886 137.616 284.478C136.872 284.058 136.29 283.482 135.87 282.75C135.45 282.018 135.24 281.19 135.24 280.266C135.24 279.342 135.438 278.514 135.834 277.782C136.242 277.05 136.794 276.48 137.49 276.072C138.198 275.664 138.99 275.46 139.866 275.46C140.742 275.46 141.528 275.664 142.224 276.072C142.92 276.48 143.466 277.05 143.862 277.782C144.258 278.502 144.456 279.33 144.456 280.266L144.438 280.662ZM139.866 276.558C138.954 276.558 138.186 276.852 137.562 277.44C136.95 278.016 136.602 278.772 136.518 279.708H143.232C143.148 278.772 142.794 278.016 142.17 277.44C141.558 276.852 140.79 276.558 139.866 276.558ZM151.881 275.46C153.069 275.46 154.011 275.808 154.707 276.504C155.415 277.188 155.769 278.19 155.769 279.51V285H154.491V279.636C154.491 278.652 154.245 277.902 153.753 277.386C153.261 276.87 152.559 276.612 151.647 276.612C150.627 276.612 149.817 276.918 149.217 277.53C148.629 278.13 148.335 278.964 148.335 280.032V285H147.057V275.532H148.281V277.278C148.629 276.702 149.109 276.258 149.721 275.946C150.345 275.622 151.065 275.46 151.881 275.46ZM164.225 284.424C163.985 284.64 163.685 284.808 163.325 284.928C162.977 285.036 162.611 285.09 162.227 285.09C161.339 285.09 160.655 284.85 160.175 284.37C159.695 283.89 159.455 283.212 159.455 282.336V276.612H157.763V275.532H159.455V273.462H160.733V275.532H163.613V276.612H160.733V282.264C160.733 282.828 160.871 283.26 161.147 283.56C161.435 283.848 161.843 283.992 162.371 283.992C162.635 283.992 162.887 283.95 163.127 283.866C163.379 283.782 163.595 283.662 163.775 283.506L164.225 284.424ZM170.088 285.09C169.176 285.09 168.354 284.886 167.622 284.478C166.89 284.058 166.314 283.482 165.894 282.75C165.474 282.018 165.264 281.19 165.264 280.266C165.264 279.342 165.474 278.514 165.894 277.782C166.314 277.05 166.89 276.48 167.622 276.072C168.354 275.664 169.176 275.46 170.088 275.46C171 275.46 171.822 275.664 172.554 276.072C173.286 276.48 173.856 277.05 174.264 277.782C174.684 278.514 174.894 279.342 174.894 280.266C174.894 281.19 174.684 282.018 174.264 282.75C173.856 283.482 173.286 284.058 172.554 284.478C171.822 284.886 171 285.09 170.088 285.09ZM170.088 283.956C170.76 283.956 171.36 283.806 171.888 283.506C172.428 283.194 172.848 282.756 173.148 282.192C173.448 281.628 173.598 280.986 173.598 280.266C173.598 279.546 173.448 278.904 173.148 278.34C172.848 277.776 172.428 277.344 171.888 277.044C171.36 276.732 170.76 276.576 170.088 276.576C169.416 276.576 168.81 276.732 168.27 277.044C167.742 277.344 167.322 277.776 167.01 278.34C166.71 278.904 166.56 279.546 166.56 280.266C166.56 280.986 166.71 281.628 167.01 282.192C167.322 282.756 167.742 283.194 168.27 283.506C168.81 283.806 169.416 283.956 170.088 283.956ZM32.5797 302.662H24.6597C24.7317 303.646 25.1097 304.444 25.7937 305.056C26.4777 305.656 27.3417 305.956 28.3857 305.956C28.9737 305.956 29.5137 305.854 30.0057 305.65C30.4977 305.434 30.9237 305.122 31.2837 304.714L32.0037 305.542C31.5837 306.046 31.0557 306.43 30.4197 306.694C29.7957 306.958 29.1057 307.09 28.3497 307.09C27.3777 307.09 26.5137 306.886 25.7577 306.478C25.0137 306.058 24.4317 305.482 24.0117 304.75C23.5917 304.018 23.3817 303.19 23.3817 302.266C23.3817 301.342 23.5797 300.514 23.9757 299.782C24.3837 299.05 24.9357 298.48 25.6317 298.072C26.3397 297.664 27.1317 297.46 28.0077 297.46C28.8837 297.46 29.6697 297.664 30.3657 298.072C31.0617 298.48 31.6077 299.05 32.0037 299.782C32.3997 300.502 32.5977 301.33 32.5977 302.266L32.5797 302.662ZM28.0077 298.558C27.0957 298.558 26.3277 298.852 25.7037 299.44C25.0917 300.016 24.7437 300.772 24.6597 301.708H31.3737C31.2897 300.772 30.9357 300.016 30.3117 299.44C29.6997 298.852 28.9317 298.558 28.0077 298.558ZM40.9653 307L37.9593 303.04L34.9353 307H33.4953L37.2393 302.14L33.6753 297.532H35.1153L37.9593 301.24L40.8033 297.532H42.2073L38.6433 302.14L42.4233 307H40.9653ZM48.1406 307.09C47.2046 307.09 46.3646 306.886 45.6206 306.478C44.8886 306.07 44.3126 305.5 43.8926 304.768C43.4726 304.024 43.2626 303.19 43.2626 302.266C43.2626 301.342 43.4726 300.514 43.8926 299.782C44.3126 299.05 44.8886 298.48 45.6206 298.072C46.3646 297.664 47.2046 297.46 48.1406 297.46C48.9566 297.46 49.6826 297.622 50.3186 297.946C50.9666 298.258 51.4766 298.72 51.8486 299.332L50.8946 299.98C50.5826 299.512 50.1866 299.164 49.7066 298.936C49.2266 298.696 48.7046 298.576 48.1406 298.576C47.4566 298.576 46.8386 298.732 46.2866 299.044C45.7466 299.344 45.3206 299.776 45.0086 300.34C44.7086 300.904 44.5586 301.546 44.5586 302.266C44.5586 302.998 44.7086 303.646 45.0086 304.21C45.3206 304.762 45.7466 305.194 46.2866 305.506C46.8386 305.806 47.4566 305.956 48.1406 305.956C48.7046 305.956 49.2266 305.842 49.7066 305.614C50.1866 305.386 50.5826 305.038 50.8946 304.57L51.8486 305.218C51.4766 305.83 50.9666 306.298 50.3186 306.622C49.6706 306.934 48.9446 307.09 48.1406 307.09ZM54.2185 293.644H55.4965V307H54.2185V293.644ZM67.5845 297.532V307H66.3605V305.272C66.0245 305.848 65.5625 306.298 64.9745 306.622C64.3865 306.934 63.7145 307.09 62.9585 307.09C61.7225 307.09 60.7445 306.748 60.0245 306.064C59.3165 305.368 58.9625 304.354 58.9625 303.022V297.532H60.2405V302.896C60.2405 303.892 60.4865 304.648 60.9785 305.164C61.4705 305.68 62.1725 305.938 63.0845 305.938C64.0805 305.938 64.8665 305.638 65.4425 305.038C66.0185 304.426 66.3065 303.58 66.3065 302.5V297.532H67.5845ZM73.7018 307.09C72.9338 307.09 72.1958 306.982 71.4878 306.766C70.7918 306.538 70.2458 306.256 69.8498 305.92L70.4258 304.912C70.8218 305.224 71.3198 305.482 71.9198 305.686C72.5198 305.878 73.1438 305.974 73.7918 305.974C74.6558 305.974 75.2918 305.842 75.6998 305.578C76.1198 305.302 76.3298 304.918 76.3298 304.426C76.3298 304.078 76.2158 303.808 75.9878 303.616C75.7598 303.412 75.4718 303.262 75.1238 303.166C74.7758 303.058 74.3138 302.956 73.7378 302.86C72.9698 302.716 72.3518 302.572 71.8838 302.428C71.4158 302.272 71.0138 302.014 70.6778 301.654C70.3538 301.294 70.1918 300.796 70.1918 300.16C70.1918 299.368 70.5218 298.72 71.1818 298.216C71.8418 297.712 72.7598 297.46 73.9358 297.46C74.5478 297.46 75.1598 297.544 75.7718 297.712C76.3838 297.868 76.8878 298.078 77.2838 298.342L76.7258 299.368C75.9458 298.828 75.0158 298.558 73.9358 298.558C73.1198 298.558 72.5018 298.702 72.0818 298.99C71.6738 299.278 71.4698 299.656 71.4698 300.124C71.4698 300.484 71.5838 300.772 71.8118 300.988C72.0518 301.204 72.3458 301.366 72.6938 301.474C73.0418 301.57 73.5218 301.672 74.1338 301.78C74.8898 301.924 75.4958 302.068 75.9518 302.212C76.4078 302.356 76.7978 302.602 77.1218 302.95C77.4458 303.298 77.6078 303.778 77.6078 304.39C77.6078 305.218 77.2598 305.878 76.5638 306.37C75.8798 306.85 74.9258 307.09 73.7018 307.09ZM79.9705 297.532H81.2485V307H79.9705V297.532ZM80.6185 295.462C80.3545 295.462 80.1325 295.372 79.9525 295.192C79.7725 295.012 79.6825 294.796 79.6825 294.544C79.6825 294.304 79.7725 294.094 79.9525 293.914C80.1325 293.734 80.3545 293.644 80.6185 293.644C80.8825 293.644 81.1045 293.734 81.2845 293.914C81.4645 294.082 81.5545 294.286 81.5545 294.526C81.5545 294.79 81.4645 295.012 81.2845 295.192C81.1045 295.372 80.8825 295.462 80.6185 295.462ZM92.7605 297.532L88.5485 307H87.2345L83.0405 297.532H84.3725L87.9185 305.596L91.5005 297.532H92.7605ZM98.1666 307.09C97.2546 307.09 96.4326 306.886 95.7006 306.478C94.9686 306.058 94.3926 305.482 93.9726 304.75C93.5526 304.018 93.3426 303.19 93.3426 302.266C93.3426 301.342 93.5526 300.514 93.9726 299.782C94.3926 299.05 94.9686 298.48 95.7006 298.072C96.4326 297.664 97.2546 297.46 98.1666 297.46C99.0786 297.46 99.9006 297.664 100.633 298.072C101.365 298.48 101.935 299.05 102.343 299.782C102.763 300.514 102.973 301.342 102.973 302.266C102.973 303.19 102.763 304.018 102.343 304.75C101.935 305.482 101.365 306.058 100.633 306.478C99.9006 306.886 99.0786 307.09 98.1666 307.09ZM98.1666 305.956C98.8386 305.956 99.4386 305.806 99.9666 305.506C100.507 305.194 100.927 304.756 101.227 304.192C101.527 303.628 101.677 302.986 101.677 302.266C101.677 301.546 101.527 300.904 101.227 300.34C100.927 299.776 100.507 299.344 99.9666 299.044C99.4386 298.732 98.8386 298.576 98.1666 298.576C97.4946 298.576 96.8886 298.732 96.3486 299.044C95.8206 299.344 95.4006 299.776 95.0886 300.34C94.7886 300.904 94.6386 301.546 94.6386 302.266C94.6386 302.986 94.7886 303.628 95.0886 304.192C95.4006 304.756 95.8206 305.194 96.3486 305.506C96.8886 305.806 97.4946 305.956 98.1666 305.956ZM115.171 297.46C116.059 297.46 116.863 297.664 117.583 298.072C118.303 298.468 118.867 299.032 119.275 299.764C119.683 300.496 119.887 301.33 119.887 302.266C119.887 303.214 119.683 304.054 119.275 304.786C118.867 305.518 118.303 306.088 117.583 306.496C116.875 306.892 116.071 307.09 115.171 307.09C114.403 307.09 113.707 306.934 113.083 306.622C112.471 306.298 111.967 305.83 111.571 305.218V310.492H110.293V297.532H111.517V299.404C111.901 298.78 112.405 298.3 113.029 297.964C113.665 297.628 114.379 297.46 115.171 297.46ZM115.081 305.956C115.741 305.956 116.341 305.806 116.881 305.506C117.421 305.194 117.841 304.756 118.141 304.192C118.453 303.628 118.609 302.986 118.609 302.266C118.609 301.546 118.453 300.91 118.141 300.358C117.841 299.794 117.421 299.356 116.881 299.044C116.341 298.732 115.741 298.576 115.081 298.576C114.409 298.576 113.803 298.732 113.263 299.044C112.735 299.356 112.315 299.794 112.003 300.358C111.703 300.91 111.553 301.546 111.553 302.266C111.553 302.986 111.703 303.628 112.003 304.192C112.315 304.756 112.735 305.194 113.263 305.506C113.803 305.806 114.409 305.956 115.081 305.956ZM125.751 297.46C126.987 297.46 127.935 297.772 128.595 298.396C129.255 299.008 129.585 299.92 129.585 301.132V307H128.361V305.524C128.073 306.016 127.647 306.4 127.083 306.676C126.531 306.952 125.871 307.09 125.103 307.09C124.047 307.09 123.207 306.838 122.583 306.334C121.959 305.83 121.647 305.164 121.647 304.336C121.647 303.532 121.935 302.884 122.511 302.392C123.099 301.9 124.029 301.654 125.301 301.654H128.307V301.078C128.307 300.262 128.079 299.644 127.623 299.224C127.167 298.792 126.501 298.576 125.625 298.576C125.025 298.576 124.449 298.678 123.897 298.882C123.345 299.074 122.871 299.344 122.475 299.692L121.899 298.738C122.379 298.33 122.955 298.018 123.627 297.802C124.299 297.574 125.007 297.46 125.751 297.46ZM125.301 306.082C126.021 306.082 126.639 305.92 127.155 305.596C127.671 305.26 128.055 304.78 128.307 304.156V302.608H125.337C123.717 302.608 122.907 303.172 122.907 304.3C122.907 304.852 123.117 305.29 123.537 305.614C123.957 305.926 124.545 306.082 125.301 306.082ZM134.28 299.386C134.58 298.75 135.024 298.27 135.612 297.946C136.212 297.622 136.95 297.46 137.826 297.46V298.702L137.52 298.684C136.524 298.684 135.744 298.99 135.18 299.602C134.616 300.214 134.334 301.072 134.334 302.176V307H133.056V297.532H134.28V299.386ZM143.435 297.46C144.671 297.46 145.619 297.772 146.279 298.396C146.939 299.008 147.269 299.92 147.269 301.132V307H146.045V305.524C145.757 306.016 145.331 306.4 144.767 306.676C144.215 306.952 143.555 307.09 142.787 307.09C141.731 307.09 140.891 306.838 140.267 306.334C139.643 305.83 139.331 305.164 139.331 304.336C139.331 303.532 139.619 302.884 140.195 302.392C140.783 301.9 141.713 301.654 142.985 301.654H145.991V301.078C145.991 300.262 145.763 299.644 145.307 299.224C144.851 298.792 144.185 298.576 143.309 298.576C142.709 298.576 142.133 298.678 141.581 298.882C141.029 299.074 140.555 299.344 140.159 299.692L139.583 298.738C140.063 298.33 140.639 298.018 141.311 297.802C141.983 297.574 142.691 297.46 143.435 297.46ZM142.985 306.082C143.705 306.082 144.323 305.92 144.839 305.596C145.355 305.26 145.739 304.78 145.991 304.156V302.608H143.021C141.401 302.608 140.591 303.172 140.591 304.3C140.591 304.852 140.801 305.29 141.221 305.614C141.641 305.926 142.229 306.082 142.985 306.082ZM159.321 307.09C158.409 307.09 157.587 306.886 156.855 306.478C156.123 306.058 155.547 305.482 155.127 304.75C154.707 304.018 154.497 303.19 154.497 302.266C154.497 301.342 154.707 300.514 155.127 299.782C155.547 299.05 156.123 298.48 156.855 298.072C157.587 297.664 158.409 297.46 159.321 297.46C160.233 297.46 161.055 297.664 161.787 298.072C162.519 298.48 163.089 299.05 163.497 299.782C163.917 300.514 164.127 301.342 164.127 302.266C164.127 303.19 163.917 304.018 163.497 304.75C163.089 305.482 162.519 306.058 161.787 306.478C161.055 306.886 160.233 307.09 159.321 307.09ZM159.321 305.956C159.993 305.956 160.593 305.806 161.121 305.506C161.661 305.194 162.081 304.756 162.381 304.192C162.681 303.628 162.831 302.986 162.831 302.266C162.831 301.546 162.681 300.904 162.381 300.34C162.081 299.776 161.661 299.344 161.121 299.044C160.593 298.732 159.993 298.576 159.321 298.576C158.649 298.576 158.043 298.732 157.503 299.044C156.975 299.344 156.555 299.776 156.243 300.34C155.943 300.904 155.793 301.546 155.793 302.266C155.793 302.986 155.943 303.628 156.243 304.192C156.555 304.756 156.975 305.194 157.503 305.506C158.043 305.806 158.649 305.956 159.321 305.956ZM173.985 307.09C173.217 307.09 172.479 306.982 171.771 306.766C171.075 306.538 170.529 306.256 170.133 305.92L170.709 304.912C171.105 305.224 171.603 305.482 172.203 305.686C172.803 305.878 173.427 305.974 174.075 305.974C174.939 305.974 175.575 305.842 175.983 305.578C176.403 305.302 176.613 304.918 176.613 304.426C176.613 304.078 176.499 303.808 176.271 303.616C176.043 303.412 175.755 303.262 175.407 303.166C175.059 303.058 174.597 302.956 174.021 302.86C173.253 302.716 172.635 302.572 172.167 302.428C171.699 302.272 171.297 302.014 170.961 301.654C170.637 301.294 170.475 300.796 170.475 300.16C170.475 299.368 170.805 298.72 171.465 298.216C172.125 297.712 173.043 297.46 174.219 297.46C174.831 297.46 175.443 297.544 176.055 297.712C176.667 297.868 177.171 298.078 177.567 298.342L177.009 299.368C176.229 298.828 175.299 298.558 174.219 298.558C173.403 298.558 172.785 298.702 172.365 298.99C171.957 299.278 171.753 299.656 171.753 300.124C171.753 300.484 171.867 300.772 172.095 300.988C172.335 301.204 172.629 301.366 172.977 301.474C173.325 301.57 173.805 301.672 174.417 301.78C175.173 301.924 175.779 302.068 176.235 302.212C176.691 302.356 177.081 302.602 177.405 302.95C177.729 303.298 177.891 303.778 177.891 304.39C177.891 305.218 177.543 305.878 176.847 306.37C176.163 306.85 175.209 307.09 173.985 307.09ZM188.498 302.662H180.578C180.65 303.646 181.028 304.444 181.712 305.056C182.396 305.656 183.26 305.956 184.304 305.956C184.892 305.956 185.432 305.854 185.924 305.65C186.416 305.434 186.842 305.122 187.202 304.714L187.922 305.542C187.502 306.046 186.974 306.43 186.338 306.694C185.714 306.958 185.024 307.09 184.268 307.09C183.296 307.09 182.432 306.886 181.676 306.478C180.932 306.058 180.35 305.482 179.93 304.75C179.51 304.018 179.3 303.19 179.3 302.266C179.3 301.342 179.498 300.514 179.894 299.782C180.302 299.05 180.854 298.48 181.55 298.072C182.258 297.664 183.05 297.46 183.926 297.46C184.802 297.46 185.588 297.664 186.284 298.072C186.98 298.48 187.526 299.05 187.922 299.782C188.318 300.502 188.516 301.33 188.516 302.266L188.498 302.662ZM183.926 298.558C183.014 298.558 182.246 298.852 181.622 299.44C181.01 300.016 180.662 300.772 180.578 301.708H187.292C187.208 300.772 186.854 300.016 186.23 299.44C185.618 298.852 184.85 298.558 183.926 298.558ZM199.649 297.532V307H198.425V305.272C198.089 305.848 197.627 306.298 197.039 306.622C196.451 306.934 195.779 307.09 195.023 307.09C193.787 307.09 192.809 306.748 192.089 306.064C191.381 305.368 191.027 304.354 191.027 303.022V297.532H192.305V302.896C192.305 303.892 192.551 304.648 193.043 305.164C193.535 305.68 194.237 305.938 195.149 305.938C196.145 305.938 196.931 305.638 197.507 305.038C198.083 304.426 198.371 303.58 198.371 302.5V297.532H199.649ZM80.3472 319.46C81.5352 319.46 82.4772 319.808 83.1732 320.504C83.8812 321.188 84.2352 322.19 84.2352 323.51V329H82.9572V323.636C82.9572 322.652 82.7112 321.902 82.2192 321.386C81.7272 320.87 81.0252 320.612 80.1132 320.612C79.0932 320.612 78.2832 320.918 77.6832 321.53C77.0952 322.13 76.8012 322.964 76.8012 324.032V329H75.5232V319.532H76.7472V321.278C77.0952 320.702 77.5752 320.258 78.1872 319.946C78.8112 319.622 79.5312 319.46 80.3472 319.46ZM95.984 324.662H88.064C88.136 325.646 88.514 326.444 89.198 327.056C89.882 327.656 90.746 327.956 91.79 327.956C92.378 327.956 92.918 327.854 93.41 327.65C93.902 327.434 94.328 327.122 94.688 326.714L95.408 327.542C94.988 328.046 94.46 328.43 93.824 328.694C93.2 328.958 92.51 329.09 91.754 329.09C90.782 329.09 89.918 328.886 89.162 328.478C88.418 328.058 87.836 327.482 87.416 326.75C86.996 326.018 86.786 325.19 86.786 324.266C86.786 323.342 86.984 322.514 87.38 321.782C87.788 321.05 88.34 320.48 89.036 320.072C89.744 319.664 90.536 319.46 91.412 319.46C92.288 319.46 93.074 319.664 93.77 320.072C94.466 320.48 95.012 321.05 95.408 321.782C95.804 322.502 96.002 323.33 96.002 324.266L95.984 324.662ZM91.412 320.558C90.5 320.558 89.732 320.852 89.108 321.44C88.496 322.016 88.148 322.772 88.064 323.708H94.778C94.694 322.772 94.34 322.016 93.716 321.44C93.104 320.852 92.336 320.558 91.412 320.558ZM107.369 319.532V327.848C107.369 329.456 106.973 330.644 106.181 331.412C105.401 332.192 104.219 332.582 102.635 332.582C101.759 332.582 100.925 332.45 100.133 332.186C99.3533 331.934 98.7173 331.58 98.2253 331.124L98.8733 330.152C99.3293 330.56 99.8813 330.878 100.529 331.106C101.189 331.334 101.879 331.448 102.599 331.448C103.799 331.448 104.681 331.166 105.245 330.602C105.809 330.05 106.091 329.186 106.091 328.01V326.804C105.695 327.404 105.173 327.86 104.525 328.172C103.889 328.484 103.181 328.64 102.401 328.64C101.513 328.64 100.703 328.448 99.9713 328.064C99.2513 327.668 98.6813 327.122 98.2613 326.426C97.8533 325.718 97.6493 324.92 97.6493 324.032C97.6493 323.144 97.8533 322.352 98.2613 321.656C98.6813 320.96 99.2513 320.42 99.9713 320.036C100.691 319.652 101.501 319.46 102.401 319.46C103.205 319.46 103.931 319.622 104.579 319.946C105.227 320.27 105.749 320.738 106.145 321.35V319.532H107.369ZM102.527 327.506C103.211 327.506 103.829 327.362 104.381 327.074C104.933 326.774 105.359 326.36 105.659 325.832C105.971 325.304 106.127 324.704 106.127 324.032C106.127 323.36 105.971 322.766 105.659 322.25C105.359 321.722 104.933 321.314 104.381 321.026C103.841 320.726 103.223 320.576 102.527 320.576C101.843 320.576 101.225 320.72 100.673 321.008C100.133 321.296 99.7073 321.704 99.3953 322.232C99.0953 322.76 98.9453 323.36 98.9453 324.032C98.9453 324.704 99.0953 325.304 99.3953 325.832C99.7073 326.36 100.133 326.774 100.673 327.074C101.225 327.362 101.843 327.506 102.527 327.506ZM114.813 329.09C113.901 329.09 113.079 328.886 112.347 328.478C111.615 328.058 111.039 327.482 110.619 326.75C110.199 326.018 109.989 325.19 109.989 324.266C109.989 323.342 110.199 322.514 110.619 321.782C111.039 321.05 111.615 320.48 112.347 320.072C113.079 319.664 113.901 319.46 114.813 319.46C115.725 319.46 116.547 319.664 117.279 320.072C118.011 320.48 118.581 321.05 118.989 321.782C119.409 322.514 119.619 323.342 119.619 324.266C119.619 325.19 119.409 326.018 118.989 326.75C118.581 327.482 118.011 328.058 117.279 328.478C116.547 328.886 115.725 329.09 114.813 329.09ZM114.813 327.956C115.485 327.956 116.085 327.806 116.613 327.506C117.153 327.194 117.573 326.756 117.873 326.192C118.173 325.628 118.323 324.986 118.323 324.266C118.323 323.546 118.173 322.904 117.873 322.34C117.573 321.776 117.153 321.344 116.613 321.044C116.085 320.732 115.485 320.576 114.813 320.576C114.141 320.576 113.535 320.732 112.995 321.044C112.467 321.344 112.047 321.776 111.735 322.34C111.435 322.904 111.285 323.546 111.285 324.266C111.285 324.986 111.435 325.628 111.735 326.192C112.047 326.756 112.467 327.194 112.995 327.506C113.535 327.806 114.141 327.956 114.813 327.956ZM116.091 315.824H117.801L114.885 318.056H113.625L116.091 315.824ZM126.152 329.09C125.216 329.09 124.376 328.886 123.632 328.478C122.9 328.07 122.324 327.5 121.904 326.768C121.484 326.024 121.274 325.19 121.274 324.266C121.274 323.342 121.484 322.514 121.904 321.782C122.324 321.05 122.9 320.48 123.632 320.072C124.376 319.664 125.216 319.46 126.152 319.46C126.968 319.46 127.694 319.622 128.33 319.946C128.978 320.258 129.488 320.72 129.86 321.332L128.906 321.98C128.594 321.512 128.198 321.164 127.718 320.936C127.238 320.696 126.716 320.576 126.152 320.576C125.468 320.576 124.85 320.732 124.298 321.044C123.758 321.344 123.332 321.776 123.02 322.34C122.72 322.904 122.57 323.546 122.57 324.266C122.57 324.998 122.72 325.646 123.02 326.21C123.332 326.762 123.758 327.194 124.298 327.506C124.85 327.806 125.468 327.956 126.152 327.956C126.716 327.956 127.238 327.842 127.718 327.614C128.198 327.386 128.594 327.038 128.906 326.57L129.86 327.218C129.488 327.83 128.978 328.298 128.33 328.622C127.682 328.934 126.956 329.09 126.152 329.09ZM132.371 319.532H133.649V329H132.371V319.532ZM133.019 317.462C132.755 317.462 132.533 317.372 132.353 317.192C132.173 317.012 132.083 316.796 132.083 316.544C132.083 316.304 132.173 316.094 132.353 315.914C132.533 315.734 132.755 315.644 133.019 315.644C133.283 315.644 133.505 315.734 133.685 315.914C133.865 316.082 133.955 316.286 133.955 316.526C133.955 316.79 133.865 317.012 133.685 317.192C133.505 317.372 133.283 317.462 133.019 317.462ZM141.075 329.09C140.163 329.09 139.341 328.886 138.609 328.478C137.877 328.058 137.301 327.482 136.881 326.75C136.461 326.018 136.251 325.19 136.251 324.266C136.251 323.342 136.461 322.514 136.881 321.782C137.301 321.05 137.877 320.48 138.609 320.072C139.341 319.664 140.163 319.46 141.075 319.46C141.987 319.46 142.809 319.664 143.541 320.072C144.273 320.48 144.843 321.05 145.251 321.782C145.671 322.514 145.881 323.342 145.881 324.266C145.881 325.19 145.671 326.018 145.251 326.75C144.843 327.482 144.273 328.058 143.541 328.478C142.809 328.886 141.987 329.09 141.075 329.09ZM141.075 327.956C141.747 327.956 142.347 327.806 142.875 327.506C143.415 327.194 143.835 326.756 144.135 326.192C144.435 325.628 144.585 324.986 144.585 324.266C144.585 323.546 144.435 322.904 144.135 322.34C143.835 321.776 143.415 321.344 142.875 321.044C142.347 320.732 141.747 320.576 141.075 320.576C140.403 320.576 139.797 320.732 139.257 321.044C138.729 321.344 138.309 321.776 137.997 322.34C137.697 322.904 137.547 323.546 137.547 324.266C137.547 324.986 137.697 325.628 137.997 326.192C138.309 326.756 138.729 327.194 139.257 327.506C139.797 327.806 140.403 327.956 141.075 327.956ZM148.352 329.09C148.088 329.09 147.86 328.994 147.668 328.802C147.488 328.61 147.398 328.376 147.398 328.1C147.398 327.824 147.488 327.596 147.668 327.416C147.86 327.224 148.088 327.128 148.352 327.128C148.616 327.128 148.844 327.224 149.036 327.416C149.228 327.596 149.324 327.824 149.324 328.1C149.324 328.376 149.228 328.61 149.036 328.802C148.844 328.994 148.616 329.09 148.352 329.09Z" fill="#1C1F3D"/>
<path d="M47.5391 238.328V242H34.0511V225.2H47.2271V228.872H38.7551V231.704H46.2191V235.256H38.7551V238.328H47.5391ZM56.0801 242.336C54.7201 242.336 53.4001 242.168 52.1201 241.832C50.8401 241.496 49.8001 241.048 49.0001 240.488L50.5601 236.984C51.3121 237.48 52.1841 237.88 53.1761 238.184C54.1681 238.488 55.1441 238.64 56.1041 238.64C57.9281 238.64 58.8401 238.184 58.8401 237.272C58.8401 236.792 58.5761 236.44 58.0481 236.216C57.5361 235.976 56.7041 235.728 55.5521 235.472C54.2881 235.2 53.2321 234.912 52.3841 234.608C51.5361 234.288 50.8081 233.784 50.2001 233.096C49.5921 232.408 49.2881 231.48 49.2881 230.312C49.2881 229.288 49.5681 228.368 50.1281 227.552C50.6881 226.72 51.5201 226.064 52.6241 225.584C53.7441 225.104 55.1121 224.864 56.7281 224.864C57.8321 224.864 58.9201 224.992 59.9921 225.248C61.0641 225.488 62.0081 225.848 62.8241 226.328L61.3601 229.856C59.7601 228.992 58.2081 228.56 56.7041 228.56C55.7601 228.56 55.0721 228.704 54.6401 228.992C54.2081 229.264 53.9921 229.624 53.9921 230.072C53.9921 230.52 54.2481 230.856 54.7601 231.08C55.2721 231.304 56.0961 231.536 57.2321 231.776C58.5121 232.048 59.5681 232.344 60.4001 232.664C61.2481 232.968 61.9761 233.464 62.5841 234.152C63.2081 234.824 63.5201 235.744 63.5201 236.912C63.5201 237.92 63.2401 238.832 62.6801 239.648C62.1201 240.464 61.2801 241.12 60.1601 241.616C59.0401 242.096 57.6801 242.336 56.0801 242.336ZM69.0568 228.968H63.8968V225.2H78.9448V228.968H73.8088V242H69.0568V228.968ZM88.0592 237.536H85.4672V242H80.7152V225.2H88.3952C89.9152 225.2 91.2352 225.456 92.3552 225.968C93.4752 226.464 94.3392 227.184 94.9472 228.128C95.5552 229.056 95.8592 230.152 95.8592 231.416C95.8592 232.632 95.5712 233.696 94.9952 234.608C94.4352 235.504 93.6272 236.208 92.5712 236.72L96.1952 242H91.1072L88.0592 237.536ZM91.0592 231.416C91.0592 230.632 90.8112 230.024 90.3152 229.592C89.8192 229.16 89.0832 228.944 88.1072 228.944H85.4672V233.864H88.1072C89.0832 233.864 89.8192 233.656 90.3152 233.24C90.8112 232.808 91.0592 232.2 91.0592 231.416ZM109.737 238.736H102.633L101.313 242H96.4648L103.881 225.2H108.561L116.001 242H111.057L109.737 238.736ZM108.345 235.232L106.185 229.856L104.025 235.232H108.345ZM120.08 228.968H114.92V225.2H129.968V228.968H124.832V242H120.08V228.968ZM145.227 238.328V242H131.739V225.2H144.915V228.872H136.443V231.704H143.907V235.256H136.443V238.328H145.227ZM139.203 220.184H143.763L139.251 223.832H135.987L139.203 220.184ZM159.096 233.24H163.296V240.2C162.336 240.888 161.232 241.416 159.984 241.784C158.736 242.152 157.488 242.336 156.24 242.336C154.48 242.336 152.896 241.968 151.488 241.232C150.08 240.48 148.976 239.44 148.176 238.112C147.376 236.784 146.976 235.28 146.976 233.6C146.976 231.92 147.376 230.416 148.176 229.088C148.976 227.76 150.088 226.728 151.512 225.992C152.936 225.24 154.544 224.864 156.336 224.864C157.904 224.864 159.312 225.128 160.56 225.656C161.808 226.184 162.848 226.944 163.68 227.936L160.656 230.672C159.52 229.424 158.16 228.8 156.576 228.8C155.136 228.8 153.976 229.24 153.096 230.12C152.216 230.984 151.776 232.144 151.776 233.6C151.776 234.528 151.976 235.36 152.376 236.096C152.776 236.816 153.336 237.384 154.056 237.8C154.776 238.2 155.6 238.4 156.528 238.4C157.44 238.4 158.296 238.216 159.096 237.848V233.24ZM166.309 225.2H171.061V242H166.309V225.2ZM185.698 238.736H178.594L177.274 242H172.426L179.842 225.2H184.522L191.962 242H187.018L185.698 238.736ZM184.306 235.232L182.146 229.856L179.986 235.232H184.306Z" fill="white"/>
<path d="M151.999 177.356C152.002 177.495 151.976 177.632 151.922 177.759C151.883 177.841 151.85 177.926 151.826 178.013C151.557 179.147 150.932 180.153 150.05 180.872C149.167 181.59 148.079 181.979 146.96 181.976C140.777 182.008 134.593 182.008 128.41 181.976C126.837 181.967 125.33 181.315 124.212 180.162C123.094 179.008 122.453 177.444 122.427 175.804C122.396 173.357 122.261 170.894 123.065 168.548C123.451 167.407 123.946 166.302 124.452 165.129C124.509 164.998 124.593 164.881 124.698 164.788C124.803 164.694 124.926 164.626 125.059 164.587C125.193 164.549 125.332 164.541 125.468 164.565C125.604 164.589 125.734 164.644 125.847 164.726L128.553 166.693C128.745 166.833 128.88 167.042 128.932 167.28C128.983 167.518 128.947 167.767 128.831 167.979C127.482 170.338 127.521 172.95 127.587 175.606C127.593 175.862 127.694 176.105 127.87 176.284C128.045 176.462 128.281 176.562 128.526 176.562H145.917C146.148 176.562 146.371 176.474 146.544 176.313C146.716 176.152 146.826 175.931 146.852 175.691C147.152 173.031 146.691 170.338 145.526 167.951C145.432 167.744 145.412 167.51 145.467 167.288C145.523 167.067 145.652 166.874 145.831 166.742L148.537 164.766C148.64 164.69 148.756 164.636 148.88 164.608C149.003 164.581 149.131 164.579 149.255 164.605C149.379 164.63 149.497 164.681 149.601 164.755C149.706 164.83 149.794 164.925 149.862 165.036C150.741 166.53 151.359 168.175 151.686 169.894C151.795 170.45 151.891 171.011 151.996 171.571C152.001 171.631 152.001 171.692 151.996 171.753L151.999 177.356Z" fill="#1D1D1B"/>
<path d="M97.4617 122.212L99.8964 124.458C100.063 124.613 100.171 124.826 100.202 125.057C100.232 125.288 100.183 125.523 100.063 125.72C99.5138 126.607 98.9689 127.465 98.5167 128.376C97.4728 130.485 96.942 132.828 96.9709 135.201C96.9709 136.507 96.9709 137.813 96.9709 139.12C96.9729 139.715 97.201 140.285 97.6052 140.705C98.0094 141.125 98.5568 141.361 99.1273 141.361H124.843C125.793 141.361 126.075 141.059 126.072 140.079C126.072 137.987 126.172 135.886 125.998 133.814C125.739 130.686 125.202 129.38 123.049 125.913C122.924 125.716 122.872 125.477 122.903 125.243C122.935 125.008 123.047 124.793 123.219 124.639L125.708 122.39C125.804 122.304 125.915 122.238 126.035 122.197C126.155 122.157 126.281 122.141 126.407 122.153C126.533 122.164 126.655 122.201 126.767 122.263C126.879 122.324 126.977 122.409 127.057 122.511C128.364 124.147 129.357 126.03 129.983 128.058C130.568 129.934 130.957 131.871 131.142 133.835C131.308 135.997 131.328 138.168 131.204 140.333C131.096 142.06 130.362 143.679 129.151 144.862C127.94 146.045 126.343 146.703 124.684 146.702C115.924 146.727 107.164 146.727 98.4047 146.702C96.7338 146.695 95.1284 146.024 93.9151 144.826C92.7018 143.628 91.9717 141.992 91.8734 140.252C91.6763 136.878 91.6299 133.484 92.4222 130.15C93.0915 127.295 94.3527 124.629 96.1168 122.337C96.196 122.235 96.2941 122.151 96.4052 122.089C96.5164 122.027 96.6383 121.989 96.7638 121.977C96.8893 121.966 97.0158 121.981 97.1357 122.021C97.2555 122.061 97.3664 122.126 97.4617 122.212Z" fill="#1D1D1B"/>
<path d="M74.3512 164.92L77.0564 166.826C77.2518 166.963 77.3909 167.17 77.4461 167.409C77.5012 167.647 77.4683 167.898 77.354 168.112C76.0709 170.438 76.1289 172.986 76.1946 175.574C76.2006 175.83 76.3022 176.073 76.4777 176.251C76.6532 176.43 76.8886 176.53 77.1337 176.53H94.4743C94.7188 176.53 94.9536 176.43 95.129 176.253C95.3043 176.075 95.4064 175.833 95.4134 175.578C95.4869 172.958 95.5294 170.338 94.169 167.967C94.053 167.756 94.0172 167.507 94.0688 167.27C94.1203 167.032 94.2554 166.824 94.4473 166.685L97.1293 164.734C97.2343 164.658 97.3531 164.604 97.4785 164.577C97.6039 164.55 97.7333 164.55 97.8588 164.576C97.9843 164.603 98.1033 164.656 98.2084 164.733C98.3135 164.809 98.4027 164.907 98.4704 165.02C99.7439 167.191 100.462 169.665 100.557 172.208C100.623 173.688 100.592 175.175 100.577 176.663C100.55 179.626 98.451 181.94 95.5989 181.96C89.3743 182.008 83.1484 182.008 76.9211 181.96C75.3647 181.947 73.8749 181.299 72.771 180.154C71.6672 179.01 71.0372 177.46 71.016 175.836C70.9966 173.563 70.9078 171.257 71.5068 169.011C71.8466 167.682 72.3562 166.406 73.0217 165.218C73.0877 165.104 73.1752 165.006 73.2789 164.929C73.3826 164.852 73.5003 164.798 73.6248 164.77C73.7493 164.742 73.8779 164.741 74.0028 164.767C74.1277 164.792 74.2462 164.844 74.3512 164.92V164.92Z" fill="#1D1D1B"/>
<path d="M109.871 150.181H113.121C113.244 150.181 113.366 150.207 113.48 150.256C113.594 150.305 113.697 150.377 113.784 150.468C113.871 150.559 113.94 150.668 113.986 150.786C114.033 150.905 114.057 151.032 114.056 151.161V151.999C114.056 154.059 114.056 156.119 114.056 158.179C114.03 158.409 114.076 158.64 114.186 158.841C114.296 159.041 114.464 159.199 114.667 159.292C116.626 160.445 118.566 161.622 120.576 162.835C120.683 162.899 120.776 162.985 120.851 163.086C120.926 163.188 120.982 163.304 121.014 163.428C121.045 163.552 121.054 163.681 121.038 163.809C121.022 163.936 120.982 164.059 120.92 164.17L119.305 167.113C119.179 167.336 118.975 167.499 118.736 167.566C118.496 167.633 118.241 167.599 118.025 167.471L116.051 166.306C114.752 165.528 113.442 164.762 112.159 163.952C111.973 163.808 111.747 163.731 111.515 163.731C111.284 163.731 111.058 163.808 110.872 163.952C108.94 165.161 106.957 166.322 104.998 167.5C104.784 167.626 104.532 167.66 104.295 167.593C104.058 167.525 103.856 167.363 103.734 167.141L102.095 164.178C101.971 163.954 101.937 163.688 102 163.438C102.063 163.189 102.218 162.975 102.432 162.843C103.931 161.92 105.384 160.989 106.891 160.175C107.54 159.825 108.08 159.288 108.445 158.627C108.81 157.967 108.986 157.211 108.951 156.45C108.874 154.708 108.924 152.959 108.951 151.177C108.948 150.918 109.043 150.669 109.215 150.482C109.387 150.296 109.623 150.188 109.871 150.181Z" fill="#1D1D1B"/>
<path d="M113.086 123.313H109.944C109.426 123.313 109.005 123.752 109.005 124.293V133.073C109.005 133.614 109.426 134.052 109.944 134.052H113.086C113.605 134.052 114.026 133.614 114.026 133.073V124.293C114.026 123.752 113.605 123.313 113.086 123.313Z" fill="#1D1D1B"/>
<path d="M137.194 164.275C141.866 164.275 145.654 160.324 145.654 155.45C145.654 150.577 141.866 146.626 137.194 146.626C132.522 146.626 128.734 150.577 128.734 155.45C128.734 160.324 132.522 164.275 137.194 164.275Z" fill="#1D1D1B"/>
<path d="M85.7982 164.275C90.4704 164.275 94.2579 160.324 94.2579 155.45C94.2579 150.577 90.4704 146.626 85.7982 146.626C81.1261 146.626 77.3385 150.577 77.3385 155.45C77.3385 160.324 81.1261 164.275 85.7982 164.275Z" fill="#1D1D1B"/>
<path d="M111.514 118.649C116.186 118.649 119.973 114.698 119.973 109.824C119.973 104.951 116.186 101 111.514 101C106.841 101 103.054 104.951 103.054 109.824C103.054 114.698 106.841 118.649 111.514 118.649Z" fill="#1D1D1B"/>
</svg>
