<svg width="224" height="451" viewBox="0 0 224 451" fill="none" xmlns="http://www.w3.org/2000/svg">
<path d="M0 28L224 0V423L0 451V28Z" fill="#FCA628"/>
<mask id="mask0_446_97" style="mask-type:alpha" maskUnits="userSpaceOnUse" x="0" y="0" width="224" height="451">
<path d="M0 28L224 0V423L0 451V28Z" fill="#FCA628"/>
</mask>
<g mask="url(#mask0_446_97)">
<path d="M229.5 95.5084V94.0084H228H202.868L212.287 85.4383C212.287 85.4376 212.288 85.4369 212.289 85.4362C218.159 80.1455 222.218 75.3223 224.31 70.9679C226.459 66.5807 227.533 61.8904 227.533 56.9162C227.533 51.2941 225.97 46.2722 222.825 41.9056C219.694 37.5577 215.364 34.2417 209.899 31.9364C204.437 29.6326 198.21 28.5 191.246 28.5C182.115 28.5 174.226 30.3429 167.644 34.1017C161.096 37.7594 156.094 42.7977 152.677 49.2046L151.952 50.5636L153.329 51.2523L175.21 62.1908L176.569 62.8703L177.231 61.5026C178.341 59.2089 179.91 57.4669 181.944 56.232C184.01 54.9779 186.2 54.3603 188.542 54.3603C191.044 54.3603 192.678 54.9313 193.695 55.8287L193.73 55.8595L193.767 55.888C194.822 56.7086 195.4 57.8791 195.4 59.6201C195.4 61.0711 195.022 62.6042 194.207 64.2341C193.426 65.796 191.779 67.8205 189.117 70.3217C189.115 70.323 189.114 70.3243 189.113 70.3256L158.021 99.0775L157.54 99.5228V100.179V118V119.5H159.04H228H229.5V118V95.5084Z" stroke="#F44A22" stroke-opacity="0.5" stroke-width="3"/>
</g>
<path d="M29.3079 252.4H30.6399V265H29.3079V252.4ZM43.1095 251.644V265H41.8855V263.128C41.5015 263.764 40.9915 264.25 40.3555 264.586C39.7315 264.922 39.0235 265.09 38.2315 265.09C37.3435 265.09 36.5395 264.886 35.8195 264.478C35.0995 264.07 34.5355 263.5 34.1275 262.768C33.7195 262.036 33.5155 261.202 33.5155 260.266C33.5155 259.33 33.7195 258.496 34.1275 257.764C34.5355 257.032 35.0995 256.468 35.8195 256.072C36.5395 255.664 37.3435 255.46 38.2315 255.46C38.9995 255.46 39.6895 255.622 40.3015 255.946C40.9255 256.258 41.4355 256.72 41.8315 257.332V251.644H43.1095ZM38.3395 263.956C38.9995 263.956 39.5935 263.806 40.1215 263.506C40.6615 263.194 41.0815 262.756 41.3815 262.192C41.6935 261.628 41.8495 260.986 41.8495 260.266C41.8495 259.546 41.6935 258.904 41.3815 258.34C41.0815 257.776 40.6615 257.344 40.1215 257.044C39.5935 256.732 38.9995 256.576 38.3395 256.576C37.6675 256.576 37.0615 256.732 36.5215 257.044C35.9935 257.344 35.5735 257.776 35.2615 258.34C34.9615 258.904 34.8115 259.546 34.8115 260.266C34.8115 260.986 34.9615 261.628 35.2615 262.192C35.5735 262.756 35.9935 263.194 36.5215 263.506C37.0615 263.806 37.6675 263.956 38.3395 263.956ZM54.9127 260.662H46.9927C47.0647 261.646 47.4427 262.444 48.1267 263.056C48.8107 263.656 49.6747 263.956 50.7187 263.956C51.3067 263.956 51.8467 263.854 52.3387 263.65C52.8307 263.434 53.2567 263.122 53.6167 262.714L54.3367 263.542C53.9167 264.046 53.3887 264.43 52.7527 264.694C52.1287 264.958 51.4387 265.09 50.6827 265.09C49.7107 265.09 48.8467 264.886 48.0907 264.478C47.3467 264.058 46.7647 263.482 46.3447 262.75C45.9247 262.018 45.7147 261.19 45.7147 260.266C45.7147 259.342 45.9127 258.514 46.3087 257.782C46.7167 257.05 47.2687 256.48 47.9647 256.072C48.6727 255.664 49.4647 255.46 50.3407 255.46C51.2167 255.46 52.0027 255.664 52.6987 256.072C53.3947 256.48 53.9407 257.05 54.3367 257.782C54.7327 258.502 54.9307 259.33 54.9307 260.266L54.9127 260.662ZM50.3407 256.558C49.4287 256.558 48.6607 256.852 48.0367 257.44C47.4247 258.016 47.0767 258.772 46.9927 259.708H53.7067C53.6227 258.772 53.2687 258.016 52.6447 257.44C52.0327 256.852 51.2647 256.558 50.3407 256.558ZM62.356 255.46C63.544 255.46 64.486 255.808 65.182 256.504C65.89 257.188 66.244 258.19 66.244 259.51V265H64.966V259.636C64.966 258.652 64.72 257.902 64.228 257.386C63.736 256.87 63.034 256.612 62.122 256.612C61.102 256.612 60.292 256.918 59.692 257.53C59.104 258.13 58.81 258.964 58.81 260.032V265H57.532V255.532H58.756V257.278C59.104 256.702 59.584 256.258 60.196 255.946C60.82 255.622 61.54 255.46 62.356 255.46ZM74.6996 264.424C74.4596 264.64 74.1596 264.808 73.7996 264.928C73.4516 265.036 73.0856 265.09 72.7016 265.09C71.8136 265.09 71.1296 264.85 70.6496 264.37C70.1696 263.89 69.9296 263.212 69.9296 262.336V256.612H68.2376V255.532H69.9296V253.462H71.2076V255.532H74.0876V256.612H71.2076V262.264C71.2076 262.828 71.3456 263.26 71.6216 263.56C71.9096 263.848 72.3176 263.992 72.8456 263.992C73.1096 263.992 73.3616 263.95 73.6016 263.866C73.8536 263.782 74.0696 263.662 74.2496 263.506L74.6996 264.424ZM77.0261 255.532H78.3041V265H77.0261V255.532ZM77.6741 253.462C77.4101 253.462 77.1881 253.372 77.0081 253.192C76.8281 253.012 76.7381 252.796 76.7381 252.544C76.7381 252.304 76.8281 252.094 77.0081 251.914C77.1881 251.734 77.4101 251.644 77.6741 251.644C77.9381 251.644 78.1601 251.734 78.3401 251.914C78.5201 252.082 78.6101 252.286 78.6101 252.526C78.6101 252.79 78.5201 253.012 78.3401 253.192C78.1601 253.372 77.9381 253.462 77.6741 253.462ZM84.9921 252.634C84.4401 252.634 84.0201 252.784 83.7321 253.084C83.4561 253.384 83.3181 253.828 83.3181 254.416V255.532H86.2341V256.612H83.3541V265H82.0761V256.612H80.3841V255.532H82.0761V254.362C82.0761 253.498 82.3221 252.814 82.8141 252.31C83.3181 251.806 84.0261 251.554 84.9381 251.554C85.2981 251.554 85.6461 251.608 85.9821 251.716C86.3181 251.812 86.6001 251.956 86.8281 252.148L86.3961 253.102C86.0241 252.79 85.5561 252.634 84.9921 252.634ZM89.4021 255.532H90.6801V265H89.4021V255.532ZM90.0501 253.462C89.7861 253.462 89.5641 253.372 89.3841 253.192C89.2041 253.012 89.1141 252.796 89.1141 252.544C89.1141 252.304 89.2041 252.094 89.3841 251.914C89.5641 251.734 89.7861 251.644 90.0501 251.644C90.3141 251.644 90.5361 251.734 90.7161 251.914C90.8961 252.082 90.9861 252.286 90.9861 252.526C90.9861 252.79 90.8961 253.012 90.7161 253.192C90.5361 253.372 90.3141 253.462 90.0501 253.462ZM98.1767 265.09C97.2407 265.09 96.4007 264.886 95.6567 264.478C94.9247 264.07 94.3487 263.5 93.9287 262.768C93.5087 262.024 93.2987 261.19 93.2987 260.266C93.2987 259.342 93.5087 258.514 93.9287 257.782C94.3487 257.05 94.9247 256.48 95.6567 256.072C96.4007 255.664 97.2407 255.46 98.1767 255.46C98.9927 255.46 99.7187 255.622 100.355 255.946C101.003 256.258 101.513 256.72 101.885 257.332L100.931 257.98C100.619 257.512 100.223 257.164 99.7427 256.936C99.2627 256.696 98.7407 256.576 98.1767 256.576C97.4927 256.576 96.8747 256.732 96.3227 257.044C95.7827 257.344 95.3567 257.776 95.0447 258.34C94.7447 258.904 94.5947 259.546 94.5947 260.266C94.5947 260.998 94.7447 261.646 95.0447 262.21C95.3567 262.762 95.7827 263.194 96.3227 263.506C96.8747 263.806 97.4927 263.956 98.1767 263.956C98.7407 263.956 99.2627 263.842 99.7427 263.614C100.223 263.386 100.619 263.038 100.931 262.57L101.885 263.218C101.513 263.83 101.003 264.298 100.355 264.622C99.7067 264.934 98.9807 265.09 98.1767 265.09ZM107.707 255.46C108.943 255.46 109.891 255.772 110.551 256.396C111.211 257.008 111.541 257.92 111.541 259.132V265H110.317V263.524C110.029 264.016 109.603 264.4 109.039 264.676C108.487 264.952 107.827 265.09 107.059 265.09C106.003 265.09 105.163 264.838 104.539 264.334C103.915 263.83 103.603 263.164 103.603 262.336C103.603 261.532 103.891 260.884 104.467 260.392C105.055 259.9 105.985 259.654 107.257 259.654H110.263V259.078C110.263 258.262 110.035 257.644 109.579 257.224C109.123 256.792 108.457 256.576 107.581 256.576C106.981 256.576 106.405 256.678 105.853 256.882C105.301 257.074 104.827 257.344 104.431 257.692L103.855 256.738C104.335 256.33 104.911 256.018 105.583 255.802C106.255 255.574 106.963 255.46 107.707 255.46ZM107.257 264.082C107.977 264.082 108.595 263.92 109.111 263.596C109.627 263.26 110.011 262.78 110.263 262.156V260.608H107.293C105.673 260.608 104.863 261.172 104.863 262.3C104.863 262.852 105.073 263.29 105.493 263.614C105.913 263.926 106.501 264.082 107.257 264.082ZM116.236 257.386C116.536 256.75 116.98 256.27 117.568 255.946C118.168 255.622 118.906 255.46 119.782 255.46V256.702L119.476 256.684C118.48 256.684 117.7 256.99 117.136 257.602C116.572 258.214 116.29 259.072 116.29 260.176V265H115.012V255.532H116.236V257.386ZM135.588 251.644V265H134.364V263.128C133.98 263.764 133.47 264.25 132.834 264.586C132.21 264.922 131.502 265.09 130.71 265.09C129.822 265.09 129.018 264.886 128.298 264.478C127.578 264.07 127.014 263.5 126.606 262.768C126.198 262.036 125.994 261.202 125.994 260.266C125.994 259.33 126.198 258.496 126.606 257.764C127.014 257.032 127.578 256.468 128.298 256.072C129.018 255.664 129.822 255.46 130.71 255.46C131.478 255.46 132.168 255.622 132.78 255.946C133.404 256.258 133.914 256.72 134.31 257.332V251.644H135.588ZM130.818 263.956C131.478 263.956 132.072 263.806 132.6 263.506C133.14 263.194 133.56 262.756 133.86 262.192C134.172 261.628 134.328 260.986 134.328 260.266C134.328 259.546 134.172 258.904 133.86 258.34C133.56 257.776 133.14 257.344 132.6 257.044C132.072 256.732 131.478 256.576 130.818 256.576C130.146 256.576 129.54 256.732 129 257.044C128.472 257.344 128.052 257.776 127.74 258.34C127.44 258.904 127.29 259.546 127.29 260.266C127.29 260.986 127.44 261.628 127.74 262.192C128.052 262.756 128.472 263.194 129 263.506C129.54 263.806 130.146 263.956 130.818 263.956ZM147.391 260.662H139.471C139.543 261.646 139.921 262.444 140.605 263.056C141.289 263.656 142.153 263.956 143.197 263.956C143.785 263.956 144.325 263.854 144.817 263.65C145.309 263.434 145.735 263.122 146.095 262.714L146.815 263.542C146.395 264.046 145.867 264.43 145.231 264.694C144.607 264.958 143.917 265.09 143.161 265.09C142.189 265.09 141.325 264.886 140.569 264.478C139.825 264.058 139.243 263.482 138.823 262.75C138.403 262.018 138.193 261.19 138.193 260.266C138.193 259.342 138.391 258.514 138.787 257.782C139.195 257.05 139.747 256.48 140.443 256.072C141.151 255.664 141.943 255.46 142.819 255.46C143.695 255.46 144.481 255.664 145.177 256.072C145.873 256.48 146.419 257.05 146.815 257.782C147.211 258.502 147.409 259.33 147.409 260.266L147.391 260.662ZM142.819 256.558C141.907 256.558 141.139 256.852 140.515 257.44C139.903 258.016 139.555 258.772 139.471 259.708H146.185C146.101 258.772 145.747 258.016 145.123 257.44C144.511 256.852 143.743 256.558 142.819 256.558ZM152.549 265.09C151.781 265.09 151.043 264.982 150.335 264.766C149.639 264.538 149.093 264.256 148.697 263.92L149.273 262.912C149.669 263.224 150.167 263.482 150.767 263.686C151.367 263.878 151.991 263.974 152.639 263.974C153.503 263.974 154.139 263.842 154.547 263.578C154.967 263.302 155.177 262.918 155.177 262.426C155.177 262.078 155.063 261.808 154.835 261.616C154.607 261.412 154.319 261.262 153.971 261.166C153.623 261.058 153.161 260.956 152.585 260.86C151.817 260.716 151.199 260.572 150.731 260.428C150.263 260.272 149.861 260.014 149.525 259.654C149.201 259.294 149.039 258.796 149.039 258.16C149.039 257.368 149.369 256.72 150.029 256.216C150.689 255.712 151.607 255.46 152.783 255.46C153.395 255.46 154.007 255.544 154.619 255.712C155.231 255.868 155.735 256.078 156.131 256.342L155.573 257.368C154.793 256.828 153.863 256.558 152.783 256.558C151.967 256.558 151.349 256.702 150.929 256.99C150.521 257.278 150.317 257.656 150.317 258.124C150.317 258.484 150.431 258.772 150.659 258.988C150.899 259.204 151.193 259.366 151.541 259.474C151.889 259.57 152.369 259.672 152.981 259.78C153.737 259.924 154.343 260.068 154.799 260.212C155.255 260.356 155.645 260.602 155.969 260.95C156.293 261.298 156.455 261.778 156.455 262.39C156.455 263.218 156.107 263.878 155.411 264.37C154.727 264.85 153.773 265.09 152.549 265.09ZM167.061 260.662H159.141C159.213 261.646 159.591 262.444 160.275 263.056C160.959 263.656 161.823 263.956 162.867 263.956C163.455 263.956 163.995 263.854 164.487 263.65C164.979 263.434 165.405 263.122 165.765 262.714L166.485 263.542C166.065 264.046 165.537 264.43 164.901 264.694C164.277 264.958 163.587 265.09 162.831 265.09C161.859 265.09 160.995 264.886 160.239 264.478C159.495 264.058 158.913 263.482 158.493 262.75C158.073 262.018 157.863 261.19 157.863 260.266C157.863 259.342 158.061 258.514 158.457 257.782C158.865 257.05 159.417 256.48 160.113 256.072C160.821 255.664 161.613 255.46 162.489 255.46C163.365 255.46 164.151 255.664 164.847 256.072C165.543 256.48 166.089 257.05 166.485 257.782C166.881 258.502 167.079 259.33 167.079 260.266L167.061 260.662ZM162.489 256.558C161.577 256.558 160.809 256.852 160.185 257.44C159.573 258.016 159.225 258.772 159.141 259.708H165.855C165.771 258.772 165.417 258.016 164.793 257.44C164.181 256.852 163.413 256.558 162.489 256.558ZM168.276 268.582C167.88 268.582 167.508 268.528 167.16 268.42C166.8 268.324 166.506 268.174 166.278 267.97L166.728 266.998C167.1 267.322 167.592 267.484 168.204 267.484C168.708 267.484 169.092 267.334 169.356 267.034C169.632 266.734 169.77 266.29 169.77 265.702V255.532H171.048V265.702C171.048 266.59 170.808 267.292 170.328 267.808C169.848 268.324 169.164 268.582 168.276 268.582ZM170.418 253.444C170.154 253.444 169.932 253.354 169.752 253.174C169.572 252.994 169.482 252.778 169.482 252.526C169.482 252.286 169.572 252.076 169.752 251.896C169.932 251.716 170.154 251.626 170.418 251.626C170.682 251.626 170.904 251.716 171.084 251.896C171.264 252.064 171.354 252.268 171.354 252.508C171.354 252.772 171.264 252.994 171.084 253.174C170.904 253.354 170.682 253.444 170.418 253.444ZM178.49 265.09C177.578 265.09 176.756 264.886 176.024 264.478C175.292 264.058 174.716 263.482 174.296 262.75C173.876 262.018 173.666 261.19 173.666 260.266C173.666 259.342 173.876 258.514 174.296 257.782C174.716 257.05 175.292 256.48 176.024 256.072C176.756 255.664 177.578 255.46 178.49 255.46C179.402 255.46 180.224 255.664 180.956 256.072C181.688 256.48 182.258 257.05 182.666 257.782C183.086 258.514 183.296 259.342 183.296 260.266C183.296 261.19 183.086 262.018 182.666 262.75C182.258 263.482 181.688 264.058 180.956 264.478C180.224 264.886 179.402 265.09 178.49 265.09ZM178.49 263.956C179.162 263.956 179.762 263.806 180.29 263.506C180.83 263.194 181.25 262.756 181.55 262.192C181.85 261.628 182 260.986 182 260.266C182 259.546 181.85 258.904 181.55 258.34C181.25 257.776 180.83 257.344 180.29 257.044C179.762 256.732 179.162 256.576 178.49 256.576C177.818 256.576 177.212 256.732 176.672 257.044C176.144 257.344 175.724 257.776 175.412 258.34C175.112 258.904 174.962 259.546 174.962 260.266C174.962 260.986 175.112 261.628 175.412 262.192C175.724 262.756 176.144 263.194 176.672 263.506C177.212 263.806 177.818 263.956 178.49 263.956ZM188.443 265.09C187.675 265.09 186.937 264.982 186.229 264.766C185.533 264.538 184.987 264.256 184.591 263.92L185.167 262.912C185.563 263.224 186.061 263.482 186.661 263.686C187.261 263.878 187.885 263.974 188.533 263.974C189.397 263.974 190.033 263.842 190.441 263.578C190.861 263.302 191.071 262.918 191.071 262.426C191.071 262.078 190.957 261.808 190.729 261.616C190.501 261.412 190.213 261.262 189.865 261.166C189.517 261.058 189.055 260.956 188.479 260.86C187.711 260.716 187.093 260.572 186.625 260.428C186.157 260.272 185.755 260.014 185.419 259.654C185.095 259.294 184.933 258.796 184.933 258.16C184.933 257.368 185.263 256.72 185.923 256.216C186.583 255.712 187.501 255.46 188.677 255.46C189.289 255.46 189.901 255.544 190.513 255.712C191.125 255.868 191.629 256.078 192.025 256.342L191.467 257.368C190.687 256.828 189.757 256.558 188.677 256.558C187.861 256.558 187.243 256.702 186.823 256.99C186.415 257.278 186.211 257.656 186.211 258.124C186.211 258.484 186.325 258.772 186.553 258.988C186.793 259.204 187.087 259.366 187.435 259.474C187.783 259.57 188.263 259.672 188.875 259.78C189.631 259.924 190.237 260.068 190.693 260.212C191.149 260.356 191.539 260.602 191.863 260.95C192.187 261.298 192.349 261.778 192.349 262.39C192.349 263.218 192.001 263.878 191.305 264.37C190.621 264.85 189.667 265.09 188.443 265.09ZM194.856 263.128C195.132 263.128 195.36 263.224 195.54 263.416C195.72 263.596 195.81 263.824 195.81 264.1C195.81 264.244 195.786 264.4 195.738 264.568C195.702 264.736 195.642 264.928 195.558 265.144L194.802 267.628H193.938L194.55 265.018C194.358 264.958 194.202 264.85 194.082 264.694C193.962 264.526 193.902 264.328 193.902 264.1C193.902 263.824 193.992 263.596 194.172 263.416C194.352 263.224 194.58 263.128 194.856 263.128ZM38.9904 277.532V285.848C38.9904 287.456 38.5944 288.644 37.8024 289.412C37.0224 290.192 35.8404 290.582 34.2564 290.582C33.3804 290.582 32.5464 290.45 31.7544 290.186C30.9744 289.934 30.3384 289.58 29.8464 289.124L30.4944 288.152C30.9504 288.56 31.5024 288.878 32.1504 289.106C32.8104 289.334 33.5004 289.448 34.2204 289.448C35.4204 289.448 36.3024 289.166 36.8664 288.602C37.4304 288.05 37.7124 287.186 37.7124 286.01V284.804C37.3164 285.404 36.7944 285.86 36.1464 286.172C35.5104 286.484 34.8024 286.64 34.0224 286.64C33.1344 286.64 32.3244 286.448 31.5924 286.064C30.8724 285.668 30.3024 285.122 29.8824 284.426C29.4744 283.718 29.2704 282.92 29.2704 282.032C29.2704 281.144 29.4744 280.352 29.8824 279.656C30.3024 278.96 30.8724 278.42 31.5924 278.036C32.3124 277.652 33.1224 277.46 34.0224 277.46C34.8264 277.46 35.5524 277.622 36.2004 277.946C36.8484 278.27 37.3704 278.738 37.7664 279.35V277.532H38.9904ZM34.1484 285.506C34.8324 285.506 35.4504 285.362 36.0024 285.074C36.5544 284.774 36.9804 284.36 37.2804 283.832C37.5924 283.304 37.7484 282.704 37.7484 282.032C37.7484 281.36 37.5924 280.766 37.2804 280.25C36.9804 279.722 36.5544 279.314 36.0024 279.026C35.4624 278.726 34.8444 278.576 34.1484 278.576C33.4644 278.576 32.8464 278.72 32.2944 279.008C31.7544 279.296 31.3284 279.704 31.0164 280.232C30.7164 280.76 30.5664 281.36 30.5664 282.032C30.5664 282.704 30.7164 283.304 31.0164 283.832C31.3284 284.36 31.7544 284.774 32.2944 285.074C32.8464 285.362 33.4644 285.506 34.1484 285.506ZM50.8082 282.662H42.8882C42.9602 283.646 43.3382 284.444 44.0222 285.056C44.7062 285.656 45.5702 285.956 46.6142 285.956C47.2022 285.956 47.7422 285.854 48.2342 285.65C48.7262 285.434 49.1522 285.122 49.5122 284.714L50.2322 285.542C49.8122 286.046 49.2842 286.43 48.6482 286.694C48.0242 286.958 47.3342 287.09 46.5782 287.09C45.6062 287.09 44.7422 286.886 43.9862 286.478C43.2422 286.058 42.6602 285.482 42.2402 284.75C41.8202 284.018 41.6102 283.19 41.6102 282.266C41.6102 281.342 41.8082 280.514 42.2042 279.782C42.6122 279.05 43.1642 278.48 43.8602 278.072C44.5682 277.664 45.3602 277.46 46.2362 277.46C47.1122 277.46 47.8982 277.664 48.5942 278.072C49.2902 278.48 49.8362 279.05 50.2322 279.782C50.6282 280.502 50.8262 281.33 50.8262 282.266L50.8082 282.662ZM46.2362 278.558C45.3242 278.558 44.5562 278.852 43.9322 279.44C43.3202 280.016 42.9722 280.772 42.8882 281.708H49.6022C49.5182 280.772 49.1642 280.016 48.5402 279.44C47.9282 278.852 47.1602 278.558 46.2362 278.558ZM54.6515 279.386C54.9515 278.75 55.3955 278.27 55.9835 277.946C56.5835 277.622 57.3215 277.46 58.1975 277.46V278.702L57.8915 278.684C56.8955 278.684 56.1155 278.99 55.5515 279.602C54.9875 280.214 54.7055 281.072 54.7055 282.176V287H53.4275V277.532H54.6515V279.386ZM63.8059 277.46C65.0419 277.46 65.9899 277.772 66.6499 278.396C67.3099 279.008 67.6399 279.92 67.6399 281.132V287H66.4159V285.524C66.1279 286.016 65.7019 286.4 65.1379 286.676C64.5859 286.952 63.9259 287.09 63.1579 287.09C62.1019 287.09 61.2619 286.838 60.6379 286.334C60.0139 285.83 59.7019 285.164 59.7019 284.336C59.7019 283.532 59.9899 282.884 60.5659 282.392C61.1539 281.9 62.0839 281.654 63.3559 281.654H66.3619V281.078C66.3619 280.262 66.1339 279.644 65.6779 279.224C65.2219 278.792 64.5559 278.576 63.6799 278.576C63.0799 278.576 62.5039 278.678 61.9519 278.882C61.3999 279.074 60.9259 279.344 60.5299 279.692L59.9539 278.738C60.4339 278.33 61.0099 278.018 61.6819 277.802C62.3539 277.574 63.0619 277.46 63.8059 277.46ZM63.3559 286.082C64.0759 286.082 64.6939 285.92 65.2099 285.596C65.7259 285.26 66.1099 284.78 66.3619 284.156V282.608H63.3919C61.7719 282.608 60.9619 283.172 60.9619 284.3C60.9619 284.852 61.1719 285.29 61.5919 285.614C62.0119 285.926 62.5999 286.082 63.3559 286.082ZM72.3351 279.386C72.6351 278.75 73.0791 278.27 73.6671 277.946C74.2671 277.622 75.0051 277.46 75.8811 277.46V278.702L75.5751 278.684C74.5791 278.684 73.7991 278.99 73.2351 279.602C72.6711 280.214 72.3891 281.072 72.3891 282.176V287H71.1111V277.532H72.3351V279.386ZM91.0026 277.532L86.7906 287H85.4766L81.2826 277.532H82.6146L86.1606 285.596L89.7426 277.532H91.0026ZM95.8333 277.46C97.0693 277.46 98.0173 277.772 98.6773 278.396C99.3373 279.008 99.6673 279.92 99.6673 281.132V287H98.4433V285.524C98.1553 286.016 97.7293 286.4 97.1653 286.676C96.6133 286.952 95.9533 287.09 95.1853 287.09C94.1293 287.09 93.2893 286.838 92.6653 286.334C92.0413 285.83 91.7293 285.164 91.7293 284.336C91.7293 283.532 92.0173 282.884 92.5933 282.392C93.1813 281.9 94.1113 281.654 95.3833 281.654H98.3893V281.078C98.3893 280.262 98.1613 279.644 97.7053 279.224C97.2493 278.792 96.5833 278.576 95.7073 278.576C95.1073 278.576 94.5313 278.678 93.9793 278.882C93.4273 279.074 92.9533 279.344 92.5573 279.692L91.9813 278.738C92.4613 278.33 93.0373 278.018 93.7093 277.802C94.3813 277.574 95.0893 277.46 95.8333 277.46ZM95.3833 286.082C96.1033 286.082 96.7213 285.92 97.2373 285.596C97.7533 285.26 98.1373 284.78 98.3893 284.156V282.608H95.4193C93.7993 282.608 92.9893 283.172 92.9893 284.3C92.9893 284.852 93.1993 285.29 93.6193 285.614C94.0393 285.926 94.6273 286.082 95.3833 286.082ZM103.138 273.644H104.416V287H103.138V273.644ZM111.842 287.09C110.93 287.09 110.108 286.886 109.376 286.478C108.644 286.058 108.068 285.482 107.648 284.75C107.228 284.018 107.018 283.19 107.018 282.266C107.018 281.342 107.228 280.514 107.648 279.782C108.068 279.05 108.644 278.48 109.376 278.072C110.108 277.664 110.93 277.46 111.842 277.46C112.754 277.46 113.576 277.664 114.308 278.072C115.04 278.48 115.61 279.05 116.018 279.782C116.438 280.514 116.648 281.342 116.648 282.266C116.648 283.19 116.438 284.018 116.018 284.75C115.61 285.482 115.04 286.058 114.308 286.478C113.576 286.886 112.754 287.09 111.842 287.09ZM111.842 285.956C112.514 285.956 113.114 285.806 113.642 285.506C114.182 285.194 114.602 284.756 114.902 284.192C115.202 283.628 115.352 282.986 115.352 282.266C115.352 281.546 115.202 280.904 114.902 280.34C114.602 279.776 114.182 279.344 113.642 279.044C113.114 278.732 112.514 278.576 111.842 278.576C111.17 278.576 110.564 278.732 110.024 279.044C109.496 279.344 109.076 279.776 108.764 280.34C108.464 280.904 108.314 281.546 108.314 282.266C108.314 282.986 108.464 283.628 108.764 284.192C109.076 284.756 109.496 285.194 110.024 285.506C110.564 285.806 111.17 285.956 111.842 285.956ZM120.482 279.386C120.782 278.75 121.226 278.27 121.814 277.946C122.414 277.622 123.152 277.46 124.028 277.46V278.702L123.722 278.684C122.726 278.684 121.946 278.99 121.382 279.602C120.818 280.214 120.536 281.072 120.536 282.176V287H119.258V277.532H120.482V279.386ZM133.731 287.09C132.963 287.09 132.225 286.982 131.517 286.766C130.821 286.538 130.275 286.256 129.879 285.92L130.455 284.912C130.851 285.224 131.349 285.482 131.949 285.686C132.549 285.878 133.173 285.974 133.821 285.974C134.685 285.974 135.321 285.842 135.729 285.578C136.149 285.302 136.359 284.918 136.359 284.426C136.359 284.078 136.245 283.808 136.017 283.616C135.789 283.412 135.501 283.262 135.153 283.166C134.805 283.058 134.343 282.956 133.767 282.86C132.999 282.716 132.381 282.572 131.913 282.428C131.445 282.272 131.043 282.014 130.707 281.654C130.383 281.294 130.221 280.796 130.221 280.16C130.221 279.368 130.551 278.72 131.211 278.216C131.871 277.712 132.789 277.46 133.965 277.46C134.577 277.46 135.189 277.544 135.801 277.712C136.413 277.868 136.917 278.078 137.313 278.342L136.755 279.368C135.975 278.828 135.045 278.558 133.965 278.558C133.149 278.558 132.531 278.702 132.111 278.99C131.703 279.278 131.499 279.656 131.499 280.124C131.499 280.484 131.613 280.772 131.841 280.988C132.081 281.204 132.375 281.366 132.723 281.474C133.071 281.57 133.551 281.672 134.163 281.78C134.919 281.924 135.525 282.068 135.981 282.212C136.437 282.356 136.827 282.602 137.151 282.95C137.475 283.298 137.637 283.778 137.637 284.39C137.637 285.218 137.289 285.878 136.593 286.37C135.909 286.85 134.955 287.09 133.731 287.09ZM143.87 287.09C142.958 287.09 142.136 286.886 141.404 286.478C140.672 286.058 140.096 285.482 139.676 284.75C139.256 284.018 139.046 283.19 139.046 282.266C139.046 281.342 139.256 280.514 139.676 279.782C140.096 279.05 140.672 278.48 141.404 278.072C142.136 277.664 142.958 277.46 143.87 277.46C144.782 277.46 145.604 277.664 146.336 278.072C147.068 278.48 147.638 279.05 148.046 279.782C148.466 280.514 148.676 281.342 148.676 282.266C148.676 283.19 148.466 284.018 148.046 284.75C147.638 285.482 147.068 286.058 146.336 286.478C145.604 286.886 144.782 287.09 143.87 287.09ZM143.87 285.956C144.542 285.956 145.142 285.806 145.67 285.506C146.21 285.194 146.63 284.756 146.93 284.192C147.23 283.628 147.38 282.986 147.38 282.266C147.38 281.546 147.23 280.904 146.93 280.34C146.63 279.776 146.21 279.344 145.67 279.044C145.142 278.732 144.542 278.576 143.87 278.576C143.198 278.576 142.592 278.732 142.052 279.044C141.524 279.344 141.104 279.776 140.792 280.34C140.492 280.904 140.342 281.546 140.342 282.266C140.342 282.986 140.492 283.628 140.792 284.192C141.104 284.756 141.524 285.194 142.052 285.506C142.592 285.806 143.198 285.956 143.87 285.956ZM156.163 277.46C157.051 277.46 157.855 277.664 158.575 278.072C159.295 278.468 159.859 279.032 160.267 279.764C160.675 280.496 160.879 281.33 160.879 282.266C160.879 283.202 160.675 284.036 160.267 284.768C159.859 285.5 159.295 286.07 158.575 286.478C157.855 286.886 157.051 287.09 156.163 287.09C155.371 287.09 154.657 286.922 154.021 286.586C153.397 286.25 152.893 285.764 152.509 285.128V287H151.285V273.644H152.563V279.332C152.959 278.72 153.463 278.258 154.075 277.946C154.699 277.622 155.395 277.46 156.163 277.46ZM156.073 285.956C156.733 285.956 157.333 285.806 157.873 285.506C158.413 285.194 158.833 284.756 159.133 284.192C159.445 283.628 159.601 282.986 159.601 282.266C159.601 281.546 159.445 280.904 159.133 280.34C158.833 279.776 158.413 279.344 157.873 279.044C157.333 278.732 156.733 278.576 156.073 278.576C155.401 278.576 154.795 278.732 154.255 279.044C153.727 279.344 153.307 279.776 152.995 280.34C152.695 280.904 152.545 281.546 152.545 282.266C152.545 282.986 152.695 283.628 152.995 284.192C153.307 284.756 153.727 285.194 154.255 285.506C154.795 285.806 155.401 285.956 156.073 285.956ZM164.708 279.386C165.008 278.75 165.452 278.27 166.04 277.946C166.64 277.622 167.378 277.46 168.254 277.46V278.702L167.948 278.684C166.952 278.684 166.172 278.99 165.608 279.602C165.044 280.214 164.762 281.072 164.762 282.176V287H163.484V277.532H164.708V279.386ZM178.724 282.662H170.804C170.876 283.646 171.254 284.444 171.938 285.056C172.622 285.656 173.486 285.956 174.53 285.956C175.118 285.956 175.658 285.854 176.15 285.65C176.642 285.434 177.068 285.122 177.428 284.714L178.148 285.542C177.728 286.046 177.2 286.43 176.564 286.694C175.94 286.958 175.25 287.09 174.494 287.09C173.522 287.09 172.658 286.886 171.902 286.478C171.158 286.058 170.576 285.482 170.156 284.75C169.736 284.018 169.526 283.19 169.526 282.266C169.526 281.342 169.724 280.514 170.12 279.782C170.528 279.05 171.08 278.48 171.776 278.072C172.484 277.664 173.276 277.46 174.152 277.46C175.028 277.46 175.814 277.664 176.51 278.072C177.206 278.48 177.752 279.05 178.148 279.782C178.544 280.502 178.742 281.33 178.742 282.266L178.724 282.662ZM174.152 278.558C173.24 278.558 172.472 278.852 171.848 279.44C171.236 280.016 170.888 280.772 170.804 281.708H177.518C177.434 280.772 177.08 280.016 176.456 279.44C175.844 278.852 175.076 278.558 174.152 278.558ZM189.924 287.09C189.012 287.09 188.19 286.886 187.458 286.478C186.726 286.058 186.15 285.482 185.73 284.75C185.31 284.018 185.1 283.19 185.1 282.266C185.1 281.342 185.31 280.514 185.73 279.782C186.15 279.05 186.726 278.48 187.458 278.072C188.19 277.664 189.012 277.46 189.924 277.46C190.836 277.46 191.658 277.664 192.39 278.072C193.122 278.48 193.692 279.05 194.1 279.782C194.52 280.514 194.73 281.342 194.73 282.266C194.73 283.19 194.52 284.018 194.1 284.75C193.692 285.482 193.122 286.058 192.39 286.478C191.658 286.886 190.836 287.09 189.924 287.09ZM189.924 285.956C190.596 285.956 191.196 285.806 191.724 285.506C192.264 285.194 192.684 284.756 192.984 284.192C193.284 283.628 193.434 282.986 193.434 282.266C193.434 281.546 193.284 280.904 192.984 280.34C192.684 279.776 192.264 279.344 191.724 279.044C191.196 278.732 190.596 278.576 189.924 278.576C189.252 278.576 188.646 278.732 188.106 279.044C187.578 279.344 187.158 279.776 186.846 280.34C186.546 280.904 186.396 281.546 186.396 282.266C186.396 282.986 186.546 283.628 186.846 284.192C187.158 284.756 187.578 285.194 188.106 285.506C188.646 285.806 189.252 285.956 189.924 285.956ZM34.1707 299.46C35.0587 299.46 35.8627 299.664 36.5827 300.072C37.3027 300.468 37.8667 301.032 38.2747 301.764C38.6827 302.496 38.8867 303.33 38.8867 304.266C38.8867 305.214 38.6827 306.054 38.2747 306.786C37.8667 307.518 37.3027 308.088 36.5827 308.496C35.8747 308.892 35.0707 309.09 34.1707 309.09C33.4027 309.09 32.7067 308.934 32.0827 308.622C31.4707 308.298 30.9667 307.83 30.5707 307.218V312.492H29.2927V299.532H30.5167V301.404C30.9007 300.78 31.4047 300.3 32.0287 299.964C32.6647 299.628 33.3787 299.46 34.1707 299.46ZM34.0807 307.956C34.7407 307.956 35.3407 307.806 35.8807 307.506C36.4207 307.194 36.8407 306.756 37.1407 306.192C37.4527 305.628 37.6087 304.986 37.6087 304.266C37.6087 303.546 37.4527 302.91 37.1407 302.358C36.8407 301.794 36.4207 301.356 35.8807 301.044C35.3407 300.732 34.7407 300.576 34.0807 300.576C33.4087 300.576 32.8027 300.732 32.2627 301.044C31.7347 301.356 31.3147 301.794 31.0027 302.358C30.7027 302.91 30.5527 303.546 30.5527 304.266C30.5527 304.986 30.7027 305.628 31.0027 306.192C31.3147 306.756 31.7347 307.194 32.2627 307.506C32.8027 307.806 33.4087 307.956 34.0807 307.956ZM42.716 301.386C43.016 300.75 43.46 300.27 44.048 299.946C44.648 299.622 45.386 299.46 46.262 299.46V300.702L45.956 300.684C44.96 300.684 44.18 300.99 43.616 301.602C43.052 302.214 42.77 303.072 42.77 304.176V309H41.492V299.532H42.716V301.386ZM52.3581 309.09C51.4461 309.09 50.6241 308.886 49.8921 308.478C49.1601 308.058 48.5841 307.482 48.1641 306.75C47.7441 306.018 47.5341 305.19 47.5341 304.266C47.5341 303.342 47.7441 302.514 48.1641 301.782C48.5841 301.05 49.1601 300.48 49.8921 300.072C50.6241 299.664 51.4461 299.46 52.3581 299.46C53.2701 299.46 54.0921 299.664 54.8241 300.072C55.5561 300.48 56.1261 301.05 56.5341 301.782C56.9541 302.514 57.1641 303.342 57.1641 304.266C57.1641 305.19 56.9541 306.018 56.5341 306.75C56.1261 307.482 55.5561 308.058 54.8241 308.478C54.0921 308.886 53.2701 309.09 52.3581 309.09ZM52.3581 307.956C53.0301 307.956 53.6301 307.806 54.1581 307.506C54.6981 307.194 55.1181 306.756 55.4181 306.192C55.7181 305.628 55.8681 304.986 55.8681 304.266C55.8681 303.546 55.7181 302.904 55.4181 302.34C55.1181 301.776 54.6981 301.344 54.1581 301.044C53.6301 300.732 53.0301 300.576 52.3581 300.576C51.6861 300.576 51.0801 300.732 50.5401 301.044C50.0121 301.344 49.5921 301.776 49.2801 302.34C48.9801 302.904 48.8301 303.546 48.8301 304.266C48.8301 304.986 48.9801 305.628 49.2801 306.192C49.5921 306.756 50.0121 307.194 50.5401 307.506C51.0801 307.806 51.6861 307.956 52.3581 307.956ZM68.4132 295.644V309H67.1892V307.128C66.8052 307.764 66.2952 308.25 65.6592 308.586C65.0352 308.922 64.3272 309.09 63.5352 309.09C62.6472 309.09 61.8432 308.886 61.1232 308.478C60.4032 308.07 59.8392 307.5 59.4312 306.768C59.0232 306.036 58.8192 305.202 58.8192 304.266C58.8192 303.33 59.0232 302.496 59.4312 301.764C59.8392 301.032 60.4032 300.468 61.1232 300.072C61.8432 299.664 62.6472 299.46 63.5352 299.46C64.3032 299.46 64.9932 299.622 65.6052 299.946C66.2292 300.258 66.7392 300.72 67.1352 301.332V295.644H68.4132ZM63.6432 307.956C64.3032 307.956 64.8972 307.806 65.4252 307.506C65.9652 307.194 66.3852 306.756 66.6852 306.192C66.9972 305.628 67.1532 304.986 67.1532 304.266C67.1532 303.546 66.9972 302.904 66.6852 302.34C66.3852 301.776 65.9652 301.344 65.4252 301.044C64.8972 300.732 64.3032 300.576 63.6432 300.576C62.9712 300.576 62.3652 300.732 61.8252 301.044C61.2972 301.344 60.8772 301.776 60.5652 302.34C60.2652 302.904 60.1152 303.546 60.1152 304.266C60.1152 304.986 60.2652 305.628 60.5652 306.192C60.8772 306.756 61.2972 307.194 61.8252 307.506C62.3652 307.806 62.9712 307.956 63.6432 307.956ZM80.5044 299.532V309H79.2804V307.272C78.9444 307.848 78.4824 308.298 77.8944 308.622C77.3064 308.934 76.6344 309.09 75.8784 309.09C74.6424 309.09 73.6644 308.748 72.9444 308.064C72.2364 307.368 71.8824 306.354 71.8824 305.022V299.532H73.1604V304.896C73.1604 305.892 73.4064 306.648 73.8984 307.164C74.3904 307.68 75.0924 307.938 76.0044 307.938C77.0004 307.938 77.7864 307.638 78.3624 307.038C78.9384 306.426 79.2264 305.58 79.2264 304.5V299.532H80.5044ZM89.0698 308.424C88.8298 308.64 88.5298 308.808 88.1698 308.928C87.8218 309.036 87.4558 309.09 87.0718 309.09C86.1838 309.09 85.4998 308.85 85.0198 308.37C84.5398 307.89 84.2998 307.212 84.2998 306.336V300.612H82.6078V299.532H84.2998V297.462H85.5778V299.532H88.4578V300.612H85.5778V306.264C85.5778 306.828 85.7158 307.26 85.9918 307.56C86.2798 307.848 86.6878 307.992 87.2158 307.992C87.4798 307.992 87.7318 307.95 87.9718 307.866C88.2238 307.782 88.4398 307.662 88.6198 307.506L89.0698 308.424ZM94.9323 309.09C94.0203 309.09 93.1983 308.886 92.4663 308.478C91.7343 308.058 91.1583 307.482 90.7383 306.75C90.3183 306.018 90.1083 305.19 90.1083 304.266C90.1083 303.342 90.3183 302.514 90.7383 301.782C91.1583 301.05 91.7343 300.48 92.4663 300.072C93.1983 299.664 94.0203 299.46 94.9323 299.46C95.8443 299.46 96.6663 299.664 97.3983 300.072C98.1303 300.48 98.7003 301.05 99.1083 301.782C99.5283 302.514 99.7383 303.342 99.7383 304.266C99.7383 305.19 99.5283 306.018 99.1083 306.75C98.7003 307.482 98.1303 308.058 97.3983 308.478C96.6663 308.886 95.8443 309.09 94.9323 309.09ZM94.9323 307.956C95.6043 307.956 96.2043 307.806 96.7323 307.506C97.2723 307.194 97.6923 306.756 97.9923 306.192C98.2923 305.628 98.4423 304.986 98.4423 304.266C98.4423 303.546 98.2923 302.904 97.9923 302.34C97.6923 301.776 97.2723 301.344 96.7323 301.044C96.2043 300.732 95.6043 300.576 94.9323 300.576C94.2603 300.576 93.6543 300.732 93.1143 301.044C92.5863 301.344 92.1663 301.776 91.8543 302.34C91.5543 302.904 91.4043 303.546 91.4043 304.266C91.4043 304.986 91.5543 305.628 91.8543 306.192C92.1663 306.756 92.5863 307.194 93.1143 307.506C93.6543 307.806 94.2603 307.956 94.9323 307.956ZM106.055 293.844H107.225L101.285 310.8H100.115L106.055 293.844ZM109.684 309.09C108.916 309.09 108.178 308.982 107.47 308.766C106.774 308.538 106.228 308.256 105.832 307.92L106.408 306.912C106.804 307.224 107.302 307.482 107.902 307.686C108.502 307.878 109.126 307.974 109.774 307.974C110.638 307.974 111.274 307.842 111.682 307.578C112.102 307.302 112.312 306.918 112.312 306.426C112.312 306.078 112.198 305.808 111.97 305.616C111.742 305.412 111.454 305.262 111.106 305.166C110.758 305.058 110.296 304.956 109.72 304.86C108.952 304.716 108.334 304.572 107.866 304.428C107.398 304.272 106.996 304.014 106.66 303.654C106.336 303.294 106.174 302.796 106.174 302.16C106.174 301.368 106.504 300.72 107.164 300.216C107.824 299.712 108.742 299.46 109.918 299.46C110.53 299.46 111.142 299.544 111.754 299.712C112.366 299.868 112.87 300.078 113.266 300.342L112.708 301.368C111.928 300.828 110.998 300.558 109.918 300.558C109.102 300.558 108.484 300.702 108.064 300.99C107.656 301.278 107.452 301.656 107.452 302.124C107.452 302.484 107.566 302.772 107.794 302.988C108.034 303.204 108.328 303.366 108.676 303.474C109.024 303.57 109.504 303.672 110.116 303.78C110.872 303.924 111.478 304.068 111.934 304.212C112.39 304.356 112.78 304.602 113.104 304.95C113.428 305.298 113.59 305.778 113.59 306.39C113.59 307.218 113.242 307.878 112.546 308.37C111.862 308.85 110.908 309.09 109.684 309.09ZM124.197 304.662H116.277C116.349 305.646 116.727 306.444 117.411 307.056C118.095 307.656 118.959 307.956 120.003 307.956C120.591 307.956 121.131 307.854 121.623 307.65C122.115 307.434 122.541 307.122 122.901 306.714L123.621 307.542C123.201 308.046 122.673 308.43 122.037 308.694C121.413 308.958 120.723 309.09 119.967 309.09C118.995 309.09 118.131 308.886 117.375 308.478C116.631 308.058 116.049 307.482 115.629 306.75C115.209 306.018 114.999 305.19 114.999 304.266C114.999 303.342 115.197 302.514 115.593 301.782C116.001 301.05 116.553 300.48 117.249 300.072C117.957 299.664 118.749 299.46 119.625 299.46C120.501 299.46 121.287 299.664 121.983 300.072C122.679 300.48 123.225 301.05 123.621 301.782C124.017 302.502 124.215 303.33 124.215 304.266L124.197 304.662ZM119.625 300.558C118.713 300.558 117.945 300.852 117.321 301.44C116.709 302.016 116.361 302.772 116.277 303.708H122.991C122.907 302.772 122.553 302.016 121.929 301.44C121.317 300.852 120.549 300.558 119.625 300.558ZM128.04 301.386C128.34 300.75 128.784 300.27 129.372 299.946C129.972 299.622 130.71 299.46 131.586 299.46V300.702L131.28 300.684C130.284 300.684 129.504 300.99 128.94 301.602C128.376 302.214 128.094 303.072 128.094 304.176V309H126.816V299.532H128.04V301.386ZM142.26 299.532L138.048 309H136.734L132.54 299.532H133.872L137.418 307.596L141 299.532H142.26ZM144.06 299.532H145.338V309H144.06V299.532ZM144.708 297.462C144.444 297.462 144.222 297.372 144.042 297.192C143.862 297.012 143.772 296.796 143.772 296.544C143.772 296.304 143.862 296.094 144.042 295.914C144.222 295.734 144.444 295.644 144.708 295.644C144.972 295.644 145.194 295.734 145.374 295.914C145.554 296.082 145.644 296.286 145.644 296.526C145.644 296.79 145.554 297.012 145.374 297.192C145.194 297.372 144.972 297.462 144.708 297.462ZM152.818 309.09C151.882 309.09 151.042 308.886 150.298 308.478C149.566 308.07 148.99 307.5 148.57 306.768C148.15 306.024 147.94 305.19 147.94 304.266C147.94 303.342 148.15 302.514 148.57 301.782C148.99 301.05 149.566 300.48 150.298 300.072C151.042 299.664 151.882 299.46 152.818 299.46C153.634 299.46 154.36 299.622 154.996 299.946C155.644 300.258 156.154 300.72 156.526 301.332L155.572 301.98C155.26 301.512 154.864 301.164 154.384 300.936C153.904 300.696 153.382 300.576 152.818 300.576C152.134 300.576 151.516 300.732 150.964 301.044C150.424 301.344 149.998 301.776 149.686 302.34C149.386 302.904 149.236 303.546 149.236 304.266C149.236 304.998 149.386 305.646 149.686 306.21C149.998 306.762 150.424 307.194 150.964 307.506C151.516 307.806 152.134 307.956 152.818 307.956C153.382 307.956 153.904 307.842 154.384 307.614C154.864 307.386 155.26 307.038 155.572 306.57L156.526 307.218C156.154 307.83 155.644 308.298 154.996 308.622C154.348 308.934 153.622 309.09 152.818 309.09ZM152.062 312.96C151.474 312.96 150.97 312.822 150.55 312.546L150.856 311.862C151.204 312.09 151.6 312.204 152.044 312.204C152.404 312.204 152.68 312.132 152.872 311.988C153.064 311.844 153.16 311.634 153.16 311.358C153.16 311.106 153.064 310.902 152.872 310.746C152.692 310.602 152.416 310.53 152.044 310.53H151.63L152.062 308.892H152.836L152.566 309.936C153.058 309.984 153.436 310.134 153.7 310.386C153.964 310.65 154.096 310.986 154.096 311.394C154.096 311.874 153.91 312.252 153.538 312.528C153.166 312.816 152.674 312.96 152.062 312.96ZM162.749 309.09C161.837 309.09 161.015 308.886 160.283 308.478C159.551 308.058 158.975 307.482 158.555 306.75C158.135 306.018 157.925 305.19 157.925 304.266C157.925 303.342 158.135 302.514 158.555 301.782C158.975 301.05 159.551 300.48 160.283 300.072C161.015 299.664 161.837 299.46 162.749 299.46C163.661 299.46 164.483 299.664 165.215 300.072C165.947 300.48 166.517 301.05 166.925 301.782C167.345 302.514 167.555 303.342 167.555 304.266C167.555 305.19 167.345 306.018 166.925 306.75C166.517 307.482 165.947 308.058 165.215 308.478C164.483 308.886 163.661 309.09 162.749 309.09ZM162.749 307.956C163.421 307.956 164.021 307.806 164.549 307.506C165.089 307.194 165.509 306.756 165.809 306.192C166.109 305.628 166.259 304.986 166.259 304.266C166.259 303.546 166.109 302.904 165.809 302.34C165.509 301.776 165.089 301.344 164.549 301.044C164.021 300.732 163.421 300.576 162.749 300.576C162.077 300.576 161.471 300.732 160.931 301.044C160.403 301.344 159.983 301.776 159.671 302.34C159.371 302.904 159.221 303.546 159.221 304.266C159.221 304.986 159.371 305.628 159.671 306.192C159.983 306.756 160.403 307.194 160.931 307.506C161.471 307.806 162.077 307.956 162.749 307.956ZM178.745 309.09C177.833 309.09 177.011 308.886 176.279 308.478C175.547 308.058 174.971 307.482 174.551 306.75C174.131 306.018 173.921 305.19 173.921 304.266C173.921 303.342 174.131 302.514 174.551 301.782C174.971 301.05 175.547 300.48 176.279 300.072C177.011 299.664 177.833 299.46 178.745 299.46C179.657 299.46 180.479 299.664 181.211 300.072C181.943 300.48 182.513 301.05 182.921 301.782C183.341 302.514 183.551 303.342 183.551 304.266C183.551 305.19 183.341 306.018 182.921 306.75C182.513 307.482 181.943 308.058 181.211 308.478C180.479 308.886 179.657 309.09 178.745 309.09ZM178.745 307.956C179.417 307.956 180.017 307.806 180.545 307.506C181.085 307.194 181.505 306.756 181.805 306.192C182.105 305.628 182.255 304.986 182.255 304.266C182.255 303.546 182.105 302.904 181.805 302.34C181.505 301.776 181.085 301.344 180.545 301.044C180.017 300.732 179.417 300.576 178.745 300.576C178.073 300.576 177.467 300.732 176.927 301.044C176.399 301.344 175.979 301.776 175.667 302.34C175.367 302.904 175.217 303.546 175.217 304.266C175.217 304.986 175.367 305.628 175.667 306.192C175.979 306.756 176.399 307.194 176.927 307.506C177.467 307.806 178.073 307.956 178.745 307.956ZM194.692 299.532V309H193.468V307.272C193.132 307.848 192.67 308.298 192.082 308.622C191.494 308.934 190.822 309.09 190.066 309.09C188.83 309.09 187.852 308.748 187.132 308.064C186.424 307.368 186.07 306.354 186.07 305.022V299.532H187.348V304.896C187.348 305.892 187.594 306.648 188.086 307.164C188.578 307.68 189.28 307.938 190.192 307.938C191.188 307.938 191.974 307.638 192.55 307.038C193.126 306.426 193.414 305.58 193.414 304.5V299.532H194.692ZM45.3504 321.46C46.2384 321.46 47.0424 321.664 47.7624 322.072C48.4824 322.468 49.0464 323.032 49.4544 323.764C49.8624 324.496 50.0664 325.33 50.0664 326.266C50.0664 327.214 49.8624 328.054 49.4544 328.786C49.0464 329.518 48.4824 330.088 47.7624 330.496C47.0544 330.892 46.2504 331.09 45.3504 331.09C44.5824 331.09 43.8864 330.934 43.2624 330.622C42.6504 330.298 42.1464 329.83 41.7504 329.218V334.492H40.4724V321.532H41.6964V323.404C42.0804 322.78 42.5844 322.3 43.2084 321.964C43.8444 321.628 44.5584 321.46 45.3504 321.46ZM45.2604 329.956C45.9204 329.956 46.5204 329.806 47.0604 329.506C47.6004 329.194 48.0204 328.756 48.3204 328.192C48.6324 327.628 48.7884 326.986 48.7884 326.266C48.7884 325.546 48.6324 324.91 48.3204 324.358C48.0204 323.794 47.6004 323.356 47.0604 323.044C46.5204 322.732 45.9204 322.576 45.2604 322.576C44.5884 322.576 43.9824 322.732 43.4424 323.044C42.9144 323.356 42.4944 323.794 42.1824 324.358C41.8824 324.91 41.7324 325.546 41.7324 326.266C41.7324 326.986 41.8824 327.628 42.1824 328.192C42.4944 328.756 42.9144 329.194 43.4424 329.506C43.9824 329.806 44.5884 329.956 45.2604 329.956ZM55.9309 321.46C57.1669 321.46 58.1149 321.772 58.7749 322.396C59.4349 323.008 59.7649 323.92 59.7649 325.132V331H58.5409V329.524C58.2529 330.016 57.8269 330.4 57.2629 330.676C56.7109 330.952 56.0509 331.09 55.2829 331.09C54.2269 331.09 53.3869 330.838 52.7629 330.334C52.1389 329.83 51.8269 329.164 51.8269 328.336C51.8269 327.532 52.1149 326.884 52.6909 326.392C53.2789 325.9 54.2089 325.654 55.4809 325.654H58.4869V325.078C58.4869 324.262 58.2589 323.644 57.8029 323.224C57.3469 322.792 56.6809 322.576 55.8049 322.576C55.2049 322.576 54.6289 322.678 54.0769 322.882C53.5249 323.074 53.0509 323.344 52.6549 323.692L52.0789 322.738C52.5589 322.33 53.1349 322.018 53.8069 321.802C54.4789 321.574 55.1869 321.46 55.9309 321.46ZM55.4809 330.082C56.2009 330.082 56.8189 329.92 57.3349 329.596C57.8509 329.26 58.2349 328.78 58.4869 328.156V326.608H55.5169C53.8969 326.608 53.0869 327.172 53.0869 328.3C53.0869 328.852 53.2969 329.29 53.7169 329.614C54.1369 329.926 54.7249 330.082 55.4809 330.082ZM64.4601 323.386C64.7601 322.75 65.2041 322.27 65.7921 321.946C66.3921 321.622 67.1301 321.46 68.0061 321.46V322.702L67.7001 322.684C66.7041 322.684 65.9241 322.99 65.3601 323.602C64.7961 324.214 64.5141 325.072 64.5141 326.176V331H63.2361V321.532H64.4601V323.386ZM73.6145 321.46C74.8505 321.46 75.7985 321.772 76.4585 322.396C77.1185 323.008 77.4485 323.92 77.4485 325.132V331H76.2245V329.524C75.9365 330.016 75.5105 330.4 74.9465 330.676C74.3945 330.952 73.7345 331.09 72.9665 331.09C71.9105 331.09 71.0705 330.838 70.4465 330.334C69.8225 329.83 69.5105 329.164 69.5105 328.336C69.5105 327.532 69.7985 326.884 70.3745 326.392C70.9625 325.9 71.8925 325.654 73.1645 325.654H76.1705V325.078C76.1705 324.262 75.9425 323.644 75.4865 323.224C75.0305 322.792 74.3645 322.576 73.4885 322.576C72.8885 322.576 72.3125 322.678 71.7605 322.882C71.2085 323.074 70.7345 323.344 70.3385 323.692L69.7625 322.738C70.2425 322.33 70.8185 322.018 71.4905 321.802C72.1625 321.574 72.8705 321.46 73.6145 321.46ZM73.1645 330.082C73.8845 330.082 74.5025 329.92 75.0185 329.596C75.5345 329.26 75.9185 328.78 76.1705 328.156V326.608H73.2005C71.5805 326.608 70.7705 327.172 70.7705 328.3C70.7705 328.852 70.9805 329.29 71.4005 329.614C71.8205 329.926 72.4085 330.082 73.1645 330.082ZM88.1686 331.09C87.4006 331.09 86.6626 330.982 85.9546 330.766C85.2586 330.538 84.7126 330.256 84.3166 329.92L84.8926 328.912C85.2886 329.224 85.7866 329.482 86.3866 329.686C86.9866 329.878 87.6106 329.974 88.2586 329.974C89.1226 329.974 89.7586 329.842 90.1666 329.578C90.5866 329.302 90.7966 328.918 90.7966 328.426C90.7966 328.078 90.6826 327.808 90.4546 327.616C90.2266 327.412 89.9386 327.262 89.5906 327.166C89.2426 327.058 88.7806 326.956 88.2046 326.86C87.4366 326.716 86.8186 326.572 86.3506 326.428C85.8826 326.272 85.4806 326.014 85.1446 325.654C84.8206 325.294 84.6586 324.796 84.6586 324.16C84.6586 323.368 84.9886 322.72 85.6486 322.216C86.3086 321.712 87.2266 321.46 88.4026 321.46C89.0146 321.46 89.6266 321.544 90.2386 321.712C90.8506 321.868 91.3546 322.078 91.7506 322.342L91.1926 323.368C90.4126 322.828 89.4826 322.558 88.4026 322.558C87.5866 322.558 86.9686 322.702 86.5486 322.99C86.1406 323.278 85.9366 323.656 85.9366 324.124C85.9366 324.484 86.0506 324.772 86.2786 324.988C86.5186 325.204 86.8126 325.366 87.1606 325.474C87.5086 325.57 87.9886 325.672 88.6006 325.78C89.3566 325.924 89.9626 326.068 90.4186 326.212C90.8746 326.356 91.2646 326.602 91.5886 326.95C91.9126 327.298 92.0746 327.778 92.0746 328.39C92.0746 329.218 91.7266 329.878 91.0306 330.37C90.3466 330.85 89.3926 331.09 88.1686 331.09ZM102.969 321.532V331H101.745V329.272C101.409 329.848 100.947 330.298 100.359 330.622C99.7713 330.934 99.0993 331.09 98.3433 331.09C97.1073 331.09 96.1293 330.748 95.4093 330.064C94.7013 329.368 94.3473 328.354 94.3473 327.022V321.532H95.6253V326.896C95.6253 327.892 95.8713 328.648 96.3633 329.164C96.8553 329.68 97.5573 329.938 98.4693 329.938C99.4653 329.938 100.251 329.638 100.827 329.038C101.403 328.426 101.691 327.58 101.691 326.5V321.532H102.969ZM109.861 321.46C111.097 321.46 112.045 321.772 112.705 322.396C113.365 323.008 113.695 323.92 113.695 325.132V331H112.471V329.524C112.183 330.016 111.757 330.4 111.193 330.676C110.641 330.952 109.981 331.09 109.213 331.09C108.157 331.09 107.317 330.838 106.693 330.334C106.069 329.83 105.757 329.164 105.757 328.336C105.757 327.532 106.045 326.884 106.621 326.392C107.209 325.9 108.139 325.654 109.411 325.654H112.417V325.078C112.417 324.262 112.189 323.644 111.733 323.224C111.277 322.792 110.611 322.576 109.735 322.576C109.135 322.576 108.559 322.678 108.007 322.882C107.455 323.074 106.981 323.344 106.585 323.692L106.009 322.738C106.489 322.33 107.065 322.018 107.737 321.802C108.409 321.574 109.117 321.46 109.861 321.46ZM109.411 330.082C110.131 330.082 110.749 329.92 111.265 329.596C111.781 329.26 112.165 328.78 112.417 328.156V326.608H109.447C107.827 326.608 107.017 327.172 107.017 328.3C107.017 328.852 107.227 329.29 107.647 329.614C108.067 329.926 108.655 330.082 109.411 330.082ZM126.755 321.46C127.643 321.46 128.447 321.664 129.167 322.072C129.887 322.468 130.451 323.032 130.859 323.764C131.267 324.496 131.471 325.33 131.471 326.266C131.471 327.214 131.267 328.054 130.859 328.786C130.451 329.518 129.887 330.088 129.167 330.496C128.459 330.892 127.655 331.09 126.755 331.09C125.987 331.09 125.291 330.934 124.667 330.622C124.055 330.298 123.551 329.83 123.155 329.218V334.492H121.877V321.532H123.101V323.404C123.485 322.78 123.989 322.3 124.613 321.964C125.249 321.628 125.963 321.46 126.755 321.46ZM126.665 329.956C127.325 329.956 127.925 329.806 128.465 329.506C129.005 329.194 129.425 328.756 129.725 328.192C130.037 327.628 130.193 326.986 130.193 326.266C130.193 325.546 130.037 324.91 129.725 324.358C129.425 323.794 129.005 323.356 128.465 323.044C127.925 322.732 127.325 322.576 126.665 322.576C125.993 322.576 125.387 322.732 124.847 323.044C124.319 323.356 123.899 323.794 123.587 324.358C123.287 324.91 123.137 325.546 123.137 326.266C123.137 326.986 123.287 327.628 123.587 328.192C123.899 328.756 124.319 329.194 124.847 329.506C125.387 329.806 125.993 329.956 126.665 329.956ZM135.3 323.386C135.6 322.75 136.044 322.27 136.632 321.946C137.232 321.622 137.97 321.46 138.846 321.46V322.702L138.54 322.684C137.544 322.684 136.764 322.99 136.2 323.602C135.636 324.214 135.354 325.072 135.354 326.176V331H134.076V321.532H135.3V323.386ZM144.942 331.09C144.03 331.09 143.208 330.886 142.476 330.478C141.744 330.058 141.168 329.482 140.748 328.75C140.328 328.018 140.118 327.19 140.118 326.266C140.118 325.342 140.328 324.514 140.748 323.782C141.168 323.05 141.744 322.48 142.476 322.072C143.208 321.664 144.03 321.46 144.942 321.46C145.854 321.46 146.676 321.664 147.408 322.072C148.14 322.48 148.71 323.05 149.118 323.782C149.538 324.514 149.748 325.342 149.748 326.266C149.748 327.19 149.538 328.018 149.118 328.75C148.71 329.482 148.14 330.058 147.408 330.478C146.676 330.886 145.854 331.09 144.942 331.09ZM144.942 329.956C145.614 329.956 146.214 329.806 146.742 329.506C147.282 329.194 147.702 328.756 148.002 328.192C148.302 327.628 148.452 326.986 148.452 326.266C148.452 325.546 148.302 324.904 148.002 324.34C147.702 323.776 147.282 323.344 146.742 323.044C146.214 322.732 145.614 322.576 144.942 322.576C144.27 322.576 143.664 322.732 143.124 323.044C142.596 323.344 142.176 323.776 141.864 324.34C141.564 324.904 141.414 325.546 141.414 326.266C141.414 326.986 141.564 327.628 141.864 328.192C142.176 328.756 142.596 329.194 143.124 329.506C143.664 329.806 144.27 329.956 144.942 329.956ZM146.22 317.824H147.93L145.014 320.056H143.754L146.22 317.824ZM157.235 321.46C158.123 321.46 158.927 321.664 159.647 322.072C160.367 322.468 160.931 323.032 161.339 323.764C161.747 324.496 161.951 325.33 161.951 326.266C161.951 327.214 161.747 328.054 161.339 328.786C160.931 329.518 160.367 330.088 159.647 330.496C158.939 330.892 158.135 331.09 157.235 331.09C156.467 331.09 155.771 330.934 155.147 330.622C154.535 330.298 154.031 329.83 153.635 329.218V334.492H152.357V321.532H153.581V323.404C153.965 322.78 154.469 322.3 155.093 321.964C155.729 321.628 156.443 321.46 157.235 321.46ZM157.145 329.956C157.805 329.956 158.405 329.806 158.945 329.506C159.485 329.194 159.905 328.756 160.205 328.192C160.517 327.628 160.673 326.986 160.673 326.266C160.673 325.546 160.517 324.91 160.205 324.358C159.905 323.794 159.485 323.356 158.945 323.044C158.405 322.732 157.805 322.576 157.145 322.576C156.473 322.576 155.867 322.732 155.327 323.044C154.799 323.356 154.379 323.794 154.067 324.358C153.767 324.91 153.617 325.546 153.617 326.266C153.617 326.986 153.767 327.628 154.067 328.192C154.379 328.756 154.799 329.194 155.327 329.506C155.867 329.806 156.473 329.956 157.145 329.956ZM165.78 323.386C166.08 322.75 166.524 322.27 167.112 321.946C167.712 321.622 168.45 321.46 169.326 321.46V322.702L169.02 322.684C168.024 322.684 167.244 322.99 166.68 323.602C166.116 324.214 165.834 325.072 165.834 326.176V331H164.556V321.532H165.78V323.386ZM171.64 321.532H172.918V331H171.64V321.532ZM172.288 319.462C172.024 319.462 171.802 319.372 171.622 319.192C171.442 319.012 171.352 318.796 171.352 318.544C171.352 318.304 171.442 318.094 171.622 317.914C171.802 317.734 172.024 317.644 172.288 317.644C172.552 317.644 172.774 317.734 172.954 317.914C173.134 318.082 173.224 318.286 173.224 318.526C173.224 318.79 173.134 319.012 172.954 319.192C172.774 319.372 172.552 319.462 172.288 319.462ZM179.786 321.46C181.022 321.46 181.97 321.772 182.63 322.396C183.29 323.008 183.62 323.92 183.62 325.132V331H182.396V329.524C182.108 330.016 181.682 330.4 181.118 330.676C180.566 330.952 179.906 331.09 179.138 331.09C178.082 331.09 177.242 330.838 176.618 330.334C175.994 329.83 175.682 329.164 175.682 328.336C175.682 327.532 175.97 326.884 176.546 326.392C177.134 325.9 178.064 325.654 179.336 325.654H182.342V325.078C182.342 324.262 182.114 323.644 181.658 323.224C181.202 322.792 180.536 322.576 179.66 322.576C179.06 322.576 178.484 322.678 177.932 322.882C177.38 323.074 176.906 323.344 176.51 323.692L175.934 322.738C176.414 322.33 176.99 322.018 177.662 321.802C178.334 321.574 179.042 321.46 179.786 321.46ZM179.336 330.082C180.056 330.082 180.674 329.92 181.19 329.596C181.706 329.26 182.09 328.78 182.342 328.156V326.608H179.372C177.752 326.608 176.942 327.172 176.942 328.3C176.942 328.852 177.152 329.29 177.572 329.614C177.992 329.926 178.58 330.082 179.336 330.082ZM48.3341 343.46C49.5221 343.46 50.4521 343.802 51.1241 344.486C51.8081 345.17 52.1501 346.178 52.1501 347.51V353H50.8721V347.636C50.8721 346.652 50.6321 345.902 50.1521 345.386C49.6841 344.87 49.0181 344.612 48.1541 344.612C47.1701 344.612 46.3961 344.918 45.8321 345.53C45.2681 346.13 44.9861 346.964 44.9861 348.032V353H43.7081V347.636C43.7081 346.652 43.4681 345.902 42.9881 345.386C42.5201 344.87 41.8481 344.612 40.9721 344.612C40.0001 344.612 39.2261 344.918 38.6501 345.53C38.0861 346.13 37.8041 346.964 37.8041 348.032V353H36.5261V343.532H37.7501V345.26C38.0861 344.684 38.5541 344.24 39.1541 343.928C39.7541 343.616 40.4441 343.46 41.2241 343.46C42.0161 343.46 42.7001 343.628 43.2761 343.964C43.8641 344.3 44.3021 344.798 44.5901 345.458C44.9381 344.834 45.4361 344.348 46.0841 344C46.7441 343.64 47.4941 343.46 48.3341 343.46ZM58.928 343.46C60.164 343.46 61.112 343.772 61.772 344.396C62.432 345.008 62.762 345.92 62.762 347.132V353H61.538V351.524C61.25 352.016 60.824 352.4 60.26 352.676C59.708 352.952 59.048 353.09 58.28 353.09C57.224 353.09 56.384 352.838 55.76 352.334C55.136 351.83 54.824 351.164 54.824 350.336C54.824 349.532 55.112 348.884 55.688 348.392C56.276 347.9 57.206 347.654 58.478 347.654H61.484V347.078C61.484 346.262 61.256 345.644 60.8 345.224C60.344 344.792 59.678 344.576 58.802 344.576C58.202 344.576 57.626 344.678 57.074 344.882C56.522 345.074 56.048 345.344 55.652 345.692L55.076 344.738C55.556 344.33 56.132 344.018 56.804 343.802C57.476 343.574 58.184 343.46 58.928 343.46ZM58.478 352.082C59.198 352.082 59.816 351.92 60.332 351.596C60.848 351.26 61.232 350.78 61.484 350.156V348.608H58.514C56.894 348.608 56.084 349.172 56.084 350.3C56.084 350.852 56.294 351.29 56.714 351.614C57.134 351.926 57.722 352.082 58.478 352.082ZM67.4572 345.386C67.7572 344.75 68.2012 344.27 68.7892 343.946C69.3892 343.622 70.1272 343.46 71.0032 343.46V344.702L70.6972 344.684C69.7012 344.684 68.9212 344.99 68.3572 345.602C67.7932 346.214 67.5112 347.072 67.5112 348.176V353H66.2332V343.532H67.4572V345.386ZM77.1533 353.09C76.2173 353.09 75.3773 352.886 74.6333 352.478C73.9013 352.07 73.3253 351.5 72.9053 350.768C72.4853 350.024 72.2753 349.19 72.2753 348.266C72.2753 347.342 72.4853 346.514 72.9053 345.782C73.3253 345.05 73.9013 344.48 74.6333 344.072C75.3773 343.664 76.2173 343.46 77.1533 343.46C77.9693 343.46 78.6953 343.622 79.3313 343.946C79.9793 344.258 80.4893 344.72 80.8613 345.332L79.9073 345.98C79.5953 345.512 79.1993 345.164 78.7193 344.936C78.2393 344.696 77.7173 344.576 77.1533 344.576C76.4693 344.576 75.8513 344.732 75.2993 345.044C74.7593 345.344 74.3333 345.776 74.0213 346.34C73.7213 346.904 73.5713 347.546 73.5713 348.266C73.5713 348.998 73.7213 349.646 74.0213 350.21C74.3333 350.762 74.7593 351.194 75.2993 351.506C75.8513 351.806 76.4693 351.956 77.1533 351.956C77.7173 351.956 78.2393 351.842 78.7193 351.614C79.1993 351.386 79.5953 351.038 79.9073 350.57L80.8613 351.218C80.4893 351.83 79.9793 352.298 79.3313 352.622C78.6833 352.934 77.9573 353.09 77.1533 353.09ZM86.6838 343.46C87.9198 343.46 88.8678 343.772 89.5278 344.396C90.1878 345.008 90.5178 345.92 90.5178 347.132V353H89.2938V351.524C89.0058 352.016 88.5798 352.4 88.0158 352.676C87.4638 352.952 86.8038 353.09 86.0358 353.09C84.9798 353.09 84.1398 352.838 83.5158 352.334C82.8918 351.83 82.5798 351.164 82.5798 350.336C82.5798 349.532 82.8678 348.884 83.4438 348.392C84.0318 347.9 84.9618 347.654 86.2338 347.654H89.2398V347.078C89.2398 346.262 89.0118 345.644 88.5558 345.224C88.0998 344.792 87.4338 344.576 86.5578 344.576C85.9578 344.576 85.3818 344.678 84.8298 344.882C84.2778 345.074 83.8038 345.344 83.4078 345.692L82.8318 344.738C83.3118 344.33 83.8878 344.018 84.5598 343.802C85.2318 343.574 85.9398 343.46 86.6838 343.46ZM86.2338 352.082C86.9538 352.082 87.5718 351.92 88.0878 351.596C88.6038 351.26 88.9878 350.78 89.2398 350.156V348.608H86.2698C84.6498 348.608 83.8398 349.172 83.8398 350.3C83.8398 350.852 84.0498 351.29 84.4698 351.614C84.8898 351.926 85.4778 352.082 86.2338 352.082ZM97.697 337.844H98.867L92.927 354.8H91.757L97.697 337.844ZM102.1 343.46C103.336 343.46 104.284 343.772 104.944 344.396C105.604 345.008 105.934 345.92 105.934 347.132V353H104.71V351.524C104.422 352.016 103.996 352.4 103.432 352.676C102.88 352.952 102.22 353.09 101.452 353.09C100.396 353.09 99.5559 352.838 98.9319 352.334C98.3079 351.83 97.9959 351.164 97.9959 350.336C97.9959 349.532 98.2839 348.884 98.8599 348.392C99.4479 347.9 100.378 347.654 101.65 347.654H104.656V347.078C104.656 346.262 104.428 345.644 103.972 345.224C103.516 344.792 102.85 344.576 101.974 344.576C101.374 344.576 100.798 344.678 100.246 344.882C99.6939 345.074 99.2199 345.344 98.8239 345.692L98.2479 344.738C98.7279 344.33 99.3039 344.018 99.9759 343.802C100.648 343.574 101.356 343.46 102.1 343.46ZM101.65 352.082C102.37 352.082 102.988 351.92 103.504 351.596C104.02 351.26 104.404 350.78 104.656 350.156V348.608H101.686C100.066 348.608 99.2559 349.172 99.2559 350.3C99.2559 350.852 99.4659 351.29 99.8859 351.614C100.306 351.926 100.894 352.082 101.65 352.082ZM117.937 343.532V353H116.713V351.272C116.377 351.848 115.915 352.298 115.327 352.622C114.739 352.934 114.067 353.09 113.311 353.09C112.075 353.09 111.097 352.748 110.377 352.064C109.669 351.368 109.315 350.354 109.315 349.022V343.532H110.593V348.896C110.593 349.892 110.839 350.648 111.331 351.164C111.823 351.68 112.525 351.938 113.437 351.938C114.433 351.938 115.219 351.638 115.795 351.038C116.371 350.426 116.659 349.58 116.659 348.5V343.532H117.937ZM130.156 339.644V353H128.932V351.128C128.548 351.764 128.038 352.25 127.402 352.586C126.778 352.922 126.07 353.09 125.278 353.09C124.39 353.09 123.586 352.886 122.866 352.478C122.146 352.07 121.582 351.5 121.174 350.768C120.766 350.036 120.562 349.202 120.562 348.266C120.562 347.33 120.766 346.496 121.174 345.764C121.582 345.032 122.146 344.468 122.866 344.072C123.586 343.664 124.39 343.46 125.278 343.46C126.046 343.46 126.736 343.622 127.348 343.946C127.972 344.258 128.482 344.72 128.878 345.332V339.644H130.156ZM125.386 351.956C126.046 351.956 126.64 351.806 127.168 351.506C127.708 351.194 128.128 350.756 128.428 350.192C128.74 349.628 128.896 348.986 128.896 348.266C128.896 347.546 128.74 346.904 128.428 346.34C128.128 345.776 127.708 345.344 127.168 345.044C126.64 344.732 126.046 344.576 125.386 344.576C124.714 344.576 124.108 344.732 123.568 345.044C123.04 345.344 122.62 345.776 122.308 346.34C122.008 346.904 121.858 347.546 121.858 348.266C121.858 348.986 122.008 349.628 122.308 350.192C122.62 350.756 123.04 351.194 123.568 351.506C124.108 351.806 124.714 351.956 125.386 351.956ZM133.716 343.532H134.994V353H133.716V343.532ZM134.364 341.462C134.1 341.462 133.878 341.372 133.698 341.192C133.518 341.012 133.428 340.796 133.428 340.544C133.428 340.304 133.518 340.094 133.698 339.914C133.878 339.734 134.1 339.644 134.364 339.644C134.628 339.644 134.85 339.734 135.03 339.914C135.21 340.082 135.3 340.286 135.3 340.526C135.3 340.79 135.21 341.012 135.03 341.192C134.85 341.372 134.628 341.462 134.364 341.462ZM146.794 348.662H138.874C138.946 349.646 139.324 350.444 140.008 351.056C140.692 351.656 141.556 351.956 142.6 351.956C143.188 351.956 143.728 351.854 144.22 351.65C144.712 351.434 145.138 351.122 145.498 350.714L146.218 351.542C145.798 352.046 145.27 352.43 144.634 352.694C144.01 352.958 143.32 353.09 142.564 353.09C141.592 353.09 140.728 352.886 139.972 352.478C139.228 352.058 138.646 351.482 138.226 350.75C137.806 350.018 137.596 349.19 137.596 348.266C137.596 347.342 137.794 346.514 138.19 345.782C138.598 345.05 139.15 344.48 139.846 344.072C140.554 343.664 141.346 343.46 142.222 343.46C143.098 343.46 143.884 343.664 144.58 344.072C145.276 344.48 145.822 345.05 146.218 345.782C146.614 346.502 146.812 347.33 146.812 348.266L146.794 348.662ZM142.222 344.558C141.31 344.558 140.542 344.852 139.918 345.44C139.306 346.016 138.958 346.772 138.874 347.708H145.588C145.504 346.772 145.15 346.016 144.526 345.44C143.914 344.852 143.146 344.558 142.222 344.558ZM144.004 342.056L142.222 340.562L140.44 342.056H139.252L141.574 339.824H142.87L145.192 342.056H144.004ZM154.237 343.46C155.425 343.46 156.367 343.808 157.063 344.504C157.771 345.188 158.125 346.19 158.125 347.51V353H156.847V347.636C156.847 346.652 156.601 345.902 156.109 345.386C155.617 344.87 154.915 344.612 154.003 344.612C152.983 344.612 152.173 344.918 151.573 345.53C150.985 346.13 150.691 346.964 150.691 348.032V353H149.413V343.532H150.637V345.278C150.985 344.702 151.465 344.258 152.077 343.946C152.701 343.622 153.421 343.46 154.237 343.46ZM165.554 353.09C164.618 353.09 163.778 352.886 163.034 352.478C162.302 352.07 161.726 351.5 161.306 350.768C160.886 350.024 160.676 349.19 160.676 348.266C160.676 347.342 160.886 346.514 161.306 345.782C161.726 345.05 162.302 344.48 163.034 344.072C163.778 343.664 164.618 343.46 165.554 343.46C166.37 343.46 167.096 343.622 167.732 343.946C168.38 344.258 168.89 344.72 169.262 345.332L168.308 345.98C167.996 345.512 167.6 345.164 167.12 344.936C166.64 344.696 166.118 344.576 165.554 344.576C164.87 344.576 164.252 344.732 163.7 345.044C163.16 345.344 162.734 345.776 162.422 346.34C162.122 346.904 161.972 347.546 161.972 348.266C161.972 348.998 162.122 349.646 162.422 350.21C162.734 350.762 163.16 351.194 163.7 351.506C164.252 351.806 164.87 351.956 165.554 351.956C166.118 351.956 166.64 351.842 167.12 351.614C167.6 351.386 167.996 351.038 168.308 350.57L169.262 351.218C168.89 351.83 168.38 352.298 167.732 352.622C167.084 352.934 166.358 353.09 165.554 353.09ZM171.772 343.532H173.05V353H171.772V343.532ZM172.42 341.462C172.156 341.462 171.934 341.372 171.754 341.192C171.574 341.012 171.484 340.796 171.484 340.544C171.484 340.304 171.574 340.094 171.754 339.914C171.934 339.734 172.156 339.644 172.42 339.644C172.684 339.644 172.906 339.734 173.086 339.914C173.266 340.082 173.356 340.286 173.356 340.526C173.356 340.79 173.266 341.012 173.086 341.192C172.906 341.372 172.684 341.462 172.42 341.462ZM179.918 343.46C181.154 343.46 182.102 343.772 182.762 344.396C183.422 345.008 183.752 345.92 183.752 347.132V353H182.528V351.524C182.24 352.016 181.814 352.4 181.25 352.676C180.698 352.952 180.038 353.09 179.27 353.09C178.214 353.09 177.374 352.838 176.75 352.334C176.126 351.83 175.814 351.164 175.814 350.336C175.814 349.532 176.102 348.884 176.678 348.392C177.266 347.9 178.196 347.654 179.468 347.654H182.474V347.078C182.474 346.262 182.246 345.644 181.79 345.224C181.334 344.792 180.668 344.576 179.792 344.576C179.192 344.576 178.616 344.678 178.064 344.882C177.512 345.074 177.038 345.344 176.642 345.692L176.066 344.738C176.546 344.33 177.122 344.018 177.794 343.802C178.466 343.574 179.174 343.46 179.918 343.46ZM179.468 352.082C180.188 352.082 180.806 351.92 181.322 351.596C181.838 351.26 182.222 350.78 182.474 350.156V348.608H179.504C177.884 348.608 177.074 349.172 177.074 350.3C177.074 350.852 177.284 351.29 177.704 351.614C178.124 351.926 178.712 352.082 179.468 352.082ZM187.349 353.09C187.085 353.09 186.857 352.994 186.665 352.802C186.485 352.61 186.395 352.376 186.395 352.1C186.395 351.824 186.485 351.596 186.665 351.416C186.857 351.224 187.085 351.128 187.349 351.128C187.613 351.128 187.841 351.224 188.033 351.416C188.225 351.596 188.321 351.824 188.321 352.1C188.321 352.376 188.225 352.61 188.033 352.802C187.841 352.994 187.613 353.09 187.349 353.09Z" fill="#1C1F3D"/>
<path d="M51.4105 218L51.3625 209.096L47.0425 216.344H44.9305L40.6345 209.336V218H36.2425V201.2H40.1545L46.0585 210.896L51.8185 201.2H55.7305L55.7785 218H51.4105ZM70.3969 214.736H63.2929L61.9729 218H57.1249L64.5409 201.2H69.2209L76.6609 218H71.7169L70.3969 214.736ZM69.0049 211.232L66.8449 205.856L64.6849 211.232H69.0049ZM85.3521 213.536H82.7601V218H78.0081V201.2H85.6881C87.2081 201.2 88.5281 201.456 89.6481 201.968C90.7681 202.464 91.6321 203.184 92.2401 204.128C92.8481 205.056 93.1521 206.152 93.1521 207.416C93.1521 208.632 92.8641 209.696 92.2881 210.608C91.7281 211.504 90.9201 212.208 89.8641 212.72L93.4881 218H88.4001L85.3521 213.536ZM88.3521 207.416C88.3521 206.632 88.1041 206.024 87.6081 205.592C87.1121 205.16 86.3761 204.944 85.4001 204.944H82.7601V209.864H85.4001C86.3761 209.864 87.1121 209.656 87.6081 209.24C88.1041 208.808 88.3521 208.2 88.3521 207.416ZM102.254 211.904L100.478 213.8V218H95.7738V201.2H100.478V208.184L106.982 201.2H112.214L105.35 208.64L112.574 218H107.054L102.254 211.904ZM127.309 214.328V218H113.821V201.2H126.997V204.872H118.525V207.704H125.989V211.256H118.525V214.328H127.309ZM133.522 204.968H128.362V201.2H143.41V204.968H138.274V218H133.522V204.968ZM145.18 201.2H149.932V218H145.18V201.2ZM169.297 201.2V218H165.385L157.969 209.048V218H153.313V201.2H157.225L164.641 210.152V201.2H169.297ZM183.905 209.24H188.105V216.2C187.145 216.888 186.041 217.416 184.793 217.784C183.545 218.152 182.297 218.336 181.049 218.336C179.289 218.336 177.705 217.968 176.297 217.232C174.889 216.48 173.785 215.44 172.985 214.112C172.185 212.784 171.785 211.28 171.785 209.6C171.785 207.92 172.185 206.416 172.985 205.088C173.785 203.76 174.897 202.728 176.321 201.992C177.745 201.24 179.353 200.864 181.145 200.864C182.713 200.864 184.121 201.128 185.369 201.656C186.617 202.184 187.657 202.944 188.489 203.936L185.465 206.672C184.329 205.424 182.969 204.8 181.385 204.8C179.945 204.8 178.785 205.24 177.905 206.12C177.025 206.984 176.585 208.144 176.585 209.6C176.585 210.528 176.785 211.36 177.185 212.096C177.585 212.816 178.145 213.384 178.865 213.8C179.585 214.2 180.409 214.4 181.337 214.4C182.249 214.4 183.105 214.216 183.905 213.848V209.24Z" fill="white"/>
<path d="M112.59 182C111.729 181.442 110.92 180.825 110.172 180.153C104.326 174.028 98.5011 167.879 92.6981 161.706C92.4761 161.432 92.1687 161.219 91.8131 161.095C91.4574 160.971 91.0686 160.94 90.6933 161.005C89.346 161.102 87.9343 160.726 86.5549 160.6C86.0177 160.499 85.4595 160.53 84.9409 160.689C82.8211 161.698 80.7611 162.804 78.6689 163.861C76.4617 164.975 74.8615 164.61 73.6108 162.694C71.3025 159.184 69.0033 155.653 66.7134 152.102C65.4443 150.149 65.8581 148.776 68.0377 147.646C70.1483 146.552 72.2911 145.499 74.3787 144.373C74.7833 144.138 75.0659 143.771 75.165 143.352C75.2831 142.307 75.6898 141.304 76.3494 140.429C77.009 139.554 77.9016 138.835 78.9494 138.334C91.4244 131.852 100.4 122.661 106.258 111.064C107.509 108.585 108.47 105.981 109.445 103.417C109.932 102.112 110.696 101.189 112.291 101.023C113.887 100.857 114.903 101.618 115.666 102.805C118.784 107.639 121.926 112.459 125.093 117.266C128.233 122.05 131.443 126.769 134.542 131.561C138.501 137.637 142.359 143.753 146.328 149.838C147.095 151.024 147.33 152.142 146.364 153.297C145.399 154.451 144.065 154.581 142.589 154.265C136.996 153.075 131.261 152.483 125.507 152.503C120.838 152.488 116.183 152.956 111.638 153.896C111.454 153.937 111.28 153.994 110.926 154.091C111.266 154.496 111.514 154.779 111.781 155.063C116.839 160.399 121.891 165.732 126.937 171.063C128.776 172.995 128.408 174.709 125.939 175.96C121.98 177.986 118.007 179.983 114.039 181.992L112.59 182ZM105.449 124.075C105.238 124.225 105.123 124.27 105.063 124.351C99.0615 131.978 91.2476 138.364 82.1635 143.065C81.3726 143.47 81.5106 143.875 81.883 144.446C84.0871 147.781 86.2759 151.123 88.4494 154.472C89.2954 155.768 89.2954 155.764 90.7761 155.039C97.0819 151.904 103.905 149.657 110.999 148.379C114.062 147.832 117.165 147.46 120.398 146.986C115.432 139.379 110.47 131.771 105.449 124.075ZM137.637 147.618C129.572 135.247 121.515 122.888 113.468 110.542C112.029 113.203 110.65 115.715 109.33 118.238C109.286 118.404 109.281 118.576 109.314 118.744C109.347 118.911 109.418 119.071 109.523 119.214C115.427 128.264 121.347 137.31 127.282 146.354C127.374 146.498 127.498 146.624 127.648 146.725C127.797 146.825 127.968 146.897 128.151 146.937C131.259 147.192 134.377 147.399 137.637 147.63V147.618ZM97.4941 158.141L114.048 175.64L120.108 172.538C119.58 171.97 119.134 171.476 118.674 170.99C114.1 166.146 109.517 161.309 104.925 156.481C104.658 156.201 104.005 155.889 103.716 155.986C101.683 156.618 99.6921 157.364 97.4941 158.141ZM77.7814 157.939L82.021 155.768L77.694 149.133L73.4544 151.304C74.8983 153.512 76.2916 155.671 77.7814 157.939V157.939Z" fill="#1D1D1B"/>
</svg>
