<svg width="1997" height="1024" viewBox="0 0 1997 1024" fill="none" xmlns="http://www.w3.org/2000/svg">
<rect width="2000" height="1024" fill="white"/>
<rect x="400.5" y="141.5" width="1199" height="563" rx="9.5" fill="#DFE9F4" stroke="black"/>
<path d="M644 176.985H1599.5V873C1599.5 878.247 1595.25 882.5 1590 882.5H410C404.753 882.5 400.5 878.247 400.5 873V176.985H522H522.5V176.485V161C522.5 155.753 526.753 151.5 532 151.5H634C639.247 151.5 643.5 155.753 643.5 161V176.485V176.985H644Z" fill="white" stroke="black"/>
<circle cx="434.5" cy="158.5" r="7.5" fill="#F44A22"/>
<circle cx="464.5" cy="158.5" r="7.5" fill="#FCA628"/>
<circle cx="494.5" cy="158.5" r="7.5" fill="#27AE60"/>
<path d="M472.031 202.031V204H459.844L465.422 209.625L464.016 211.031L456 203.016L464.016 195L465.422 196.406L459.844 202.031H472.031Z" fill="black"/>
<path d="M500.016 195L508.031 203.016L500.016 211.031L498.609 209.625L504.188 204H492V202.031H504.188L498.609 196.406L500.016 195Z" fill="black"/>
<path d="M536.016 196.031C538.234 196.031 540.125 196.812 541.688 198.375C543.25 199.938 544.031 201.812 544.031 204C544.031 206.219 543.234 208.109 541.641 209.672C540.078 211.234 538.203 212.016 536.016 212.016C533.828 212.016 531.938 211.234 530.344 209.672C528.781 208.109 528 206.219 528 204H530.016C530.016 205.656 530.594 207.078 531.75 208.266C532.938 209.422 534.359 210 536.016 210C537.672 210 539.078 209.422 540.234 208.266C541.422 207.078 542.016 205.656 542.016 204C542.016 202.344 541.422 200.938 540.234 199.781C539.078 198.594 537.672 198 536.016 198V202.031L531 197.016L536.016 192V196.031Z" fill="black"/>
<path d="M1540.61 206.609C1541.02 206.203 1541.48 206 1542.02 206C1542.55 206 1543.02 206.203 1543.42 206.609C1543.83 207.016 1544.03 207.484 1544.03 208.016C1544.03 208.547 1543.83 209.016 1543.42 209.422C1543.02 209.828 1542.55 210.031 1542.02 210.031C1541.48 210.031 1541.02 209.828 1540.61 209.422C1540.2 209.016 1540 208.547 1540 208.016C1540 207.484 1540.2 207.016 1540.61 206.609ZM1540.61 200.609C1541.02 200.203 1541.48 200 1542.02 200C1542.55 200 1543.02 200.203 1543.42 200.609C1543.83 201.016 1544.03 201.484 1544.03 202.016C1544.03 202.547 1543.83 203.016 1543.42 203.422C1543.02 203.828 1542.55 204.031 1542.02 204.031C1541.48 204.031 1541.02 203.828 1540.61 203.422C1540.2 203.016 1540 202.547 1540 202.016C1540 201.484 1540.2 201.016 1540.61 200.609ZM1543.42 197.422C1543.02 197.828 1542.55 198.031 1542.02 198.031C1541.48 198.031 1541.02 197.828 1540.61 197.422C1540.2 197.016 1540 196.547 1540 196.016C1540 195.484 1540.2 195.016 1540.61 194.609C1541.02 194.203 1541.48 194 1542.02 194C1542.55 194 1543.02 194.203 1543.42 194.609C1543.83 195.016 1544.03 195.484 1544.03 196.016C1544.03 196.547 1543.83 197.016 1543.42 197.422Z" fill="black"/>
<rect x="564.5" y="187.5" width="955" height="29" rx="14.5" fill="#C4C4C4" fill-opacity="0.2" stroke="black"/>
</svg>
