<svg width="224" height="451" viewBox="0 0 224 451" fill="none" xmlns="http://www.w3.org/2000/svg">
<path d="M0 28L224 0V423L0 451V28Z" fill="#FCA628"/>
<mask id="mask0_446_105" style="mask-type:alpha" maskUnits="userSpaceOnUse" x="0" y="0" width="224" height="451">
<path d="M0 28L224 0V423L0 451V28Z" fill="#FCA628"/>
</mask>
<g mask="url(#mask0_446_105)">
<path d="M190.57 57.9274H187.471L187.909 51.8687H221.98H223.48V50.3687V27V25.5H221.98H161.124H159.742L159.629 26.8773L155.049 82.6734L154.915 84.2961H156.544H183.111C188.338 84.2961 191.6 84.8816 193.233 85.8076L193.255 85.8201L193.278 85.8318C194.088 86.2561 194.62 86.7535 194.956 87.295C195.289 87.8337 195.483 88.5031 195.483 89.3603C195.483 91.0076 194.721 92.3474 192.838 93.4398C190.957 94.4936 188.362 95.081 184.943 95.081C181.073 95.081 177.06 94.5328 172.9 93.4258C168.837 92.3218 164.942 90.7082 161.213 88.5823L159.789 87.7709L159.106 89.2605L148.636 112.104L148.062 113.357L149.262 114.035C154.212 116.834 159.94 118.938 166.43 120.364L166.434 120.365C172.992 121.788 179.555 122.5 186.121 122.5C195.606 122.5 203.65 120.99 210.189 117.892L210.197 117.888L210.204 117.885C216.68 114.727 221.547 110.616 224.695 105.51C227.895 100.372 229.5 94.7594 229.5 88.7039C229.5 79.5614 226.29 72.0925 219.835 66.4451C213.417 60.6657 203.555 57.9274 190.57 57.9274Z" stroke="#F44A22" stroke-opacity="0.5" stroke-width="3"/>
</g>
<path d="M39.9602 252.4H41.2922V265H39.9602V252.4ZM56.9298 255.46C58.1178 255.46 59.0478 255.802 59.7198 256.486C60.4038 257.17 60.7458 258.178 60.7458 259.51V265H59.4678V259.636C59.4678 258.652 59.2278 257.902 58.7478 257.386C58.2798 256.87 57.6138 256.612 56.7498 256.612C55.7658 256.612 54.9918 256.918 54.4278 257.53C53.8638 258.13 53.5818 258.964 53.5818 260.032V265H52.3038V259.636C52.3038 258.652 52.0638 257.902 51.5838 257.386C51.1158 256.87 50.4438 256.612 49.5678 256.612C48.5958 256.612 47.8218 256.918 47.2458 257.53C46.6818 258.13 46.3998 258.964 46.3998 260.032V265H45.1218V255.532H46.3458V257.26C46.6818 256.684 47.1498 256.24 47.7498 255.928C48.3498 255.616 49.0398 255.46 49.8198 255.46C50.6118 255.46 51.2958 255.628 51.8718 255.964C52.4598 256.3 52.8978 256.798 53.1858 257.458C53.5338 256.834 54.0318 256.348 54.6798 256C55.3398 255.64 56.0898 255.46 56.9298 255.46ZM69.0897 255.46C69.9777 255.46 70.7817 255.664 71.5017 256.072C72.2217 256.468 72.7857 257.032 73.1937 257.764C73.6017 258.496 73.8057 259.33 73.8057 260.266C73.8057 261.214 73.6017 262.054 73.1937 262.786C72.7857 263.518 72.2217 264.088 71.5017 264.496C70.7937 264.892 69.9897 265.09 69.0897 265.09C68.3217 265.09 67.6257 264.934 67.0017 264.622C66.3897 264.298 65.8857 263.83 65.4897 263.218V268.492H64.2117V255.532H65.4357V257.404C65.8197 256.78 66.3237 256.3 66.9477 255.964C67.5837 255.628 68.2977 255.46 69.0897 255.46ZM68.9997 263.956C69.6597 263.956 70.2597 263.806 70.7997 263.506C71.3397 263.194 71.7597 262.756 72.0597 262.192C72.3717 261.628 72.5277 260.986 72.5277 260.266C72.5277 259.546 72.3717 258.91 72.0597 258.358C71.7597 257.794 71.3397 257.356 70.7997 257.044C70.2597 256.732 69.6597 256.576 68.9997 256.576C68.3277 256.576 67.7217 256.732 67.1817 257.044C66.6537 257.356 66.2337 257.794 65.9217 258.358C65.6217 258.91 65.4717 259.546 65.4717 260.266C65.4717 260.986 65.6217 261.628 65.9217 262.192C66.2337 262.756 66.6537 263.194 67.1817 263.506C67.7217 263.806 68.3277 263.956 68.9997 263.956ZM76.4109 251.644H77.6889V265H76.4109V251.644ZM89.4889 260.662H81.5689C81.6409 261.646 82.0189 262.444 82.7029 263.056C83.3869 263.656 84.2509 263.956 85.2949 263.956C85.8829 263.956 86.4229 263.854 86.9149 263.65C87.4069 263.434 87.8329 263.122 88.1929 262.714L88.9129 263.542C88.4929 264.046 87.9649 264.43 87.3289 264.694C86.7049 264.958 86.0149 265.09 85.2589 265.09C84.2869 265.09 83.4229 264.886 82.6669 264.478C81.9229 264.058 81.3409 263.482 80.9209 262.75C80.5009 262.018 80.2909 261.19 80.2909 260.266C80.2909 259.342 80.4889 258.514 80.8849 257.782C81.2929 257.05 81.8449 256.48 82.5409 256.072C83.2489 255.664 84.0409 255.46 84.9169 255.46C85.7929 255.46 86.5789 255.664 87.2749 256.072C87.9709 256.48 88.5169 257.05 88.9129 257.782C89.3089 258.502 89.5069 259.33 89.5069 260.266L89.4889 260.662ZM84.9169 256.558C84.0049 256.558 83.2369 256.852 82.6129 257.44C82.0009 258.016 81.6529 258.772 81.5689 259.708H88.2829C88.1989 258.772 87.8449 258.016 87.2209 257.44C86.6089 256.852 85.8409 256.558 84.9169 256.558ZM103.916 255.46C105.104 255.46 106.034 255.802 106.706 256.486C107.39 257.17 107.732 258.178 107.732 259.51V265H106.454V259.636C106.454 258.652 106.214 257.902 105.734 257.386C105.266 256.87 104.6 256.612 103.736 256.612C102.752 256.612 101.978 256.918 101.414 257.53C100.85 258.13 100.568 258.964 100.568 260.032V265H99.2902V259.636C99.2902 258.652 99.0502 257.902 98.5702 257.386C98.1022 256.87 97.4302 256.612 96.5542 256.612C95.5822 256.612 94.8082 256.918 94.2322 257.53C93.6682 258.13 93.3862 258.964 93.3862 260.032V265H92.1082V255.532H93.3322V257.26C93.6682 256.684 94.1362 256.24 94.7362 255.928C95.3362 255.616 96.0262 255.46 96.8062 255.46C97.5982 255.46 98.2822 255.628 98.8582 255.964C99.4462 256.3 99.8842 256.798 100.172 257.458C100.52 256.834 101.018 256.348 101.666 256C102.326 255.64 103.076 255.46 103.916 255.46ZM119.477 260.662H111.557C111.629 261.646 112.007 262.444 112.691 263.056C113.375 263.656 114.239 263.956 115.283 263.956C115.871 263.956 116.411 263.854 116.903 263.65C117.395 263.434 117.821 263.122 118.181 262.714L118.901 263.542C118.481 264.046 117.953 264.43 117.317 264.694C116.693 264.958 116.003 265.09 115.247 265.09C114.275 265.09 113.411 264.886 112.655 264.478C111.911 264.058 111.329 263.482 110.909 262.75C110.489 262.018 110.279 261.19 110.279 260.266C110.279 259.342 110.477 258.514 110.873 257.782C111.281 257.05 111.833 256.48 112.529 256.072C113.237 255.664 114.029 255.46 114.905 255.46C115.781 255.46 116.567 255.664 117.263 256.072C117.959 256.48 118.505 257.05 118.901 257.782C119.297 258.502 119.495 259.33 119.495 260.266L119.477 260.662ZM114.905 256.558C113.993 256.558 113.225 256.852 112.601 257.44C111.989 258.016 111.641 258.772 111.557 259.708H118.271C118.187 258.772 117.833 258.016 117.209 257.44C116.597 256.852 115.829 256.558 114.905 256.558ZM126.92 255.46C128.108 255.46 129.05 255.808 129.746 256.504C130.454 257.188 130.808 258.19 130.808 259.51V265H129.53V259.636C129.53 258.652 129.284 257.902 128.792 257.386C128.3 256.87 127.598 256.612 126.686 256.612C125.666 256.612 124.856 256.918 124.256 257.53C123.668 258.13 123.374 258.964 123.374 260.032V265H122.096V255.532H123.32V257.278C123.668 256.702 124.148 256.258 124.76 255.946C125.384 255.622 126.104 255.46 126.92 255.46ZM139.264 264.424C139.024 264.64 138.724 264.808 138.364 264.928C138.016 265.036 137.65 265.09 137.266 265.09C136.378 265.09 135.694 264.85 135.214 264.37C134.734 263.89 134.494 263.212 134.494 262.336V256.612H132.802V255.532H134.494V253.462H135.772V255.532H138.652V256.612H135.772V262.264C135.772 262.828 135.91 263.26 136.186 263.56C136.474 263.848 136.882 263.992 137.41 263.992C137.674 263.992 137.926 263.95 138.166 263.866C138.418 263.782 138.634 263.662 138.814 263.506L139.264 264.424ZM144.903 255.46C146.139 255.46 147.087 255.772 147.747 256.396C148.407 257.008 148.737 257.92 148.737 259.132V265H147.513V263.524C147.225 264.016 146.799 264.4 146.235 264.676C145.683 264.952 145.023 265.09 144.255 265.09C143.199 265.09 142.359 264.838 141.735 264.334C141.111 263.83 140.799 263.164 140.799 262.336C140.799 261.532 141.087 260.884 141.663 260.392C142.251 259.9 143.181 259.654 144.453 259.654H147.459V259.078C147.459 258.262 147.231 257.644 146.775 257.224C146.319 256.792 145.653 256.576 144.777 256.576C144.177 256.576 143.601 256.678 143.049 256.882C142.497 257.074 142.023 257.344 141.627 257.692L141.051 256.738C141.531 256.33 142.107 256.018 142.779 255.802C143.451 255.574 144.159 255.46 144.903 255.46ZM144.453 264.082C145.173 264.082 145.791 263.92 146.307 263.596C146.823 263.26 147.207 262.78 147.459 262.156V260.608H144.489C142.869 260.608 142.059 261.172 142.059 262.3C142.059 262.852 142.269 263.29 142.689 263.614C143.109 263.926 143.697 264.082 144.453 264.082ZM156.167 265.09C155.231 265.09 154.391 264.886 153.647 264.478C152.915 264.07 152.339 263.5 151.919 262.768C151.499 262.024 151.289 261.19 151.289 260.266C151.289 259.342 151.499 258.514 151.919 257.782C152.339 257.05 152.915 256.48 153.647 256.072C154.391 255.664 155.231 255.46 156.167 255.46C156.983 255.46 157.709 255.622 158.345 255.946C158.993 256.258 159.503 256.72 159.875 257.332L158.921 257.98C158.609 257.512 158.213 257.164 157.733 256.936C157.253 256.696 156.731 256.576 156.167 256.576C155.483 256.576 154.865 256.732 154.313 257.044C153.773 257.344 153.347 257.776 153.035 258.34C152.735 258.904 152.585 259.546 152.585 260.266C152.585 260.998 152.735 261.646 153.035 262.21C153.347 262.762 153.773 263.194 154.313 263.506C154.865 263.806 155.483 263.956 156.167 263.956C156.731 263.956 157.253 263.842 157.733 263.614C158.213 263.386 158.609 263.038 158.921 262.57L159.875 263.218C159.503 263.83 158.993 264.298 158.345 264.622C157.697 264.934 156.971 265.09 156.167 265.09ZM155.411 268.96C154.823 268.96 154.319 268.822 153.899 268.546L154.205 267.862C154.553 268.09 154.949 268.204 155.393 268.204C155.753 268.204 156.029 268.132 156.221 267.988C156.413 267.844 156.509 267.634 156.509 267.358C156.509 267.106 156.413 266.902 156.221 266.746C156.041 266.602 155.765 266.53 155.393 266.53H154.979L155.411 264.892H156.185L155.915 265.936C156.407 265.984 156.785 266.134 157.049 266.386C157.313 266.65 157.445 266.986 157.445 267.394C157.445 267.874 157.259 268.252 156.887 268.528C156.515 268.816 156.023 268.96 155.411 268.96ZM165.698 255.46C166.934 255.46 167.882 255.772 168.542 256.396C169.202 257.008 169.532 257.92 169.532 259.132V265H168.308V263.524C168.02 264.016 167.594 264.4 167.03 264.676C166.478 264.952 165.818 265.09 165.05 265.09C163.994 265.09 163.154 264.838 162.53 264.334C161.906 263.83 161.594 263.164 161.594 262.336C161.594 261.532 161.882 260.884 162.458 260.392C163.046 259.9 163.976 259.654 165.248 259.654H168.254V259.078C168.254 258.262 168.026 257.644 167.57 257.224C167.114 256.792 166.448 256.576 165.572 256.576C164.972 256.576 164.396 256.678 163.844 256.882C163.292 257.074 162.818 257.344 162.422 257.692L161.846 256.738C162.326 256.33 162.902 256.018 163.574 255.802C164.246 255.574 164.954 255.46 165.698 255.46ZM165.248 264.082C165.968 264.082 166.586 263.92 167.102 263.596C167.618 263.26 168.002 262.78 168.254 262.156V260.608H165.284C163.664 260.608 162.854 261.172 162.854 262.3C162.854 262.852 163.064 263.29 163.484 263.614C163.904 263.926 164.492 264.082 165.248 264.082ZM166.958 253.948C166.682 253.948 166.436 253.888 166.22 253.768C166.004 253.636 165.77 253.456 165.518 253.228C165.302 253.048 165.128 252.922 164.996 252.85C164.876 252.766 164.744 252.724 164.6 252.724C164.324 252.724 164.102 252.826 163.934 253.03C163.766 253.234 163.676 253.516 163.664 253.876H162.89C162.914 253.276 163.07 252.796 163.358 252.436C163.646 252.076 164.03 251.896 164.51 251.896C164.786 251.896 165.026 251.956 165.23 252.076C165.446 252.196 165.692 252.376 165.968 252.616C166.16 252.784 166.322 252.91 166.454 252.994C166.586 253.078 166.724 253.12 166.868 253.12C167.132 253.12 167.348 253.024 167.516 252.832C167.684 252.628 167.78 252.352 167.804 252.004H168.578C168.554 252.592 168.398 253.066 168.11 253.426C167.822 253.774 167.438 253.948 166.958 253.948ZM176.908 265.09C175.996 265.09 175.174 264.886 174.442 264.478C173.71 264.058 173.134 263.482 172.714 262.75C172.294 262.018 172.084 261.19 172.084 260.266C172.084 259.342 172.294 258.514 172.714 257.782C173.134 257.05 173.71 256.48 174.442 256.072C175.174 255.664 175.996 255.46 176.908 255.46C177.82 255.46 178.642 255.664 179.374 256.072C180.106 256.48 180.676 257.05 181.084 257.782C181.504 258.514 181.714 259.342 181.714 260.266C181.714 261.19 181.504 262.018 181.084 262.75C180.676 263.482 180.106 264.058 179.374 264.478C178.642 264.886 177.82 265.09 176.908 265.09ZM176.908 263.956C177.58 263.956 178.18 263.806 178.708 263.506C179.248 263.194 179.668 262.756 179.968 262.192C180.268 261.628 180.418 260.986 180.418 260.266C180.418 259.546 180.268 258.904 179.968 258.34C179.668 257.776 179.248 257.344 178.708 257.044C178.18 256.732 177.58 256.576 176.908 256.576C176.236 256.576 175.63 256.732 175.09 257.044C174.562 257.344 174.142 257.776 173.83 258.34C173.53 258.904 173.38 259.546 173.38 260.266C173.38 260.986 173.53 261.628 173.83 262.192C174.142 262.756 174.562 263.194 175.09 263.506C175.63 263.806 176.236 263.956 176.908 263.956ZM184.203 263.128C184.479 263.128 184.707 263.224 184.887 263.416C185.067 263.596 185.157 263.824 185.157 264.1C185.157 264.244 185.133 264.4 185.085 264.568C185.049 264.736 184.989 264.928 184.905 265.144L184.149 267.628H183.285L183.897 265.018C183.705 264.958 183.549 264.85 183.429 264.694C183.309 264.526 183.249 264.328 183.249 264.1C183.249 263.824 183.339 263.596 183.519 263.416C183.699 263.224 183.927 263.128 184.203 263.128ZM60.2243 287.09C59.3123 287.09 58.4903 286.886 57.7583 286.478C57.0263 286.058 56.4503 285.482 56.0303 284.75C55.6103 284.018 55.4003 283.19 55.4003 282.266C55.4003 281.342 55.6103 280.514 56.0303 279.782C56.4503 279.05 57.0263 278.48 57.7583 278.072C58.4903 277.664 59.3123 277.46 60.2243 277.46C61.1363 277.46 61.9583 277.664 62.6903 278.072C63.4223 278.48 63.9923 279.05 64.4003 279.782C64.8203 280.514 65.0303 281.342 65.0303 282.266C65.0303 283.19 64.8203 284.018 64.4003 284.75C63.9923 285.482 63.4223 286.058 62.6903 286.478C61.9583 286.886 61.1363 287.09 60.2243 287.09ZM60.2243 285.956C60.8963 285.956 61.4963 285.806 62.0243 285.506C62.5643 285.194 62.9843 284.756 63.2843 284.192C63.5843 283.628 63.7343 282.986 63.7343 282.266C63.7343 281.546 63.5843 280.904 63.2843 280.34C62.9843 279.776 62.5643 279.344 62.0243 279.044C61.4963 278.732 60.8963 278.576 60.2243 278.576C59.5523 278.576 58.9463 278.732 58.4063 279.044C57.8783 279.344 57.4583 279.776 57.1463 280.34C56.8463 280.904 56.6963 281.546 56.6963 282.266C56.6963 282.986 56.8463 283.628 57.1463 284.192C57.4583 284.756 57.8783 285.194 58.4063 285.506C58.9463 285.806 59.5523 285.956 60.2243 285.956ZM72.6254 286.424C72.3854 286.64 72.0854 286.808 71.7254 286.928C71.3774 287.036 71.0114 287.09 70.6274 287.09C69.7394 287.09 69.0554 286.85 68.5754 286.37C68.0954 285.89 67.8554 285.212 67.8554 284.336V278.612H66.1634V277.532H67.8554V275.462H69.1334V277.532H72.0134V278.612H69.1334V284.264C69.1334 284.828 69.2714 285.26 69.5474 285.56C69.8354 285.848 70.2434 285.992 70.7714 285.992C71.0354 285.992 71.2874 285.95 71.5274 285.866C71.7794 285.782 71.9954 285.662 72.1754 285.506L72.6254 286.424ZM74.9519 277.532H76.2299V287H74.9519V277.532ZM75.5999 275.462C75.3359 275.462 75.1139 275.372 74.9339 275.192C74.7539 275.012 74.6639 274.796 74.6639 274.544C74.6639 274.304 74.7539 274.094 74.9339 273.914C75.1139 273.734 75.3359 273.644 75.5999 273.644C75.8639 273.644 76.0859 273.734 76.2659 273.914C76.4459 274.082 76.5359 274.286 76.5359 274.526C76.5359 274.79 76.4459 275.012 76.2659 275.192C76.0859 275.372 75.8639 275.462 75.5999 275.462ZM91.5939 277.46C92.7819 277.46 93.7119 277.802 94.3839 278.486C95.0679 279.17 95.4099 280.178 95.4099 281.51V287H94.1319V281.636C94.1319 280.652 93.8919 279.902 93.4119 279.386C92.9439 278.87 92.2779 278.612 91.4139 278.612C90.4299 278.612 89.6559 278.918 89.0919 279.53C88.5279 280.13 88.2459 280.964 88.2459 282.032V287H86.9679V281.636C86.9679 280.652 86.7279 279.902 86.2479 279.386C85.7799 278.87 85.1079 278.612 84.2319 278.612C83.2599 278.612 82.4859 278.918 81.9099 279.53C81.3459 280.13 81.0639 280.964 81.0639 282.032V287H79.7859V277.532H81.0099V279.26C81.3459 278.684 81.8139 278.24 82.4139 277.928C83.0139 277.616 83.7039 277.46 84.4839 277.46C85.2759 277.46 85.9599 277.628 86.5359 277.964C87.1239 278.3 87.5619 278.798 87.8499 279.458C88.1979 278.834 88.6959 278.348 89.3439 278C90.0039 277.64 90.7539 277.46 91.5939 277.46ZM98.8758 277.532H100.154V287H98.8758V277.532ZM99.5238 275.462C99.2598 275.462 99.0378 275.372 98.8578 275.192C98.6778 275.012 98.5878 274.796 98.5878 274.544C98.5878 274.304 98.6778 274.094 98.8578 273.914C99.0378 273.734 99.2598 273.644 99.5238 273.644C99.7878 273.644 100.01 273.734 100.19 273.914C100.37 274.082 100.46 274.286 100.46 274.526C100.46 274.79 100.37 275.012 100.19 275.192C100.01 275.372 99.7878 275.462 99.5238 275.462ZM110.388 285.938V287H102.684V286.154L108.642 278.612H102.792V277.532H110.28V278.378L104.322 285.938H110.388ZM116.215 277.46C117.451 277.46 118.399 277.772 119.059 278.396C119.719 279.008 120.049 279.92 120.049 281.132V287H118.825V285.524C118.537 286.016 118.111 286.4 117.547 286.676C116.995 286.952 116.335 287.09 115.567 287.09C114.511 287.09 113.671 286.838 113.047 286.334C112.423 285.83 112.111 285.164 112.111 284.336C112.111 283.532 112.399 282.884 112.975 282.392C113.563 281.9 114.493 281.654 115.765 281.654H118.771V281.078C118.771 280.262 118.543 279.644 118.087 279.224C117.631 278.792 116.965 278.576 116.089 278.576C115.489 278.576 114.913 278.678 114.361 278.882C113.809 279.074 113.335 279.344 112.939 279.692L112.363 278.738C112.843 278.33 113.419 278.018 114.091 277.802C114.763 277.574 115.471 277.46 116.215 277.46ZM115.765 286.082C116.485 286.082 117.103 285.92 117.619 285.596C118.135 285.26 118.519 284.78 118.771 284.156V282.608H115.801C114.181 282.608 113.371 283.172 113.371 284.3C113.371 284.852 113.581 285.29 114.001 285.614C114.421 285.926 115.009 286.082 115.765 286.082ZM127.479 287.09C126.543 287.09 125.703 286.886 124.959 286.478C124.227 286.07 123.651 285.5 123.231 284.768C122.811 284.024 122.601 283.19 122.601 282.266C122.601 281.342 122.811 280.514 123.231 279.782C123.651 279.05 124.227 278.48 124.959 278.072C125.703 277.664 126.543 277.46 127.479 277.46C128.295 277.46 129.021 277.622 129.657 277.946C130.305 278.258 130.815 278.72 131.187 279.332L130.233 279.98C129.921 279.512 129.525 279.164 129.045 278.936C128.565 278.696 128.043 278.576 127.479 278.576C126.795 278.576 126.177 278.732 125.625 279.044C125.085 279.344 124.659 279.776 124.347 280.34C124.047 280.904 123.897 281.546 123.897 282.266C123.897 282.998 124.047 283.646 124.347 284.21C124.659 284.762 125.085 285.194 125.625 285.506C126.177 285.806 126.795 285.956 127.479 285.956C128.043 285.956 128.565 285.842 129.045 285.614C129.525 285.386 129.921 285.038 130.233 284.57L131.187 285.218C130.815 285.83 130.305 286.298 129.657 286.622C129.009 286.934 128.283 287.09 127.479 287.09ZM126.723 290.96C126.135 290.96 125.631 290.822 125.211 290.546L125.517 289.862C125.865 290.09 126.261 290.204 126.705 290.204C127.065 290.204 127.341 290.132 127.533 289.988C127.725 289.844 127.821 289.634 127.821 289.358C127.821 289.106 127.725 288.902 127.533 288.746C127.353 288.602 127.077 288.53 126.705 288.53H126.291L126.723 286.892H127.497L127.227 287.936C127.719 287.984 128.097 288.134 128.361 288.386C128.625 288.65 128.757 288.986 128.757 289.394C128.757 289.874 128.571 290.252 128.199 290.528C127.827 290.816 127.335 290.96 126.723 290.96ZM137.01 277.46C138.246 277.46 139.194 277.772 139.854 278.396C140.514 279.008 140.844 279.92 140.844 281.132V287H139.62V285.524C139.332 286.016 138.906 286.4 138.342 286.676C137.79 286.952 137.13 287.09 136.362 287.09C135.306 287.09 134.466 286.838 133.842 286.334C133.218 285.83 132.906 285.164 132.906 284.336C132.906 283.532 133.194 282.884 133.77 282.392C134.358 281.9 135.288 281.654 136.56 281.654H139.566V281.078C139.566 280.262 139.338 279.644 138.882 279.224C138.426 278.792 137.76 278.576 136.884 278.576C136.284 278.576 135.708 278.678 135.156 278.882C134.604 279.074 134.13 279.344 133.734 279.692L133.158 278.738C133.638 278.33 134.214 278.018 134.886 277.802C135.558 277.574 136.266 277.46 137.01 277.46ZM136.56 286.082C137.28 286.082 137.898 285.92 138.414 285.596C138.93 285.26 139.314 284.78 139.566 284.156V282.608H136.596C134.976 282.608 134.166 283.172 134.166 284.3C134.166 284.852 134.376 285.29 134.796 285.614C135.216 285.926 135.804 286.082 136.56 286.082ZM138.27 275.948C137.994 275.948 137.748 275.888 137.532 275.768C137.316 275.636 137.082 275.456 136.83 275.228C136.614 275.048 136.44 274.922 136.308 274.85C136.188 274.766 136.056 274.724 135.912 274.724C135.636 274.724 135.414 274.826 135.246 275.03C135.078 275.234 134.988 275.516 134.976 275.876H134.202C134.226 275.276 134.382 274.796 134.67 274.436C134.958 274.076 135.342 273.896 135.822 273.896C136.098 273.896 136.338 273.956 136.542 274.076C136.758 274.196 137.004 274.376 137.28 274.616C137.472 274.784 137.634 274.91 137.766 274.994C137.898 275.078 138.036 275.12 138.18 275.12C138.444 275.12 138.66 275.024 138.828 274.832C138.996 274.628 139.092 274.352 139.116 274.004H139.89C139.866 274.592 139.71 275.066 139.422 275.426C139.134 275.774 138.75 275.948 138.27 275.948ZM148.22 287.09C147.308 287.09 146.486 286.886 145.754 286.478C145.022 286.058 144.446 285.482 144.026 284.75C143.606 284.018 143.396 283.19 143.396 282.266C143.396 281.342 143.606 280.514 144.026 279.782C144.446 279.05 145.022 278.48 145.754 278.072C146.486 277.664 147.308 277.46 148.22 277.46C149.132 277.46 149.954 277.664 150.686 278.072C151.418 278.48 151.988 279.05 152.396 279.782C152.816 280.514 153.026 281.342 153.026 282.266C153.026 283.19 152.816 284.018 152.396 284.75C151.988 285.482 151.418 286.058 150.686 286.478C149.954 286.886 149.132 287.09 148.22 287.09ZM148.22 285.956C148.892 285.956 149.492 285.806 150.02 285.506C150.56 285.194 150.98 284.756 151.28 284.192C151.58 283.628 151.73 282.986 151.73 282.266C151.73 281.546 151.58 280.904 151.28 280.34C150.98 279.776 150.56 279.344 150.02 279.044C149.492 278.732 148.892 278.576 148.22 278.576C147.548 278.576 146.942 278.732 146.402 279.044C145.874 279.344 145.454 279.776 145.142 280.34C144.842 280.904 144.692 281.546 144.692 282.266C144.692 282.986 144.842 283.628 145.142 284.192C145.454 284.756 145.874 285.194 146.402 285.506C146.942 285.806 147.548 285.956 148.22 285.956ZM168.59 282.662H160.67C160.742 283.646 161.12 284.444 161.804 285.056C162.488 285.656 163.352 285.956 164.396 285.956C164.984 285.956 165.524 285.854 166.016 285.65C166.508 285.434 166.934 285.122 167.294 284.714L168.014 285.542C167.594 286.046 167.066 286.43 166.43 286.694C165.806 286.958 165.116 287.09 164.36 287.09C163.388 287.09 162.524 286.886 161.768 286.478C161.024 286.058 160.442 285.482 160.022 284.75C159.602 284.018 159.392 283.19 159.392 282.266C159.392 281.342 159.59 280.514 159.986 279.782C160.394 279.05 160.946 278.48 161.642 278.072C162.35 277.664 163.142 277.46 164.018 277.46C164.894 277.46 165.68 277.664 166.376 278.072C167.072 278.48 167.618 279.05 168.014 279.782C168.41 280.502 168.608 281.33 168.608 282.266L168.59 282.662ZM164.018 278.558C163.106 278.558 162.338 278.852 161.714 279.44C161.102 280.016 160.754 280.772 160.67 281.708H167.384C167.3 280.772 166.946 280.016 166.322 279.44C165.71 278.852 164.942 278.558 164.018 278.558ZM39.0487 299.46C39.9367 299.46 40.7407 299.664 41.4607 300.072C42.1807 300.468 42.7447 301.032 43.1527 301.764C43.5607 302.496 43.7647 303.33 43.7647 304.266C43.7647 305.214 43.5607 306.054 43.1527 306.786C42.7447 307.518 42.1807 308.088 41.4607 308.496C40.7527 308.892 39.9487 309.09 39.0487 309.09C38.2807 309.09 37.5847 308.934 36.9607 308.622C36.3487 308.298 35.8447 307.83 35.4487 307.218V312.492H34.1707V299.532H35.3947V301.404C35.7787 300.78 36.2827 300.3 36.9067 299.964C37.5427 299.628 38.2567 299.46 39.0487 299.46ZM38.9587 307.956C39.6187 307.956 40.2187 307.806 40.7587 307.506C41.2987 307.194 41.7187 306.756 42.0187 306.192C42.3307 305.628 42.4867 304.986 42.4867 304.266C42.4867 303.546 42.3307 302.91 42.0187 302.358C41.7187 301.794 41.2987 301.356 40.7587 301.044C40.2187 300.732 39.6187 300.576 38.9587 300.576C38.2867 300.576 37.6807 300.732 37.1407 301.044C36.6127 301.356 36.1927 301.794 35.8807 302.358C35.5807 302.91 35.4307 303.546 35.4307 304.266C35.4307 304.986 35.5807 305.628 35.8807 306.192C36.1927 306.756 36.6127 307.194 37.1407 307.506C37.6807 307.806 38.2867 307.956 38.9587 307.956ZM49.6292 299.46C50.8652 299.46 51.8132 299.772 52.4732 300.396C53.1332 301.008 53.4632 301.92 53.4632 303.132V309H52.2392V307.524C51.9512 308.016 51.5252 308.4 50.9612 308.676C50.4092 308.952 49.7492 309.09 48.9812 309.09C47.9252 309.09 47.0852 308.838 46.4612 308.334C45.8372 307.83 45.5252 307.164 45.5252 306.336C45.5252 305.532 45.8132 304.884 46.3892 304.392C46.9772 303.9 47.9072 303.654 49.1792 303.654H52.1852V303.078C52.1852 302.262 51.9572 301.644 51.5012 301.224C51.0452 300.792 50.3792 300.576 49.5032 300.576C48.9032 300.576 48.3272 300.678 47.7752 300.882C47.2232 301.074 46.7492 301.344 46.3532 301.692L45.7772 300.738C46.2572 300.33 46.8332 300.018 47.5052 299.802C48.1772 299.574 48.8852 299.46 49.6292 299.46ZM49.1792 308.082C49.8992 308.082 50.5172 307.92 51.0332 307.596C51.5492 307.26 51.9332 306.78 52.1852 306.156V304.608H49.2152C47.5952 304.608 46.7852 305.172 46.7852 306.3C46.7852 306.852 46.9952 307.29 47.4152 307.614C47.8352 307.926 48.4232 308.082 49.1792 308.082ZM65.6095 295.644V309H64.3855V307.128C64.0015 307.764 63.4915 308.25 62.8555 308.586C62.2315 308.922 61.5235 309.09 60.7315 309.09C59.8435 309.09 59.0395 308.886 58.3195 308.478C57.5995 308.07 57.0355 307.5 56.6275 306.768C56.2195 306.036 56.0155 305.202 56.0155 304.266C56.0155 303.33 56.2195 302.496 56.6275 301.764C57.0355 301.032 57.5995 300.468 58.3195 300.072C59.0395 299.664 59.8435 299.46 60.7315 299.46C61.4995 299.46 62.1895 299.622 62.8015 299.946C63.4255 300.258 63.9355 300.72 64.3315 301.332V295.644H65.6095ZM60.8395 307.956C61.4995 307.956 62.0935 307.806 62.6215 307.506C63.1615 307.194 63.5815 306.756 63.8815 306.192C64.1935 305.628 64.3495 304.986 64.3495 304.266C64.3495 303.546 64.1935 302.904 63.8815 302.34C63.5815 301.776 63.1615 301.344 62.6215 301.044C62.0935 300.732 61.4995 300.576 60.8395 300.576C60.1675 300.576 59.5615 300.732 59.0215 301.044C58.4935 301.344 58.0735 301.776 57.7615 302.34C57.4615 302.904 57.3115 303.546 57.3115 304.266C57.3115 304.986 57.4615 305.628 57.7615 306.192C58.0735 306.756 58.4935 307.194 59.0215 307.506C59.5615 307.806 60.1675 307.956 60.8395 307.956ZM70.3927 301.386C70.6927 300.75 71.1367 300.27 71.7247 299.946C72.3247 299.622 73.0627 299.46 73.9387 299.46V300.702L73.6327 300.684C72.6367 300.684 71.8567 300.99 71.2927 301.602C70.7287 302.214 70.4467 303.072 70.4467 304.176V309H69.1687V299.532H70.3927V301.386ZM80.0348 309.09C79.1228 309.09 78.3008 308.886 77.5688 308.478C76.8368 308.058 76.2608 307.482 75.8408 306.75C75.4208 306.018 75.2108 305.19 75.2108 304.266C75.2108 303.342 75.4208 302.514 75.8408 301.782C76.2608 301.05 76.8368 300.48 77.5688 300.072C78.3008 299.664 79.1228 299.46 80.0348 299.46C80.9468 299.46 81.7688 299.664 82.5008 300.072C83.2328 300.48 83.8028 301.05 84.2108 301.782C84.6308 302.514 84.8408 303.342 84.8408 304.266C84.8408 305.19 84.6308 306.018 84.2108 306.75C83.8028 307.482 83.2328 308.058 82.5008 308.478C81.7688 308.886 80.9468 309.09 80.0348 309.09ZM80.0348 307.956C80.7068 307.956 81.3068 307.806 81.8348 307.506C82.3748 307.194 82.7948 306.756 83.0948 306.192C83.3948 305.628 83.5448 304.986 83.5448 304.266C83.5448 303.546 83.3948 302.904 83.0948 302.34C82.7948 301.776 82.3748 301.344 81.8348 301.044C81.3068 300.732 80.7068 300.576 80.0348 300.576C79.3628 300.576 78.7568 300.732 78.2168 301.044C77.6888 301.344 77.2688 301.776 76.9568 302.34C76.6568 302.904 76.5068 303.546 76.5068 304.266C76.5068 304.986 76.6568 305.628 76.9568 306.192C77.2688 306.756 77.6888 307.194 78.2168 307.506C78.7568 307.806 79.3628 307.956 80.0348 307.956ZM92.274 299.46C93.462 299.46 94.404 299.808 95.1 300.504C95.808 301.188 96.162 302.19 96.162 303.51V309H94.884V303.636C94.884 302.652 94.638 301.902 94.146 301.386C93.654 300.87 92.952 300.612 92.04 300.612C91.02 300.612 90.21 300.918 89.61 301.53C89.022 302.13 88.728 302.964 88.728 304.032V309H87.45V299.532H88.674V301.278C89.022 300.702 89.502 300.258 90.114 299.946C90.738 299.622 91.458 299.46 92.274 299.46ZM99.6316 299.532H100.91V309H99.6316V299.532ZM100.28 297.462C100.016 297.462 99.7936 297.372 99.6136 297.192C99.4336 297.012 99.3436 296.796 99.3436 296.544C99.3436 296.304 99.4336 296.094 99.6136 295.914C99.7936 295.734 100.016 295.644 100.28 295.644C100.544 295.644 100.766 295.734 100.946 295.914C101.126 296.082 101.216 296.286 101.216 296.526C101.216 296.79 101.126 297.012 100.946 297.192C100.766 297.372 100.544 297.462 100.28 297.462ZM111.144 307.938V309H103.44V308.154L109.398 300.612H103.548V299.532H111.036V300.378L105.078 307.938H111.144ZM116.971 299.46C118.207 299.46 119.155 299.772 119.815 300.396C120.475 301.008 120.805 301.92 120.805 303.132V309H119.581V307.524C119.293 308.016 118.867 308.4 118.303 308.676C117.751 308.952 117.091 309.09 116.323 309.09C115.267 309.09 114.427 308.838 113.803 308.334C113.179 307.83 112.867 307.164 112.867 306.336C112.867 305.532 113.155 304.884 113.731 304.392C114.319 303.9 115.249 303.654 116.521 303.654H119.527V303.078C119.527 302.262 119.299 301.644 118.843 301.224C118.387 300.792 117.721 300.576 116.845 300.576C116.245 300.576 115.669 300.678 115.117 300.882C114.565 301.074 114.091 301.344 113.695 301.692L113.119 300.738C113.599 300.33 114.175 300.018 114.847 299.802C115.519 299.574 116.227 299.46 116.971 299.46ZM116.521 308.082C117.241 308.082 117.859 307.92 118.375 307.596C118.891 307.26 119.275 306.78 119.527 306.156V304.608H116.557C114.937 304.608 114.127 305.172 114.127 306.3C114.127 306.852 114.337 307.29 114.757 307.614C115.177 307.926 115.765 308.082 116.521 308.082ZM128.235 309.09C127.299 309.09 126.459 308.886 125.715 308.478C124.983 308.07 124.407 307.5 123.987 306.768C123.567 306.024 123.357 305.19 123.357 304.266C123.357 303.342 123.567 302.514 123.987 301.782C124.407 301.05 124.983 300.48 125.715 300.072C126.459 299.664 127.299 299.46 128.235 299.46C129.051 299.46 129.777 299.622 130.413 299.946C131.061 300.258 131.571 300.72 131.943 301.332L130.989 301.98C130.677 301.512 130.281 301.164 129.801 300.936C129.321 300.696 128.799 300.576 128.235 300.576C127.551 300.576 126.933 300.732 126.381 301.044C125.841 301.344 125.415 301.776 125.103 302.34C124.803 302.904 124.653 303.546 124.653 304.266C124.653 304.998 124.803 305.646 125.103 306.21C125.415 306.762 125.841 307.194 126.381 307.506C126.933 307.806 127.551 307.956 128.235 307.956C128.799 307.956 129.321 307.842 129.801 307.614C130.281 307.386 130.677 307.038 130.989 306.57L131.943 307.218C131.571 307.83 131.061 308.298 130.413 308.622C129.765 308.934 129.039 309.09 128.235 309.09ZM127.479 312.96C126.891 312.96 126.387 312.822 125.967 312.546L126.273 311.862C126.621 312.09 127.017 312.204 127.461 312.204C127.821 312.204 128.097 312.132 128.289 311.988C128.481 311.844 128.577 311.634 128.577 311.358C128.577 311.106 128.481 310.902 128.289 310.746C128.109 310.602 127.833 310.53 127.461 310.53H127.047L127.479 308.892H128.253L127.983 309.936C128.475 309.984 128.853 310.134 129.117 310.386C129.381 310.65 129.513 310.986 129.513 311.394C129.513 311.874 129.327 312.252 128.955 312.528C128.583 312.816 128.091 312.96 127.479 312.96ZM137.766 299.46C139.002 299.46 139.95 299.772 140.61 300.396C141.27 301.008 141.6 301.92 141.6 303.132V309H140.376V307.524C140.088 308.016 139.662 308.4 139.098 308.676C138.546 308.952 137.886 309.09 137.118 309.09C136.062 309.09 135.222 308.838 134.598 308.334C133.974 307.83 133.662 307.164 133.662 306.336C133.662 305.532 133.95 304.884 134.526 304.392C135.114 303.9 136.044 303.654 137.316 303.654H140.322V303.078C140.322 302.262 140.094 301.644 139.638 301.224C139.182 300.792 138.516 300.576 137.64 300.576C137.04 300.576 136.464 300.678 135.912 300.882C135.36 301.074 134.886 301.344 134.49 301.692L133.914 300.738C134.394 300.33 134.97 300.018 135.642 299.802C136.314 299.574 137.022 299.46 137.766 299.46ZM137.316 308.082C138.036 308.082 138.654 307.92 139.17 307.596C139.686 307.26 140.07 306.78 140.322 306.156V304.608H137.352C135.732 304.608 134.922 305.172 134.922 306.3C134.922 306.852 135.132 307.29 135.552 307.614C135.972 307.926 136.56 308.082 137.316 308.082ZM139.026 297.948C138.75 297.948 138.504 297.888 138.288 297.768C138.072 297.636 137.838 297.456 137.586 297.228C137.37 297.048 137.196 296.922 137.064 296.85C136.944 296.766 136.812 296.724 136.668 296.724C136.392 296.724 136.17 296.826 136.002 297.03C135.834 297.234 135.744 297.516 135.732 297.876H134.958C134.982 297.276 135.138 296.796 135.426 296.436C135.714 296.076 136.098 295.896 136.578 295.896C136.854 295.896 137.094 295.956 137.298 296.076C137.514 296.196 137.76 296.376 138.036 296.616C138.228 296.784 138.39 296.91 138.522 296.994C138.654 297.078 138.792 297.12 138.936 297.12C139.2 297.12 139.416 297.024 139.584 296.832C139.752 296.628 139.848 296.352 139.872 296.004H140.646C140.622 296.592 140.466 297.066 140.178 297.426C139.89 297.774 139.506 297.948 139.026 297.948ZM148.976 309.09C148.064 309.09 147.242 308.886 146.51 308.478C145.778 308.058 145.202 307.482 144.782 306.75C144.362 306.018 144.152 305.19 144.152 304.266C144.152 303.342 144.362 302.514 144.782 301.782C145.202 301.05 145.778 300.48 146.51 300.072C147.242 299.664 148.064 299.46 148.976 299.46C149.888 299.46 150.71 299.664 151.442 300.072C152.174 300.48 152.744 301.05 153.152 301.782C153.572 302.514 153.782 303.342 153.782 304.266C153.782 305.19 153.572 306.018 153.152 306.75C152.744 307.482 152.174 308.058 151.442 308.478C150.71 308.886 149.888 309.09 148.976 309.09ZM148.976 307.956C149.648 307.956 150.248 307.806 150.776 307.506C151.316 307.194 151.736 306.756 152.036 306.192C152.336 305.628 152.486 304.986 152.486 304.266C152.486 303.546 152.336 302.904 152.036 302.34C151.736 301.776 151.316 301.344 150.776 301.044C150.248 300.732 149.648 300.576 148.976 300.576C148.304 300.576 147.698 300.732 147.158 301.044C146.63 301.344 146.21 301.776 145.898 302.34C145.598 302.904 145.448 303.546 145.448 304.266C145.448 304.986 145.598 305.628 145.898 306.192C146.21 306.756 146.63 307.194 147.158 307.506C147.698 307.806 148.304 307.956 148.976 307.956ZM169.742 295.644V309H168.518V307.128C168.134 307.764 167.624 308.25 166.988 308.586C166.364 308.922 165.656 309.09 164.864 309.09C163.976 309.09 163.172 308.886 162.452 308.478C161.732 308.07 161.168 307.5 160.76 306.768C160.352 306.036 160.148 305.202 160.148 304.266C160.148 303.33 160.352 302.496 160.76 301.764C161.168 301.032 161.732 300.468 162.452 300.072C163.172 299.664 163.976 299.46 164.864 299.46C165.632 299.46 166.322 299.622 166.934 299.946C167.558 300.258 168.068 300.72 168.464 301.332V295.644H169.742ZM164.972 307.956C165.632 307.956 166.226 307.806 166.754 307.506C167.294 307.194 167.714 306.756 168.014 306.192C168.326 305.628 168.482 304.986 168.482 304.266C168.482 303.546 168.326 302.904 168.014 302.34C167.714 301.776 167.294 301.344 166.754 301.044C166.226 300.732 165.632 300.576 164.972 300.576C164.3 300.576 163.694 300.732 163.154 301.044C162.626 301.344 162.206 301.776 161.894 302.34C161.594 302.904 161.444 303.546 161.444 304.266C161.444 304.986 161.594 305.628 161.894 306.192C162.206 306.756 162.626 307.194 163.154 307.506C163.694 307.806 164.3 307.956 164.972 307.956ZM177.172 309.09C176.26 309.09 175.438 308.886 174.706 308.478C173.974 308.058 173.398 307.482 172.978 306.75C172.558 306.018 172.348 305.19 172.348 304.266C172.348 303.342 172.558 302.514 172.978 301.782C173.398 301.05 173.974 300.48 174.706 300.072C175.438 299.664 176.26 299.46 177.172 299.46C178.084 299.46 178.906 299.664 179.638 300.072C180.37 300.48 180.94 301.05 181.348 301.782C181.768 302.514 181.978 303.342 181.978 304.266C181.978 305.19 181.768 306.018 181.348 306.75C180.94 307.482 180.37 308.058 179.638 308.478C178.906 308.886 178.084 309.09 177.172 309.09ZM177.172 307.956C177.844 307.956 178.444 307.806 178.972 307.506C179.512 307.194 179.932 306.756 180.232 306.192C180.532 305.628 180.682 304.986 180.682 304.266C180.682 303.546 180.532 302.904 180.232 302.34C179.932 301.776 179.512 301.344 178.972 301.044C178.444 300.732 177.844 300.576 177.172 300.576C176.5 300.576 175.894 300.732 175.354 301.044C174.826 301.344 174.406 301.776 174.094 302.34C173.794 302.904 173.644 303.546 173.644 304.266C173.644 304.986 173.794 305.628 174.094 306.192C174.406 306.756 174.826 307.194 175.354 307.506C175.894 307.806 176.5 307.956 177.172 307.956ZM187.125 309.09C186.357 309.09 185.619 308.982 184.911 308.766C184.215 308.538 183.669 308.256 183.273 307.92L183.849 306.912C184.245 307.224 184.743 307.482 185.343 307.686C185.943 307.878 186.567 307.974 187.215 307.974C188.079 307.974 188.715 307.842 189.123 307.578C189.543 307.302 189.753 306.918 189.753 306.426C189.753 306.078 189.639 305.808 189.411 305.616C189.183 305.412 188.895 305.262 188.547 305.166C188.199 305.058 187.737 304.956 187.161 304.86C186.393 304.716 185.775 304.572 185.307 304.428C184.839 304.272 184.437 304.014 184.101 303.654C183.777 303.294 183.615 302.796 183.615 302.16C183.615 301.368 183.945 300.72 184.605 300.216C185.265 299.712 186.183 299.46 187.359 299.46C187.971 299.46 188.583 299.544 189.195 299.712C189.807 299.868 190.311 300.078 190.707 300.342L190.149 301.368C189.369 300.828 188.439 300.558 187.359 300.558C186.543 300.558 185.925 300.702 185.505 300.99C185.097 301.278 184.893 301.656 184.893 302.124C184.893 302.484 185.007 302.772 185.235 302.988C185.475 303.204 185.769 303.366 186.117 303.474C186.465 303.57 186.945 303.672 187.557 303.78C188.313 303.924 188.919 304.068 189.375 304.212C189.831 304.356 190.221 304.602 190.545 304.95C190.869 305.298 191.031 305.778 191.031 306.39C191.031 307.218 190.683 307.878 189.987 308.37C189.303 308.85 188.349 309.09 187.125 309.09ZM74.1434 321.46C75.0314 321.46 75.8354 321.664 76.5554 322.072C77.2754 322.468 77.8394 323.032 78.2474 323.764C78.6554 324.496 78.8594 325.33 78.8594 326.266C78.8594 327.214 78.6554 328.054 78.2474 328.786C77.8394 329.518 77.2754 330.088 76.5554 330.496C75.8474 330.892 75.0434 331.09 74.1434 331.09C73.3754 331.09 72.6794 330.934 72.0554 330.622C71.4434 330.298 70.9394 329.83 70.5434 329.218V334.492H69.2654V321.532H70.4894V323.404C70.8734 322.78 71.3774 322.3 72.0014 321.964C72.6374 321.628 73.3514 321.46 74.1434 321.46ZM74.0534 329.956C74.7134 329.956 75.3134 329.806 75.8534 329.506C76.3934 329.194 76.8134 328.756 77.1134 328.192C77.4254 327.628 77.5814 326.986 77.5814 326.266C77.5814 325.546 77.4254 324.91 77.1134 324.358C76.8134 323.794 76.3934 323.356 75.8534 323.044C75.3134 322.732 74.7134 322.576 74.0534 322.576C73.3814 322.576 72.7754 322.732 72.2354 323.044C71.7074 323.356 71.2874 323.794 70.9754 324.358C70.6754 324.91 70.5254 325.546 70.5254 326.266C70.5254 326.986 70.6754 327.628 70.9754 328.192C71.2874 328.756 71.7074 329.194 72.2354 329.506C72.7754 329.806 73.3814 329.956 74.0534 329.956ZM82.6886 323.386C82.9886 322.75 83.4326 322.27 84.0206 321.946C84.6206 321.622 85.3586 321.46 86.2346 321.46V322.702L85.9286 322.684C84.9326 322.684 84.1526 322.99 83.5886 323.602C83.0246 324.214 82.7426 325.072 82.7426 326.176V331H81.4646V321.532H82.6886V323.386ZM92.3307 331.09C91.4187 331.09 90.5967 330.886 89.8647 330.478C89.1327 330.058 88.5567 329.482 88.1367 328.75C87.7167 328.018 87.5067 327.19 87.5067 326.266C87.5067 325.342 87.7167 324.514 88.1367 323.782C88.5567 323.05 89.1327 322.48 89.8647 322.072C90.5967 321.664 91.4187 321.46 92.3307 321.46C93.2427 321.46 94.0647 321.664 94.7967 322.072C95.5287 322.48 96.0987 323.05 96.5067 323.782C96.9267 324.514 97.1367 325.342 97.1367 326.266C97.1367 327.19 96.9267 328.018 96.5067 328.75C96.0987 329.482 95.5287 330.058 94.7967 330.478C94.0647 330.886 93.2427 331.09 92.3307 331.09ZM92.3307 329.956C93.0027 329.956 93.6027 329.806 94.1307 329.506C94.6707 329.194 95.0907 328.756 95.3907 328.192C95.6907 327.628 95.8407 326.986 95.8407 326.266C95.8407 325.546 95.6907 324.904 95.3907 324.34C95.0907 323.776 94.6707 323.344 94.1307 323.044C93.6027 322.732 93.0027 322.576 92.3307 322.576C91.6587 322.576 91.0527 322.732 90.5127 323.044C89.9847 323.344 89.5647 323.776 89.2527 324.34C88.9527 324.904 88.8027 325.546 88.8027 326.266C88.8027 326.986 88.9527 327.628 89.2527 328.192C89.5647 328.756 89.9847 329.194 90.5127 329.506C91.0527 329.806 91.6587 329.956 92.3307 329.956ZM103.67 331.09C102.734 331.09 101.894 330.886 101.15 330.478C100.418 330.07 99.8419 329.5 99.4219 328.768C99.0019 328.024 98.7919 327.19 98.7919 326.266C98.7919 325.342 99.0019 324.514 99.4219 323.782C99.8419 323.05 100.418 322.48 101.15 322.072C101.894 321.664 102.734 321.46 103.67 321.46C104.486 321.46 105.212 321.622 105.848 321.946C106.496 322.258 107.006 322.72 107.378 323.332L106.424 323.98C106.112 323.512 105.716 323.164 105.236 322.936C104.756 322.696 104.234 322.576 103.67 322.576C102.986 322.576 102.368 322.732 101.816 323.044C101.276 323.344 100.85 323.776 100.538 324.34C100.238 324.904 100.088 325.546 100.088 326.266C100.088 326.998 100.238 327.646 100.538 328.21C100.85 328.762 101.276 329.194 101.816 329.506C102.368 329.806 102.986 329.956 103.67 329.956C104.234 329.956 104.756 329.842 105.236 329.614C105.716 329.386 106.112 329.038 106.424 328.57L107.378 329.218C107.006 329.83 106.496 330.298 105.848 330.622C105.2 330.934 104.474 331.09 103.67 331.09ZM117.974 326.662H110.054C110.126 327.646 110.504 328.444 111.188 329.056C111.872 329.656 112.736 329.956 113.78 329.956C114.368 329.956 114.908 329.854 115.4 329.65C115.892 329.434 116.318 329.122 116.678 328.714L117.398 329.542C116.978 330.046 116.45 330.43 115.814 330.694C115.19 330.958 114.5 331.09 113.744 331.09C112.772 331.09 111.908 330.886 111.152 330.478C110.408 330.058 109.826 329.482 109.406 328.75C108.986 328.018 108.776 327.19 108.776 326.266C108.776 325.342 108.974 324.514 109.37 323.782C109.778 323.05 110.33 322.48 111.026 322.072C111.734 321.664 112.526 321.46 113.402 321.46C114.278 321.46 115.064 321.664 115.76 322.072C116.456 322.48 117.002 323.05 117.398 323.782C117.794 324.502 117.992 325.33 117.992 326.266L117.974 326.662ZM113.402 322.558C112.49 322.558 111.722 322.852 111.098 323.44C110.486 324.016 110.138 324.772 110.054 325.708H116.768C116.684 324.772 116.33 324.016 115.706 323.44C115.094 322.852 114.326 322.558 113.402 322.558ZM123.132 331.09C122.364 331.09 121.626 330.982 120.918 330.766C120.222 330.538 119.676 330.256 119.28 329.92L119.856 328.912C120.252 329.224 120.75 329.482 121.35 329.686C121.95 329.878 122.574 329.974 123.222 329.974C124.086 329.974 124.722 329.842 125.13 329.578C125.55 329.302 125.76 328.918 125.76 328.426C125.76 328.078 125.646 327.808 125.418 327.616C125.19 327.412 124.902 327.262 124.554 327.166C124.206 327.058 123.744 326.956 123.168 326.86C122.4 326.716 121.782 326.572 121.314 326.428C120.846 326.272 120.444 326.014 120.108 325.654C119.784 325.294 119.622 324.796 119.622 324.16C119.622 323.368 119.952 322.72 120.612 322.216C121.272 321.712 122.19 321.46 123.366 321.46C123.978 321.46 124.59 321.544 125.202 321.712C125.814 321.868 126.318 322.078 126.714 322.342L126.156 323.368C125.376 322.828 124.446 322.558 123.366 322.558C122.55 322.558 121.932 322.702 121.512 322.99C121.104 323.278 120.9 323.656 120.9 324.124C120.9 324.484 121.014 324.772 121.242 324.988C121.482 325.204 121.776 325.366 122.124 325.474C122.472 325.57 122.952 325.672 123.564 325.78C124.32 325.924 124.926 326.068 125.382 326.212C125.838 326.356 126.228 326.602 126.552 326.95C126.876 327.298 127.038 327.778 127.038 328.39C127.038 329.218 126.69 329.878 125.994 330.37C125.31 330.85 124.356 331.09 123.132 331.09ZM131.938 331.09C131.17 331.09 130.432 330.982 129.724 330.766C129.028 330.538 128.482 330.256 128.086 329.92L128.662 328.912C129.058 329.224 129.556 329.482 130.156 329.686C130.756 329.878 131.38 329.974 132.028 329.974C132.892 329.974 133.528 329.842 133.936 329.578C134.356 329.302 134.566 328.918 134.566 328.426C134.566 328.078 134.452 327.808 134.224 327.616C133.996 327.412 133.708 327.262 133.36 327.166C133.012 327.058 132.55 326.956 131.974 326.86C131.206 326.716 130.588 326.572 130.12 326.428C129.652 326.272 129.25 326.014 128.914 325.654C128.59 325.294 128.428 324.796 128.428 324.16C128.428 323.368 128.758 322.72 129.418 322.216C130.078 321.712 130.996 321.46 132.172 321.46C132.784 321.46 133.396 321.544 134.008 321.712C134.62 321.868 135.124 322.078 135.52 322.342L134.962 323.368C134.182 322.828 133.252 322.558 132.172 322.558C131.356 322.558 130.738 322.702 130.318 322.99C129.91 323.278 129.706 323.656 129.706 324.124C129.706 324.484 129.82 324.772 130.048 324.988C130.288 325.204 130.582 325.366 130.93 325.474C131.278 325.57 131.758 325.672 132.37 325.78C133.126 325.924 133.732 326.068 134.188 326.212C134.644 326.356 135.034 326.602 135.358 326.95C135.682 327.298 135.844 327.778 135.844 328.39C135.844 329.218 135.496 329.878 134.8 330.37C134.116 330.85 133.162 331.09 131.938 331.09ZM142.077 331.09C141.165 331.09 140.343 330.886 139.611 330.478C138.879 330.058 138.303 329.482 137.883 328.75C137.463 328.018 137.253 327.19 137.253 326.266C137.253 325.342 137.463 324.514 137.883 323.782C138.303 323.05 138.879 322.48 139.611 322.072C140.343 321.664 141.165 321.46 142.077 321.46C142.989 321.46 143.811 321.664 144.543 322.072C145.275 322.48 145.845 323.05 146.253 323.782C146.673 324.514 146.883 325.342 146.883 326.266C146.883 327.19 146.673 328.018 146.253 328.75C145.845 329.482 145.275 330.058 144.543 330.478C143.811 330.886 142.989 331.09 142.077 331.09ZM142.077 329.956C142.749 329.956 143.349 329.806 143.877 329.506C144.417 329.194 144.837 328.756 145.137 328.192C145.437 327.628 145.587 326.986 145.587 326.266C145.587 325.546 145.437 324.904 145.137 324.34C144.837 323.776 144.417 323.344 143.877 323.044C143.349 322.732 142.749 322.576 142.077 322.576C141.405 322.576 140.799 322.732 140.259 323.044C139.731 323.344 139.311 323.776 138.999 324.34C138.699 324.904 138.549 325.546 138.549 326.266C138.549 326.986 138.699 327.628 138.999 328.192C139.311 328.756 139.731 329.194 140.259 329.506C140.799 329.806 141.405 329.956 142.077 329.956ZM152.03 331.09C151.262 331.09 150.524 330.982 149.816 330.766C149.12 330.538 148.574 330.256 148.178 329.92L148.754 328.912C149.15 329.224 149.648 329.482 150.248 329.686C150.848 329.878 151.472 329.974 152.12 329.974C152.984 329.974 153.62 329.842 154.028 329.578C154.448 329.302 154.658 328.918 154.658 328.426C154.658 328.078 154.544 327.808 154.316 327.616C154.088 327.412 153.8 327.262 153.452 327.166C153.104 327.058 152.642 326.956 152.066 326.86C151.298 326.716 150.68 326.572 150.212 326.428C149.744 326.272 149.342 326.014 149.006 325.654C148.682 325.294 148.52 324.796 148.52 324.16C148.52 323.368 148.85 322.72 149.51 322.216C150.17 321.712 151.088 321.46 152.264 321.46C152.876 321.46 153.488 321.544 154.1 321.712C154.712 321.868 155.216 322.078 155.612 322.342L155.054 323.368C154.274 322.828 153.344 322.558 152.264 322.558C151.448 322.558 150.83 322.702 150.41 322.99C150.002 323.278 149.798 323.656 149.798 324.124C149.798 324.484 149.912 324.772 150.14 324.988C150.38 325.204 150.674 325.366 151.022 325.474C151.37 325.57 151.85 325.672 152.462 325.78C153.218 325.924 153.824 326.068 154.28 326.212C154.736 326.356 155.126 326.602 155.45 326.95C155.774 327.298 155.936 327.778 155.936 328.39C155.936 329.218 155.588 329.878 154.892 330.37C154.208 330.85 153.254 331.09 152.03 331.09ZM67.4461 343.46C68.3341 343.46 69.1381 343.664 69.8581 344.072C70.5781 344.468 71.1421 345.032 71.5501 345.764C71.9581 346.496 72.1621 347.33 72.1621 348.266C72.1621 349.214 71.9581 350.054 71.5501 350.786C71.1421 351.518 70.5781 352.088 69.8581 352.496C69.1501 352.892 68.3461 353.09 67.4461 353.09C66.6781 353.09 65.9821 352.934 65.3581 352.622C64.7461 352.298 64.2421 351.83 63.8461 351.218V356.492H62.5681V343.532H63.7921V345.404C64.1761 344.78 64.6801 344.3 65.3041 343.964C65.9401 343.628 66.6541 343.46 67.4461 343.46ZM67.3561 351.956C68.0161 351.956 68.6161 351.806 69.1561 351.506C69.6961 351.194 70.1161 350.756 70.4161 350.192C70.7281 349.628 70.8841 348.986 70.8841 348.266C70.8841 347.546 70.7281 346.91 70.4161 346.358C70.1161 345.794 69.6961 345.356 69.1561 345.044C68.6161 344.732 68.0161 344.576 67.3561 344.576C66.6841 344.576 66.0781 344.732 65.5381 345.044C65.0101 345.356 64.5901 345.794 64.2781 346.358C63.9781 346.91 63.8281 347.546 63.8281 348.266C63.8281 348.986 63.9781 349.628 64.2781 350.192C64.5901 350.756 65.0101 351.194 65.5381 351.506C66.0781 351.806 66.6841 351.956 67.3561 351.956ZM74.7674 339.644H76.0454V353H74.7674V339.644ZM82.9133 343.46C84.1493 343.46 85.0973 343.772 85.7573 344.396C86.4173 345.008 86.7473 345.92 86.7473 347.132V353H85.5233V351.524C85.2353 352.016 84.8093 352.4 84.2453 352.676C83.6933 352.952 83.0333 353.09 82.2653 353.09C81.2093 353.09 80.3693 352.838 79.7453 352.334C79.1213 351.83 78.8093 351.164 78.8093 350.336C78.8093 349.532 79.0973 348.884 79.6733 348.392C80.2613 347.9 81.1913 347.654 82.4633 347.654H85.4693V347.078C85.4693 346.262 85.2413 345.644 84.7853 345.224C84.3293 344.792 83.6633 344.576 82.7873 344.576C82.1873 344.576 81.6113 344.678 81.0593 344.882C80.5073 345.074 80.0333 345.344 79.6373 345.692L79.0613 344.738C79.5413 344.33 80.1173 344.018 80.7893 343.802C81.4613 343.574 82.1693 343.46 82.9133 343.46ZM82.4633 352.082C83.1833 352.082 83.8013 351.92 84.3173 351.596C84.8333 351.26 85.2173 350.78 85.4693 350.156V348.608H82.4993C80.8793 348.608 80.0693 349.172 80.0693 350.3C80.0693 350.852 80.2793 351.29 80.6993 351.614C81.1193 351.926 81.7073 352.082 82.4633 352.082ZM95.0425 343.46C96.2305 343.46 97.1725 343.808 97.8685 344.504C98.5765 345.188 98.9305 346.19 98.9305 347.51V353H97.6525V347.636C97.6525 346.652 97.4065 345.902 96.9145 345.386C96.4225 344.87 95.7205 344.612 94.8085 344.612C93.7885 344.612 92.9785 344.918 92.3785 345.53C91.7905 346.13 91.4965 346.964 91.4965 348.032V353H90.2185V343.532H91.4425V345.278C91.7905 344.702 92.2705 344.258 92.8825 343.946C93.5065 343.622 94.2265 343.46 95.0425 343.46ZM110.679 348.662H102.759C102.831 349.646 103.209 350.444 103.893 351.056C104.577 351.656 105.441 351.956 106.485 351.956C107.073 351.956 107.613 351.854 108.105 351.65C108.597 351.434 109.023 351.122 109.383 350.714L110.103 351.542C109.683 352.046 109.155 352.43 108.519 352.694C107.895 352.958 107.205 353.09 106.449 353.09C105.477 353.09 104.613 352.886 103.857 352.478C103.113 352.058 102.531 351.482 102.111 350.75C101.691 350.018 101.481 349.19 101.481 348.266C101.481 347.342 101.679 346.514 102.075 345.782C102.483 345.05 103.035 344.48 103.731 344.072C104.439 343.664 105.231 343.46 106.107 343.46C106.983 343.46 107.769 343.664 108.465 344.072C109.161 344.48 109.707 345.05 110.103 345.782C110.499 346.502 110.697 347.33 110.697 348.266L110.679 348.662ZM106.107 344.558C105.195 344.558 104.427 344.852 103.803 345.44C103.191 346.016 102.843 346.772 102.759 347.708H109.473C109.389 346.772 109.035 346.016 108.411 345.44C107.799 344.852 107.031 344.558 106.107 344.558ZM111.895 356.582C111.499 356.582 111.127 356.528 110.779 356.42C110.419 356.324 110.125 356.174 109.897 355.97L110.347 354.998C110.719 355.322 111.211 355.484 111.823 355.484C112.327 355.484 112.711 355.334 112.975 355.034C113.251 354.734 113.389 354.29 113.389 353.702V343.532H114.667V353.702C114.667 354.59 114.427 355.292 113.947 355.808C113.467 356.324 112.783 356.582 111.895 356.582ZM114.037 341.444C113.773 341.444 113.551 341.354 113.371 341.174C113.191 340.994 113.101 340.778 113.101 340.526C113.101 340.286 113.191 340.076 113.371 339.896C113.551 339.716 113.773 339.626 114.037 339.626C114.301 339.626 114.523 339.716 114.703 339.896C114.883 340.064 114.973 340.268 114.973 340.508C114.973 340.772 114.883 340.994 114.703 341.174C114.523 341.354 114.301 341.444 114.037 341.444ZM121.55 343.46C122.786 343.46 123.734 343.772 124.394 344.396C125.054 345.008 125.384 345.92 125.384 347.132V353H124.16V351.524C123.872 352.016 123.446 352.4 122.882 352.676C122.33 352.952 121.67 353.09 120.902 353.09C119.846 353.09 119.006 352.838 118.382 352.334C117.758 351.83 117.446 351.164 117.446 350.336C117.446 349.532 117.734 348.884 118.31 348.392C118.898 347.9 119.828 347.654 121.1 347.654H124.106V347.078C124.106 346.262 123.878 345.644 123.422 345.224C122.966 344.792 122.3 344.576 121.424 344.576C120.824 344.576 120.248 344.678 119.696 344.882C119.144 345.074 118.67 345.344 118.274 345.692L117.698 344.738C118.178 344.33 118.754 344.018 119.426 343.802C120.098 343.574 120.806 343.46 121.55 343.46ZM121.1 352.082C121.82 352.082 122.438 351.92 122.954 351.596C123.47 351.26 123.854 350.78 124.106 350.156V348.608H121.136C119.516 348.608 118.706 349.172 118.706 350.3C118.706 350.852 118.916 351.29 119.336 351.614C119.756 351.926 120.344 352.082 121.1 352.082ZM137.53 339.644V353H136.306V351.128C135.922 351.764 135.412 352.25 134.776 352.586C134.152 352.922 133.444 353.09 132.652 353.09C131.764 353.09 130.96 352.886 130.24 352.478C129.52 352.07 128.956 351.5 128.548 350.768C128.14 350.036 127.936 349.202 127.936 348.266C127.936 347.33 128.14 346.496 128.548 345.764C128.956 345.032 129.52 344.468 130.24 344.072C130.96 343.664 131.764 343.46 132.652 343.46C133.42 343.46 134.11 343.622 134.722 343.946C135.346 344.258 135.856 344.72 136.252 345.332V339.644H137.53ZM132.76 351.956C133.42 351.956 134.014 351.806 134.542 351.506C135.082 351.194 135.502 350.756 135.802 350.192C136.114 349.628 136.27 348.986 136.27 348.266C136.27 347.546 136.114 346.904 135.802 346.34C135.502 345.776 135.082 345.344 134.542 345.044C134.014 344.732 133.42 344.576 132.76 344.576C132.088 344.576 131.482 344.732 130.942 345.044C130.414 345.344 129.994 345.776 129.682 346.34C129.382 346.904 129.232 347.546 129.232 348.266C129.232 348.986 129.382 349.628 129.682 350.192C129.994 350.756 130.414 351.194 130.942 351.506C131.482 351.806 132.088 351.956 132.76 351.956ZM144.96 353.09C144.048 353.09 143.226 352.886 142.494 352.478C141.762 352.058 141.186 351.482 140.766 350.75C140.346 350.018 140.136 349.19 140.136 348.266C140.136 347.342 140.346 346.514 140.766 345.782C141.186 345.05 141.762 344.48 142.494 344.072C143.226 343.664 144.048 343.46 144.96 343.46C145.872 343.46 146.694 343.664 147.426 344.072C148.158 344.48 148.728 345.05 149.136 345.782C149.556 346.514 149.766 347.342 149.766 348.266C149.766 349.19 149.556 350.018 149.136 350.75C148.728 351.482 148.158 352.058 147.426 352.478C146.694 352.886 145.872 353.09 144.96 353.09ZM144.96 351.956C145.632 351.956 146.232 351.806 146.76 351.506C147.3 351.194 147.72 350.756 148.02 350.192C148.32 349.628 148.47 348.986 148.47 348.266C148.47 347.546 148.32 346.904 148.02 346.34C147.72 345.776 147.3 345.344 146.76 345.044C146.232 344.732 145.632 344.576 144.96 344.576C144.288 344.576 143.682 344.732 143.142 345.044C142.614 345.344 142.194 345.776 141.882 346.34C141.582 346.904 141.432 347.546 141.432 348.266C141.432 348.986 141.582 349.628 141.882 350.192C142.194 350.756 142.614 351.194 143.142 351.506C143.682 351.806 144.288 351.956 144.96 351.956ZM154.913 353.09C154.145 353.09 153.407 352.982 152.699 352.766C152.003 352.538 151.457 352.256 151.061 351.92L151.637 350.912C152.033 351.224 152.531 351.482 153.131 351.686C153.731 351.878 154.355 351.974 155.003 351.974C155.867 351.974 156.503 351.842 156.911 351.578C157.331 351.302 157.541 350.918 157.541 350.426C157.541 350.078 157.427 349.808 157.199 349.616C156.971 349.412 156.683 349.262 156.335 349.166C155.987 349.058 155.525 348.956 154.949 348.86C154.181 348.716 153.563 348.572 153.095 348.428C152.627 348.272 152.225 348.014 151.889 347.654C151.565 347.294 151.403 346.796 151.403 346.16C151.403 345.368 151.733 344.72 152.393 344.216C153.053 343.712 153.971 343.46 155.147 343.46C155.759 343.46 156.371 343.544 156.983 343.712C157.595 343.868 158.099 344.078 158.495 344.342L157.937 345.368C157.157 344.828 156.227 344.558 155.147 344.558C154.331 344.558 153.713 344.702 153.293 344.99C152.885 345.278 152.681 345.656 152.681 346.124C152.681 346.484 152.795 346.772 153.023 346.988C153.263 347.204 153.557 347.366 153.905 347.474C154.253 347.57 154.733 347.672 155.345 347.78C156.101 347.924 156.707 348.068 157.163 348.212C157.619 348.356 158.009 348.602 158.333 348.95C158.657 349.298 158.819 349.778 158.819 350.39C158.819 351.218 158.471 351.878 157.775 352.37C157.091 352.85 156.137 353.09 154.913 353.09ZM161.307 353.09C161.043 353.09 160.815 352.994 160.623 352.802C160.443 352.61 160.353 352.376 160.353 352.1C160.353 351.824 160.443 351.596 160.623 351.416C160.815 351.224 161.043 351.128 161.307 351.128C161.571 351.128 161.799 351.224 161.991 351.416C162.183 351.596 162.279 351.824 162.279 352.1C162.279 352.376 162.183 352.61 161.991 352.802C161.799 352.994 161.571 353.09 161.307 353.09Z" fill="#1C1F3D"/>
<path d="M49.3278 218.336C47.5518 218.336 45.9518 217.96 44.5278 217.208C43.1198 216.456 42.0078 215.416 41.1918 214.088C40.3918 212.76 39.9918 211.264 39.9918 209.6C39.9918 207.936 40.3918 206.44 41.1918 205.112C42.0078 203.784 43.1198 202.744 44.5278 201.992C45.9518 201.24 47.5518 200.864 49.3278 200.864C51.1038 200.864 52.6958 201.24 54.1038 201.992C55.5278 202.744 56.6398 203.784 57.4398 205.112C58.2558 206.44 58.6638 207.936 58.6638 209.6C58.6638 211.264 58.2558 212.76 57.4398 214.088C56.6398 215.416 55.5278 216.456 54.1038 217.208C52.6958 217.96 51.1038 218.336 49.3278 218.336ZM49.3278 214.4C50.1758 214.4 50.9438 214.2 51.6318 213.8C52.3198 213.4 52.8638 212.84 53.2638 212.12C53.6638 211.384 53.8638 210.544 53.8638 209.6C53.8638 208.656 53.6638 207.824 53.2638 207.104C52.8638 206.368 52.3198 205.8 51.6318 205.4C50.9438 205 50.1758 204.8 49.3278 204.8C48.4798 204.8 47.7118 205 47.0238 205.4C46.3358 205.8 45.7918 206.368 45.3918 207.104C44.9918 207.824 44.7918 208.656 44.7918 209.6C44.7918 210.544 44.9918 211.384 45.3918 212.12C45.7918 212.84 46.3358 213.4 47.0238 213.8C47.7118 214.2 48.4798 214.4 49.3278 214.4ZM68.8327 201.2C70.3527 201.2 71.6727 201.456 72.7927 201.968C73.9127 202.464 74.7767 203.184 75.3847 204.128C75.9927 205.056 76.2967 206.152 76.2967 207.416C76.2967 208.68 75.9927 209.776 75.3847 210.704C74.7767 211.632 73.9127 212.352 72.7927 212.864C71.6727 213.36 70.3527 213.608 68.8327 213.608H65.9047V218H61.1527V201.2H68.8327ZM68.5447 209.864C69.5207 209.864 70.2567 209.656 70.7527 209.24C71.2487 208.808 71.4967 208.2 71.4967 207.416C71.4967 206.632 71.2487 206.024 70.7527 205.592C70.2567 205.16 69.5207 204.944 68.5447 204.944H65.9047V209.864H68.5447ZM92.1016 214.328V218H78.6136V201.2H91.7896V204.872H83.3176V207.704H90.7816V211.256H83.3176V214.328H92.1016ZM102.083 213.536H99.4906V218H94.7386V201.2H102.419C103.939 201.2 105.259 201.456 106.379 201.968C107.499 202.464 108.363 203.184 108.971 204.128C109.579 205.056 109.883 206.152 109.883 207.416C109.883 208.632 109.595 209.696 109.019 210.608C108.459 211.504 107.651 212.208 106.595 212.72L110.219 218H105.131L102.083 213.536ZM105.083 207.416C105.083 206.632 104.835 206.024 104.339 205.592C103.843 205.16 103.107 204.944 102.131 204.944H99.4906V209.864H102.131C103.107 209.864 103.843 209.656 104.339 209.24C104.835 208.808 105.083 208.2 105.083 207.416ZM123.76 214.736H116.656L115.336 218H110.488L117.904 201.2H122.584L130.024 218H125.08L123.76 214.736ZM122.368 211.232L120.208 205.856L118.048 211.232H122.368ZM139.513 218.336C137.753 218.336 136.169 217.968 134.761 217.232C133.369 216.48 132.273 215.44 131.473 214.112C130.673 212.784 130.273 211.28 130.273 209.6C130.273 207.92 130.673 206.416 131.473 205.088C132.273 203.76 133.369 202.728 134.761 201.992C136.169 201.24 137.753 200.864 139.513 200.864C141.049 200.864 142.433 201.136 143.665 201.68C144.897 202.224 145.921 203.008 146.737 204.032L143.713 206.768C142.625 205.456 141.305 204.8 139.753 204.8C138.841 204.8 138.025 205 137.305 205.4C136.601 205.8 136.049 206.368 135.649 207.104C135.265 207.824 135.073 208.656 135.073 209.6C135.073 210.544 135.265 211.384 135.649 212.12C136.049 212.84 136.601 213.4 137.305 213.8C138.025 214.2 138.841 214.4 139.753 214.4C141.305 214.4 142.625 213.744 143.713 212.432L146.737 215.168C145.921 216.192 144.897 216.976 143.665 217.52C142.433 218.064 141.049 218.336 139.513 218.336ZM138.049 223.664C137.649 223.664 137.233 223.616 136.801 223.52C136.385 223.424 136.041 223.304 135.769 223.16L136.393 221.36C136.873 221.584 137.369 221.696 137.881 221.696C138.681 221.696 139.081 221.472 139.081 221.024C139.081 220.624 138.721 220.424 138.001 220.424H137.113L137.737 217.784H140.113L139.777 219.224C140.481 219.304 141.001 219.52 141.337 219.872C141.673 220.24 141.841 220.672 141.841 221.168C141.841 221.936 141.497 222.544 140.809 222.992C140.121 223.44 139.201 223.664 138.049 223.664ZM159.831 214.736H152.727L151.407 218H146.559L153.975 201.2H158.655L166.095 218H161.151L159.831 214.736ZM158.439 211.232L156.279 205.856L154.119 211.232H158.439ZM158.199 200C157.767 200 157.375 199.92 157.023 199.76C156.687 199.584 156.311 199.352 155.895 199.064C155.591 198.856 155.359 198.712 155.199 198.632C155.055 198.552 154.903 198.512 154.743 198.512C154.423 198.512 154.167 198.624 153.975 198.848C153.783 199.072 153.671 199.384 153.639 199.784H151.407C151.439 198.616 151.727 197.688 152.271 197C152.815 196.312 153.543 195.968 154.455 195.968C154.887 195.968 155.271 196.048 155.607 196.208C155.943 196.368 156.327 196.592 156.759 196.88C157.063 197.088 157.287 197.232 157.431 197.312C157.591 197.392 157.751 197.432 157.911 197.432C158.231 197.432 158.487 197.328 158.679 197.12C158.871 196.896 158.983 196.6 159.015 196.232H161.247C161.215 197.368 160.927 198.28 160.383 198.968C159.839 199.656 159.111 200 158.199 200ZM175.679 218.336C173.903 218.336 172.303 217.96 170.879 217.208C169.471 216.456 168.359 215.416 167.543 214.088C166.743 212.76 166.343 211.264 166.343 209.6C166.343 207.936 166.743 206.44 167.543 205.112C168.359 203.784 169.471 202.744 170.879 201.992C172.303 201.24 173.903 200.864 175.679 200.864C177.455 200.864 179.047 201.24 180.455 201.992C181.879 202.744 182.991 203.784 183.791 205.112C184.607 206.44 185.015 207.936 185.015 209.6C185.015 211.264 184.607 212.76 183.791 214.088C182.991 215.416 181.879 216.456 180.455 217.208C179.047 217.96 177.455 218.336 175.679 218.336ZM175.679 214.4C176.527 214.4 177.295 214.2 177.983 213.8C178.671 213.4 179.215 212.84 179.615 212.12C180.015 211.384 180.215 210.544 180.215 209.6C180.215 208.656 180.015 207.824 179.615 207.104C179.215 206.368 178.671 205.8 177.983 205.4C177.295 205 176.527 204.8 175.679 204.8C174.831 204.8 174.063 205 173.375 205.4C172.687 205.8 172.143 206.368 171.743 207.104C171.343 207.824 171.143 208.656 171.143 209.6C171.143 210.544 171.343 211.384 171.743 212.12C172.143 212.84 172.687 213.4 173.375 213.8C174.063 214.2 174.831 214.4 175.679 214.4Z" fill="white"/>
<path d="M109.111 138.485H109.107C107.487 138.485 106.174 139.645 106.174 141.077V154.02C106.174 155.451 107.487 156.612 109.107 156.612H109.111C110.731 156.612 112.044 155.451 112.044 154.02V141.077C112.044 139.645 110.731 138.485 109.111 138.485Z" fill="#1D1D1B"/>
<path d="M134.194 125.643H134.189C132.569 125.643 131.256 126.803 131.256 128.235V154.016C131.256 155.447 132.569 156.608 134.189 156.608H134.194C135.814 156.608 137.127 155.447 137.127 154.016V128.235C137.127 126.803 135.814 125.643 134.194 125.643Z" fill="#1D1D1B"/>
<path d="M95.6419 182C94.7941 181.615 93.9554 181.226 93.5888 180.36C93.1671 179.343 93.4558 178.469 94.1525 177.618C99.0654 171.587 103.971 165.551 108.868 159.511C109.162 159.147 109.45 158.778 109.872 158.248H78.2954C76.3751 158.248 75.0873 157.252 75.0461 155.753C75.0282 155.41 75.089 155.067 75.225 154.745C75.3609 154.423 75.5692 154.129 75.8372 153.88C76.1052 153.631 76.4275 153.433 76.7846 153.297C77.1416 153.161 77.5262 153.09 77.915 153.089C78.8958 153.056 79.8765 153.089 80.9169 153.089V114.939C79.8994 114.939 78.8683 114.964 77.8417 114.939C77.2245 114.931 76.627 114.746 76.1387 114.413C75.6504 114.079 75.2976 113.614 75.1332 113.089C74.9417 112.565 74.9571 111.999 75.1769 111.484C75.3967 110.969 75.8079 110.535 76.3431 110.254C77.0034 109.964 77.7325 109.819 78.4696 109.829C86.8839 109.8 95.3028 109.829 103.717 109.829H104.941C104.941 109.476 104.987 109.197 104.987 108.917C104.987 107.176 104.987 105.435 104.987 103.697C104.967 103.337 105.033 102.977 105.18 102.641C105.328 102.305 105.554 102 105.843 101.746C106.133 101.492 106.479 101.295 106.861 101.167C107.242 101.039 107.65 100.984 108.057 101.004C113.043 101.004 118.027 101.004 123.007 101.004C123.412 100.985 123.817 101.042 124.196 101.171C124.575 101.299 124.92 101.497 125.207 101.75C125.494 102.004 125.718 102.307 125.864 102.642C126.01 102.977 126.075 103.335 126.054 103.693C126.082 105.694 126.054 107.694 126.054 109.812H152.769C154.748 109.812 156.009 110.825 156 112.384C156.013 113.037 155.735 113.669 155.226 114.143C154.716 114.617 154.016 114.894 153.277 114.915C152.246 114.952 151.206 114.915 150.12 114.915V153.052H152.608C154.712 153.052 156.013 154.056 156 155.66C155.986 157.264 154.693 158.22 152.64 158.224H121.178C121.522 158.665 121.765 158.985 122.017 159.297L136.531 177.144C138.364 179.392 138.057 180.655 135.404 181.976H134.139C133.089 181.636 132.411 180.939 131.774 180.153C126.58 173.725 121.363 167.307 116.123 160.901C115.94 160.674 115.743 160.459 115.509 160.188C115.257 160.483 115.051 160.686 114.904 160.897C109.676 167.352 104.45 173.802 99.2258 180.246C98.679 181.032 97.866 181.646 96.9022 182H95.6419ZM144.185 115.012H86.8976V153.016H93.7262V152.117C93.7262 150.719 93.685 149.322 93.7262 147.925C93.8042 146.009 95.7977 144.815 97.718 145.495C98.2758 145.689 98.7516 146.031 99.08 146.475C99.4083 146.918 99.573 147.44 99.5512 147.97C99.5512 149.65 99.5512 151.327 99.5512 153.032H118.91V152.133C118.91 149.444 118.91 146.755 118.91 144.066C118.899 143.722 118.969 143.379 119.116 143.06C119.262 142.741 119.482 142.453 119.761 142.213C120.04 141.973 120.372 141.786 120.737 141.665C121.101 141.544 121.49 141.492 121.879 141.51C123.561 141.534 124.721 142.624 124.735 144.272C124.767 146.88 124.735 149.492 124.735 152.1C124.735 152.408 124.767 152.712 124.78 153.016H144.162L144.185 115.012ZM110.894 109.748H120.156V106.22H110.894V109.748Z" fill="#1D1D1B"/>
<path d="M98.7537 118.706C100.303 118.706 101.852 118.706 103.401 118.706C105.11 118.706 106.352 119.751 106.394 121.164C106.419 121.507 106.363 121.852 106.231 122.175C106.098 122.498 105.89 122.794 105.621 123.043C105.353 123.292 105.028 123.489 104.669 123.621C104.31 123.754 103.923 123.819 103.534 123.813C100.326 123.857 97.1543 123.869 93.9691 123.813C93.5824 123.816 93.1989 123.75 92.8413 123.62C92.4838 123.49 92.1597 123.297 91.8881 123.054C91.6166 122.81 91.4032 122.521 91.2608 122.204C91.1183 121.886 91.0497 121.546 91.0589 121.204C91.0707 120.862 91.1594 120.525 91.3199 120.212C91.4805 119.9 91.7096 119.619 91.994 119.386C92.2784 119.153 92.6124 118.972 92.9767 118.854C93.3409 118.735 93.7281 118.682 94.1158 118.698C95.6648 118.698 97.2184 118.698 98.7675 118.698L98.7537 118.706Z" fill="#1D1D1B"/>
<path d="M96.7372 127.571C97.6538 127.571 98.5704 127.571 99.487 127.571C100.225 127.572 100.934 127.821 101.473 128.267C102.011 128.712 102.338 129.322 102.388 129.972C102.423 130.295 102.385 130.622 102.277 130.932C102.168 131.242 101.992 131.53 101.757 131.78C101.523 132.03 101.235 132.236 100.909 132.388C100.584 132.539 100.229 132.632 99.8628 132.661C97.7567 132.777 95.6445 132.777 93.5383 132.661C92.805 132.592 92.1326 132.269 91.6681 131.763C91.2035 131.257 90.9845 130.608 91.0589 129.96C91.1145 129.311 91.4458 128.704 91.9864 128.262C92.527 127.819 93.2369 127.574 93.9737 127.575C94.8949 127.559 95.8161 127.571 96.7372 127.571Z" fill="#1D1D1B"/>
</svg>
