<svg width="224" height="451" viewBox="0 0 224 451" fill="none" xmlns="http://www.w3.org/2000/svg">
<path d="M0 28L224 0V423L0 451V28Z" fill="#FCA628"/>
<mask id="mask0_446_103" style="mask-type:alpha" maskUnits="userSpaceOnUse" x="0" y="0" width="224" height="451">
<path d="M0 28L224 0V423L0 451V28Z" fill="#FCA628"/>
</mask>
<g mask="url(#mask0_446_103)">
<path d="M224 105.729H225.5V104.229V80.1771V78.6771H224H213.281V66.1143V64.6143H211.781H182.613H182.278L206.067 28.8304L207.616 26.5H204.818H173.022H172.235L171.788 27.1477L132.766 83.662L132.5 84.0467V84.5143V104.229V105.729H134H180.193V120V121.5H181.693H211.781H213.281V120V105.729H224ZM181.113 66.3672V78.6771H172.93L181.113 66.3672Z" stroke="#F44A22" stroke-opacity="0.5" stroke-width="3"/>
</g>
<path d="M67.3967 269.7H68.6747V274.506C68.0867 275.022 67.3907 275.418 66.5867 275.694C65.7827 275.97 64.9367 276.108 64.0487 276.108C62.7887 276.108 61.6547 275.832 60.6467 275.28C59.6387 274.728 58.8467 273.966 58.2707 272.994C57.6947 272.01 57.4067 270.912 57.4067 269.7C57.4067 268.488 57.6947 267.396 58.2707 266.424C58.8467 265.44 59.6387 264.672 60.6467 264.12C61.6547 263.568 62.7947 263.292 64.0667 263.292C65.0267 263.292 65.9087 263.448 66.7127 263.76C67.5167 264.06 68.1947 264.51 68.7467 265.11L67.9187 265.956C66.9227 264.972 65.6567 264.48 64.1207 264.48C63.1007 264.48 62.1767 264.708 61.3487 265.164C60.5327 265.608 59.8907 266.232 59.4227 267.036C58.9547 267.828 58.7207 268.716 58.7207 269.7C58.7207 270.684 58.9547 271.572 59.4227 272.364C59.8907 273.156 60.5327 273.78 61.3487 274.236C62.1647 274.692 63.0827 274.92 64.1027 274.92C65.3987 274.92 66.4967 274.596 67.3967 273.948V269.7ZM80.4186 271.662H72.4986C72.5706 272.646 72.9486 273.444 73.6326 274.056C74.3166 274.656 75.1806 274.956 76.2246 274.956C76.8126 274.956 77.3526 274.854 77.8446 274.65C78.3366 274.434 78.7626 274.122 79.1226 273.714L79.8426 274.542C79.4226 275.046 78.8946 275.43 78.2586 275.694C77.6346 275.958 76.9446 276.09 76.1886 276.09C75.2166 276.09 74.3526 275.886 73.5966 275.478C72.8526 275.058 72.2706 274.482 71.8506 273.75C71.4306 273.018 71.2206 272.19 71.2206 271.266C71.2206 270.342 71.4186 269.514 71.8146 268.782C72.2226 268.05 72.7746 267.48 73.4706 267.072C74.1786 266.664 74.9706 266.46 75.8466 266.46C76.7226 266.46 77.5086 266.664 78.2046 267.072C78.9006 267.48 79.4466 268.05 79.8426 268.782C80.2386 269.502 80.4366 270.33 80.4366 271.266L80.4186 271.662ZM75.8466 267.558C74.9346 267.558 74.1666 267.852 73.5426 268.44C72.9306 269.016 72.5826 269.772 72.4986 270.708H79.2126C79.1286 269.772 78.7746 269.016 78.1506 268.44C77.5386 267.852 76.7706 267.558 75.8466 267.558ZM85.5759 276.09C84.8079 276.09 84.0699 275.982 83.3619 275.766C82.6659 275.538 82.1199 275.256 81.7239 274.92L82.2999 273.912C82.6959 274.224 83.1939 274.482 83.7939 274.686C84.3939 274.878 85.0179 274.974 85.6659 274.974C86.5299 274.974 87.1659 274.842 87.5739 274.578C87.9939 274.302 88.2039 273.918 88.2039 273.426C88.2039 273.078 88.0899 272.808 87.8619 272.616C87.6339 272.412 87.3459 272.262 86.9979 272.166C86.6499 272.058 86.1879 271.956 85.6119 271.86C84.8439 271.716 84.2259 271.572 83.7579 271.428C83.2899 271.272 82.8879 271.014 82.5519 270.654C82.2279 270.294 82.0659 269.796 82.0659 269.16C82.0659 268.368 82.3959 267.72 83.0559 267.216C83.7159 266.712 84.6339 266.46 85.8099 266.46C86.4219 266.46 87.0339 266.544 87.6459 266.712C88.2579 266.868 88.7619 267.078 89.1579 267.342L88.5999 268.368C87.8199 267.828 86.8899 267.558 85.8099 267.558C84.9939 267.558 84.3759 267.702 83.9559 267.99C83.5479 268.278 83.3439 268.656 83.3439 269.124C83.3439 269.484 83.4579 269.772 83.6859 269.988C83.9259 270.204 84.2199 270.366 84.5679 270.474C84.9159 270.57 85.3959 270.672 86.0079 270.78C86.7639 270.924 87.3699 271.068 87.8259 271.212C88.2819 271.356 88.6719 271.602 88.9959 271.95C89.3199 272.298 89.4819 272.778 89.4819 273.39C89.4819 274.218 89.1339 274.878 88.4379 275.37C87.7539 275.85 86.7999 276.09 85.5759 276.09ZM96.8305 275.424C96.5905 275.64 96.2905 275.808 95.9305 275.928C95.5825 276.036 95.2165 276.09 94.8325 276.09C93.9445 276.09 93.2605 275.85 92.7805 275.37C92.3005 274.89 92.0605 274.212 92.0605 273.336V267.612H90.3685V266.532H92.0605V264.462H93.3385V266.532H96.2185V267.612H93.3385V273.264C93.3385 273.828 93.4765 274.26 93.7525 274.56C94.0405 274.848 94.4485 274.992 94.9765 274.992C95.2405 274.992 95.4925 274.95 95.7325 274.866C95.9845 274.782 96.2005 274.662 96.3805 274.506L96.8305 275.424ZM102.469 266.46C103.705 266.46 104.653 266.772 105.313 267.396C105.973 268.008 106.303 268.92 106.303 270.132V276H105.079V274.524C104.791 275.016 104.365 275.4 103.801 275.676C103.249 275.952 102.589 276.09 101.821 276.09C100.765 276.09 99.925 275.838 99.301 275.334C98.677 274.83 98.365 274.164 98.365 273.336C98.365 272.532 98.653 271.884 99.229 271.392C99.817 270.9 100.747 270.654 102.019 270.654H105.025V270.078C105.025 269.262 104.797 268.644 104.341 268.224C103.885 267.792 103.219 267.576 102.343 267.576C101.743 267.576 101.167 267.678 100.615 267.882C100.063 268.074 99.589 268.344 99.193 268.692L98.617 267.738C99.097 267.33 99.673 267.018 100.345 266.802C101.017 266.574 101.725 266.46 102.469 266.46ZM102.019 275.082C102.739 275.082 103.357 274.92 103.873 274.596C104.389 274.26 104.773 273.78 105.025 273.156V271.608H102.055C100.435 271.608 99.625 272.172 99.625 273.3C99.625 273.852 99.835 274.29 100.255 274.614C100.675 274.926 101.263 275.082 102.019 275.082ZM103.729 264.948C103.453 264.948 103.207 264.888 102.991 264.768C102.775 264.636 102.541 264.456 102.289 264.228C102.073 264.048 101.899 263.922 101.767 263.85C101.647 263.766 101.515 263.724 101.371 263.724C101.095 263.724 100.873 263.826 100.705 264.03C100.537 264.234 100.447 264.516 100.435 264.876H99.661C99.685 264.276 99.841 263.796 100.129 263.436C100.417 263.076 100.801 262.896 101.281 262.896C101.557 262.896 101.797 262.956 102.001 263.076C102.217 263.196 102.463 263.376 102.739 263.616C102.931 263.784 103.093 263.91 103.225 263.994C103.357 264.078 103.495 264.12 103.639 264.12C103.903 264.12 104.119 264.024 104.287 263.832C104.455 263.628 104.551 263.352 104.575 263.004H105.349C105.325 263.592 105.169 264.066 104.881 264.426C104.593 264.774 104.209 264.948 103.729 264.948ZM113.679 276.09C112.767 276.09 111.945 275.886 111.213 275.478C110.481 275.058 109.905 274.482 109.485 273.75C109.065 273.018 108.855 272.19 108.855 271.266C108.855 270.342 109.065 269.514 109.485 268.782C109.905 268.05 110.481 267.48 111.213 267.072C111.945 266.664 112.767 266.46 113.679 266.46C114.591 266.46 115.413 266.664 116.145 267.072C116.877 267.48 117.447 268.05 117.855 268.782C118.275 269.514 118.485 270.342 118.485 271.266C118.485 272.19 118.275 273.018 117.855 273.75C117.447 274.482 116.877 275.058 116.145 275.478C115.413 275.886 114.591 276.09 113.679 276.09ZM113.679 274.956C114.351 274.956 114.951 274.806 115.479 274.506C116.019 274.194 116.439 273.756 116.739 273.192C117.039 272.628 117.189 271.986 117.189 271.266C117.189 270.546 117.039 269.904 116.739 269.34C116.439 268.776 116.019 268.344 115.479 268.044C114.951 267.732 114.351 267.576 113.679 267.576C113.007 267.576 112.401 267.732 111.861 268.044C111.333 268.344 110.913 268.776 110.601 269.34C110.301 269.904 110.151 270.546 110.151 271.266C110.151 271.986 110.301 272.628 110.601 273.192C110.913 273.756 111.333 274.194 111.861 274.506C112.401 274.806 113.007 274.956 113.679 274.956ZM134.049 271.662H126.129C126.201 272.646 126.579 273.444 127.263 274.056C127.947 274.656 128.811 274.956 129.855 274.956C130.443 274.956 130.983 274.854 131.475 274.65C131.967 274.434 132.393 274.122 132.753 273.714L133.473 274.542C133.053 275.046 132.525 275.43 131.889 275.694C131.265 275.958 130.575 276.09 129.819 276.09C128.847 276.09 127.983 275.886 127.227 275.478C126.483 275.058 125.901 274.482 125.481 273.75C125.061 273.018 124.851 272.19 124.851 271.266C124.851 270.342 125.049 269.514 125.445 268.782C125.853 268.05 126.405 267.48 127.101 267.072C127.809 266.664 128.601 266.46 129.477 266.46C130.353 266.46 131.139 266.664 131.835 267.072C132.531 267.48 133.077 268.05 133.473 268.782C133.869 269.502 134.067 270.33 134.067 271.266L134.049 271.662ZM129.477 267.558C128.565 267.558 127.797 267.852 127.173 268.44C126.561 269.016 126.213 269.772 126.129 270.708H132.843C132.759 269.772 132.405 269.016 131.781 268.44C131.169 267.852 130.401 267.558 129.477 267.558ZM141.493 266.46C142.681 266.46 143.623 266.808 144.319 267.504C145.027 268.188 145.381 269.19 145.381 270.51V276H144.103V270.636C144.103 269.652 143.857 268.902 143.365 268.386C142.873 267.87 142.171 267.612 141.259 267.612C140.239 267.612 139.429 267.918 138.829 268.53C138.241 269.13 137.947 269.964 137.947 271.032V276H136.669V266.532H137.893V268.278C138.241 267.702 138.721 267.258 139.333 266.946C139.957 266.622 140.677 266.46 141.493 266.46ZM153.836 275.424C153.596 275.64 153.296 275.808 152.936 275.928C152.588 276.036 152.222 276.09 151.838 276.09C150.95 276.09 150.266 275.85 149.786 275.37C149.306 274.89 149.066 274.212 149.066 273.336V267.612H147.374V266.532H149.066V264.462H150.344V266.532H153.224V267.612H150.344V273.264C150.344 273.828 150.482 274.26 150.758 274.56C151.046 274.848 151.454 274.992 151.982 274.992C152.246 274.992 152.498 274.95 152.738 274.866C152.99 274.782 153.206 274.662 153.386 274.506L153.836 275.424ZM157.387 268.386C157.687 267.75 158.131 267.27 158.719 266.946C159.319 266.622 160.057 266.46 160.933 266.46V267.702L160.627 267.684C159.631 267.684 158.851 267.99 158.287 268.602C157.723 269.214 157.441 270.072 157.441 271.176V276H156.163V266.532H157.387V268.386ZM171.403 271.662H163.483C163.555 272.646 163.933 273.444 164.617 274.056C165.301 274.656 166.165 274.956 167.209 274.956C167.797 274.956 168.337 274.854 168.829 274.65C169.321 274.434 169.747 274.122 170.107 273.714L170.827 274.542C170.407 275.046 169.879 275.43 169.243 275.694C168.619 275.958 167.929 276.09 167.173 276.09C166.201 276.09 165.337 275.886 164.581 275.478C163.837 275.058 163.255 274.482 162.835 273.75C162.415 273.018 162.205 272.19 162.205 271.266C162.205 270.342 162.403 269.514 162.799 268.782C163.207 268.05 163.759 267.48 164.455 267.072C165.163 266.664 165.955 266.46 166.831 266.46C167.707 266.46 168.493 266.664 169.189 267.072C169.885 267.48 170.431 268.05 170.827 268.782C171.223 269.502 171.421 270.33 171.421 271.266L171.403 271.662ZM166.831 267.558C165.919 267.558 165.151 267.852 164.527 268.44C163.915 269.016 163.567 269.772 163.483 270.708H170.197C170.113 269.772 169.759 269.016 169.135 268.44C168.523 267.852 167.755 267.558 166.831 267.558ZM44.3927 284.644V298H43.1687V296.128C42.7847 296.764 42.2747 297.25 41.6387 297.586C41.0147 297.922 40.3067 298.09 39.5147 298.09C38.6267 298.09 37.8227 297.886 37.1027 297.478C36.3827 297.07 35.8187 296.5 35.4107 295.768C35.0027 295.036 34.7987 294.202 34.7987 293.266C34.7987 292.33 35.0027 291.496 35.4107 290.764C35.8187 290.032 36.3827 289.468 37.1027 289.072C37.8227 288.664 38.6267 288.46 39.5147 288.46C40.2827 288.46 40.9727 288.622 41.5847 288.946C42.2087 289.258 42.7187 289.72 43.1147 290.332V284.644H44.3927ZM39.6227 296.956C40.2827 296.956 40.8767 296.806 41.4047 296.506C41.9447 296.194 42.3647 295.756 42.6647 295.192C42.9767 294.628 43.1327 293.986 43.1327 293.266C43.1327 292.546 42.9767 291.904 42.6647 291.34C42.3647 290.776 41.9447 290.344 41.4047 290.044C40.8767 289.732 40.2827 289.576 39.6227 289.576C38.9507 289.576 38.3447 289.732 37.8047 290.044C37.2767 290.344 36.8567 290.776 36.5447 291.34C36.2447 291.904 36.0947 292.546 36.0947 293.266C36.0947 293.986 36.2447 294.628 36.5447 295.192C36.8567 295.756 37.2767 296.194 37.8047 296.506C38.3447 296.806 38.9507 296.956 39.6227 296.956ZM56.1959 293.662H48.2759C48.3479 294.646 48.7259 295.444 49.4099 296.056C50.0939 296.656 50.9579 296.956 52.0019 296.956C52.5899 296.956 53.1299 296.854 53.6219 296.65C54.1139 296.434 54.5399 296.122 54.8999 295.714L55.6199 296.542C55.1999 297.046 54.6719 297.43 54.0359 297.694C53.4119 297.958 52.7219 298.09 51.9659 298.09C50.9939 298.09 50.1299 297.886 49.3739 297.478C48.6299 297.058 48.0479 296.482 47.6279 295.75C47.2079 295.018 46.9979 294.19 46.9979 293.266C46.9979 292.342 47.1959 291.514 47.5919 290.782C47.9999 290.05 48.5519 289.48 49.2479 289.072C49.9559 288.664 50.7479 288.46 51.6239 288.46C52.4999 288.46 53.2859 288.664 53.9819 289.072C54.6779 289.48 55.2239 290.05 55.6199 290.782C56.0159 291.502 56.2139 292.33 56.2139 293.266L56.1959 293.662ZM51.6239 289.558C50.7119 289.558 49.9439 289.852 49.3199 290.44C48.7079 291.016 48.3599 291.772 48.2759 292.708H54.9899C54.9059 291.772 54.5519 291.016 53.9279 290.44C53.3159 289.852 52.5479 289.558 51.6239 289.558ZM63.6932 288.46C64.5812 288.46 65.3852 288.664 66.1052 289.072C66.8252 289.468 67.3892 290.032 67.7972 290.764C68.2052 291.496 68.4092 292.33 68.4092 293.266C68.4092 294.214 68.2052 295.054 67.7972 295.786C67.3892 296.518 66.8252 297.088 66.1052 297.496C65.3972 297.892 64.5932 298.09 63.6932 298.09C62.9252 298.09 62.2292 297.934 61.6052 297.622C60.9932 297.298 60.4892 296.83 60.0932 296.218V301.492H58.8152V288.532H60.0392V290.404C60.4232 289.78 60.9272 289.3 61.5512 288.964C62.1872 288.628 62.9012 288.46 63.6932 288.46ZM63.6032 296.956C64.2632 296.956 64.8632 296.806 65.4032 296.506C65.9432 296.194 66.3632 295.756 66.6632 295.192C66.9752 294.628 67.1312 293.986 67.1312 293.266C67.1312 292.546 66.9752 291.91 66.6632 291.358C66.3632 290.794 65.9432 290.356 65.4032 290.044C64.8632 289.732 64.2632 289.576 63.6032 289.576C62.9312 289.576 62.3252 289.732 61.7852 290.044C61.2572 290.356 60.8372 290.794 60.5252 291.358C60.2252 291.91 60.0752 292.546 60.0752 293.266C60.0752 293.986 60.2252 294.628 60.5252 295.192C60.8372 295.756 61.2572 296.194 61.7852 296.506C62.3252 296.806 62.9312 296.956 63.6032 296.956ZM74.2737 288.46C75.5097 288.46 76.4577 288.772 77.1177 289.396C77.7777 290.008 78.1077 290.92 78.1077 292.132V298H76.8837V296.524C76.5957 297.016 76.1697 297.4 75.6057 297.676C75.0537 297.952 74.3937 298.09 73.6257 298.09C72.5697 298.09 71.7297 297.838 71.1057 297.334C70.4817 296.83 70.1697 296.164 70.1697 295.336C70.1697 294.532 70.4577 293.884 71.0337 293.392C71.6217 292.9 72.5517 292.654 73.8237 292.654H76.8297V292.078C76.8297 291.262 76.6017 290.644 76.1457 290.224C75.6897 289.792 75.0237 289.576 74.1477 289.576C73.5477 289.576 72.9717 289.678 72.4197 289.882C71.8677 290.074 71.3937 290.344 70.9977 290.692L70.4217 289.738C70.9017 289.33 71.4777 289.018 72.1497 288.802C72.8217 288.574 73.5297 288.46 74.2737 288.46ZM73.8237 297.082C74.5437 297.082 75.1617 296.92 75.6777 296.596C76.1937 296.26 76.5777 295.78 76.8297 295.156V293.608H73.8597C72.2397 293.608 71.4297 294.172 71.4297 295.3C71.4297 295.852 71.6397 296.29 72.0597 296.614C72.4797 296.926 73.0677 297.082 73.8237 297.082ZM82.8029 290.386C83.1029 289.75 83.5469 289.27 84.1349 288.946C84.7349 288.622 85.4729 288.46 86.3489 288.46V289.702L86.0429 289.684C85.0469 289.684 84.2669 289.99 83.7029 290.602C83.1389 291.214 82.8569 292.072 82.8569 293.176V298H81.5789V288.532H82.8029V290.386ZM94.0532 297.424C93.8132 297.64 93.5132 297.808 93.1532 297.928C92.8052 298.036 92.4392 298.09 92.0552 298.09C91.1672 298.09 90.4832 297.85 90.0032 297.37C89.5232 296.89 89.2832 296.212 89.2832 295.336V289.612H87.5912V288.532H89.2832V286.462H90.5612V288.532H93.4412V289.612H90.5612V295.264C90.5612 295.828 90.6992 296.26 90.9752 296.56C91.2632 296.848 91.6712 296.992 92.1992 296.992C92.4632 296.992 92.7152 296.95 92.9552 296.866C93.2072 296.782 93.4232 296.662 93.6032 296.506L94.0532 297.424ZM99.6917 288.46C100.928 288.46 101.876 288.772 102.536 289.396C103.196 290.008 103.526 290.92 103.526 292.132V298H102.302V296.524C102.014 297.016 101.588 297.4 101.024 297.676C100.472 297.952 99.8117 298.09 99.0437 298.09C97.9877 298.09 97.1477 297.838 96.5237 297.334C95.8997 296.83 95.5877 296.164 95.5877 295.336C95.5877 294.532 95.8757 293.884 96.4517 293.392C97.0397 292.9 97.9697 292.654 99.2417 292.654H102.248V292.078C102.248 291.262 102.02 290.644 101.564 290.224C101.108 289.792 100.442 289.576 99.5657 289.576C98.9657 289.576 98.3897 289.678 97.8377 289.882C97.2857 290.074 96.8117 290.344 96.4157 290.692L95.8397 289.738C96.3197 289.33 96.8957 289.018 97.5677 288.802C98.2397 288.574 98.9477 288.46 99.6917 288.46ZM99.2417 297.082C99.9617 297.082 100.58 296.92 101.096 296.596C101.612 296.26 101.996 295.78 102.248 295.156V293.608H99.2777C97.6577 293.608 96.8477 294.172 96.8477 295.3C96.8477 295.852 97.0577 296.29 97.4777 296.614C97.8977 296.926 98.4857 297.082 99.2417 297.082ZM118.805 288.46C119.993 288.46 120.923 288.802 121.595 289.486C122.279 290.17 122.621 291.178 122.621 292.51V298H121.343V292.636C121.343 291.652 121.103 290.902 120.623 290.386C120.155 289.87 119.489 289.612 118.625 289.612C117.641 289.612 116.867 289.918 116.303 290.53C115.739 291.13 115.457 291.964 115.457 293.032V298H114.179V292.636C114.179 291.652 113.939 290.902 113.459 290.386C112.991 289.87 112.319 289.612 111.443 289.612C110.471 289.612 109.697 289.918 109.121 290.53C108.557 291.13 108.275 291.964 108.275 293.032V298H106.997V288.532H108.221V290.26C108.557 289.684 109.025 289.24 109.625 288.928C110.225 288.616 110.915 288.46 111.695 288.46C112.487 288.46 113.171 288.628 113.747 288.964C114.335 289.3 114.773 289.798 115.061 290.458C115.409 289.834 115.907 289.348 116.555 289C117.215 288.64 117.965 288.46 118.805 288.46ZM134.366 293.662H126.446C126.518 294.646 126.896 295.444 127.58 296.056C128.264 296.656 129.128 296.956 130.172 296.956C130.76 296.956 131.3 296.854 131.792 296.65C132.284 296.434 132.71 296.122 133.07 295.714L133.79 296.542C133.37 297.046 132.842 297.43 132.206 297.694C131.582 297.958 130.892 298.09 130.136 298.09C129.164 298.09 128.3 297.886 127.544 297.478C126.8 297.058 126.218 296.482 125.798 295.75C125.378 295.018 125.168 294.19 125.168 293.266C125.168 292.342 125.366 291.514 125.762 290.782C126.17 290.05 126.722 289.48 127.418 289.072C128.126 288.664 128.918 288.46 129.794 288.46C130.67 288.46 131.456 288.664 132.152 289.072C132.848 289.48 133.394 290.05 133.79 290.782C134.186 291.502 134.384 292.33 134.384 293.266L134.366 293.662ZM129.794 289.558C128.882 289.558 128.114 289.852 127.49 290.44C126.878 291.016 126.53 291.772 126.446 292.708H133.16C133.076 291.772 132.722 291.016 132.098 290.44C131.486 289.852 130.718 289.558 129.794 289.558ZM141.809 288.46C142.997 288.46 143.939 288.808 144.635 289.504C145.343 290.188 145.697 291.19 145.697 292.51V298H144.419V292.636C144.419 291.652 144.173 290.902 143.681 290.386C143.189 289.87 142.487 289.612 141.575 289.612C140.555 289.612 139.745 289.918 139.145 290.53C138.557 291.13 138.263 291.964 138.263 293.032V298H136.985V288.532H138.209V290.278C138.557 289.702 139.037 289.258 139.649 288.946C140.273 288.622 140.993 288.46 141.809 288.46ZM154.153 297.424C153.913 297.64 153.613 297.808 153.253 297.928C152.905 298.036 152.539 298.09 152.155 298.09C151.267 298.09 150.583 297.85 150.103 297.37C149.623 296.89 149.383 296.212 149.383 295.336V289.612H147.691V288.532H149.383V286.462H150.661V288.532H153.541V289.612H150.661V295.264C150.661 295.828 150.799 296.26 151.075 296.56C151.363 296.848 151.771 296.992 152.299 296.992C152.563 296.992 152.815 296.95 153.055 296.866C153.307 296.782 153.523 296.662 153.703 296.506L154.153 297.424ZM160.015 298.09C159.103 298.09 158.281 297.886 157.549 297.478C156.817 297.058 156.241 296.482 155.821 295.75C155.401 295.018 155.191 294.19 155.191 293.266C155.191 292.342 155.401 291.514 155.821 290.782C156.241 290.05 156.817 289.48 157.549 289.072C158.281 288.664 159.103 288.46 160.015 288.46C160.927 288.46 161.749 288.664 162.481 289.072C163.213 289.48 163.783 290.05 164.191 290.782C164.611 291.514 164.821 292.342 164.821 293.266C164.821 294.19 164.611 295.018 164.191 295.75C163.783 296.482 163.213 297.058 162.481 297.478C161.749 297.886 160.927 298.09 160.015 298.09ZM160.015 296.956C160.687 296.956 161.287 296.806 161.815 296.506C162.355 296.194 162.775 295.756 163.075 295.192C163.375 294.628 163.525 293.986 163.525 293.266C163.525 292.546 163.375 291.904 163.075 291.34C162.775 290.776 162.355 290.344 161.815 290.044C161.287 289.732 160.687 289.576 160.015 289.576C159.343 289.576 158.737 289.732 158.197 290.044C157.669 290.344 157.249 290.776 156.937 291.34C156.637 291.904 156.487 292.546 156.487 293.266C156.487 293.986 156.637 294.628 156.937 295.192C157.249 295.756 157.669 296.194 158.197 296.506C158.737 296.806 159.343 296.956 160.015 296.956ZM169.968 298.09C169.2 298.09 168.462 297.982 167.754 297.766C167.058 297.538 166.512 297.256 166.116 296.92L166.692 295.912C167.088 296.224 167.586 296.482 168.186 296.686C168.786 296.878 169.41 296.974 170.058 296.974C170.922 296.974 171.558 296.842 171.966 296.578C172.386 296.302 172.596 295.918 172.596 295.426C172.596 295.078 172.482 294.808 172.254 294.616C172.026 294.412 171.738 294.262 171.39 294.166C171.042 294.058 170.58 293.956 170.004 293.86C169.236 293.716 168.618 293.572 168.15 293.428C167.682 293.272 167.28 293.014 166.944 292.654C166.62 292.294 166.458 291.796 166.458 291.16C166.458 290.368 166.788 289.72 167.448 289.216C168.108 288.712 169.026 288.46 170.202 288.46C170.814 288.46 171.426 288.544 172.038 288.712C172.65 288.868 173.154 289.078 173.55 289.342L172.992 290.368C172.212 289.828 171.282 289.558 170.202 289.558C169.386 289.558 168.768 289.702 168.348 289.99C167.94 290.278 167.736 290.656 167.736 291.124C167.736 291.484 167.85 291.772 168.078 291.988C168.318 292.204 168.612 292.366 168.96 292.474C169.308 292.57 169.788 292.672 170.4 292.78C171.156 292.924 171.762 293.068 172.218 293.212C172.674 293.356 173.064 293.602 173.388 293.95C173.712 294.298 173.874 294.778 173.874 295.39C173.874 296.218 173.526 296.878 172.83 297.37C172.146 297.85 171.192 298.09 169.968 298.09ZM189.192 293.662H181.272C181.344 294.646 181.722 295.444 182.406 296.056C183.09 296.656 183.954 296.956 184.998 296.956C185.586 296.956 186.126 296.854 186.618 296.65C187.11 296.434 187.536 296.122 187.896 295.714L188.616 296.542C188.196 297.046 187.668 297.43 187.032 297.694C186.408 297.958 185.718 298.09 184.962 298.09C183.99 298.09 183.126 297.886 182.37 297.478C181.626 297.058 181.044 296.482 180.624 295.75C180.204 295.018 179.994 294.19 179.994 293.266C179.994 292.342 180.192 291.514 180.588 290.782C180.996 290.05 181.548 289.48 182.244 289.072C182.952 288.664 183.744 288.46 184.62 288.46C185.496 288.46 186.282 288.664 186.978 289.072C187.674 289.48 188.22 290.05 188.616 290.782C189.012 291.502 189.21 292.33 189.21 293.266L189.192 293.662ZM184.62 289.558C183.708 289.558 182.94 289.852 182.316 290.44C181.704 291.016 181.356 291.772 181.272 292.708H187.986C187.902 291.772 187.548 291.016 186.924 290.44C186.312 289.852 185.544 289.558 184.62 289.558ZM36.2096 315.662H28.2896C28.3616 316.646 28.7396 317.444 29.4236 318.056C30.1076 318.656 30.9716 318.956 32.0156 318.956C32.6036 318.956 33.1436 318.854 33.6356 318.65C34.1276 318.434 34.5536 318.122 34.9136 317.714L35.6336 318.542C35.2136 319.046 34.6856 319.43 34.0496 319.694C33.4256 319.958 32.7356 320.09 31.9796 320.09C31.0076 320.09 30.1436 319.886 29.3876 319.478C28.6436 319.058 28.0616 318.482 27.6416 317.75C27.2216 317.018 27.0116 316.19 27.0116 315.266C27.0116 314.342 27.2096 313.514 27.6056 312.782C28.0136 312.05 28.5656 311.48 29.2616 311.072C29.9696 310.664 30.7616 310.46 31.6376 310.46C32.5136 310.46 33.2996 310.664 33.9956 311.072C34.6916 311.48 35.2376 312.05 35.6336 312.782C36.0296 313.502 36.2276 314.33 36.2276 315.266L36.2096 315.662ZM31.6376 311.558C30.7256 311.558 29.9576 311.852 29.3336 312.44C28.7216 313.016 28.3736 313.772 28.2896 314.708H35.0036C34.9196 313.772 34.5656 313.016 33.9416 312.44C33.3296 311.852 32.5616 311.558 31.6376 311.558ZM41.3669 320.09C40.5989 320.09 39.8609 319.982 39.1529 319.766C38.4569 319.538 37.9109 319.256 37.5149 318.92L38.0909 317.912C38.4869 318.224 38.9849 318.482 39.5849 318.686C40.1849 318.878 40.8089 318.974 41.4569 318.974C42.3209 318.974 42.9569 318.842 43.3649 318.578C43.7849 318.302 43.9949 317.918 43.9949 317.426C43.9949 317.078 43.8809 316.808 43.6529 316.616C43.4249 316.412 43.1369 316.262 42.7889 316.166C42.4409 316.058 41.9789 315.956 41.4029 315.86C40.6349 315.716 40.0169 315.572 39.5489 315.428C39.0809 315.272 38.6789 315.014 38.3429 314.654C38.0189 314.294 37.8569 313.796 37.8569 313.16C37.8569 312.368 38.1869 311.72 38.8469 311.216C39.5069 310.712 40.4249 310.46 41.6009 310.46C42.2129 310.46 42.8249 310.544 43.4369 310.712C44.0489 310.868 44.5529 311.078 44.9489 311.342L44.3909 312.368C43.6109 311.828 42.6809 311.558 41.6009 311.558C40.7849 311.558 40.1669 311.702 39.7469 311.99C39.3389 312.278 39.1349 312.656 39.1349 313.124C39.1349 313.484 39.2489 313.772 39.4769 313.988C39.7169 314.204 40.0109 314.366 40.3589 314.474C40.7069 314.57 41.1869 314.672 41.7989 314.78C42.5549 314.924 43.1609 315.068 43.6169 315.212C44.0729 315.356 44.4629 315.602 44.7869 315.95C45.1109 316.298 45.2729 316.778 45.2729 317.39C45.2729 318.218 44.9249 318.878 44.2289 319.37C43.5449 319.85 42.5909 320.09 41.3669 320.09ZM52.6215 319.424C52.3815 319.64 52.0815 319.808 51.7215 319.928C51.3735 320.036 51.0075 320.09 50.6235 320.09C49.7355 320.09 49.0515 319.85 48.5715 319.37C48.0915 318.89 47.8515 318.212 47.8515 317.336V311.612H46.1595V310.532H47.8515V308.462H49.1295V310.532H52.0095V311.612H49.1295V317.264C49.1295 317.828 49.2675 318.26 49.5435 318.56C49.8315 318.848 50.2395 318.992 50.7675 318.992C51.0315 318.992 51.2835 318.95 51.5235 318.866C51.7755 318.782 51.9915 318.662 52.1715 318.506L52.6215 319.424ZM56.172 312.386C56.472 311.75 56.916 311.27 57.504 310.946C58.104 310.622 58.842 310.46 59.718 310.46V311.702L59.412 311.684C58.416 311.684 57.636 311.99 57.072 312.602C56.508 313.214 56.226 314.072 56.226 315.176V320H54.948V310.532H56.172V312.386ZM70.7046 310.532V320H69.4806V318.272C69.1446 318.848 68.6826 319.298 68.0946 319.622C67.5066 319.934 66.8346 320.09 66.0786 320.09C64.8426 320.09 63.8646 319.748 63.1446 319.064C62.4366 318.368 62.0826 317.354 62.0826 316.022V310.532H63.3606V315.896C63.3606 316.892 63.6066 317.648 64.0986 318.164C64.5906 318.68 65.2926 318.938 66.2046 318.938C67.2006 318.938 67.9866 318.638 68.5626 318.038C69.1386 317.426 69.4266 316.58 69.4266 315.5V310.532H70.7046ZM79.27 319.424C79.03 319.64 78.73 319.808 78.37 319.928C78.022 320.036 77.656 320.09 77.272 320.09C76.384 320.09 75.7 319.85 75.22 319.37C74.74 318.89 74.5 318.212 74.5 317.336V311.612H72.808V310.532H74.5V308.462H75.778V310.532H78.658V311.612H75.778V317.264C75.778 317.828 75.916 318.26 76.192 318.56C76.48 318.848 76.888 318.992 77.416 318.992C77.68 318.992 77.932 318.95 78.172 318.866C78.424 318.782 78.64 318.662 78.82 318.506L79.27 319.424ZM90.1285 310.532V320H88.9045V318.272C88.5685 318.848 88.1065 319.298 87.5185 319.622C86.9305 319.934 86.2585 320.09 85.5025 320.09C84.2665 320.09 83.2885 319.748 82.5685 319.064C81.8605 318.368 81.5065 317.354 81.5065 316.022V310.532H82.7845V315.896C82.7845 316.892 83.0305 317.648 83.5225 318.164C84.0145 318.68 84.7165 318.938 85.6285 318.938C86.6245 318.938 87.4105 318.638 87.9865 318.038C88.5625 317.426 88.8505 316.58 88.8505 315.5V310.532H90.1285ZM94.9318 312.386C95.2318 311.75 95.6758 311.27 96.2638 310.946C96.8638 310.622 97.6018 310.46 98.4778 310.46V311.702L98.1718 311.684C97.1758 311.684 96.3958 311.99 95.8318 312.602C95.2678 313.214 94.9858 314.072 94.9858 315.176V320H93.7078V310.532H94.9318V312.386ZM104.086 310.46C105.322 310.46 106.27 310.772 106.93 311.396C107.59 312.008 107.92 312.92 107.92 314.132V320H106.696V318.524C106.408 319.016 105.982 319.4 105.418 319.676C104.866 319.952 104.206 320.09 103.438 320.09C102.382 320.09 101.542 319.838 100.918 319.334C100.294 318.83 99.9822 318.164 99.9822 317.336C99.9822 316.532 100.27 315.884 100.846 315.392C101.434 314.9 102.364 314.654 103.636 314.654H106.642V314.078C106.642 313.262 106.414 312.644 105.958 312.224C105.502 311.792 104.836 311.576 103.96 311.576C103.36 311.576 102.784 311.678 102.232 311.882C101.68 312.074 101.206 312.344 100.81 312.692L100.234 311.738C100.714 311.33 101.29 311.018 101.962 310.802C102.634 310.574 103.342 310.46 104.086 310.46ZM103.636 319.082C104.356 319.082 104.974 318.92 105.49 318.596C106.006 318.26 106.39 317.78 106.642 317.156V315.608H103.672C102.052 315.608 101.242 316.172 101.242 317.3C101.242 317.852 101.452 318.29 101.872 318.614C102.292 318.926 102.88 319.082 103.636 319.082ZM123.199 310.46C124.387 310.46 125.317 310.802 125.989 311.486C126.673 312.17 127.015 313.178 127.015 314.51V320H125.737V314.636C125.737 313.652 125.497 312.902 125.017 312.386C124.549 311.87 123.883 311.612 123.019 311.612C122.035 311.612 121.261 311.918 120.697 312.53C120.133 313.13 119.851 313.964 119.851 315.032V320H118.573V314.636C118.573 313.652 118.333 312.902 117.853 312.386C117.385 311.87 116.713 311.612 115.837 311.612C114.865 311.612 114.091 311.918 113.515 312.53C112.951 313.13 112.669 313.964 112.669 315.032V320H111.391V310.532H112.615V312.26C112.951 311.684 113.419 311.24 114.019 310.928C114.619 310.616 115.309 310.46 116.089 310.46C116.881 310.46 117.565 310.628 118.141 310.964C118.729 311.3 119.167 311.798 119.455 312.458C119.803 311.834 120.301 311.348 120.949 311C121.609 310.64 122.359 310.46 123.199 310.46ZM138.76 315.662H130.84C130.912 316.646 131.29 317.444 131.974 318.056C132.658 318.656 133.522 318.956 134.566 318.956C135.154 318.956 135.694 318.854 136.186 318.65C136.678 318.434 137.104 318.122 137.464 317.714L138.184 318.542C137.764 319.046 137.236 319.43 136.6 319.694C135.976 319.958 135.286 320.09 134.53 320.09C133.558 320.09 132.694 319.886 131.938 319.478C131.194 319.058 130.612 318.482 130.192 317.75C129.772 317.018 129.562 316.19 129.562 315.266C129.562 314.342 129.76 313.514 130.156 312.782C130.564 312.05 131.116 311.48 131.812 311.072C132.52 310.664 133.312 310.46 134.188 310.46C135.064 310.46 135.85 310.664 136.546 311.072C137.242 311.48 137.788 312.05 138.184 312.782C138.58 313.502 138.778 314.33 138.778 315.266L138.76 315.662ZM134.188 311.558C133.276 311.558 132.508 311.852 131.884 312.44C131.272 313.016 130.924 313.772 130.84 314.708H137.554C137.47 313.772 137.116 313.016 136.492 312.44C135.88 311.852 135.112 311.558 134.188 311.558ZM146.204 310.46C147.392 310.46 148.334 310.808 149.03 311.504C149.738 312.188 150.092 313.19 150.092 314.51V320H148.814V314.636C148.814 313.652 148.568 312.902 148.076 312.386C147.584 311.87 146.882 311.612 145.97 311.612C144.95 311.612 144.14 311.918 143.54 312.53C142.952 313.13 142.658 313.964 142.658 315.032V320H141.38V310.532H142.604V312.278C142.952 311.702 143.432 311.258 144.044 310.946C144.668 310.622 145.388 310.46 146.204 310.46ZM158.547 319.424C158.307 319.64 158.007 319.808 157.647 319.928C157.299 320.036 156.933 320.09 156.549 320.09C155.661 320.09 154.977 319.85 154.497 319.37C154.017 318.89 153.777 318.212 153.777 317.336V311.612H152.085V310.532H153.777V308.462H155.055V310.532H157.935V311.612H155.055V317.264C155.055 317.828 155.193 318.26 155.469 318.56C155.757 318.848 156.165 318.992 156.693 318.992C156.957 318.992 157.209 318.95 157.449 318.866C157.701 318.782 157.917 318.662 158.097 318.506L158.547 319.424ZM164.41 320.09C163.498 320.09 162.676 319.886 161.944 319.478C161.212 319.058 160.636 318.482 160.216 317.75C159.796 317.018 159.586 316.19 159.586 315.266C159.586 314.342 159.796 313.514 160.216 312.782C160.636 312.05 161.212 311.48 161.944 311.072C162.676 310.664 163.498 310.46 164.41 310.46C165.322 310.46 166.144 310.664 166.876 311.072C167.608 311.48 168.178 312.05 168.586 312.782C169.006 313.514 169.216 314.342 169.216 315.266C169.216 316.19 169.006 317.018 168.586 317.75C168.178 318.482 167.608 319.058 166.876 319.478C166.144 319.886 165.322 320.09 164.41 320.09ZM164.41 318.956C165.082 318.956 165.682 318.806 166.21 318.506C166.75 318.194 167.17 317.756 167.47 317.192C167.77 316.628 167.92 315.986 167.92 315.266C167.92 314.546 167.77 313.904 167.47 313.34C167.17 312.776 166.75 312.344 166.21 312.044C165.682 311.732 165.082 311.576 164.41 311.576C163.738 311.576 163.132 311.732 162.592 312.044C162.064 312.344 161.644 312.776 161.332 313.34C161.032 313.904 160.882 314.546 160.882 315.266C160.882 315.986 161.032 316.628 161.332 317.192C161.644 317.756 162.064 318.194 162.592 318.506C163.132 318.806 163.738 318.956 164.41 318.956ZM185.176 306.644V320H183.952V318.128C183.568 318.764 183.058 319.25 182.422 319.586C181.798 319.922 181.09 320.09 180.298 320.09C179.41 320.09 178.606 319.886 177.886 319.478C177.166 319.07 176.602 318.5 176.194 317.768C175.786 317.036 175.582 316.202 175.582 315.266C175.582 314.33 175.786 313.496 176.194 312.764C176.602 312.032 177.166 311.468 177.886 311.072C178.606 310.664 179.41 310.46 180.298 310.46C181.066 310.46 181.756 310.622 182.368 310.946C182.992 311.258 183.502 311.72 183.898 312.332V306.644H185.176ZM180.406 318.956C181.066 318.956 181.66 318.806 182.188 318.506C182.728 318.194 183.148 317.756 183.448 317.192C183.76 316.628 183.916 315.986 183.916 315.266C183.916 314.546 183.76 313.904 183.448 313.34C183.148 312.776 182.728 312.344 182.188 312.044C181.66 311.732 181.066 311.576 180.406 311.576C179.734 311.576 179.128 311.732 178.588 312.044C178.06 312.344 177.64 312.776 177.328 313.34C177.028 313.904 176.878 314.546 176.878 315.266C176.878 315.986 177.028 316.628 177.328 317.192C177.64 317.756 178.06 318.194 178.588 318.506C179.128 318.806 179.734 318.956 180.406 318.956ZM196.979 315.662H189.059C189.131 316.646 189.509 317.444 190.193 318.056C190.877 318.656 191.741 318.956 192.785 318.956C193.373 318.956 193.913 318.854 194.405 318.65C194.897 318.434 195.323 318.122 195.683 317.714L196.403 318.542C195.983 319.046 195.455 319.43 194.819 319.694C194.195 319.958 193.505 320.09 192.749 320.09C191.777 320.09 190.913 319.886 190.157 319.478C189.413 319.058 188.831 318.482 188.411 317.75C187.991 317.018 187.781 316.19 187.781 315.266C187.781 314.342 187.979 313.514 188.375 312.782C188.783 312.05 189.335 311.48 190.031 311.072C190.739 310.664 191.531 310.46 192.407 310.46C193.283 310.46 194.069 310.664 194.765 311.072C195.461 311.48 196.007 312.05 196.403 312.782C196.799 313.502 196.997 314.33 196.997 315.266L196.979 315.662ZM192.407 311.558C191.495 311.558 190.727 311.852 190.103 312.44C189.491 313.016 189.143 313.772 189.059 314.708H195.773C195.689 313.772 195.335 313.016 194.711 312.44C194.099 311.852 193.331 311.558 192.407 311.558ZM53.5094 342.09C52.5974 342.09 51.7754 341.886 51.0434 341.478C50.3114 341.058 49.7354 340.482 49.3154 339.75C48.8954 339.018 48.6854 338.19 48.6854 337.266C48.6854 336.342 48.8954 335.514 49.3154 334.782C49.7354 334.05 50.3114 333.48 51.0434 333.072C51.7754 332.664 52.5974 332.46 53.5094 332.46C54.4214 332.46 55.2434 332.664 55.9754 333.072C56.7074 333.48 57.2774 334.05 57.6854 334.782C58.1054 335.514 58.3154 336.342 58.3154 337.266C58.3154 338.19 58.1054 339.018 57.6854 339.75C57.2774 340.482 56.7074 341.058 55.9754 341.478C55.2434 341.886 54.4214 342.09 53.5094 342.09ZM53.5094 340.956C54.1814 340.956 54.7814 340.806 55.3094 340.506C55.8494 340.194 56.2694 339.756 56.5694 339.192C56.8694 338.628 57.0194 337.986 57.0194 337.266C57.0194 336.546 56.8694 335.904 56.5694 335.34C56.2694 334.776 55.8494 334.344 55.3094 334.044C54.7814 333.732 54.1814 333.576 53.5094 333.576C52.8374 333.576 52.2314 333.732 51.6914 334.044C51.1634 334.344 50.7434 334.776 50.4314 335.34C50.1314 335.904 49.9814 336.546 49.9814 337.266C49.9814 337.986 50.1314 338.628 50.4314 339.192C50.7434 339.756 51.1634 340.194 51.6914 340.506C52.2314 340.806 52.8374 340.956 53.5094 340.956ZM62.1486 334.386C62.4486 333.75 62.8926 333.27 63.4806 332.946C64.0806 332.622 64.8186 332.46 65.6946 332.46V333.702L65.3886 333.684C64.3926 333.684 63.6126 333.99 63.0486 334.602C62.4846 335.214 62.2026 336.072 62.2026 337.176V342H60.9246V332.532H62.1486V334.386ZM76.6867 332.532V340.848C76.6867 342.456 76.2907 343.644 75.4987 344.412C74.7187 345.192 73.5367 345.582 71.9527 345.582C71.0767 345.582 70.2427 345.45 69.4507 345.186C68.6707 344.934 68.0347 344.58 67.5427 344.124L68.1907 343.152C68.6467 343.56 69.1987 343.878 69.8467 344.106C70.5067 344.334 71.1967 344.448 71.9167 344.448C73.1167 344.448 73.9987 344.166 74.5627 343.602C75.1267 343.05 75.4087 342.186 75.4087 341.01V339.804C75.0127 340.404 74.4907 340.86 73.8427 341.172C73.2067 341.484 72.4987 341.64 71.7187 341.64C70.8307 341.64 70.0207 341.448 69.2887 341.064C68.5687 340.668 67.9987 340.122 67.5787 339.426C67.1707 338.718 66.9667 337.92 66.9667 337.032C66.9667 336.144 67.1707 335.352 67.5787 334.656C67.9987 333.96 68.5687 333.42 69.2887 333.036C70.0087 332.652 70.8187 332.46 71.7187 332.46C72.5227 332.46 73.2487 332.622 73.8967 332.946C74.5447 333.27 75.0667 333.738 75.4627 334.35V332.532H76.6867ZM71.8447 340.506C72.5287 340.506 73.1467 340.362 73.6987 340.074C74.2507 339.774 74.6767 339.36 74.9767 338.832C75.2887 338.304 75.4447 337.704 75.4447 337.032C75.4447 336.36 75.2887 335.766 74.9767 335.25C74.6767 334.722 74.2507 334.314 73.6987 334.026C73.1587 333.726 72.5407 333.576 71.8447 333.576C71.1607 333.576 70.5427 333.72 69.9907 334.008C69.4507 334.296 69.0247 334.704 68.7127 335.232C68.4127 335.76 68.2627 336.36 68.2627 337.032C68.2627 337.704 68.4127 338.304 68.7127 338.832C69.0247 339.36 69.4507 339.774 69.9907 340.074C70.5427 340.362 71.1607 340.506 71.8447 340.506ZM83.5725 332.46C84.8085 332.46 85.7565 332.772 86.4165 333.396C87.0765 334.008 87.4065 334.92 87.4065 336.132V342H86.1825V340.524C85.8945 341.016 85.4685 341.4 84.9045 341.676C84.3525 341.952 83.6925 342.09 82.9245 342.09C81.8685 342.09 81.0285 341.838 80.4045 341.334C79.7805 340.83 79.4685 340.164 79.4685 339.336C79.4685 338.532 79.7565 337.884 80.3325 337.392C80.9205 336.9 81.8505 336.654 83.1225 336.654H86.1285V336.078C86.1285 335.262 85.9005 334.644 85.4445 334.224C84.9885 333.792 84.3225 333.576 83.4465 333.576C82.8465 333.576 82.2705 333.678 81.7185 333.882C81.1665 334.074 80.6925 334.344 80.2965 334.692L79.7205 333.738C80.2005 333.33 80.7765 333.018 81.4485 332.802C82.1205 332.574 82.8285 332.46 83.5725 332.46ZM83.1225 341.082C83.8425 341.082 84.4605 340.92 84.9765 340.596C85.4925 340.26 85.8765 339.78 86.1285 339.156V337.608H83.1585C81.5385 337.608 80.7285 338.172 80.7285 339.3C80.7285 339.852 80.9385 340.29 81.3585 340.614C81.7785 340.926 82.3665 341.082 83.1225 341.082ZM95.7017 332.46C96.8897 332.46 97.8317 332.808 98.5277 333.504C99.2357 334.188 99.5897 335.19 99.5897 336.51V342H98.3117V336.636C98.3117 335.652 98.0657 334.902 97.5737 334.386C97.0817 333.87 96.3797 333.612 95.4677 333.612C94.4477 333.612 93.6377 333.918 93.0377 334.53C92.4497 335.13 92.1557 335.964 92.1557 337.032V342H90.8777V332.532H92.1017V334.278C92.4497 333.702 92.9297 333.258 93.5417 332.946C94.1657 332.622 94.8857 332.46 95.7017 332.46ZM106.965 342.09C106.053 342.09 105.231 341.886 104.499 341.478C103.767 341.058 103.191 340.482 102.771 339.75C102.351 339.018 102.141 338.19 102.141 337.266C102.141 336.342 102.351 335.514 102.771 334.782C103.191 334.05 103.767 333.48 104.499 333.072C105.231 332.664 106.053 332.46 106.965 332.46C107.877 332.46 108.699 332.664 109.431 333.072C110.163 333.48 110.733 334.05 111.141 334.782C111.561 335.514 111.771 336.342 111.771 337.266C111.771 338.19 111.561 339.018 111.141 339.75C110.733 340.482 110.163 341.058 109.431 341.478C108.699 341.886 107.877 342.09 106.965 342.09ZM106.965 340.956C107.637 340.956 108.237 340.806 108.765 340.506C109.305 340.194 109.725 339.756 110.025 339.192C110.325 338.628 110.475 337.986 110.475 337.266C110.475 336.546 110.325 335.904 110.025 335.34C109.725 334.776 109.305 334.344 108.765 334.044C108.237 333.732 107.637 333.576 106.965 333.576C106.293 333.576 105.687 333.732 105.147 334.044C104.619 334.344 104.199 334.776 103.887 335.34C103.587 335.904 103.437 336.546 103.437 337.266C103.437 337.986 103.587 338.628 103.887 339.192C104.199 339.756 104.619 340.194 105.147 340.506C105.687 340.806 106.293 340.956 106.965 340.956ZM123.146 332.532V340.848C123.146 342.456 122.75 343.644 121.958 344.412C121.178 345.192 119.996 345.582 118.412 345.582C117.536 345.582 116.702 345.45 115.91 345.186C115.13 344.934 114.494 344.58 114.002 344.124L114.65 343.152C115.106 343.56 115.658 343.878 116.306 344.106C116.966 344.334 117.656 344.448 118.376 344.448C119.576 344.448 120.458 344.166 121.022 343.602C121.586 343.05 121.868 342.186 121.868 341.01V339.804C121.472 340.404 120.95 340.86 120.302 341.172C119.666 341.484 118.958 341.64 118.178 341.64C117.29 341.64 116.48 341.448 115.748 341.064C115.028 340.668 114.458 340.122 114.038 339.426C113.63 338.718 113.426 337.92 113.426 337.032C113.426 336.144 113.63 335.352 114.038 334.656C114.458 333.96 115.028 333.42 115.748 333.036C116.468 332.652 117.278 332.46 118.178 332.46C118.982 332.46 119.708 332.622 120.356 332.946C121.004 333.27 121.526 333.738 121.922 334.35V332.532H123.146ZM118.304 340.506C118.988 340.506 119.606 340.362 120.158 340.074C120.71 339.774 121.136 339.36 121.436 338.832C121.748 338.304 121.904 337.704 121.904 337.032C121.904 336.36 121.748 335.766 121.436 335.25C121.136 334.722 120.71 334.314 120.158 334.026C119.618 333.726 119 333.576 118.304 333.576C117.62 333.576 117.002 333.72 116.45 334.008C115.91 334.296 115.484 334.704 115.172 335.232C114.872 335.76 114.722 336.36 114.722 337.032C114.722 337.704 114.872 338.304 115.172 338.832C115.484 339.36 115.91 339.774 116.45 340.074C117.002 340.362 117.62 340.506 118.304 340.506ZM127.944 334.386C128.244 333.75 128.688 333.27 129.276 332.946C129.876 332.622 130.614 332.46 131.49 332.46V333.702L131.184 333.684C130.188 333.684 129.408 333.99 128.844 334.602C128.28 335.214 127.998 336.072 127.998 337.176V342H126.72V332.532H127.944V334.386ZM137.098 332.46C138.334 332.46 139.282 332.772 139.942 333.396C140.602 334.008 140.932 334.92 140.932 336.132V342H139.708V340.524C139.42 341.016 138.994 341.4 138.43 341.676C137.878 341.952 137.218 342.09 136.45 342.09C135.394 342.09 134.554 341.838 133.93 341.334C133.306 340.83 132.994 340.164 132.994 339.336C132.994 338.532 133.282 337.884 133.858 337.392C134.446 336.9 135.376 336.654 136.648 336.654H139.654V336.078C139.654 335.262 139.426 334.644 138.97 334.224C138.514 333.792 137.848 333.576 136.972 333.576C136.372 333.576 135.796 333.678 135.244 333.882C134.692 334.074 134.218 334.344 133.822 334.692L133.246 333.738C133.726 333.33 134.302 333.018 134.974 332.802C135.646 332.574 136.354 332.46 137.098 332.46ZM136.648 341.082C137.368 341.082 137.986 340.92 138.502 340.596C139.018 340.26 139.402 339.78 139.654 339.156V337.608H136.684C135.064 337.608 134.254 338.172 134.254 339.3C134.254 339.852 134.464 340.29 134.884 340.614C135.304 340.926 135.892 341.082 136.648 341.082ZM156.211 332.46C157.399 332.46 158.329 332.802 159.001 333.486C159.685 334.17 160.027 335.178 160.027 336.51V342H158.749V336.636C158.749 335.652 158.509 334.902 158.029 334.386C157.561 333.87 156.895 333.612 156.031 333.612C155.047 333.612 154.273 333.918 153.709 334.53C153.145 335.13 152.863 335.964 152.863 337.032V342H151.585V336.636C151.585 335.652 151.345 334.902 150.865 334.386C150.397 333.87 149.725 333.612 148.849 333.612C147.877 333.612 147.103 333.918 146.527 334.53C145.963 335.13 145.681 335.964 145.681 337.032V342H144.403V332.532H145.627V334.26C145.963 333.684 146.431 333.24 147.031 332.928C147.631 332.616 148.321 332.46 149.101 332.46C149.893 332.46 150.577 332.628 151.153 332.964C151.741 333.3 152.179 333.798 152.467 334.458C152.815 333.834 153.313 333.348 153.961 333C154.621 332.64 155.371 332.46 156.211 332.46ZM166.805 332.46C168.041 332.46 168.989 332.772 169.649 333.396C170.309 334.008 170.639 334.92 170.639 336.132V342H169.415V340.524C169.127 341.016 168.701 341.4 168.137 341.676C167.585 341.952 166.925 342.09 166.157 342.09C165.101 342.09 164.261 341.838 163.637 341.334C163.013 340.83 162.701 340.164 162.701 339.336C162.701 338.532 162.989 337.884 163.565 337.392C164.153 336.9 165.083 336.654 166.355 336.654H169.361V336.078C169.361 335.262 169.133 334.644 168.677 334.224C168.221 333.792 167.555 333.576 166.679 333.576C166.079 333.576 165.503 333.678 164.951 333.882C164.399 334.074 163.925 334.344 163.529 334.692L162.953 333.738C163.433 333.33 164.009 333.018 164.681 332.802C165.353 332.574 166.061 332.46 166.805 332.46ZM166.355 341.082C167.075 341.082 167.693 340.92 168.209 340.596C168.725 340.26 169.109 339.78 169.361 339.156V337.608H166.391C164.771 337.608 163.961 338.172 163.961 339.3C163.961 339.852 164.171 340.29 164.591 340.614C165.011 340.926 165.599 341.082 166.355 341.082ZM174.236 342.09C173.972 342.09 173.744 341.994 173.552 341.802C173.372 341.61 173.282 341.376 173.282 341.1C173.282 340.824 173.372 340.596 173.552 340.416C173.744 340.224 173.972 340.128 174.236 340.128C174.5 340.128 174.728 340.224 174.92 340.416C175.112 340.596 175.208 340.824 175.208 341.1C175.208 341.376 175.112 341.61 174.92 341.802C174.728 341.994 174.5 342.09 174.236 342.09Z" fill="#1C1F3D"/>
<path d="M61.7936 212.2C63.3136 212.2 64.6336 212.456 65.7536 212.968C66.8736 213.464 67.7376 214.184 68.3456 215.128C68.9536 216.056 69.2576 217.152 69.2576 218.416C69.2576 219.68 68.9536 220.776 68.3456 221.704C67.7376 222.632 66.8736 223.352 65.7536 223.864C64.6336 224.36 63.3136 224.608 61.7936 224.608H58.8656V229H54.1136V212.2H61.7936ZM61.5056 220.864C62.4816 220.864 63.2176 220.656 63.7136 220.24C64.2096 219.808 64.4576 219.2 64.4576 218.416C64.4576 217.632 64.2096 217.024 63.7136 216.592C63.2176 216.16 62.4816 215.944 61.5056 215.944H58.8656V220.864H61.5056ZM85.0625 225.328V229H71.5745V212.2H84.7505V215.872H76.2785V218.704H83.7425V222.256H76.2785V225.328H85.0625ZM93.6035 229.336C92.2435 229.336 90.9235 229.168 89.6435 228.832C88.3635 228.496 87.3235 228.048 86.5235 227.488L88.0835 223.984C88.8355 224.48 89.7075 224.88 90.6995 225.184C91.6915 225.488 92.6675 225.64 93.6275 225.64C95.4515 225.64 96.3635 225.184 96.3635 224.272C96.3635 223.792 96.0995 223.44 95.5715 223.216C95.0595 222.976 94.2275 222.728 93.0755 222.472C91.8115 222.2 90.7555 221.912 89.9075 221.608C89.0595 221.288 88.3315 220.784 87.7235 220.096C87.1155 219.408 86.8115 218.48 86.8115 217.312C86.8115 216.288 87.0915 215.368 87.6515 214.552C88.2115 213.72 89.0435 213.064 90.1475 212.584C91.2675 212.104 92.6355 211.864 94.2515 211.864C95.3555 211.864 96.4435 211.992 97.5155 212.248C98.5875 212.488 99.5315 212.848 100.348 213.328L98.8835 216.856C97.2835 215.992 95.7315 215.56 94.2275 215.56C93.2835 215.56 92.5955 215.704 92.1635 215.992C91.7315 216.264 91.5155 216.624 91.5155 217.072C91.5155 217.52 91.7715 217.856 92.2835 218.08C92.7955 218.304 93.6195 218.536 94.7555 218.776C96.0355 219.048 97.0915 219.344 97.9235 219.664C98.7715 219.968 99.4995 220.464 100.108 221.152C100.732 221.824 101.044 222.744 101.044 223.912C101.044 224.92 100.764 225.832 100.204 226.648C99.6435 227.464 98.8035 228.12 97.6835 228.616C96.5635 229.096 95.2035 229.336 93.6035 229.336ZM109.143 229.336C107.783 229.336 106.463 229.168 105.183 228.832C103.903 228.496 102.863 228.048 102.063 227.488L103.623 223.984C104.375 224.48 105.247 224.88 106.239 225.184C107.231 225.488 108.207 225.64 109.167 225.64C110.991 225.64 111.903 225.184 111.903 224.272C111.903 223.792 111.639 223.44 111.111 223.216C110.599 222.976 109.767 222.728 108.615 222.472C107.351 222.2 106.295 221.912 105.447 221.608C104.599 221.288 103.871 220.784 103.263 220.096C102.655 219.408 102.351 218.48 102.351 217.312C102.351 216.288 102.631 215.368 103.191 214.552C103.751 213.72 104.583 213.064 105.687 212.584C106.807 212.104 108.175 211.864 109.791 211.864C110.895 211.864 111.983 211.992 113.055 212.248C114.127 212.488 115.071 212.848 115.887 213.328L114.423 216.856C112.823 215.992 111.271 215.56 109.767 215.56C108.823 215.56 108.135 215.704 107.703 215.992C107.271 216.264 107.055 216.624 107.055 217.072C107.055 217.52 107.311 217.856 107.823 218.08C108.335 218.304 109.159 218.536 110.295 218.776C111.575 219.048 112.631 219.344 113.463 219.664C114.311 219.968 115.039 220.464 115.647 221.152C116.271 221.824 116.583 222.744 116.583 223.912C116.583 224.92 116.303 225.832 115.743 226.648C115.183 227.464 114.343 228.12 113.223 228.616C112.103 229.096 110.743 229.336 109.143 229.336ZM127.25 229.336C125.474 229.336 123.874 228.96 122.45 228.208C121.042 227.456 119.93 226.416 119.114 225.088C118.314 223.76 117.914 222.264 117.914 220.6C117.914 218.936 118.314 217.44 119.114 216.112C119.93 214.784 121.042 213.744 122.45 212.992C123.874 212.24 125.474 211.864 127.25 211.864C129.026 211.864 130.618 212.24 132.026 212.992C133.45 213.744 134.562 214.784 135.362 216.112C136.178 217.44 136.586 218.936 136.586 220.6C136.586 222.264 136.178 223.76 135.362 225.088C134.562 226.416 133.45 227.456 132.026 228.208C130.618 228.96 129.026 229.336 127.25 229.336ZM127.25 225.4C128.098 225.4 128.866 225.2 129.554 224.8C130.242 224.4 130.786 223.84 131.186 223.12C131.586 222.384 131.786 221.544 131.786 220.6C131.786 219.656 131.586 218.824 131.186 218.104C130.786 217.368 130.242 216.8 129.554 216.4C128.866 216 128.098 215.8 127.25 215.8C126.402 215.8 125.634 216 124.946 216.4C124.258 216.8 123.714 217.368 123.314 218.104C122.914 218.824 122.714 219.656 122.714 220.6C122.714 221.544 122.914 222.384 123.314 223.12C123.714 223.84 124.258 224.4 124.946 224.8C125.634 225.2 126.402 225.4 127.25 225.4ZM150.096 225.736H142.992L141.672 229H136.824L144.24 212.2H148.92L156.36 229H151.416L150.096 225.736ZM148.704 222.232L146.544 216.856L144.384 222.232H148.704ZM163.611 229.336C162.251 229.336 160.931 229.168 159.651 228.832C158.371 228.496 157.331 228.048 156.531 227.488L158.091 223.984C158.843 224.48 159.715 224.88 160.707 225.184C161.699 225.488 162.675 225.64 163.635 225.64C165.459 225.64 166.371 225.184 166.371 224.272C166.371 223.792 166.107 223.44 165.579 223.216C165.067 222.976 164.235 222.728 163.083 222.472C161.819 222.2 160.763 221.912 159.915 221.608C159.067 221.288 158.339 220.784 157.731 220.096C157.123 219.408 156.819 218.48 156.819 217.312C156.819 216.288 157.099 215.368 157.659 214.552C158.219 213.72 159.051 213.064 160.155 212.584C161.275 212.104 162.643 211.864 164.259 211.864C165.363 211.864 166.451 211.992 167.523 212.248C168.595 212.488 169.539 212.848 170.355 213.328L168.891 216.856C167.291 215.992 165.739 215.56 164.235 215.56C163.291 215.56 162.603 215.704 162.171 215.992C161.739 216.264 161.523 216.624 161.523 217.072C161.523 217.52 161.779 217.856 162.291 218.08C162.803 218.304 163.627 218.536 164.763 218.776C166.043 219.048 167.099 219.344 167.931 219.664C168.779 219.968 169.507 220.464 170.115 221.152C170.739 221.824 171.051 222.744 171.051 223.912C171.051 224.92 170.771 225.832 170.211 226.648C169.651 227.464 168.811 228.12 167.691 228.616C166.571 229.096 165.211 229.336 163.611 229.336Z" fill="white"/>
<path d="M130.144 189.996C128.402 189.299 127.907 188.08 127.911 186.44C127.957 170.962 127.966 155.484 127.939 140.005C127.939 137.79 129.025 136.818 131.524 136.818C137.026 136.818 142.569 136.867 148.089 136.794C149.923 136.769 151.253 137.255 152 138.778V188.032C151.563 188.909 150.77 189.61 149.776 189.996H130.144ZM145.884 142.241H134.092V184.577H145.884V142.241Z" fill="#1D1D1B"/>
<path d="M101.686 189.996C99.8934 189.388 99.2745 188.226 99.2791 186.55C99.3249 175.348 99.2791 164.146 99.2791 152.936C99.2791 150.587 100.375 149.624 103.057 149.624H119.627C122.176 149.624 123.294 150.62 123.294 152.863C123.294 164.093 123.271 175.324 123.294 186.554C123.294 188.226 122.68 189.388 120.887 190L101.686 189.996ZM117.206 184.594V155.03H105.414V184.594H117.206Z" fill="#1D1D1B"/>
<path d="M73.4208 189.996C71.6235 189.393 71 188.25 71 186.562C71.0642 178.762 71.0275 170.962 71.0275 163.162C71.0275 161.218 72.1875 160.161 74.3698 160.157C80.1406 160.157 85.9144 160.157 91.6913 160.157C93.8645 160.157 95.0703 161.23 95.0703 163.146C95.0703 170.921 95.0382 178.693 95.0978 186.465C95.0978 188.165 94.5064 189.36 92.6816 189.996H73.4208ZM77.1528 184.399H88.9175V165.511H77.1528V184.399Z" fill="#1D1D1B"/>
<path d="M135.861 115.447C135.664 113.981 135.476 112.54 135.284 111.073C135.254 110.845 135.327 110.616 135.488 110.436C135.648 110.255 135.883 110.138 136.141 110.11C139.011 109.81 141.785 109.51 144.559 109.223C145.48 109.106 146.407 109.032 147.337 109C148.924 109 150.45 110.004 150.652 111.361C151.111 114.508 151.5 117.812 151.895 120.991C151.923 121.212 151.854 121.434 151.701 121.61C151.548 121.786 151.323 121.903 151.074 121.935L146.15 122.607C146.021 122.624 145.891 122.619 145.765 122.591C145.639 122.563 145.52 122.514 145.416 122.445C145.312 122.377 145.225 122.29 145.158 122.192C145.092 122.093 145.049 121.984 145.031 121.87C144.935 121.218 144.834 120.57 144.719 119.813C135.064 129.208 123.909 136.624 111.622 142.727C99.7049 148.687 86.8685 153.081 73.5171 155.771C73.3789 155.799 73.2359 155.801 73.0964 155.78C72.9569 155.758 72.8236 155.712 72.7042 155.645C72.5849 155.578 72.4818 155.49 72.401 155.387C72.3202 155.284 72.2632 155.169 72.2333 155.046L71.2201 150.907C71.1609 150.667 71.2108 150.416 71.3591 150.207C71.5075 149.999 71.7423 149.851 72.0133 149.794C97.9313 144.197 120.901 133.019 139.41 115.949L136.957 116.209C136.829 116.223 136.698 116.214 136.573 116.184C136.448 116.153 136.332 116.101 136.23 116.03C136.128 115.959 136.043 115.871 135.98 115.771C135.916 115.671 135.876 115.561 135.861 115.447V115.447Z" fill="#1D1D1B"/>
</svg>
