<svg xmlns="http://www.w3.org/2000/svg" viewBox="0 0 814.7 274.02"><defs><style>.cls-1{fill:#fca628;}</style></defs><g id="Camada_2" data-name="Camada 2"><g id="Camada_1-2" data-name="Camada 1"><path class="cls-1" d="M14,127.52a131.66,131.66,0,0,1,16.13-63.3A127.45,127.45,0,0,0,209.8,243.84,131.57,131.57,0,0,1,146.49,260C73.46,260,14,200.56,14,127.52Z"/><path class="cls-1" d="M146.49,0A126.89,126.89,0,0,0,64.22,30.18,131.56,131.56,0,0,1,127.52,14C200.56,14,260,73.46,260,146.49a131.68,131.68,0,0,1-16.14,63.31A127.45,127.45,0,0,0,146.49,0Z"/><path class="cls-1" d="M149.23,222.46a67.38,67.38,0,0,0,52.45-25,67.09,67.09,0,0,1-42.05,15.13h-.54A67.55,67.55,0,1,1,206.85,97.3l14-14,5.77-5.76V226.64A127.45,127.45,0,0,0,47.38,47.38,126.9,126.9,0,0,0,19,127.52c0,66.51,51.18,121.29,116.23,127V221A67.52,67.52,0,0,0,149.23,222.46Z"/><path class="cls-1" d="M159.09,111.28a33.77,33.77,0,0,0-23.89,57.65v0h0a33.77,33.77,0,1,0,23.88-57.66Z"/><path class="cls-1" d="M302.28,242.44v17.5H300.5v-14l-6.87,11.78h-.88L285.88,246v13.92H284.1v-17.5h1.53l7.6,13,7.52-13Z"/><path class="cls-1" d="M328.05,255.27H318.3l-2.1,4.67h-1.92l8-17.5h1.82l8,17.5h-2Zm-.67-1.5-4.2-9.4-4.2,9.4Z"/><path class="cls-1" d="M356.05,259.94l-4-5.62a12.62,12.62,0,0,1-1.4.07H346v5.55H344.1v-17.5h6.55a7.92,7.92,0,0,1,5.25,1.6,5.45,5.45,0,0,1,1.9,4.4,5.39,5.39,0,0,1-4,5.5l4.28,6Zm-1.47-8.27a4.53,4.53,0,0,0,0-6.49,6.09,6.09,0,0,0-4-1.14H346v8.78h4.65A6,6,0,0,0,354.58,251.67Z"/><path class="cls-1" d="M376.7,251.72l-3.57,3.62v4.6h-1.85v-17.5h1.85V253l10.27-10.58h2.13L378,250.37l8.1,9.57h-2.2Z"/><path class="cls-1" d="M410.53,258.34v1.6H398.15v-17.5h12V244H400v6.23h9.05v1.57H400v6.5Z"/><path class="cls-1" d="M427.38,244h-6.15v-1.6h14.15V244h-6.15v15.9h-1.85Z"/><path class="cls-1" d="M447.43,242.44h1.85v17.5h-1.85Z"/><path class="cls-1" d="M478.7,242.44v17.5h-1.52l-11.25-14.2v14.2h-1.85v-17.5h1.52l11.28,14.2v-14.2Z"/><path class="cls-1" d="M505.83,251.19h1.77v6.68a8.35,8.35,0,0,1-2.9,1.65,10.82,10.82,0,0,1-3.52.57,9.66,9.66,0,0,1-4.73-1.15,8.41,8.41,0,0,1-3.3-3.18,9.28,9.28,0,0,1,0-9.13,8.51,8.51,0,0,1,3.3-3.19,9.82,9.82,0,0,1,4.75-1.15,10.38,10.38,0,0,1,3.68.64,7.38,7.38,0,0,1,2.82,1.89L506.55,246a7.21,7.21,0,0,0-5.27-2.05,7.91,7.91,0,0,0-3.84.94,6.93,6.93,0,0,0-2.69,2.6,7.21,7.21,0,0,0-1,3.71,7.12,7.12,0,0,0,1,3.7,7,7,0,0,0,2.68,2.6,8.31,8.31,0,0,0,8.4-.4Z"/><path class="cls-1" d="M559.38,242.53h1.85V260h-1.85Z"/><path class="cls-1" d="M590.65,242.53V260h-1.52l-11.25-14.2V260H576v-17.5h1.52l11.28,14.2v-14.2Z"/><path class="cls-1" d="M608.85,244.13H602.7v-1.6h14.15v1.6H610.7V260h-1.85Z"/><path class="cls-1" d="M641.28,258.43V260H628.9v-17.5h12v1.6H630.75v6.23h9v1.57h-9v6.5Z"/><path class="cls-1" d="M654.73,242.53h1.85v15.9h9.8V260H654.73Z"/><path class="cls-1" d="M678.55,242.53h1.85V260h-1.85Z"/><path class="cls-1" d="M707.53,251.28h1.77V258a8.35,8.35,0,0,1-2.9,1.65,10.82,10.82,0,0,1-3.52.57,9.66,9.66,0,0,1-4.73-1.15,8.48,8.48,0,0,1-3.3-3.18,9.28,9.28,0,0,1,0-9.13,8.51,8.51,0,0,1,3.3-3.19,9.82,9.82,0,0,1,4.75-1.15,10.38,10.38,0,0,1,3.68.64,7.38,7.38,0,0,1,2.82,1.89l-1.15,1.17A7.21,7.21,0,0,0,703,244a7.91,7.91,0,0,0-3.84.94,6.93,6.93,0,0,0-2.69,2.6,7.21,7.21,0,0,0-1,3.71,7.12,7.12,0,0,0,1,3.7,7,7,0,0,0,2.68,2.6,8.31,8.31,0,0,0,8.4-.4Z"/><path class="cls-1" d="M736,258.43V260H723.63v-17.5h12v1.6H725.48v6.23h9v1.57h-9v6.5Z"/><path class="cls-1" d="M764.08,242.53V260h-1.53l-11.25-14.2V260h-1.85v-17.5H751l11.27,14.2v-14.2Z"/><path class="cls-1" d="M782.28,244.13h-6.15v-1.6h14.15v1.6h-6.15V260h-1.85Z"/><path class="cls-1" d="M814.7,258.43V260H802.33v-17.5h12v1.6H804.18v6.23h9.05v1.57h-9.05v6.5Z"/><path class="cls-1" d="M520.58,77.72V112H486.32v34.26a34.28,34.28,0,0,0,33.38,34.26h.88v34.26a68.78,68.78,0,0,1-17.21-2.18,68.59,68.59,0,0,1-51.32-66.35V112H417.79V77.72h34.26V32.33h34.27V77.72Z"/><path class="cls-1" d="M746.17,77.76a68.53,68.53,0,1,0,68.53,68.53A68.53,68.53,0,0,0,746.17,77.76Zm0,102.8a34.27,34.27,0,1,1,34.27-34.27A34.26,34.26,0,0,1,746.17,180.56Z"/><path class="cls-1" d="M647.57,97.83a68.53,68.53,0,0,0-96.91,0h0a68.53,68.53,0,0,0,96.92,96.92l20.07,20.06v-137Zm-48.46,82.72a34.28,34.28,0,1,1,24.23-10A34.15,34.15,0,0,1,599.11,180.55Z"/><rect class="cls-1" x="566" y="32.33" width="66.22" height="28.29"/><path class="cls-1" d="M373.79,172.58c0-7.55-9.08-7.47-9.08-7.47l-37.14,0a42.2,42.2,0,0,1-17-3.44,43.75,43.75,0,0,1-13.83-9.39,44.41,44.41,0,0,1-9.3-13.88,44.48,44.48,0,0,1,0-34,44.54,44.54,0,0,1,40.1-26.83h80.28l0,34.47-80.71.3a8.79,8.79,0,0,0-8.74,8.76,8.78,8.78,0,0,0,2.58,6.37,8.36,8.36,0,0,0,6.18,2.63l37.07,0a47.23,47.23,0,0,1,16.9,3A44.28,44.28,0,0,1,395,142a39.75,39.75,0,0,1,9.35,12.92,39.06,39.06,0,0,1,3.47,16.5,41.61,41.61,0,0,1-3.44,17A45.6,45.6,0,0,1,395,202.16c-3.93,4-9,6.44-14.28,8.71a42.55,42.55,0,0,1-16.89,3.4l-79.84.08V179.88l80.69,0S373.79,180.13,373.79,172.58Z"/></g></g></svg>