<svg xmlns="http://www.w3.org/2000/svg" viewBox="0 0 983.13 226.57"><defs><style>.cls-1{fill:#fff;}</style></defs><g id="Camada_2" data-name="Camada 2"><g id="Camada_1-2" data-name="Camada 1"><path class="cls-1" d="M746,86v17.5h-1.78v-14l-6.87,11.78h-.88l-6.87-11.7v13.92h-1.78V86h1.53l7.6,13,7.52-13Z"/><path class="cls-1" d="M771.76,98.81H762l-2.1,4.67H758L766,86h1.82l8,17.5h-1.95Zm-.67-1.5-4.2-9.4-4.2,9.4Z"/><path class="cls-1" d="M799.76,103.48l-4-5.62a12.62,12.62,0,0,1-1.4.07h-4.7v5.55h-1.85V86h6.55a7.86,7.86,0,0,1,5.25,1.6,5.43,5.43,0,0,1,1.9,4.4,5.62,5.62,0,0,1-1,3.46,5.74,5.74,0,0,1-3,2l4.28,6Zm-1.47-8.27a4.53,4.53,0,0,0,0-6.49,6.09,6.09,0,0,0-4-1.14h-4.65v8.78h4.65A6.09,6.09,0,0,0,798.29,95.21Z"/><path class="cls-1" d="M820.41,95.26l-3.57,3.62v4.6H815V86h1.85V96.56L827.11,86h2.13l-7.58,7.93,8.1,9.57h-2.2Z"/><path class="cls-1" d="M854.24,101.88v1.6H841.86V86h12v1.6H843.71v6.23h9v1.57h-9v6.5Z"/><path class="cls-1" d="M871.09,87.58h-6.15V86h14.15v1.6h-6.15v15.9h-1.85Z"/><path class="cls-1" d="M891.14,86H893v17.5h-1.85Z"/><path class="cls-1" d="M922.41,86v17.5h-1.52l-11.25-14.2v14.2h-1.85V86h1.52l11.28,14.2V86Z"/><path class="cls-1" d="M949.53,94.73h1.78v6.68a8.78,8.78,0,0,1-2.9,1.65,10.87,10.87,0,0,1-3.52.57,9.66,9.66,0,0,1-4.73-1.15,8.51,8.51,0,0,1-3.3-3.19,9.26,9.26,0,0,1,0-9.12,8.51,8.51,0,0,1,3.3-3.19,9.68,9.68,0,0,1,4.75-1.15,10.2,10.2,0,0,1,3.68.64,7.24,7.24,0,0,1,2.82,1.89l-1.15,1.17a7.17,7.17,0,0,0-5.27-2,7.8,7.8,0,0,0-3.84.94,6.86,6.86,0,0,0-2.69,2.6,7.56,7.56,0,0,0,0,7.41,7,7,0,0,0,2.68,2.6,7.7,7.7,0,0,0,3.82,1,7.61,7.61,0,0,0,4.57-1.35Z"/><path class="cls-1" d="M727.81,123.78h1.85v17.5h-1.85Z"/><path class="cls-1" d="M759.09,123.78v17.5h-1.53l-11.25-14.2v14.2h-1.85v-17.5H746L757.26,138v-14.2Z"/><path class="cls-1" d="M777.29,125.38h-6.15v-1.6h14.15v1.6h-6.15v15.9h-1.85Z"/><path class="cls-1" d="M809.71,139.68v1.6H797.34v-17.5h12v1.6H799.19v6.23h9v1.57h-9v6.5Z"/><path class="cls-1" d="M823.16,123.78H825v15.9h9.8v1.6H823.16Z"/><path class="cls-1" d="M847,123.78h1.85v17.5H847Z"/><path class="cls-1" d="M876,132.53h1.78v6.68a8.88,8.88,0,0,1-2.9,1.65,10.93,10.93,0,0,1-3.53.57,9.62,9.62,0,0,1-4.72-1.15,8.51,8.51,0,0,1-3.3-3.19,9.26,9.26,0,0,1,0-9.12,8.51,8.51,0,0,1,3.3-3.19,9.68,9.68,0,0,1,4.75-1.15,10.14,10.14,0,0,1,3.67.64,7.2,7.2,0,0,1,2.83,1.89l-1.15,1.17a7.21,7.21,0,0,0-5.28-2,7.8,7.8,0,0,0-3.84.94,6.84,6.84,0,0,0-2.68,2.6,7.49,7.49,0,0,0,0,7.41,7,7,0,0,0,2.67,2.6,7.74,7.74,0,0,0,3.83.95,7.61,7.61,0,0,0,4.57-1.35Z"/><path class="cls-1" d="M904.44,139.68v1.6H892.06v-17.5h12v1.6H893.91v6.23H903v1.57h-9.05v6.5Z"/><path class="cls-1" d="M932.51,123.78v17.5H931l-11.25-14.2v14.2h-1.85v-17.5h1.52L930.68,138v-14.2Z"/><path class="cls-1" d="M950.71,125.38h-6.15v-1.6h14.15v1.6h-6.15v15.9h-1.85Z"/><path class="cls-1" d="M983.13,139.68v1.6H970.76v-17.5h12v1.6H972.61v6.23h9v1.57h-9v6.5Z"/><path class="cls-1" d="M131.21,51.09,117,65.32a68.54,68.54,0,1,0-48.45,117h.55a68.1,68.1,0,0,0,42.66-15.35,68.64,68.64,0,0,1-67.45,23.88v34.76a102.77,102.77,0,0,0,79-22s0,0,0,0c1-.79,2-1.62,2.93-2.46l.2-.19a34.14,34.14,0,0,0,10.63-24.8V45.24ZM44.3,138h0v0a34.26,34.26,0,1,1,24.24,10A34.18,34.18,0,0,1,44.29,138Z"/><path class="cls-1" d="M383.69,45.39V79.7H349.43V114a34.28,34.28,0,0,0,33.38,34.26h.88v34.26a68.78,68.78,0,0,1-17.21-2.18A68.59,68.59,0,0,1,315.16,114V79.7H280.9V45.39h34.26V0h34.27V45.39Z"/><path class="cls-1" d="M609.28,45.43A68.53,68.53,0,1,0,677.81,114,68.53,68.53,0,0,0,609.28,45.43Zm0,102.8A34.27,34.27,0,1,1,643.55,114,34.26,34.26,0,0,1,609.28,148.23Z"/><path class="cls-1" d="M510.68,65.5a68.53,68.53,0,0,0-96.91,0h0a68.53,68.53,0,0,0,96.92,96.92l20.07,20.06v-137Zm-48.46,82.72a34.28,34.28,0,1,1,24.23-10A34.15,34.15,0,0,1,462.22,148.22Z"/><rect class="cls-1" x="429.12" width="66.22" height="28.29"/><path class="cls-1" d="M236.9,140.25c0-7.55-9.08-7.47-9.08-7.47l-37.14,0a42.2,42.2,0,0,1-17-3.44,43.73,43.73,0,0,1-23.12-23.27,44.42,44.42,0,0,1,0-34,44.54,44.54,0,0,1,40.1-26.83h80.28l0,34.47-80.71.3a8.79,8.79,0,0,0-8.74,8.76,8.82,8.82,0,0,0,2.58,6.37,8.36,8.36,0,0,0,6.18,2.63l37.07,0a47.19,47.19,0,0,1,16.9,3,44.28,44.28,0,0,1,13.88,8.9,39.75,39.75,0,0,1,9.35,12.92A39.06,39.06,0,0,1,270.9,139a41.61,41.61,0,0,1-3.44,17,45.24,45.24,0,0,1-9.32,13.83c-3.92,4-9,6.44-14.28,8.71a42.55,42.55,0,0,1-16.89,3.4l-79.84.08V147.55l80.69,0S236.9,147.8,236.9,140.25Z"/></g></g></svg>