<svg xmlns="http://www.w3.org/2000/svg" viewBox="0 0 274.02 274.02"><defs><style>.cls-1{fill:#fff;}</style></defs><g id="Camada_2" data-name="Camada 2"><g id="Camada_1-2" data-name="Camada 1"><path class="cls-1" d="M14,127.52a131.66,131.66,0,0,1,16.13-63.3A127.45,127.45,0,0,0,209.8,243.84,131.57,131.57,0,0,1,146.49,260C73.46,260,14,200.56,14,127.52Z"/><path class="cls-1" d="M146.49,0A126.89,126.89,0,0,0,64.22,30.18,131.56,131.56,0,0,1,127.52,14C200.56,14,260,73.46,260,146.49a131.68,131.68,0,0,1-16.14,63.31A127.45,127.45,0,0,0,146.49,0Z"/><path class="cls-1" d="M149.23,222.46a67.38,67.38,0,0,0,52.45-25,67.09,67.09,0,0,1-42.05,15.13h-.54A67.55,67.55,0,1,1,206.85,97.3l14-14,5.77-5.76V226.64A127.45,127.45,0,0,0,47.38,47.38,126.9,126.9,0,0,0,19,127.52c0,66.51,51.18,121.29,116.23,127V221A67.52,67.52,0,0,0,149.23,222.46Z"/><path class="cls-1" d="M159.09,111.28a33.77,33.77,0,0,0-23.89,57.65v0h0a33.77,33.77,0,1,0,23.88-57.66Z"/></g></g></svg>